<svg width="32" height="33" viewBox="0 0 32 33" fill="none" xmlns="http://www.w3.org/2000/svg">
    <rect x="0.716418" y="1.04175" width="30.5672" height="30.5672" rx="4.53731" fill="white" stroke="#53B3E5" stroke-width="1.43284"/>
    <path d="M15.9999 5.57906C17.4112 5.57906 18.8086 5.85702 20.1124 6.39707C21.4161 6.93712 22.6008 7.72868 23.5987 8.72657C24.5966 9.72445 25.3881 10.9091 25.9282 12.2129C26.4682 13.5167 26.7462 14.9141 26.7462 16.3253C26.7462 17.7365 26.4682 19.134 25.9282 20.4377C25.3881 21.7415 24.5966 22.9262 23.5987 23.9241C22.6008 24.922 21.4161 25.7135 20.1123 26.2536C18.8085 26.7936 17.4111 27.0716 15.9999 27.0716L15.9999 23.504C16.9426 23.504 17.8761 23.3183 18.7471 22.9576C19.618 22.5968 20.4094 22.068 21.076 21.4014C21.7426 20.7348 22.2714 19.9434 22.6322 19.0725C22.9929 18.2015 23.1786 17.268 23.1786 16.3253C23.1786 15.3826 22.9929 14.4491 22.6322 13.5782C22.2714 12.7072 21.7426 11.9158 21.076 11.2492C20.4094 10.5826 19.618 10.0539 18.7471 9.69309C17.8761 9.33233 16.9426 9.14665 15.9999 9.14665V5.57906Z" fill="#53B3E5"/>
    <path d="M16.0001 5.57906C14.5888 5.57906 13.1914 5.85702 11.8876 6.39707C10.5839 6.93712 9.39919 7.72868 8.40131 8.72657C7.40343 9.72445 6.61186 10.9091 6.07181 12.2129C5.53176 13.5167 5.2538 14.9141 5.2538 16.3253C5.2538 17.7365 5.53176 19.134 6.07181 20.4377C6.61187 21.7415 7.40343 22.9262 8.40132 23.9241C9.3992 24.922 10.5839 25.7135 11.8877 26.2536C13.1915 26.7936 14.5889 27.0716 16.0001 27.0716L16.0001 23.504C15.0574 23.504 14.1239 23.3183 13.2529 22.9576C12.382 22.5968 11.5906 22.068 10.924 21.4014C10.2574 20.7348 9.7286 19.9434 9.36784 19.0725C9.00708 18.2015 8.82139 17.268 8.82139 16.3253C8.82139 15.3826 9.00707 14.4491 9.36784 13.5782C9.7286 12.7072 10.2574 11.9158 10.924 11.2492C11.5906 10.5826 12.382 10.0539 13.2529 9.69309C14.1239 9.33233 15.0574 9.14665 16.0001 9.14665V5.57906Z" fill="#16B102"/>
    <rect x="14.8059" y="5.57906" width="2.86567" height="21.4925" fill="white"/>
</svg>
