<svg width="236" height="330" viewBox="0 -20 236 255" fill="none" xmlns="http://www.w3.org/2000/svg">
    <path d="M76.5324 -55.8262L26.4727 14.9281L56.3633 103.846L128.381 154.441L136.139 151.855L199.537 62.2404L200.734 60.5392V31.3776L76.5324 -55.8262ZM193.581 35.0747V58.2754L131.635 145.841L129.537 146.537L62.4006 99.3723L34.3924 16.0935L78.2401 -45.8868L193.581 35.0747Z" fill="url(#paint0_linear_1137_98)"/>
    <path d="M43.4841 215.529C42.1677 215.573 40.8591 215.312 39.6605 214.767C38.462 214.223 37.4059 213.409 36.5748 212.39V215.136H29.75V178.752H37.0704V191.547C38.8698 190.06 41.1488 189.276 43.4841 189.339C49.4756 189.339 54.9095 193.748 54.9095 202.409C54.9095 211.07 49.3573 215.529 43.4841 215.529ZM42.1608 209.048C44.9764 209.048 47.4934 207.02 47.4934 202.409C47.4934 197.798 44.9538 195.821 42.1608 195.821C41.4921 195.797 40.8256 195.91 40.2024 196.153C39.5793 196.396 39.0127 196.764 38.5377 197.234C38.0627 197.704 37.6894 198.266 37.4409 198.886C37.1924 199.505 37.074 200.169 37.0929 200.836V203.982C37.0695 204.651 37.184 205.318 37.4291 205.941C37.6743 206.565 38.0451 207.131 38.5185 207.606C38.9918 208.081 39.5578 208.454 40.1814 208.702C40.805 208.95 41.4729 209.068 42.1439 209.048H42.1608Z" fill="#F7F8F8"/>
    <path d="M68.1481 215.631C63.525 215.631 59.4594 212.592 59.4594 207.677C59.4594 203.319 62.4044 201.196 68.0468 199.724L75.0518 197.899C74.7984 195.922 73.2273 194.961 70.8904 194.961C68.5535 194.961 66.8755 196.029 66.2167 198L59.8142 196.281C61.2388 191.62 65.7605 189.188 71.1945 189.188C77.9968 189.188 82.1638 192.428 82.1638 198.461V215.136H75.1531L75.1025 212.805L74.9504 212.957C72.8162 214.771 70.7384 215.631 68.1481 215.631ZM69.8712 209.907C71.1438 209.907 72.1574 209.503 73.6327 208.537L75.018 207.677L75.0687 202.915L71.0087 204.038C68.0636 204.847 66.7403 205.554 66.7403 207.228C66.7234 209.048 68.3508 209.907 69.8712 209.907Z" fill="#F7F8F8"/>
    <path d="M96.6863 199.168V215.136H89.3659V189.895H96.6863V192.934C98.263 190.687 100.752 189.289 104.102 189.289C109.283 189.289 113.112 192.428 113.112 199.269V215.136H105.792V200.735C105.792 197.242 104.063 195.821 101.422 195.821C99.4793 195.821 97.6492 196.989 96.6863 199.168Z" fill="#F7F8F8"/>
    <path d="M143.92 224.752H136.599V213.35C134.806 214.802 132.556 215.574 130.247 215.529C124.357 215.529 118.822 211.12 118.822 202.409C118.822 193.698 124.307 189.339 130.197 189.339C131.482 189.295 132.762 189.523 133.952 190.007C135.143 190.491 136.218 191.22 137.106 192.148V189.895H143.914L143.92 224.752ZM131.576 209.025C134.319 209.025 136.554 207.15 136.605 203.909V200.836C136.629 200.171 136.516 199.508 136.272 198.889C136.028 198.269 135.658 197.706 135.186 197.236C134.714 196.765 134.15 196.396 133.529 196.153C132.908 195.909 132.243 195.796 131.576 195.821C128.733 195.821 126.244 197.848 126.244 202.409C126.244 206.97 128.733 209.048 131.576 209.048V209.025Z" fill="#F7F8F8"/>
    <path d="M167.277 212.036C166.452 213.194 165.351 214.13 164.073 214.757C162.795 215.385 161.38 215.685 159.957 215.631C154.928 215.631 151.172 212.643 151.172 205.953V189.895H158.493V204.465C158.493 207.835 160.424 209.177 162.71 209.177C164.49 209.177 166.269 208.054 167.283 205.981V189.895H174.603V215.136H167.283L167.277 212.036Z" fill="#F7F8F8"/>
    <path d="M189.418 213.148V224.752H182.098V189.895H188.906V192.327C189.764 191.351 190.828 190.577 192.021 190.06C193.215 189.543 194.509 189.297 195.81 189.339C201.807 189.339 207.241 193.748 207.241 202.46C207.241 211.171 201.717 215.529 195.815 215.529C193.462 215.547 191.185 214.699 189.418 213.148ZM194.486 209.048C197.302 209.048 199.819 207.02 199.819 202.46C199.819 197.899 197.279 195.821 194.486 195.821C193.818 195.797 193.151 195.91 192.528 196.153C191.905 196.396 191.338 196.764 190.863 197.234C190.388 197.704 190.015 198.266 189.766 198.886C189.518 199.505 189.399 200.169 189.418 200.836V203.982C189.394 204.654 189.509 205.323 189.755 205.949C190.002 206.575 190.375 207.143 190.852 207.618C191.328 208.094 191.898 208.466 192.525 208.712C193.153 208.958 193.824 209.072 194.498 209.048H194.486Z" fill="#F7F8F8"/>
    <path d="M4.85503 251.92C4.27636 251.92 3.74436 251.808 3.25903 251.584C2.78303 251.36 2.37236 251.043 2.02703 250.632C1.6817 250.212 1.41103 249.708 1.21503 249.12C1.02836 248.523 0.935031 247.855 0.935031 247.118C0.935031 246.381 1.02836 245.723 1.21503 245.144C1.41103 244.556 1.6817 244.061 2.02703 243.66C2.37236 243.249 2.78303 242.937 3.25903 242.722C3.74436 242.507 4.27636 242.4 4.85503 242.4C5.4337 242.4 5.96103 242.512 6.43703 242.736C6.92236 242.951 7.3377 243.263 7.68303 243.674C8.0377 244.075 8.30836 244.57 8.49503 245.158C8.69103 245.737 8.78903 246.39 8.78903 247.118C8.78903 247.855 8.69103 248.523 8.49503 249.12C8.30836 249.708 8.0377 250.212 7.68303 250.632C7.3377 251.043 6.92236 251.36 6.43703 251.584C5.96103 251.808 5.4337 251.92 4.85503 251.92ZM4.85503 250.898C5.2657 250.898 5.63436 250.809 5.96103 250.632C6.29703 250.455 6.5817 250.203 6.81503 249.876C7.0577 249.54 7.24436 249.143 7.37503 248.686C7.5057 248.219 7.57103 247.697 7.57103 247.118C7.57103 246.549 7.5057 246.035 7.37503 245.578C7.24436 245.121 7.0577 244.733 6.81503 244.416C6.5817 244.099 6.29703 243.856 5.96103 243.688C5.63436 243.511 5.2657 243.422 4.85503 243.422C4.44436 243.422 4.07103 243.511 3.73503 243.688C3.40836 243.856 3.1237 244.099 2.88103 244.416C2.6477 244.733 2.4657 245.121 2.33503 245.578C2.20436 246.035 2.13903 246.549 2.13903 247.118C2.13903 247.697 2.20436 248.219 2.33503 248.686C2.4657 249.143 2.6477 249.54 2.88103 249.876C3.1237 250.203 3.40836 250.455 3.73503 250.632C4.07103 250.809 4.44436 250.898 4.85503 250.898ZM10.6519 251.752V244.948H11.6039L11.7019 245.928H11.7439C12.0706 245.601 12.4112 245.331 12.7659 245.116C13.1299 244.892 13.5499 244.78 14.0259 244.78C14.7446 244.78 15.2672 245.004 15.5939 245.452C15.9299 245.9 16.0979 246.563 16.0979 247.44V251.752H14.9499V247.594C14.9499 246.95 14.8472 246.488 14.6419 246.208C14.4366 245.919 14.1099 245.774 13.6619 245.774C13.3072 245.774 12.9946 245.863 12.7239 246.04C12.4532 246.217 12.1452 246.479 11.7999 246.824V251.752H10.6519ZM21.0662 251.92C20.6088 251.92 20.1795 251.841 19.7782 251.682C19.3862 251.514 19.0408 251.281 18.7422 250.982C18.4528 250.674 18.2242 250.301 18.0562 249.862C17.8882 249.423 17.8042 248.924 17.8042 248.364C17.8042 247.804 17.8882 247.305 18.0562 246.866C18.2335 246.418 18.4622 246.04 18.7422 245.732C19.0315 245.424 19.3582 245.191 19.7222 245.032C20.0862 244.864 20.4642 244.78 20.8562 244.78C21.2855 244.78 21.6682 244.855 22.0042 245.004C22.3495 245.153 22.6342 245.368 22.8582 245.648C23.0915 245.928 23.2688 246.264 23.3902 246.656C23.5115 247.048 23.5722 247.487 23.5722 247.972C23.5722 248.093 23.5675 248.215 23.5582 248.336C23.5582 248.448 23.5488 248.546 23.5302 248.63H18.9382C18.9848 249.358 19.2088 249.937 19.6102 250.366C20.0208 250.786 20.5528 250.996 21.2062 250.996C21.5328 250.996 21.8315 250.949 22.1022 250.856C22.3822 250.753 22.6482 250.623 22.9002 250.464L23.3062 251.22C23.0075 251.407 22.6762 251.57 22.3122 251.71C21.9482 251.85 21.5328 251.92 21.0662 251.92ZM18.9242 247.804H22.5642C22.5642 247.113 22.4148 246.591 22.1162 246.236C21.8268 245.872 21.4162 245.69 20.8842 245.69C20.6415 245.69 20.4082 245.737 20.1842 245.83C19.9695 245.923 19.7735 246.063 19.5962 246.25C19.4188 246.427 19.2695 246.647 19.1482 246.908C19.0362 247.169 18.9615 247.468 18.9242 247.804ZM29.8342 251.92C29.3489 251.92 28.8869 251.831 28.4482 251.654C28.0095 251.477 27.6269 251.253 27.3002 250.982L27.8742 250.212C28.1729 250.455 28.4762 250.651 28.7842 250.8C29.1015 250.949 29.4655 251.024 29.8762 251.024C30.3242 251.024 30.6602 250.921 30.8842 250.716C31.1082 250.511 31.2202 250.259 31.2202 249.96C31.2202 249.783 31.1735 249.629 31.0802 249.498C30.9869 249.367 30.8655 249.255 30.7162 249.162C30.5762 249.059 30.4129 248.971 30.2262 248.896C30.0395 248.821 29.8529 248.747 29.6662 248.672C29.4235 248.588 29.1809 248.495 28.9382 248.392C28.6955 248.28 28.4762 248.149 28.2802 248C28.0935 247.841 27.9395 247.659 27.8182 247.454C27.6969 247.249 27.6362 247.001 27.6362 246.712C27.6362 246.441 27.6875 246.189 27.7902 245.956C27.9022 245.713 28.0562 245.508 28.2522 245.34C28.4575 245.163 28.7049 245.027 28.9942 244.934C29.2835 244.831 29.6102 244.78 29.9742 244.78C30.4035 244.78 30.7955 244.855 31.1502 245.004C31.5142 245.153 31.8269 245.335 32.0882 245.55L31.5422 246.278C31.3089 246.101 31.0662 245.956 30.8142 245.844C30.5622 245.732 30.2869 245.676 29.9882 245.676C29.5589 245.676 29.2415 245.774 29.0362 245.97C28.8402 246.166 28.7422 246.395 28.7422 246.656C28.7422 246.815 28.7842 246.955 28.8682 247.076C28.9522 247.188 29.0642 247.291 29.2042 247.384C29.3442 247.468 29.5029 247.547 29.6802 247.622C29.8669 247.687 30.0582 247.757 30.2542 247.832C30.4969 247.925 30.7395 248.023 30.9822 248.126C31.2342 248.229 31.4582 248.359 31.6542 248.518C31.8502 248.667 32.0089 248.854 32.1302 249.078C32.2609 249.302 32.3262 249.573 32.3262 249.89C32.3262 250.17 32.2702 250.431 32.1582 250.674C32.0555 250.917 31.8969 251.131 31.6822 251.318C31.4769 251.505 31.2155 251.649 30.8982 251.752C30.5902 251.864 30.2355 251.92 29.8342 251.92ZM35.79 251.92C35.426 251.92 35.118 251.864 34.866 251.752C34.6233 251.64 34.4227 251.486 34.264 251.29C34.1147 251.094 34.0073 250.856 33.942 250.576C33.8767 250.296 33.844 249.988 33.844 249.652V245.886H32.836V245.018L33.9 244.948L34.04 243.044H35.006V244.948H36.84V245.886H35.006V249.666C35.006 250.086 35.0807 250.413 35.23 250.646C35.3887 250.87 35.664 250.982 36.056 250.982C36.1773 250.982 36.308 250.963 36.448 250.926C36.588 250.889 36.714 250.847 36.826 250.8L37.05 251.668C36.8633 251.733 36.658 251.789 36.434 251.836C36.2193 251.892 36.0047 251.92 35.79 251.92ZM40.8331 251.92C40.4131 251.92 40.0117 251.841 39.6291 251.682C39.2557 251.523 38.9244 251.295 38.6351 250.996C38.3457 250.688 38.1124 250.315 37.9351 249.876C37.7671 249.428 37.6831 248.924 37.6831 248.364C37.6831 247.795 37.7671 247.291 37.9351 246.852C38.1124 246.404 38.3457 246.026 38.6351 245.718C38.9244 245.41 39.2557 245.177 39.6291 245.018C40.0117 244.859 40.4131 244.78 40.8331 244.78C41.2531 244.78 41.6497 244.859 42.0231 245.018C42.4057 245.177 42.7417 245.41 43.0311 245.718C43.3204 246.026 43.5491 246.404 43.7171 246.852C43.8944 247.291 43.9831 247.795 43.9831 248.364C43.9831 248.924 43.8944 249.428 43.7171 249.876C43.5491 250.315 43.3204 250.688 43.0311 250.996C42.7417 251.295 42.4057 251.523 42.0231 251.682C41.6497 251.841 41.2531 251.92 40.8331 251.92ZM40.8331 250.968C41.1224 250.968 41.3884 250.907 41.6311 250.786C41.8737 250.655 42.0791 250.478 42.2471 250.254C42.4244 250.021 42.5597 249.745 42.6531 249.428C42.7464 249.111 42.7931 248.756 42.7931 248.364C42.7931 247.972 42.7464 247.617 42.6531 247.3C42.5597 246.973 42.4244 246.693 42.2471 246.46C42.0791 246.227 41.8737 246.049 41.6311 245.928C41.3884 245.797 41.1224 245.732 40.8331 245.732C40.5437 245.732 40.2777 245.797 40.0351 245.928C39.7924 246.049 39.5824 246.227 39.4051 246.46C39.2371 246.693 39.1064 246.973 39.0131 247.3C38.9197 247.617 38.8731 247.972 38.8731 248.364C38.8731 248.756 38.9197 249.111 39.0131 249.428C39.1064 249.745 39.2371 250.021 39.4051 250.254C39.5824 250.478 39.7924 250.655 40.0351 250.786C40.2777 250.907 40.5437 250.968 40.8331 250.968ZM45.775 254.622V244.948H46.727L46.825 245.732H46.867C47.175 245.471 47.511 245.247 47.875 245.06C48.2483 244.873 48.6356 244.78 49.037 244.78C49.4756 244.78 49.863 244.864 50.199 245.032C50.535 245.191 50.815 245.424 51.039 245.732C51.263 246.031 51.431 246.395 51.543 246.824C51.6643 247.244 51.725 247.72 51.725 248.252C51.725 248.831 51.6456 249.349 51.487 249.806C51.3283 250.254 51.1136 250.637 50.843 250.954C50.5723 251.271 50.2596 251.514 49.905 251.682C49.5503 251.841 49.177 251.92 48.785 251.92C48.4676 251.92 48.1503 251.85 47.833 251.71C47.525 251.57 47.2123 251.379 46.895 251.136L46.923 252.326V254.622H45.775ZM48.589 250.954C48.869 250.954 49.1256 250.893 49.359 250.772C49.6016 250.641 49.807 250.464 49.975 250.24C50.1523 250.007 50.2876 249.722 50.381 249.386C50.4836 249.05 50.535 248.672 50.535 248.252C50.535 247.879 50.5023 247.538 50.437 247.23C50.3716 246.922 50.2643 246.661 50.115 246.446C49.975 246.222 49.7883 246.049 49.555 245.928C49.331 245.807 49.0603 245.746 48.743 245.746C48.4536 245.746 48.1596 245.825 47.861 245.984C47.5716 246.143 47.259 246.371 46.923 246.67V250.24C47.231 250.501 47.5296 250.688 47.819 250.8C48.1083 250.903 48.365 250.954 48.589 250.954ZM58.1213 251.92C57.636 251.92 57.174 251.831 56.7353 251.654C56.2966 251.477 55.914 251.253 55.5873 250.982L56.1613 250.212C56.46 250.455 56.7633 250.651 57.0713 250.8C57.3886 250.949 57.7526 251.024 58.1633 251.024C58.6113 251.024 58.9473 250.921 59.1713 250.716C59.3953 250.511 59.5073 250.259 59.5073 249.96C59.5073 249.783 59.4606 249.629 59.3673 249.498C59.274 249.367 59.1526 249.255 59.0033 249.162C58.8633 249.059 58.7 248.971 58.5133 248.896C58.3266 248.821 58.14 248.747 57.9533 248.672C57.7106 248.588 57.468 248.495 57.2253 248.392C56.9826 248.28 56.7633 248.149 56.5673 248C56.3806 247.841 56.2266 247.659 56.1053 247.454C55.984 247.249 55.9233 247.001 55.9233 246.712C55.9233 246.441 55.9746 246.189 56.0773 245.956C56.1893 245.713 56.3433 245.508 56.5393 245.34C56.7446 245.163 56.992 245.027 57.2813 244.934C57.5706 244.831 57.8973 244.78 58.2613 244.78C58.6906 244.78 59.0826 244.855 59.4373 245.004C59.8013 245.153 60.114 245.335 60.3753 245.55L59.8293 246.278C59.596 246.101 59.3533 245.956 59.1013 245.844C58.8493 245.732 58.574 245.676 58.2753 245.676C57.846 245.676 57.5286 245.774 57.3233 245.97C57.1273 246.166 57.0293 246.395 57.0293 246.656C57.0293 246.815 57.0713 246.955 57.1553 247.076C57.2393 247.188 57.3513 247.291 57.4913 247.384C57.6313 247.468 57.79 247.547 57.9673 247.622C58.154 247.687 58.3453 247.757 58.5413 247.832C58.784 247.925 59.0266 248.023 59.2693 248.126C59.5213 248.229 59.7453 248.359 59.9413 248.518C60.1373 248.667 60.296 248.854 60.4173 249.078C60.548 249.302 60.6133 249.573 60.6133 249.89C60.6133 250.17 60.5573 250.431 60.4453 250.674C60.3426 250.917 60.184 251.131 59.9693 251.318C59.764 251.505 59.5026 251.649 59.1853 251.752C58.8773 251.864 58.5226 251.92 58.1213 251.92ZM62.2085 251.752V241.784H63.3565V244.5L63.3145 245.9C63.6412 245.592 63.9819 245.331 64.3365 245.116C64.6912 244.892 65.1065 244.78 65.5825 244.78C66.3012 244.78 66.8239 245.004 67.1505 245.452C67.4865 245.9 67.6545 246.563 67.6545 247.44V251.752H66.5065V247.594C66.5065 246.95 66.4039 246.488 66.1985 246.208C65.9932 245.919 65.6665 245.774 65.2185 245.774C64.8639 245.774 64.5512 245.863 64.2805 246.04C64.0099 246.217 63.7019 246.479 63.3565 246.824V251.752H62.2085ZM72.4698 251.92C72.0498 251.92 71.6484 251.841 71.2658 251.682C70.8924 251.523 70.5611 251.295 70.2718 250.996C69.9824 250.688 69.7491 250.315 69.5718 249.876C69.4038 249.428 69.3198 248.924 69.3198 248.364C69.3198 247.795 69.4038 247.291 69.5718 246.852C69.7491 246.404 69.9824 246.026 70.2718 245.718C70.5611 245.41 70.8924 245.177 71.2658 245.018C71.6484 244.859 72.0498 244.78 72.4698 244.78C72.8898 244.78 73.2864 244.859 73.6598 245.018C74.0424 245.177 74.3784 245.41 74.6678 245.718C74.9571 246.026 75.1858 246.404 75.3538 246.852C75.5311 247.291 75.6198 247.795 75.6198 248.364C75.6198 248.924 75.5311 249.428 75.3538 249.876C75.1858 250.315 74.9571 250.688 74.6678 250.996C74.3784 251.295 74.0424 251.523 73.6598 251.682C73.2864 251.841 72.8898 251.92 72.4698 251.92ZM72.4698 250.968C72.7591 250.968 73.0251 250.907 73.2678 250.786C73.5104 250.655 73.7158 250.478 73.8838 250.254C74.0611 250.021 74.1964 249.745 74.2898 249.428C74.3831 249.111 74.4298 248.756 74.4298 248.364C74.4298 247.972 74.3831 247.617 74.2898 247.3C74.1964 246.973 74.0611 246.693 73.8838 246.46C73.7158 246.227 73.5104 246.049 73.2678 245.928C73.0251 245.797 72.7591 245.732 72.4698 245.732C72.1804 245.732 71.9144 245.797 71.6718 245.928C71.4291 246.049 71.2191 246.227 71.0418 246.46C70.8738 246.693 70.7431 246.973 70.6498 247.3C70.5564 247.617 70.5098 247.972 70.5098 248.364C70.5098 248.756 70.5564 249.111 70.6498 249.428C70.7431 249.745 70.8738 250.021 71.0418 250.254C71.2191 250.478 71.4291 250.655 71.6718 250.786C71.9144 250.907 72.1804 250.968 72.4698 250.968ZM77.4117 254.622V244.948H78.3637L78.4617 245.732H78.5037C78.8117 245.471 79.1477 245.247 79.5117 245.06C79.885 244.873 80.2723 244.78 80.6737 244.78C81.1123 244.78 81.4997 244.864 81.8357 245.032C82.1717 245.191 82.4517 245.424 82.6757 245.732C82.8997 246.031 83.0677 246.395 83.1797 246.824C83.301 247.244 83.3617 247.72 83.3617 248.252C83.3617 248.831 83.2823 249.349 83.1237 249.806C82.965 250.254 82.7503 250.637 82.4797 250.954C82.209 251.271 81.8963 251.514 81.5417 251.682C81.187 251.841 80.8137 251.92 80.4217 251.92C80.1043 251.92 79.787 251.85 79.4697 251.71C79.1617 251.57 78.849 251.379 78.5317 251.136L78.5597 252.326V254.622H77.4117ZM80.2257 250.954C80.5057 250.954 80.7623 250.893 80.9957 250.772C81.2383 250.641 81.4437 250.464 81.6117 250.24C81.789 250.007 81.9243 249.722 82.0177 249.386C82.1203 249.05 82.1717 248.672 82.1717 248.252C82.1717 247.879 82.139 247.538 82.0737 247.23C82.0083 246.922 81.901 246.661 81.7517 246.446C81.6117 246.222 81.425 246.049 81.1917 245.928C80.9677 245.807 80.697 245.746 80.3797 245.746C80.0903 245.746 79.7963 245.825 79.4977 245.984C79.2083 246.143 78.8957 246.371 78.5597 246.67V250.24C78.8677 250.501 79.1663 250.688 79.4557 250.8C79.745 250.903 80.0017 250.954 80.2257 250.954ZM89.01 251.752V245.886H88.086V245.018L89.01 244.948V243.87C89.01 243.17 89.1687 242.619 89.486 242.218C89.8127 241.817 90.3167 241.616 90.998 241.616C91.2127 241.616 91.4133 241.639 91.6 241.686C91.796 241.723 91.9733 241.775 92.132 241.84L91.88 242.722C91.628 242.61 91.3713 242.554 91.11 242.554C90.4753 242.554 90.158 242.993 90.158 243.87V244.948H91.6V245.886H90.158V251.752H89.01ZM95.4112 251.92C94.9912 251.92 94.5899 251.841 94.2072 251.682C93.8339 251.523 93.5025 251.295 93.2132 250.996C92.9239 250.688 92.6905 250.315 92.5132 249.876C92.3452 249.428 92.2612 248.924 92.2612 248.364C92.2612 247.795 92.3452 247.291 92.5132 246.852C92.6905 246.404 92.9239 246.026 93.2132 245.718C93.5025 245.41 93.8339 245.177 94.2072 245.018C94.5899 244.859 94.9912 244.78 95.4112 244.78C95.8312 244.78 96.2279 244.859 96.6012 245.018C96.9839 245.177 97.3199 245.41 97.6092 245.718C97.8985 246.026 98.1272 246.404 98.2952 246.852C98.4725 247.291 98.5612 247.795 98.5612 248.364C98.5612 248.924 98.4725 249.428 98.2952 249.876C98.1272 250.315 97.8985 250.688 97.6092 250.996C97.3199 251.295 96.9839 251.523 96.6012 251.682C96.2279 251.841 95.8312 251.92 95.4112 251.92ZM95.4112 250.968C95.7005 250.968 95.9665 250.907 96.2092 250.786C96.4519 250.655 96.6572 250.478 96.8252 250.254C97.0025 250.021 97.1379 249.745 97.2312 249.428C97.3245 249.111 97.3712 248.756 97.3712 248.364C97.3712 247.972 97.3245 247.617 97.2312 247.3C97.1379 246.973 97.0025 246.693 96.8252 246.46C96.6572 246.227 96.4519 246.049 96.2092 245.928C95.9665 245.797 95.7005 245.732 95.4112 245.732C95.1219 245.732 94.8559 245.797 94.6132 245.928C94.3705 246.049 94.1605 246.227 93.9832 246.46C93.8152 246.693 93.6845 246.973 93.5912 247.3C93.4979 247.617 93.4512 247.972 93.4512 248.364C93.4512 248.756 93.4979 249.111 93.5912 249.428C93.6845 249.745 93.8152 250.021 93.9832 250.254C94.1605 250.478 94.3705 250.655 94.6132 250.786C94.8559 250.907 95.1219 250.968 95.4112 250.968ZM100.353 251.752V244.948H101.305L101.403 246.18H101.445C101.678 245.751 101.958 245.41 102.285 245.158C102.621 244.906 102.985 244.78 103.377 244.78C103.648 244.78 103.89 244.827 104.105 244.92L103.881 245.928C103.769 245.891 103.666 245.863 103.573 245.844C103.48 245.825 103.363 245.816 103.223 245.816C102.934 245.816 102.63 245.933 102.313 246.166C102.005 246.399 101.734 246.805 101.501 247.384V251.752H100.353ZM109.577 251.92C109.008 251.92 108.532 251.752 108.149 251.416C107.776 251.08 107.589 250.604 107.589 249.988C107.589 249.241 107.921 248.672 108.583 248.28C109.246 247.879 110.305 247.599 111.761 247.44C111.761 247.225 111.738 247.015 111.691 246.81C111.654 246.605 111.584 246.423 111.481 246.264C111.379 246.105 111.234 245.979 111.047 245.886C110.87 245.783 110.641 245.732 110.361 245.732C109.969 245.732 109.601 245.807 109.255 245.956C108.91 246.105 108.602 246.273 108.331 246.46L107.883 245.662C108.201 245.457 108.588 245.261 109.045 245.074C109.503 244.878 110.007 244.78 110.557 244.78C111.388 244.78 111.99 245.037 112.363 245.55C112.737 246.054 112.923 246.731 112.923 247.58V251.752H111.971L111.873 250.94H111.831C111.505 251.211 111.155 251.444 110.781 251.64C110.408 251.827 110.007 251.92 109.577 251.92ZM109.913 250.996C110.24 250.996 110.548 250.921 110.837 250.772C111.127 250.613 111.435 250.385 111.761 250.086V248.196C111.192 248.271 110.711 248.359 110.319 248.462C109.937 248.565 109.624 248.686 109.381 248.826C109.148 248.966 108.975 249.129 108.863 249.316C108.761 249.493 108.709 249.689 108.709 249.904C108.709 250.296 108.826 250.576 109.059 250.744C109.293 250.912 109.577 250.996 109.913 250.996ZM116.282 251.92C115.843 251.92 115.531 251.789 115.344 251.528C115.157 251.267 115.064 250.884 115.064 250.38V241.784H116.212V250.464C116.212 250.651 116.245 250.781 116.31 250.856C116.375 250.931 116.45 250.968 116.534 250.968C116.571 250.968 116.604 250.968 116.632 250.968C116.669 250.968 116.721 250.959 116.786 250.94L116.94 251.808C116.865 251.845 116.777 251.873 116.674 251.892C116.571 251.911 116.441 251.92 116.282 251.92ZM119.85 251.92C119.412 251.92 119.099 251.789 118.912 251.528C118.726 251.267 118.632 250.884 118.632 250.38V241.784H119.78V250.464C119.78 250.651 119.813 250.781 119.878 250.856C119.944 250.931 120.018 250.968 120.102 250.968C120.14 250.968 120.172 250.968 120.2 250.968C120.238 250.968 120.289 250.959 120.354 250.94L120.508 251.808C120.434 251.845 120.345 251.873 120.242 251.892C120.14 251.911 120.009 251.92 119.85 251.92ZM125.115 254.678C124.957 254.678 124.812 254.664 124.681 254.636C124.551 254.617 124.429 254.585 124.317 254.538L124.541 253.628C124.616 253.647 124.7 253.665 124.793 253.684C124.887 253.712 124.975 253.726 125.059 253.726C125.451 253.726 125.769 253.586 126.011 253.306C126.263 253.035 126.459 252.69 126.599 252.27L126.753 251.766L124.023 244.948H125.213L126.599 248.714C126.702 249.013 126.809 249.33 126.921 249.666C127.043 249.993 127.155 250.315 127.257 250.632H127.313C127.416 250.324 127.514 250.002 127.607 249.666C127.701 249.33 127.794 249.013 127.887 248.714L129.105 244.948H130.225L127.663 252.312C127.542 252.648 127.407 252.961 127.257 253.25C127.108 253.539 126.931 253.787 126.725 253.992C126.52 254.207 126.287 254.375 126.025 254.496C125.764 254.617 125.461 254.678 125.115 254.678ZM134.13 251.92C133.71 251.92 133.309 251.841 132.926 251.682C132.553 251.523 132.221 251.295 131.932 250.996C131.643 250.688 131.409 250.315 131.232 249.876C131.064 249.428 130.98 248.924 130.98 248.364C130.98 247.795 131.064 247.291 131.232 246.852C131.409 246.404 131.643 246.026 131.932 245.718C132.221 245.41 132.553 245.177 132.926 245.018C133.309 244.859 133.71 244.78 134.13 244.78C134.55 244.78 134.947 244.859 135.32 245.018C135.703 245.177 136.039 245.41 136.328 245.718C136.617 246.026 136.846 246.404 137.014 246.852C137.191 247.291 137.28 247.795 137.28 248.364C137.28 248.924 137.191 249.428 137.014 249.876C136.846 250.315 136.617 250.688 136.328 250.996C136.039 251.295 135.703 251.523 135.32 251.682C134.947 251.841 134.55 251.92 134.13 251.92ZM134.13 250.968C134.419 250.968 134.685 250.907 134.928 250.786C135.171 250.655 135.376 250.478 135.544 250.254C135.721 250.021 135.857 249.745 135.95 249.428C136.043 249.111 136.09 248.756 136.09 248.364C136.09 247.972 136.043 247.617 135.95 247.3C135.857 246.973 135.721 246.693 135.544 246.46C135.376 246.227 135.171 246.049 134.928 245.928C134.685 245.797 134.419 245.732 134.13 245.732C133.841 245.732 133.575 245.797 133.332 245.928C133.089 246.049 132.879 246.227 132.702 246.46C132.534 246.693 132.403 246.973 132.31 247.3C132.217 247.617 132.17 247.972 132.17 248.364C132.17 248.756 132.217 249.111 132.31 249.428C132.403 249.745 132.534 250.021 132.702 250.254C132.879 250.478 133.089 250.655 133.332 250.786C133.575 250.907 133.841 250.968 134.13 250.968ZM141.06 251.92C140.332 251.92 139.8 251.696 139.464 251.248C139.137 250.8 138.974 250.137 138.974 249.26V244.948H140.136V249.106C140.136 249.75 140.234 250.217 140.43 250.506C140.635 250.786 140.962 250.926 141.41 250.926C141.764 250.926 142.077 250.837 142.348 250.66C142.618 250.473 142.917 250.179 143.244 249.778V244.948H144.392V251.752H143.44L143.342 250.688H143.3C142.982 251.061 142.646 251.36 142.292 251.584C141.946 251.808 141.536 251.92 141.06 251.92ZM146.687 251.752V244.948H147.639L147.737 246.18H147.779C148.012 245.751 148.292 245.41 148.619 245.158C148.955 244.906 149.319 244.78 149.711 244.78C149.982 244.78 150.224 244.827 150.439 244.92L150.215 245.928C150.103 245.891 150 245.863 149.907 245.844C149.814 245.825 149.697 245.816 149.557 245.816C149.268 245.816 148.964 245.933 148.647 246.166C148.339 246.399 148.068 246.805 147.835 247.384V251.752H146.687ZM155.373 251.752V245.886H154.449V245.018L155.373 244.948V243.87C155.373 243.17 155.532 242.619 155.849 242.218C156.176 241.817 156.68 241.616 157.361 241.616C157.576 241.616 157.777 241.639 157.963 241.686C158.159 241.723 158.337 241.775 158.495 241.84L158.243 242.722C157.991 242.61 157.735 242.554 157.473 242.554C156.839 242.554 156.521 242.993 156.521 243.87V244.948H157.963V245.886H156.521V251.752H155.373ZM159.265 251.752V244.948H160.413V251.752H159.265ZM159.853 243.548C159.629 243.548 159.438 243.478 159.279 243.338C159.13 243.198 159.055 243.021 159.055 242.806C159.055 242.582 159.13 242.405 159.279 242.274C159.438 242.134 159.629 242.064 159.853 242.064C160.077 242.064 160.264 242.134 160.413 242.274C160.572 242.405 160.651 242.582 160.651 242.806C160.651 243.021 160.572 243.198 160.413 243.338C160.264 243.478 160.077 243.548 159.853 243.548ZM162.711 251.752V244.948H163.663L163.761 245.928H163.803C164.129 245.601 164.47 245.331 164.825 245.116C165.189 244.892 165.609 244.78 166.085 244.78C166.803 244.78 167.326 245.004 167.653 245.452C167.989 245.9 168.157 246.563 168.157 247.44V251.752H167.009V247.594C167.009 246.95 166.906 246.488 166.701 246.208C166.495 245.919 166.169 245.774 165.721 245.774C165.366 245.774 165.053 245.863 164.783 246.04C164.512 246.217 164.204 246.479 163.859 246.824V251.752H162.711ZM171.935 251.92C171.365 251.92 170.889 251.752 170.507 251.416C170.133 251.08 169.947 250.604 169.947 249.988C169.947 249.241 170.278 248.672 170.941 248.28C171.603 247.879 172.663 247.599 174.119 247.44C174.119 247.225 174.095 247.015 174.049 246.81C174.011 246.605 173.941 246.423 173.839 246.264C173.736 246.105 173.591 245.979 173.405 245.886C173.227 245.783 172.999 245.732 172.719 245.732C172.327 245.732 171.958 245.807 171.613 245.956C171.267 246.105 170.959 246.273 170.689 246.46L170.241 245.662C170.558 245.457 170.945 245.261 171.403 245.074C171.86 244.878 172.364 244.78 172.915 244.78C173.745 244.78 174.347 245.037 174.721 245.55C175.094 246.054 175.281 246.731 175.281 247.58V251.752H174.329L174.231 250.94H174.189C173.862 251.211 173.512 251.444 173.139 251.64C172.765 251.827 172.364 251.92 171.935 251.92ZM172.271 250.996C172.597 250.996 172.905 250.921 173.195 250.772C173.484 250.613 173.792 250.385 174.119 250.086V248.196C173.549 248.271 173.069 248.359 172.677 248.462C172.294 248.565 171.981 248.686 171.739 248.826C171.505 248.966 171.333 249.129 171.221 249.316C171.118 249.493 171.067 249.689 171.067 249.904C171.067 250.296 171.183 250.576 171.417 250.744C171.65 250.912 171.935 250.996 172.271 250.996ZM177.421 251.752V244.948H178.373L178.471 245.928H178.513C178.84 245.601 179.181 245.331 179.535 245.116C179.899 244.892 180.319 244.78 180.795 244.78C181.514 244.78 182.037 245.004 182.363 245.452C182.699 245.9 182.867 246.563 182.867 247.44V251.752H181.719V247.594C181.719 246.95 181.617 246.488 181.411 246.208C181.206 245.919 180.879 245.774 180.431 245.774C180.077 245.774 179.764 245.863 179.493 246.04C179.223 246.217 178.915 246.479 178.569 246.824V251.752H177.421ZM187.766 251.92C187.318 251.92 186.898 251.841 186.506 251.682C186.114 251.523 185.773 251.295 185.484 250.996C185.204 250.688 184.98 250.315 184.812 249.876C184.653 249.428 184.574 248.924 184.574 248.364C184.574 247.795 184.662 247.291 184.84 246.852C185.017 246.404 185.255 246.026 185.554 245.718C185.852 245.41 186.198 245.177 186.59 245.018C186.991 244.859 187.411 244.78 187.85 244.78C188.298 244.78 188.68 244.859 188.998 245.018C189.315 245.177 189.595 245.363 189.838 245.578L189.25 246.334C189.054 246.157 188.844 246.012 188.62 245.9C188.405 245.788 188.162 245.732 187.892 245.732C187.584 245.732 187.299 245.797 187.038 245.928C186.776 246.049 186.552 246.227 186.366 246.46C186.179 246.693 186.03 246.973 185.918 247.3C185.815 247.617 185.764 247.972 185.764 248.364C185.764 248.756 185.815 249.111 185.918 249.428C186.02 249.745 186.16 250.021 186.338 250.254C186.524 250.478 186.748 250.655 187.01 250.786C187.271 250.907 187.556 250.968 187.864 250.968C188.181 250.968 188.47 250.903 188.732 250.772C189.002 250.632 189.245 250.469 189.46 250.282L189.964 251.052C189.656 251.323 189.315 251.537 188.942 251.696C188.568 251.845 188.176 251.92 187.766 251.92ZM191.462 251.752V244.948H192.61V251.752H191.462ZM192.05 243.548C191.826 243.548 191.635 243.478 191.476 243.338C191.327 243.198 191.252 243.021 191.252 242.806C191.252 242.582 191.327 242.405 191.476 242.274C191.635 242.134 191.826 242.064 192.05 242.064C192.274 242.064 192.461 242.134 192.61 242.274C192.769 242.405 192.848 242.582 192.848 242.806C192.848 243.021 192.769 243.198 192.61 243.338C192.461 243.478 192.274 243.548 192.05 243.548ZM196.476 251.92C195.906 251.92 195.43 251.752 195.048 251.416C194.674 251.08 194.488 250.604 194.488 249.988C194.488 249.241 194.819 248.672 195.482 248.28C196.144 247.879 197.204 247.599 198.66 247.44C198.66 247.225 198.636 247.015 198.59 246.81C198.552 246.605 198.482 246.423 198.38 246.264C198.277 246.105 198.132 245.979 197.946 245.886C197.768 245.783 197.54 245.732 197.26 245.732C196.868 245.732 196.499 245.807 196.154 245.956C195.808 246.105 195.5 246.273 195.23 246.46L194.782 245.662C195.099 245.457 195.486 245.261 195.944 245.074C196.401 244.878 196.905 244.78 197.456 244.78C198.286 244.78 198.888 245.037 199.262 245.55C199.635 246.054 199.822 246.731 199.822 247.58V251.752H198.87L198.772 250.94H198.73C198.403 251.211 198.053 251.444 197.68 251.64C197.306 251.827 196.905 251.92 196.476 251.92ZM196.812 250.996C197.138 250.996 197.446 250.921 197.736 250.772C198.025 250.613 198.333 250.385 198.66 250.086V248.196C198.09 248.271 197.61 248.359 197.218 248.462C196.835 248.565 196.522 248.686 196.28 248.826C196.046 248.966 195.874 249.129 195.762 249.316C195.659 249.493 195.608 249.689 195.608 249.904C195.608 250.296 195.724 250.576 195.958 250.744C196.191 250.912 196.476 250.996 196.812 250.996ZM203.18 251.92C202.742 251.92 202.429 251.789 202.242 251.528C202.056 251.267 201.962 250.884 201.962 250.38V241.784H203.11V250.464C203.11 250.651 203.143 250.781 203.208 250.856C203.274 250.931 203.348 250.968 203.432 250.968C203.47 250.968 203.502 250.968 203.53 250.968C203.568 250.968 203.619 250.959 203.684 250.94L203.838 251.808C203.764 251.845 203.675 251.873 203.572 251.892C203.47 251.911 203.339 251.92 203.18 251.92ZM210.658 251.92C209.799 251.92 209.113 251.612 208.6 250.996C208.096 250.38 207.844 249.503 207.844 248.364C207.844 247.813 207.923 247.319 208.082 246.88C208.25 246.432 208.469 246.054 208.74 245.746C209.01 245.438 209.323 245.2 209.678 245.032C210.032 244.864 210.406 244.78 210.798 244.78C211.19 244.78 211.53 244.85 211.82 244.99C212.109 245.13 212.403 245.321 212.702 245.564L212.646 244.402V241.784H213.808V251.752H212.856L212.758 250.954H212.716C212.445 251.215 212.132 251.444 211.778 251.64C211.432 251.827 211.059 251.92 210.658 251.92ZM210.91 250.954C211.227 250.954 211.526 250.879 211.806 250.73C212.086 250.571 212.366 250.333 212.646 250.016V246.46C212.356 246.199 212.076 246.017 211.806 245.914C211.544 245.802 211.274 245.746 210.994 245.746C210.723 245.746 210.466 245.811 210.224 245.942C209.99 246.063 209.785 246.241 209.608 246.474C209.43 246.698 209.29 246.969 209.188 247.286C209.085 247.603 209.034 247.958 209.034 248.35C209.034 249.171 209.197 249.811 209.524 250.268C209.85 250.725 210.312 250.954 210.91 250.954ZM217.667 251.92C217.098 251.92 216.622 251.752 216.239 251.416C215.866 251.08 215.679 250.604 215.679 249.988C215.679 249.241 216.011 248.672 216.673 248.28C217.336 247.879 218.395 247.599 219.851 247.44C219.851 247.225 219.828 247.015 219.781 246.81C219.744 246.605 219.674 246.423 219.571 246.264C219.469 246.105 219.324 245.979 219.137 245.886C218.96 245.783 218.731 245.732 218.451 245.732C218.059 245.732 217.691 245.807 217.345 245.956C217 246.105 216.692 246.273 216.421 246.46L215.973 245.662C216.291 245.457 216.678 245.261 217.135 245.074C217.593 244.878 218.097 244.78 218.647 244.78C219.478 244.78 220.08 245.037 220.453 245.55C220.827 246.054 221.013 246.731 221.013 247.58V251.752H220.061L219.963 250.94H219.921C219.595 251.211 219.245 251.444 218.871 251.64C218.498 251.827 218.097 251.92 217.667 251.92ZM218.003 250.996C218.33 250.996 218.638 250.921 218.927 250.772C219.217 250.613 219.525 250.385 219.851 250.086V248.196C219.282 248.271 218.801 248.359 218.409 248.462C218.027 248.565 217.714 248.686 217.471 248.826C217.238 248.966 217.065 249.129 216.953 249.316C216.851 249.493 216.799 249.689 216.799 249.904C216.799 250.296 216.916 250.576 217.149 250.744C217.383 250.912 217.667 250.996 218.003 250.996ZM225.104 251.92C224.74 251.92 224.432 251.864 224.18 251.752C223.938 251.64 223.737 251.486 223.578 251.29C223.429 251.094 223.322 250.856 223.256 250.576C223.191 250.296 223.158 249.988 223.158 249.652V245.886H222.15V245.018L223.214 244.948L223.354 243.044H224.32V244.948H226.154V245.886H224.32V249.666C224.32 250.086 224.395 250.413 224.544 250.646C224.703 250.87 224.978 250.982 225.37 250.982C225.492 250.982 225.622 250.963 225.762 250.926C225.902 250.889 226.028 250.847 226.14 250.8L226.364 251.668C226.178 251.733 225.972 251.789 225.748 251.836C225.534 251.892 225.319 251.92 225.104 251.92ZM228.96 251.92C228.391 251.92 227.915 251.752 227.532 251.416C227.159 251.08 226.972 250.604 226.972 249.988C226.972 249.241 227.303 248.672 227.966 248.28C228.629 247.879 229.688 247.599 231.144 247.44C231.144 247.225 231.121 247.015 231.074 246.81C231.037 246.605 230.967 246.423 230.864 246.264C230.761 246.105 230.617 245.979 230.43 245.886C230.253 245.783 230.024 245.732 229.744 245.732C229.352 245.732 228.983 245.807 228.638 245.956C228.293 246.105 227.985 246.273 227.714 246.46L227.266 245.662C227.583 245.457 227.971 245.261 228.428 245.074C228.885 244.878 229.389 244.78 229.94 244.78C230.771 244.78 231.373 245.037 231.746 245.55C232.119 246.054 232.306 246.731 232.306 247.58V251.752H231.354L231.256 250.94H231.214C230.887 251.211 230.537 251.444 230.164 251.64C229.791 251.827 229.389 251.92 228.96 251.92ZM229.296 250.996C229.623 250.996 229.931 250.921 230.22 250.772C230.509 250.613 230.817 250.385 231.144 250.086V248.196C230.575 248.271 230.094 248.359 229.702 248.462C229.319 248.565 229.007 248.686 228.764 248.826C228.531 248.966 228.358 249.129 228.246 249.316C228.143 249.493 228.092 249.689 228.092 249.904C228.092 250.296 228.209 250.576 228.442 250.744C228.675 250.912 228.96 250.996 229.296 250.996ZM235.049 251.92C234.815 251.92 234.615 251.841 234.447 251.682C234.288 251.514 234.209 251.304 234.209 251.052C234.209 250.781 234.288 250.567 234.447 250.408C234.615 250.24 234.815 250.156 235.049 250.156C235.273 250.156 235.464 250.24 235.623 250.408C235.791 250.567 235.875 250.781 235.875 251.052C235.875 251.304 235.791 251.514 235.623 251.682C235.464 251.841 235.273 251.92 235.049 251.92Z" fill="#F7F8F8"/>
    <defs>
        <linearGradient id="paint0_linear_1137_98" x1="146.496" y1="116.756" x2="-181.004" y2="-163.744" gradientUnits="userSpaceOnUse">
            <stop stop-color="#73E8DA"/>
            <stop offset="0.487774" stop-color="#738DE8"/>
        </linearGradient>
    </defs>
</svg>
