<svg width="511" height="125" viewBox="0 0 511 125" fill="none" xmlns="http://www.w3.org/2000/svg">
<path d="M34.0599 10.38L98.3599 55.68V68.85L63.9099 117.72L62.4999 118.19L25.0899 91.81L9.48992 45.24L34.0599 10.38ZM32.8199 3.22L29.8199 7.42L5.28992 42.28L3.78992 44.4L4.60992 46.87L20.2099 93.44L20.7599 95L22.1299 96L59.5399 122.39L61.6699 123.88L64.1299 123.06L65.5399 122.58L67.1399 122.05L68.1399 120.68L102.58 71.81L103.52 70.48V53L101.34 51.47L37.0099 6.18L32.8199 3.18V3.22Z" fill="#0E0B31"/>
<path d="M171.61 96.7C169.272 96.7772 166.948 96.3129 164.82 95.3431C162.691 94.3734 160.816 92.9246 159.34 91.11V96H147.22V31.22H160.22V54C163.415 51.3539 167.463 49.9575 171.61 50.07C182.25 50.07 191.9 57.92 191.9 73.34C191.9 88.76 182.04 96.7 171.61 96.7ZM169.26 85.16C174.26 85.16 178.73 81.55 178.73 73.34C178.73 65.13 174.22 61.61 169.26 61.61C168.072 61.5671 166.889 61.7683 165.782 62.201C164.675 62.6336 163.669 63.2887 162.826 64.1256C161.982 64.9626 161.319 65.9636 160.878 67.0669C160.437 68.1702 160.226 69.3522 160.26 70.54V76.14C160.218 77.3315 160.422 78.5188 160.857 79.6286C161.292 80.7385 161.951 81.7472 162.791 82.5925C163.632 83.4379 164.637 84.1019 165.745 84.5435C166.852 84.9851 168.038 85.1949 169.23 85.16H169.26Z" fill="#0E0B31"/>
<path d="M215.41 96.88C207.2 96.88 199.98 91.47 199.98 82.72C199.98 74.96 205.21 71.18 215.23 68.56L227.67 65.31C227.22 61.79 224.43 60.08 220.28 60.08C216.13 60.08 213.15 61.98 211.98 65.49L200.61 62.43C203.14 54.13 211.17 49.8 220.82 49.8C232.9 49.8 240.3 55.57 240.3 66.31V96H227.85L227.76 91.85L227.49 92.12C223.7 95.35 220.01 96.88 215.41 96.88ZM218.47 86.69C220.73 86.69 222.53 85.97 225.15 84.25L227.61 82.72L227.7 74.24L220.49 76.24C215.26 77.68 212.91 78.94 212.91 81.92C212.88 85.16 215.77 86.69 218.47 86.69Z" fill="#0E0B31"/>
<path d="M266.09 67.57V96H253.09V51.06H266.09V56.47C268.89 52.47 273.31 49.98 279.26 49.98C288.46 49.98 295.26 55.57 295.26 67.75V96H282.26V70.36C282.26 64.14 279.19 61.61 274.5 61.61C271.05 61.61 267.8 63.69 266.09 67.57Z" fill="#0E0B31"/>
<path d="M349.97 113.12H336.97V92.82C333.786 95.4051 329.79 96.7796 325.69 96.7C315.23 96.7 305.4 88.85 305.4 73.34C305.4 57.83 315.14 50.07 325.6 50.07C327.882 49.9916 330.155 50.3965 332.269 51.2582C334.384 52.1199 336.293 53.4189 337.87 55.07V51.06H349.96L349.97 113.12ZM328.05 85.12C332.92 85.12 336.89 81.78 336.98 76.01V70.54C337.023 69.3556 336.822 68.175 336.389 67.0719C335.955 65.9689 335.299 64.967 334.461 64.129C333.623 63.2909 332.621 62.6347 331.518 62.2013C330.415 61.7679 329.234 61.5666 328.05 61.61C323 61.61 318.58 65.22 318.58 73.34C318.58 81.46 323 85.16 328.05 85.16V85.12Z" fill="#0E0B31"/>
<path d="M391.45 90.48C389.985 92.5425 388.029 94.2077 385.76 95.3251C383.49 96.4424 380.978 96.9768 378.45 96.88C369.52 96.88 362.85 91.56 362.85 79.65V51.06H375.85V77C375.85 83 379.28 85.39 383.34 85.39C386.5 85.39 389.66 83.39 391.46 79.7V51.06H404.46V96H391.46L391.45 90.48Z" fill="#0E0B31"/>
<path d="M430.77 92.46V113.12H417.77V51.06H429.86V55.39C431.383 53.652 433.273 52.2735 435.393 51.3536C437.513 50.4336 439.81 49.9953 442.12 50.07C452.77 50.07 462.42 57.92 462.42 73.43C462.42 88.94 452.61 96.7 442.13 96.7C437.951 96.7311 433.907 95.2216 430.77 92.46ZM439.77 85.16C444.77 85.16 449.24 81.55 449.24 73.43C449.24 65.31 444.73 61.61 439.77 61.61C438.582 61.5671 437.399 61.7683 436.292 62.201C435.185 62.6336 434.179 63.2887 433.336 64.1256C432.492 64.9626 431.829 65.9636 431.388 67.0669C430.947 68.1702 430.736 69.3522 430.77 70.54V76.14C430.727 77.3362 430.93 78.5285 431.368 79.6425C431.806 80.7565 432.469 81.7682 433.315 82.6146C434.162 83.461 435.173 84.1239 436.287 84.5618C437.401 84.9998 438.594 85.2034 439.79 85.16H439.77Z" fill="#0E0B31"/>
</svg>
