<svg width="13" height="357" viewBox="0 0 13 357" fill="none" xmlns="http://www.w3.org/2000/svg">
<path d="M7 1C7 0.723862 6.77614 0.5 6.5 0.5C6.22386 0.5 6 0.723862 6 1H7ZM7 157L7 1H6L6 157H7Z" fill="#B4BCBF"/>
<path d="M3.88288 184.168C3.45354 184.168 3.04288 184.089 2.65088 183.93C2.25888 183.771 1.90888 183.538 1.60088 183.23C1.30221 182.922 1.06421 182.544 0.886875 182.096C0.709542 181.648 0.620875 181.139 0.620875 180.57C0.620875 180.001 0.709542 179.492 0.886875 179.044C1.06421 178.596 1.30221 178.218 1.60088 177.91C1.90888 177.602 2.25888 177.369 2.65088 177.21C3.04288 177.042 3.45354 176.958 3.88288 176.958C4.31221 176.958 4.72288 177.042 5.11488 177.21C5.51621 177.369 5.86621 177.602 6.16488 177.91C6.46354 178.218 6.70154 178.596 6.87888 179.044C7.06554 179.492 7.15888 180.001 7.15888 180.57C7.15888 181.139 7.06554 181.648 6.87888 182.096C6.70154 182.544 6.46354 182.922 6.16488 183.23C5.86621 183.538 5.51621 183.771 5.11488 183.93C4.72288 184.089 4.31221 184.168 3.88288 184.168ZM3.88288 182.852C4.38688 182.852 4.78354 182.647 5.07288 182.236C5.36221 181.816 5.50688 181.261 5.50688 180.57C5.50688 179.87 5.36221 179.315 5.07288 178.904C4.78354 178.484 4.38688 178.274 3.88288 178.274C3.37888 178.274 2.98221 178.484 2.69288 178.904C2.41288 179.315 2.27288 179.87 2.27288 180.57C2.27288 181.261 2.41288 181.816 2.69288 182.236C2.98221 182.647 3.37888 182.852 3.88288 182.852ZM8.75247 184V177.126H10.0825L10.1945 178.344H10.2505C10.4931 177.896 10.7871 177.555 11.1325 177.322C11.4778 177.079 11.8325 176.958 12.1965 176.958C12.5231 176.958 12.7845 177.005 12.9805 177.098L12.7005 178.498C12.5791 178.461 12.4671 178.433 12.3645 178.414C12.2618 178.395 12.1358 178.386 11.9865 178.386C11.7158 178.386 11.4311 178.493 11.1325 178.708C10.8338 178.913 10.5771 179.277 10.3625 179.8V184H8.75247Z" fill="#B4BCBF"/>
<path d="M7 201C7 200.724 6.77614 200.5 6.5 200.5C6.22386 200.5 6 200.724 6 201H7ZM7 357L7 201H6L6 357H7Z" fill="#B4BCBF"/>
</svg>
