<?xml version="1.0" encoding="UTF-8"?>
<svg width="300px" height="61px" viewBox="0 0 300 61" version="1.1" xmlns="http://www.w3.org/2000/svg" xmlns:xlink="http://www.w3.org/1999/xlink">
    <title>BADBE2CB-D89A-40A1-B1FC-597DCA4937E0</title>
    <defs>
        <polygon id="path-1" points="0 60.5179792 300 60.5179792 300 0 0 0"></polygon>
    </defs>
    <g id="Page-1" stroke="none" stroke-width="1" fill="none" fill-rule="evenodd">
        <g id="Homepage" transform="translate(-135.000000, -35.000000)">
            <g id="Logo/FMDM-1" transform="translate(135.000000, 35.000000)">
                <polygon id="Fill-1" fill="#040050" points="81.4575109 9.76740086 81.4575109 12.0832421 74.0724615 12.0832421 74.0724615 17.1877087 79.8308127 17.1877087 79.8308127 19.5051525 74.0724615 19.5051525 74.0724615 27.0745076 71.2181271 27.0745076 71.2181271 9.76740086"></polygon>
                <g id="Group-49" transform="translate(0.000000, 0.000000)">
                    <path d="M96.6027918,13.3533488 L96.6027918,27.0753089 L93.7484574,27.0753089 L93.7484574,25.4566241 C93.2981105,26.0207598 92.7099349,26.4646961 91.9839307,26.7884331 C91.2579265,27.1121701 90.4854452,27.2740385 89.6680895,27.2740385 C88.5830898,27.2740385 87.6118789,27.0496664 86.7528541,26.6009221 C85.8922266,26.1537804 85.2159048,25.4886772 84.7238887,24.6088178 C84.2318726,23.7289584 83.9866659,22.666396 83.9866659,21.4211305 L83.9866659,13.3533488 L86.8153577,13.3533488 L86.8153577,20.9980287 C86.8153577,22.2272676 87.1230681,23.1696307 87.7400916,23.8251179 C88.3587177,24.4806052 89.2017159,24.8091501 90.2690863,24.8091501 C91.3364567,24.8091501 92.184263,24.4806052 92.8109024,23.8251179 C93.4359391,23.1696307 93.7484574,22.2272676 93.7484574,20.9980287 L93.7484574,13.3533488 L96.6027918,13.3533488 Z" id="Fill-2" fill="#040050"></path>
                    <path d="M103.687343,15.6695105 L103.687343,23.2645081 C103.687343,23.7789614 103.807542,24.1491754 104.049544,24.3719449 C104.291545,24.5963171 104.705031,24.7085032 105.288398,24.7085032 L107.041707,24.7085032 L107.041707,27.0740268 L104.788369,27.0740268 C103.503037,27.0740268 102.519005,26.7759323 101.83467,26.1781408 C101.150335,25.5803493 100.807366,24.6091384 100.807366,23.2645081 L100.807366,15.6695105 L99.1806677,15.6695105 L99.1806677,13.3536693 L100.807366,13.3536693 L100.807366,9.94160982 L103.687343,9.94160982 L103.687343,13.3536693 L107.041707,13.3536693 L107.041707,15.6695105 L103.687343,15.6695105 Z" id="Fill-4" fill="#040050"></path>
                    <path d="M122.161986,13.3533488 L122.161986,27.0753089 L119.307652,27.0753089 L119.307652,25.4566241 C118.857305,26.0207598 118.269129,26.4646961 117.543125,26.7884331 C116.817121,27.1121701 116.044639,27.2740385 115.227284,27.2740385 C114.142284,27.2740385 113.171073,27.0496664 112.312048,26.6009221 C111.451421,26.1537804 110.775099,25.4886772 110.283083,24.6088178 C109.791067,23.7289584 109.54586,22.666396 109.54586,21.4211305 L109.54586,13.3533488 L112.374552,13.3533488 L112.374552,20.9980287 C112.374552,22.2272676 112.682262,23.1696307 113.299286,23.8251179 C113.917912,24.4806052 114.76091,24.8091501 115.828281,24.8091501 C116.895651,24.8091501 117.743457,24.4806052 118.370097,23.8251179 C118.995133,23.1696307 119.307652,22.2272676 119.307652,20.9980287 L119.307652,13.3533488 L122.161986,13.3533488 Z" id="Fill-6" fill="#040050"></path>
                    <path d="M130.435549,13.7142674 C131.127897,13.3248214 131.950061,13.1292971 132.900438,13.1292971 L132.900438,16.0669697 L132.174433,16.0669697 C131.057381,16.0669697 130.209574,16.3506403 129.63422,16.914776 C129.058866,17.4789117 128.770387,18.4581359 128.770387,19.8524486 L128.770387,27.0740268 L125.917655,27.0740268 L125.917655,13.3536693 L128.770387,13.3536693 L128.770387,15.3457735 C129.187078,14.6486172 129.743201,14.105316 130.435549,13.7142674" id="Fill-8" fill="#040050"></path>
                    <path d="M145.192827,18.9814038 C145.175197,17.934868 144.800175,17.0966777 144.066158,16.4652303 C143.33214,15.8353856 142.42183,15.5196619 141.336831,15.5196619 C140.352799,15.5196619 139.5098,15.8305777 138.809439,16.4540117 C138.107474,17.0758431 137.690783,17.9188414 137.557762,18.9814038 L145.192827,18.9814038 Z M148.071201,21.2716025 L137.53212,21.2716025 C137.615458,22.3678208 138.024136,23.2476802 138.759756,23.9111807 C139.493774,24.5762839 140.394468,24.9080341 141.461838,24.9080341 C142.998787,24.9080341 144.082184,24.2685735 144.716837,22.9912548 L147.795544,22.9912548 C147.378852,24.2525469 146.624,25.2862615 145.530987,26.0907959 C144.437974,26.8953304 143.080523,27.2992003 141.461838,27.2992003 C140.144453,27.2992003 138.963294,27.0043112 137.919963,26.4145329 C136.876633,25.8263573 136.059277,24.9945777 135.466293,23.9240019 C134.874913,22.8534262 134.578421,21.6129687 134.578421,20.2010268 C134.578421,18.7906875 134.866899,17.55023 135.442254,16.4780516 C136.017608,15.4074759 136.82695,14.5821069 137.870281,14.0003419 C138.913611,13.4201796 140.110797,13.1300985 141.461838,13.1300985 C142.764799,13.1300985 143.923521,13.4121663 144.942812,13.976302 C145.9605,14.5404377 146.753816,15.3337536 147.319554,16.3546469 C147.888498,17.3755402 148.172168,18.5502887 148.172168,19.8772898 C148.172168,20.3917431 148.138512,20.8581167 148.071201,21.2716025 L148.071201,21.2716025 Z" id="Fill-10" fill="#040050"></path>
                    <polygon id="Fill-12" fill="#040050" points="175.808728 9.76740086 175.808728 27.0745076 172.954394 27.0745076 172.954394 15.221247 167.647992 27.0745076 165.670312 27.0745076 160.338268 15.221247 160.338268 27.0745076 157.483933 27.0745076 157.483933 9.76740086 160.56264 9.76740086 166.671973 23.3387111 172.754061 9.76740086"></polygon>
                    <path d="M187.611665,24.3105631 C188.254331,23.9611836 188.776798,23.438717 189.17586,22.7415607 C189.576524,22.0444043 189.776857,21.1982007 189.776857,20.2013473 C189.776857,19.2060965 189.58614,18.3630983 189.201502,17.6739552 C188.816864,16.9848121 188.308822,16.4655509 187.674169,16.117774 C187.039516,15.7683945 186.355181,15.5937048 185.621164,15.5937048 C184.887146,15.5937048 184.207619,15.7683945 183.58098,16.117774 C182.955943,16.4655509 182.459119,16.9848121 182.09211,17.6739552 C181.725101,18.3630983 181.540796,19.2060965 181.540796,20.2013473 C181.540796,21.6789982 181.920626,22.8200909 182.680286,23.626228 C183.439946,24.4307625 184.39513,24.8330297 185.545839,24.8330297 C186.281459,24.8330297 186.968999,24.6599426 187.611665,24.3105631 M182.016785,26.4148534 C180.965441,25.8250752 180.13847,24.9948982 179.539075,23.9243225 C178.938079,22.8537467 178.636779,21.6132892 178.636779,20.2013473 C178.636779,18.8070346 178.946092,17.5697824 179.563115,16.4911934 C180.180139,15.4126044 181.023137,14.5824274 182.09211,14.0006624 C183.159481,13.4205001 184.353461,13.1288163 185.672449,13.1288163 C186.989834,13.1288163 188.183814,13.4205001 189.251185,14.0006624 C190.318555,14.5824274 191.163156,15.4126044 191.780179,16.4911934 C192.397203,17.5697824 192.706516,18.8070346 192.706516,20.2013473 C192.706516,21.59566 192.38919,22.8329122 191.754537,23.9115012 C191.119884,24.9916929 190.256051,25.8250752 189.164641,26.4148534 C188.070025,27.0046317 186.864826,27.2979181 185.545839,27.2979181 C184.24448,27.2979181 183.068129,27.0046317 182.016785,26.4148534" id="Fill-14" fill="#040050"></path>
                    <path d="M206.186475,17.6989567 C205.793823,17.0098136 205.276165,16.487347 204.635101,16.1299542 C203.992435,15.7725614 203.303292,15.5946664 202.569275,15.5946664 C201.851284,15.5946664 201.171757,15.7773694 200.529091,16.1427755 C199.886425,16.5081816 199.368766,17.0386615 198.976115,17.7358178 C198.583464,18.4329742 198.387939,19.2551379 198.387939,20.2023089 C198.387939,21.1478773 198.583464,21.9732463 198.976115,22.6800186 C199.368766,23.3851882 199.886425,23.9204761 200.529091,24.2858822 C201.171757,24.6512883 201.851284,24.8339913 202.569275,24.8339913 C203.303292,24.8339913 203.992435,24.6464803 204.635101,24.2730609 C205.276165,23.8996415 205.793823,23.3563404 206.186475,22.6415548 C206.577523,21.9283719 206.77465,21.0981949 206.77465,20.1510238 C206.77465,19.2054554 206.577523,18.3880997 206.186475,17.6989567 M200.378441,13.7644306 C201.221439,13.3413288 202.158994,13.1297779 203.194312,13.1297779 C204.412332,13.1297779 205.514961,13.4198591 206.498993,14.001624 C207.484628,14.5817863 208.260314,15.4071553 208.827655,16.4793337 C209.394997,17.5499094 209.678667,18.7743404 209.678667,20.1510238 C209.678667,21.5293099 209.394997,22.7633568 208.827655,23.8499591 C208.260314,24.9365614 207.47982,25.7843677 206.486172,26.3901725 C205.494126,26.9959773 204.396305,27.2988797 203.194312,27.2988797 C202.126941,27.2988797 201.17977,27.0905342 200.352799,26.6770483 C199.527429,26.2619598 198.871942,25.7298773 198.387939,25.0824033 L198.387939,27.0745076 L195.535208,27.0745076 L195.535208,8.64714273 L198.387939,8.64714273 L198.387939,15.3959367 C198.871942,14.7308335 199.535443,14.1875324 200.378441,13.7644306" id="Fill-16" fill="#040050"></path>
                    <mask id="mask-2" fill="white">
                        <use xlink:href="#path-1"></use>
                    </mask>
                    <g id="Clip-19"></g>
                    <path d="M212.507679,27.0753089 L215.362014,27.0753089 L215.362014,13.3533488 L212.507679,13.3533488 L212.507679,27.0753089 Z M212.658329,11.011865 C212.307347,10.6640882 212.132657,10.2329731 212.132657,9.71851978 C212.132657,9.20246382 212.307347,8.77134874 212.658329,8.4235719 C213.007709,8.07419239 213.442029,7.89950264 213.959688,7.89950264 C214.459717,7.89950264 214.886024,8.07419239 215.237006,8.4235719 C215.586386,8.77134874 215.762678,9.20246382 215.762678,9.71851978 C215.762678,10.2329731 215.586386,10.6640882 215.237006,11.011865 C214.886024,11.3612445 214.459717,11.5359343 213.959688,11.5359343 C213.442029,11.5359343 213.007709,11.3612445 212.658329,11.011865 L212.658329,11.011865 Z" id="Fill-18" fill="#040050" mask="url(#mask-2)"></path>
                    <polygon id="Fill-20" fill="#040050" mask="url(#mask-2)" points="219.115439 27.0753089 221.969774 27.0753089 221.969774 8.64794406 219.115439 8.64794406"></polygon>
                    <path d="M225.724802,27.0753089 L228.579137,27.0753089 L228.579137,13.3533488 L225.724802,13.3533488 L225.724802,27.0753089 Z M225.875452,11.011865 C225.52447,10.6640882 225.34978,10.2329731 225.34978,9.71851978 C225.34978,9.20246382 225.52447,8.77134874 225.875452,8.4235719 C226.224832,8.07419239 226.659152,7.89950264 227.176811,7.89950264 C227.67684,7.89950264 228.103147,8.07419239 228.454129,8.4235719 C228.803509,8.77134874 228.979801,9.20246382 228.979801,9.71851978 C228.979801,10.2329731 228.803509,10.6640882 228.454129,11.011865 C228.103147,11.3612445 227.67684,11.5359343 227.176811,11.5359343 C226.659152,11.5359343 226.224832,11.3612445 225.875452,11.011865 L225.875452,11.011865 Z" id="Fill-21" fill="#040050" mask="url(#mask-2)"></path>
                    <path d="M235.663527,15.6695105 L235.663527,23.2645081 C235.663527,23.7789614 235.783727,24.1491754 236.025728,24.3719449 C236.267729,24.5963171 236.681215,24.7085032 237.264583,24.7085032 L239.017891,24.7085032 L239.017891,27.0740268 L236.764553,27.0740268 C235.479222,27.0740268 234.495189,26.7759323 233.810854,26.1781408 C233.126519,25.5803493 232.78355,24.6091384 232.78355,23.2645081 L232.78355,15.6695105 L231.156852,15.6695105 L231.156852,13.3536693 L232.78355,13.3536693 L232.78355,9.94160982 L235.663527,9.94160982 L235.663527,13.3536693 L239.017891,13.3536693 L239.017891,15.6695105 L235.663527,15.6695105 Z" id="Fill-22" fill="#040050" mask="url(#mask-2)"></path>
                    <polygon id="Fill-23" fill="#040050" mask="url(#mask-2)" points="254.062846 13.3533488 245.602413 33.5244058 242.647111 33.5244058 245.451763 26.8509368 240.018751 13.3533488 243.198425 13.3533488 247.078461 23.8122967 251.109146 13.3533488"></polygon>
                    <path d="M80.9816816,47.5112854 C81.8823756,46.631426 82.3343252,45.3861605 82.3343252,43.7754889 C82.3343252,42.16642 81.8823756,40.9131413 80.9816816,40.0156526 C80.0809877,39.1197667 78.8196956,38.6710223 77.2010107,38.6710223 L75.173648,38.6710223 L75.173648,48.8318758 L77.2010107,48.8318758 C78.8196956,48.8318758 80.0809877,48.3911448 80.9816816,47.5112854 M82.3343252,36.130809 C83.719022,36.8616211 84.7912003,37.8873224 85.5508604,39.2063102 C86.3089177,40.5269006 86.6887477,42.049426 86.6887477,43.7754889 C86.6887477,45.4855253 86.3089177,47.0048454 85.5508604,48.3334491 C84.7912003,49.6620528 83.714214,50.6909594 82.3215039,51.4217716 C80.9271912,52.1509811 79.3133144,52.5163872 77.476668,52.5163872 L70.8929478,52.5163872 L70.8929478,35.0345907 L77.476668,35.0345907 C79.3293409,35.0345907 80.9480258,35.3999968 82.3343252,36.130809" id="Fill-24" fill="#040050" mask="url(#mask-2)"></path>
                    <path d="M97.8166452,43.0536517 C97.2236616,42.4398335 96.5024654,42.1321231 95.6514539,42.1321231 C94.8004423,42.1321231 94.0776435,42.4350256 93.4862625,43.0408304 C92.893279,43.6482379 92.5967872,44.4816202 92.5967872,45.5441826 C92.5967872,46.6067451 92.893279,47.4497433 93.4862625,48.0715747 C94.0776435,48.6934061 94.8004423,49.0059245 95.6514539,49.0059245 C96.5024654,49.0059245 97.2236616,48.6982141 97.8166452,48.084396 C98.4096288,47.4705779 98.7061206,46.6307849 98.7061206,45.5698251 C98.7061206,44.5072627 98.4096288,43.6674698 97.8166452,43.0536517 M89.0549124,41.7843463 C89.5966109,40.7041546 90.3354364,39.8755803 91.2713888,39.2938153 C92.2057386,38.7120504 93.2474665,38.4219692 94.3997778,38.4219692 C95.3838099,38.4219692 96.2476428,38.6206989 96.9912762,39.0197608 C97.733307,39.4188227 98.305456,39.9412893 98.7061206,40.5887632 L98.7061206,38.6206989 L102.986821,38.6206989 L102.986821,52.5173488 L98.7061206,52.5173488 L98.7061206,50.5492844 C98.2878267,51.1967584 97.7076644,51.719225 96.9656337,52.1182869 C96.2236029,52.5173488 95.3597701,52.7160784 94.3741352,52.7160784 C93.2394532,52.7160784 92.2057386,52.4211893 91.2713888,51.831411 C90.3354364,51.2432354 89.5966109,50.4050452 89.0549124,49.3168402 C88.5116113,48.2286352 88.240762,46.9721511 88.240762,45.5441826 C88.240762,44.1162141 88.5116113,42.8629353 89.0549124,41.7843463" id="Fill-25" fill="#040050" mask="url(#mask-2)"></path>
                    <path d="M113.876082,48.9057584 L113.876082,52.5165474 L111.69807,52.5165474 C110.145094,52.5165474 108.935087,52.1399228 108.068049,51.383468 C107.201011,50.628616 106.76669,49.3961718 106.76669,47.6861354 L106.76669,42.1569644 L105.064667,42.1569644 L105.064667,38.6215002 L106.76669,38.6215002 L106.76669,35.2350833 L111.047391,35.2350833 L111.047391,38.6215002 L113.85044,38.6215002 L113.85044,42.1569644 L111.047391,42.1569644 L111.047391,47.7358178 C111.047391,48.1509063 111.146755,48.4490007 111.347088,48.6317038 C111.54742,48.8144068 111.880773,48.9057584 112.348749,48.9057584 L113.876082,48.9057584 Z" id="Fill-26" fill="#040050" mask="url(#mask-2)"></path>
                    <path d="M124.978177,43.0536517 C124.385194,42.4398335 123.663997,42.1321231 122.812986,42.1321231 C121.961974,42.1321231 121.239175,42.4350256 120.647794,43.0408304 C120.054811,43.6482379 119.758319,44.4816202 119.758319,45.5441826 C119.758319,46.6067451 120.054811,47.4497433 120.647794,48.0715747 C121.239175,48.6934061 121.961974,49.0059245 122.812986,49.0059245 C123.663997,49.0059245 124.385194,48.6982141 124.978177,48.084396 C125.571161,47.4705779 125.867652,46.6307849 125.867652,45.5698251 C125.867652,44.5072627 125.571161,43.6674698 124.978177,43.0536517 M116.216444,41.7843463 C116.758143,40.7041546 117.496968,39.8755803 118.432921,39.2938153 C119.367271,38.7120504 120.408998,38.4219692 121.56131,38.4219692 C122.545342,38.4219692 123.409175,38.6206989 124.152808,39.0197608 C124.894839,39.4188227 125.466988,39.9412893 125.867652,40.5887632 L125.867652,38.6206989 L130.148353,38.6206989 L130.148353,52.5173488 L125.867652,52.5173488 L125.867652,50.5492844 C125.449359,51.1967584 124.869196,51.719225 124.127166,52.1182869 C123.385135,52.5173488 122.521302,52.7160784 121.535667,52.7160784 C120.400985,52.7160784 119.367271,52.4211893 118.432921,51.831411 C117.496968,51.2432354 116.758143,50.4050452 116.216444,49.3168402 C115.673143,48.2286352 115.402294,46.9721511 115.402294,45.5441826 C115.402294,44.1162141 115.673143,42.8629353 116.216444,41.7843463" id="Fill-27" fill="#040050" mask="url(#mask-2)"></path>
                    <polygon id="Fill-28" fill="#040050" mask="url(#mask-2)" points="158.460433 35.0352318 158.460433 52.5170282 154.179733 52.5170282 154.179733 42.0324378 150.248412 52.5170282 146.794683 52.5170282 142.839323 42.0083979 142.839323 52.5170282 138.558623 52.5170282 138.558623 35.0352318 143.615009 35.0352318 148.546389 47.1385071 153.428086 35.0352318"></polygon>
                    <path d="M170.263851,43.0536517 C169.670867,42.4398335 168.949671,42.1321231 168.09866,42.1321231 C167.247648,42.1321231 166.524849,42.4350256 165.933468,43.0408304 C165.340485,43.6482379 165.043993,44.4816202 165.043993,45.5441826 C165.043993,46.6067451 165.340485,47.4497433 165.933468,48.0715747 C166.524849,48.6934061 167.247648,49.0059245 168.09866,49.0059245 C168.949671,49.0059245 169.670867,48.6982141 170.263851,48.084396 C170.856835,47.4705779 171.153326,46.6307849 171.153326,45.5698251 C171.153326,44.5072627 170.856835,43.6674698 170.263851,43.0536517 M161.502118,41.7843463 C162.043817,40.7041546 162.782642,39.8755803 163.718595,39.2938153 C164.652944,38.7120504 165.694672,38.4219692 166.846984,38.4219692 C167.831016,38.4219692 168.694849,38.6206989 169.438482,39.0197608 C170.180513,39.4188227 170.752662,39.9412893 171.153326,40.5887632 L171.153326,38.6206989 L175.434027,38.6206989 L175.434027,52.5173488 L171.153326,52.5173488 L171.153326,50.5492844 C170.735033,51.1967584 170.15487,51.719225 169.412839,52.1182869 C168.670809,52.5173488 167.806976,52.7160784 166.821341,52.7160784 C165.686659,52.7160784 164.652944,52.4211893 163.718595,51.831411 C162.782642,51.2432354 162.043817,50.4050452 161.502118,49.3168402 C160.958817,48.2286352 160.687968,46.9721511 160.687968,45.5441826 C160.687968,44.1162141 160.958817,42.8629353 161.502118,41.7843463" id="Fill-29" fill="#040050" mask="url(#mask-2)"></path>
                    <path d="M184.695308,39.1317866 C185.446955,38.6926582 186.280337,38.4714914 187.19866,38.4714914 L187.19866,42.9797691 L186.022309,42.9797691 C184.953336,42.9797691 184.152007,43.2073466 183.618322,43.6641042 C183.084636,44.1208618 182.818595,44.9221909 182.818595,46.0664889 L182.818595,52.5171885 L178.536292,52.5171885 L178.536292,38.6205386 L182.818595,38.6205386 L182.818595,40.9379825 C183.318624,40.1735145 183.945264,39.5725176 184.695308,39.1317866" id="Fill-30" fill="#040050" mask="url(#mask-2)"></path>
                    <polygon id="Fill-31" fill="#040050" mask="url(#mask-2)" points="197.788064 52.5167077 193.533007 46.6894422 193.533007 52.5167077 189.250704 52.5167077 189.250704 34.0893429 193.533007 34.0893429 193.533007 44.2742362 197.762422 38.6216605 203.044784 38.6216605 197.23675 45.593224 203.096069 52.5167077"></polygon>
                    <path d="M213.50886,44.2242333 C213.50886,43.4934211 213.258845,42.9132588 212.758816,42.4805411 C212.257184,42.049426 211.632147,41.8330671 210.8805,41.8330671 C210.16251,41.8330671 209.558307,42.0414127 209.064689,42.4565012 C208.572673,42.8715897 208.268167,43.4613679 208.151173,44.2242333 L213.50886,44.2242333 Z M217.815203,46.5897569 L208.127134,46.5897569 C208.192843,47.4535897 208.473308,48.1138849 208.965324,48.5690398 C209.45734,49.0257975 210.063145,49.2549776 210.779533,49.2549776 C211.848506,49.2549776 212.590537,48.8062333 213.008831,47.9103473 L217.565188,47.9103473 C217.3312,48.8222599 216.909701,49.6444236 216.300691,50.3752357 C215.690078,51.1060479 214.927213,51.6781969 214.010492,52.0932854 C213.092169,52.5083739 212.064865,52.7167195 210.930183,52.7167195 C209.561513,52.7167195 208.343492,52.4250357 207.276122,51.8448734 C206.207149,51.2631084 205.373767,50.4329314 204.77277,49.3543424 C204.171773,48.2757534 203.870473,47.0128587 203.870473,45.5688636 C203.870473,44.1248684 204.166965,42.8635764 204.759949,41.7833847 C205.351329,40.7047957 206.183109,39.8746187 207.250479,39.2928537 C208.31785,38.7126915 209.545486,38.4210076 210.930183,38.4210076 C212.282826,38.4210076 213.48482,38.7046782 214.536164,39.2688139 C215.587508,39.8329496 216.408069,40.637484 217.001052,41.6840199 C217.594036,42.7305557 217.890528,43.9501787 217.890528,45.3444914 C217.890528,45.7435533 217.864885,46.1586418 217.815203,46.5897569 L217.815203,46.5897569 Z" id="Fill-32" fill="#040050" mask="url(#mask-2)"></path>
                    <path d="M227.928938,48.9057584 L227.928938,52.5165474 L225.750926,52.5165474 C224.19795,52.5165474 222.987943,52.1399228 222.120905,51.383468 C221.253866,50.628616 220.819546,49.3961718 220.819546,47.6861354 L220.819546,42.1569644 L219.117523,42.1569644 L219.117523,38.6215002 L220.819546,38.6215002 L220.819546,35.2350833 L225.100246,35.2350833 L225.100246,38.6215002 L227.903296,38.6215002 L227.903296,42.1569644 L225.100246,42.1569644 L225.100246,47.7358178 C225.100246,48.1509063 225.199611,48.4490007 225.399943,48.6317038 C225.600276,48.8144068 225.933629,48.9057584 226.401605,48.9057584 L227.928938,48.9057584 Z" id="Fill-33" fill="#040050" mask="url(#mask-2)"></path>
                    <path d="M239.80704,43.0414715 C239.214056,42.4356666 238.483244,42.1327642 237.616206,42.1327642 C236.765195,42.1327642 236.043998,42.4404746 235.451015,43.0542927 C234.858031,43.6681108 234.561539,44.5063011 234.561539,45.5688636 C234.561539,46.631426 234.858031,47.4696163 235.451015,48.085037 C236.043998,48.6988552 236.765195,49.0049629 237.616206,49.0049629 C238.467218,49.0049629 239.193222,48.6940472 239.794219,48.0722158 C240.395216,47.4487817 240.694913,46.6073861 240.694913,45.5448237 C240.694913,44.4822612 240.398421,43.6472763 239.80704,43.0414715 M236.314848,39.0187992 C237.048865,38.6213399 237.90789,38.4226103 238.893525,38.4226103 C240.044233,38.4226103 241.087564,38.7126915 242.021914,39.2928537 C242.956263,39.8746187 243.695089,40.7047957 244.23839,41.7833847 C244.780089,42.8635764 245.050938,44.1168552 245.050938,45.5448237 C245.050938,46.9711895 244.780089,48.2292763 244.23839,49.3174813 C243.695089,50.4040836 242.956263,51.2422739 242.021914,51.8320521 C241.087564,52.4218303 240.044233,52.7167195 238.893525,52.7167195 C237.925519,52.7167195 237.0697,52.5163872 236.327669,52.1189279 C235.584035,51.719866 235.003873,51.2054127 234.587182,50.5739654 L234.587182,59.1401738 L230.306482,59.1401738 L230.306482,38.6213399 L234.587182,38.6213399 L234.587182,40.5894043 C235.003873,39.9403277 235.579227,39.4178611 236.314848,39.0187992" id="Fill-34" fill="#040050" mask="url(#mask-2)"></path>
                    <polygon id="Fill-35" fill="#040050" mask="url(#mask-2)" points="247.304596 52.517509 251.585296 52.517509 251.585296 34.0901442 247.304596 34.0901442"></polygon>
                    <path d="M263.413395,43.0536517 C262.820411,42.4398335 262.099215,42.1321231 261.248204,42.1321231 C260.397192,42.1321231 259.674393,42.4350256 259.083012,43.0408304 C258.490029,43.6482379 258.193537,44.4816202 258.193537,45.5441826 C258.193537,46.6067451 258.490029,47.4497433 259.083012,48.0715747 C259.674393,48.6934061 260.397192,49.0059245 261.248204,49.0059245 C262.099215,49.0059245 262.820411,48.6982141 263.413395,48.084396 C264.006379,47.4705779 264.30287,46.6307849 264.30287,45.5698251 C264.30287,44.5072627 264.006379,43.6674698 263.413395,43.0536517 M254.651662,41.7843463 C255.193361,40.7041546 255.932186,39.8755803 256.868139,39.2938153 C257.802488,38.7120504 258.844216,38.4219692 259.996528,38.4219692 C260.98056,38.4219692 261.844393,38.6206989 262.588026,39.0197608 C263.330057,39.4188227 263.902206,39.9412893 264.30287,40.5887632 L264.30287,38.6206989 L268.583571,38.6206989 L268.583571,52.5173488 L264.30287,52.5173488 L264.30287,50.5492844 C263.884577,51.1967584 263.304414,51.719225 262.562383,52.1182869 C261.820353,52.5173488 260.95652,52.7160784 259.970885,52.7160784 C258.836203,52.7160784 257.802488,52.4211893 256.868139,51.831411 C255.932186,51.2432354 255.193361,50.4050452 254.651662,49.3168402 C254.108361,48.2286352 253.837512,46.9721511 253.837512,45.5441826 C253.837512,44.1162141 254.108361,42.8629353 254.651662,41.7843463" id="Fill-36" fill="#040050" mask="url(#mask-2)"></path>
                    <path d="M271.72446,41.7838655 C272.317444,40.7052765 273.142813,39.8750995 274.20217,39.2933345 C275.26313,38.7131722 276.476342,38.4214884 277.845012,38.4214884 C279.59832,38.4214884 281.061547,38.8782461 282.239501,39.7917613 C283.415852,40.7052765 284.186731,41.9922111 284.555342,43.6509624 L279.998985,43.6509624 C279.614347,42.5900026 278.872316,42.0579201 277.769687,42.0579201 C276.985987,42.0579201 276.359348,42.3608225 275.892974,42.9666273 C275.424998,43.5724321 275.19101,44.4394703 275.19101,45.5693444 C275.19101,46.6976158 275.424998,47.5646539 275.892974,48.1704587 C276.359348,48.7778662 276.985987,49.0807686 277.769687,49.0807686 C278.872316,49.0807686 279.614347,48.5486861 279.998985,47.4861237 L284.555342,47.4861237 C284.186731,49.1144245 283.411044,50.3917431 282.22668,51.3212849 C281.040713,52.2508267 279.580691,52.7155976 277.845012,52.7155976 C276.476342,52.7155976 275.26313,52.4255165 274.20217,51.8437515 C273.142813,51.2635892 272.317444,50.4334122 271.72446,49.3532205 C271.131477,48.2746315 270.836588,47.0133395 270.836588,45.5693444 C270.836588,44.1253492 271.131477,42.8624545 271.72446,41.7838655" id="Fill-37" fill="#040050" mask="url(#mask-2)"></path>
                    <path d="M295.619134,44.2242333 C295.619134,43.4934211 295.369119,42.9132588 294.86909,42.4805411 C294.367457,42.049426 293.742421,41.8330671 292.990774,41.8330671 C292.272783,41.8330671 291.668581,42.0414127 291.174962,42.4565012 C290.682946,42.8715897 290.378441,43.4613679 290.261447,44.2242333 L295.619134,44.2242333 Z M299.925476,46.5897569 L290.237407,46.5897569 C290.303116,47.4535897 290.583581,48.1138849 291.075597,48.5690398 C291.567613,49.0257975 292.173418,49.2549776 292.889807,49.2549776 C293.95878,49.2549776 294.70081,48.8062333 295.119104,47.9103473 L299.675462,47.9103473 C299.441474,48.8222599 299.019974,49.6444236 298.410964,50.3752357 C297.800352,51.1060479 297.037486,51.6781969 296.120766,52.0932854 C295.202442,52.5083739 294.175138,52.7167195 293.040456,52.7167195 C291.671786,52.7167195 290.453766,52.4250357 289.386396,51.8448734 C288.317422,51.2631084 287.48404,50.4329314 286.883043,49.3543424 C286.282046,48.2757534 285.980747,47.0128587 285.980747,45.5688636 C285.980747,44.1248684 286.277239,42.8635764 286.870222,41.7833847 C287.461603,40.7047957 288.293383,39.8746187 289.360753,39.2928537 C290.428123,38.7126915 291.65576,38.4210076 293.040456,38.4210076 C294.3931,38.4210076 295.595094,38.7046782 296.646438,39.2688139 C297.696179,39.8329496 298.518342,40.637484 299.111326,41.6840199 C299.70431,42.7305557 300.000801,43.9501787 300.000801,45.3444914 C300.000801,45.7435533 299.975159,46.1586418 299.925476,46.5897569 L299.925476,46.5897569 Z" id="Fill-38" fill="#040050" mask="url(#mask-2)"></path>
                    <path d="M54.7714876,40.143705 C54.5647447,40.143705 54.3580018,40.1356917 54.1480536,40.1196652 C52.0036968,39.9577967 50.046851,38.9721618 48.6429224,37.3454637 C48.3496359,37.0057001 48.0948133,36.6434994 47.8656331,36.2668747 C46.9569259,38.8856183 45.464851,41.2896057 43.4663362,43.276902 C37.1390413,49.5721437 27.2169839,50.471235 19.8736037,45.4164508 C18.9600885,44.7882087 18.094653,44.0670125 17.2997345,43.276902 C14.97588,40.9658687 11.209633,40.9658687 8.88417589,43.276902 C6.56192404,45.5879352 6.56192404,49.3365529 8.88417589,51.6475861 C10.1839317,52.9393287 11.6022843,54.1172825 13.1023725,55.1493945 C18.3366544,58.7537729 24.3658548,60.5182997 30.3662074,60.5182997 C38.2032064,60.5182997 45.9921256,57.5053021 51.8802921,51.6475861 C55.5728168,47.9742934 58.2220109,43.4371678 59.6275422,38.5057883 C58.268488,39.5330922 56.5824915,40.143705 54.7714876,40.143705" id="Fill-39" fill="#108A43" mask="url(#mask-2)"></path>
                    <path d="M5.44727521,47.4627248 C5.44727521,45.4305541 6.24219372,43.5217881 7.68618883,42.0858063 C9.59495483,40.1882589 12.2665862,39.5119371 14.725064,40.042417 C10.2392235,32.9362302 11.0886323,23.4276587 17.2989332,17.249411 C18.6179209,15.9368339 20.1115984,14.8374103 21.7382966,13.9815908 C24.643916,12.4542575 25.7545582,8.87391887 24.2192116,5.984326 C22.6822623,3.09473313 19.0826918,1.98889892 16.1770724,3.51783492 C13.4990304,4.92496888 11.0453606,6.7295621 8.88497722,8.87872685 C-1.6813488,19.3889598 -2.81923617,35.7729354 5.45208319,47.560487 C5.45208319,47.5268312 5.44727521,47.494778 5.44727521,47.4627248" id="Fill-40" fill="#87C300" mask="url(#mask-2)"></path>
                    <path d="M51.8807729,8.87808578 C43.6735599,0.714144528 31.8427365,-1.97992403 21.1225553,1.4641886 C23.028116,2.025119 24.7173178,3.31365625 25.7173766,5.19517707 C26.977066,7.56871397 26.8392373,10.3092596 25.6035878,12.4904775 C31.8940216,10.7980704 38.68769,12.4952855 43.466817,17.24877 C47.2859516,21.0486727 49.2411947,26.3037892 48.8309142,31.6678865 C48.5825022,34.9276934 51.036172,37.7708092 54.3136082,38.0192212 C54.4674634,38.0304398 54.6197159,38.0352478 54.7703658,38.0352478 C57.8522776,38.0352478 60.4598027,35.6729295 60.6969961,32.5653751 C61.3701126,23.7555626 58.1567827,15.1220424 51.8807729,8.87808578" id="Fill-41" fill="#00B96E" mask="url(#mask-2)"></path>
                    <path d="M25.0574019,26.4312006 C26.0654739,26.4312006 26.8844323,25.6154475 26.8844323,24.6121834 C26.8844323,23.610522 26.0654739,22.7947689 25.0574019,22.7947689 C24.0493298,22.7947689 23.2303714,23.610522 23.2303714,24.6121834 C23.2303714,25.6154475 24.0493298,26.4312006 25.0574019,26.4312006" id="Fill-42" fill="#316AEA" mask="url(#mask-2)"></path>
                    <path d="M26.2025012,20.5055318 C28.0167104,21.0087665 29.3581354,22.6498886 29.3581354,24.613145 C29.3581354,26.5764014 28.0167104,28.2175235 26.2025012,28.7191555 L26.2025012,43.3898894 L32.8455198,37.3334437 C32.5618493,36.7612947 32.3871595,36.1266421 32.3871595,35.4471149 C32.3871595,33.5175144 33.6853127,31.9020348 35.4514421,31.3683496 L35.4514421,14.304847 C32.4496632,13.3640866 29.2411413,13.287159 26.2025012,14.0596403 L26.2025012,20.5055318 Z" id="Fill-43" fill="#316AEA" mask="url(#mask-2)"></path>
                    <path d="M20.9598855,23.3815021 C21.3669607,22.0464878 22.4006753,20.9951439 23.729279,20.5624262 L23.729279,14.8938239 C21.8269236,15.709577 20.0415623,16.8763122 18.4885864,18.4228774 C17.0061275,19.897323 15.8762534,21.5865248 15.0637057,23.3815021 L20.9598855,23.3815021 Z" id="Fill-44" fill="#316AEA" mask="url(#mask-2)"></path>
                    <path d="M34.8607023,35.4474355 C34.8607023,35.928233 35.0530213,36.364156 35.3607317,36.6894956 C35.363937,36.692701 35.368745,36.6943036 35.3735529,36.6975089 C35.3783609,36.7055222 35.3799636,36.7135355 35.3863742,36.7199462 C35.7181245,37.0565044 36.1780874,37.2664526 36.6877327,37.2664526 C37.6942021,37.2664526 38.5147632,36.4506996 38.5147632,35.4474355 C38.5147632,34.4441714 37.6942021,33.6284183 36.6877327,33.6284183 C35.6796607,33.6284183 34.8607023,34.4441714 34.8607023,35.4474355" id="Fill-45" fill="#316AEA" mask="url(#mask-2)"></path>
                    <path d="M23.7289584,28.6629022 C22.4003547,28.2301845 21.3666401,27.1788406 20.9595649,25.8438263 L14.3854607,25.8438263 C14.3133411,25.8438263 14.2428241,25.8342103 14.1739098,25.8229917 C12.6273446,31.435501 14.0569157,37.6922789 18.4882659,42.1027945 C20.0412417,43.6493597 21.8266031,44.816095 23.7289584,45.631848 L23.7289584,28.6629022 Z" id="Fill-46" fill="#316AEA" mask="url(#mask-2)"></path>
                    <path d="M42.2776445,18.4228774 C40.9682727,17.1199162 39.4938271,16.0878043 37.9248246,15.3041044 L37.9248246,31.369151 C39.6909541,31.9012335 40.9875046,33.5183157 40.9875046,35.4479163 C40.9875046,37.3646956 39.705378,38.9737645 37.9568778,39.515463 L37.9568778,45.2065025 C39.513059,44.4244053 40.9778887,43.3971013 42.2776445,42.1021534 C48.8469408,35.5633077 48.8469408,24.9617232 42.2776445,18.4228774" id="Fill-47" fill="#316AEA" mask="url(#mask-2)"></path>
                    <path d="M35.4831748,46.1865281 L35.4831748,39.5354962 C35.1482192,39.4377341 34.8308928,39.3031108 34.5344011,39.1316263 L26.4297582,46.519881 C29.4347424,47.2410772 32.5935819,47.1336991 35.5488837,46.1865281 L35.4831748,46.1865281 Z" id="Fill-48" fill="#316AEA" mask="url(#mask-2)"></path>
                </g>
            </g>
        </g>
    </g>
</svg>