<svg width="160" height="194" viewBox="0 0 160 194" fill="none" xmlns="http://www.w3.org/2000/svg">
<g clip-path="url(#clip0_3_637)">
<path d="M30.6279 76.0839C30.4429 75.7945 29.277 73.9711 28.4132 74.1558C26.7758 74.5059 27.664 81.7627 25.2836 82.4863C24.7612 82.6452 24.0259 82.5063 22.3836 82.9456C21.7302 83.1204 21.3915 83.2641 21.2863 83.5535C21.1371 83.964 21.5884 84.309 22.2587 85.3094C23.2638 86.8097 22.9548 87.0874 23.8387 88.1628C24.4949 88.9611 25.0099 89.2273 24.9089 89.5776C24.7661 90.0733 23.6427 89.8603 23.3728 90.4286C23.0975 91.0086 23.8969 92.0108 24.5882 92.6235C25.8856 93.7733 27.1786 93.8843 28.3627 94.2612C29.6495 94.6709 31.4093 95.5861 33.231 97.8743L47.7895 117.585C46.6155 117.14 44.3279 116.226 41.2073 114.662C38.5753 113.343 35.9659 111.841 33.4513 110.198C32.367 109.489 31.4194 108.83 30.5681 108.215L30.6545 108.261L30.2386 106.755C30.0791 106.157 29.9745 105.668 30.1959 105.275C30.318 105.065 30.5484 104.848 30.8169 104.597C31.1248 104.31 31.4744 103.984 31.8149 103.532C32.1306 103.126 32.2024 102.763 32.0448 102.459C31.9913 102.356 31.921 102.282 31.8469 102.228C31.9316 102.094 32.028 101.936 32.1138 101.746C32.2955 101.341 32.34 100.995 32.3721 100.738C32.504 99.7023 32.3363 99.0922 31.8719 98.9239C31.6755 98.8531 31.4983 98.8855 31.3499 98.9552C31.3389 98.7428 31.3106 98.4929 31.2332 98.2235C30.984 97.3587 30.6373 96.9203 30.1758 96.8842C29.5309 96.8332 29.2057 97.5459 28.8298 98.3695C28.6613 98.7355 28.2192 99.7102 27.9883 99.7111C27.9597 99.7108 27.8783 99.6933 27.8061 99.6774C27.6083 99.6343 27.3101 99.5696 26.8445 99.5565C26.5835 99.5492 26.1894 99.5377 25.9483 99.8611C25.7336 100.171 25.8395 100.5 25.9371 100.764C25.9694 100.851 26.008 100.954 26.0468 101.079C26.1352 101.364 26.15 101.518 26.1645 101.668C26.1833 101.862 26.2029 102.063 26.3419 102.395C26.3537 102.422 26.3644 102.447 26.3754 102.471C26.2447 102.501 26.1078 102.564 25.9927 102.692C25.5597 103.164 25.9636 103.944 26.156 104.254C26.5018 104.81 26.9401 105.077 27.2926 105.292C27.3815 105.346 27.4688 105.399 27.5532 105.457C27.9905 105.755 28.3532 106.206 28.6438 106.787C28.3001 106.525 27.9714 106.273 27.6628 106.035C26.5578 105.185 25.5188 104.356 24.5059 103.548C23.4643 102.717 22.4444 101.904 21.4069 101.111L21.4722 100.826L21.2216 100.971C19.5854 99.7267 17.9003 98.5312 16.0083 97.3971C15.9307 97.3506 15.839 97.2962 15.7444 97.2408L15.6543 96.9147C15.4948 96.3165 15.3903 95.828 15.6116 95.4349C15.7337 95.2248 15.9642 95.0078 16.2326 94.7565C16.5405 94.469 16.8901 94.1436 17.2306 93.6916C17.5463 93.285 17.6181 92.9224 17.4604 92.6185C17.407 92.5151 17.3367 92.4417 17.2626 92.3877C17.3473 92.2537 17.4437 92.0953 17.5294 91.905C17.7111 91.5008 17.7556 91.1548 17.7877 90.8972C17.9197 89.8617 17.752 89.2517 17.2875 89.0834C17.0912 89.0126 16.914 89.045 16.7656 89.1147C16.7546 88.9023 16.7263 88.6523 16.6489 88.383C16.3997 87.5182 16.053 87.0798 15.5915 87.0437C14.9466 86.9926 14.6213 87.7053 14.2455 88.529C14.077 88.8949 13.6348 89.8697 13.404 89.8705C13.3754 89.8703 13.294 89.8527 13.2218 89.8369C13.024 89.7938 12.7258 89.729 12.2602 89.716C11.9992 89.7087 11.6051 89.6972 11.364 90.0205C11.1492 90.3305 11.2552 90.6599 11.3528 90.9232C11.3851 91.0101 11.4237 91.1133 11.4625 91.2385C11.5509 91.5239 11.5657 91.6778 11.5803 91.827C11.599 92.021 11.6186 92.2225 11.7576 92.5541C11.7694 92.581 11.7801 92.6061 11.7911 92.6308C11.6604 92.6607 11.5235 92.7237 11.4084 92.8517C10.9754 93.323 11.3793 94.1034 11.5717 94.414C11.9176 94.9698 12.3558 95.2367 12.7083 95.4515C12.7972 95.5057 12.8845 95.5589 12.9689 95.6164C13.2161 95.7848 13.4384 96.0043 13.6397 96.2643C12.9979 96.0477 12.2568 95.8693 11.4212 95.7928C10.4226 95.7014 9.4108 95.7689 8.40227 95.9887C8.3952 95.9127 8.38826 95.838 8.38051 95.7552C8.29478 94.8274 8.23205 94.4424 7.91236 94.0816C7.75715 93.9055 7.51942 93.7117 6.83976 93.4904C5.89771 93.1835 5.09082 93.1371 4.86533 93.1301C3.73913 93.098 2.76642 93.0704 1.88329 93.7499C1.71478 93.8786 1.20303 94.2686 0.922135 94.9565C0.778348 95.3046 0.75242 95.5871 0.731611 95.8143C0.709654 96.0517 0.695823 96.2088 0.56253 96.4286C0.478397 96.5687 0.377181 96.683 0.296742 96.7749C0.141401 96.9592 -0.150584 97.2965 0.0941278 97.6626C0.152935 97.7512 0.227259 97.8134 0.311733 97.8554C0.266906 98.1661 0.29424 98.4874 0.448058 98.7783C0.585874 99.04 0.823418 99.2153 1.4634 99.5279C2.44264 100.007 3.23184 100.24 3.38857 100.284C4.40432 100.572 4.91366 100.716 5.45964 100.696C6.62149 100.649 7.46552 100.289 7.96815 99.6238C7.99349 99.5914 8.01695 99.5583 8.03938 99.525C8.39168 99.0027 8.42984 98.4561 8.49072 97.5857C8.50223 97.4177 8.49881 97.224 8.48409 96.9771C9.43677 96.7555 10.3915 96.6801 11.3312 96.7661C13.3653 96.9525 14.8108 97.819 15.505 98.2356C17.2339 99.2719 18.7926 100.366 20.3042 101.504L20.122 101.61C19.5839 101.916 19.138 102.141 18.7017 102.026C18.4675 101.962 18.1992 101.794 17.8881 101.598C17.532 101.373 17.1286 101.117 16.6051 100.902C16.1318 100.7 15.7629 100.722 15.509 100.952C15.4226 101.03 15.3695 101.117 15.3361 101.202C15.1849 101.154 15.0073 101.101 14.8015 101.066C14.3645 100.993 14.0186 101.038 13.7614 101.072C12.7265 101.207 12.1791 101.524 12.1342 102.016C12.1154 102.224 12.1917 102.387 12.2968 102.513C12.0942 102.578 11.8596 102.668 11.6188 102.812C10.8456 103.272 10.5096 103.719 10.5917 104.174C10.7059 104.811 11.4777 104.945 12.3696 105.1C12.7662 105.17 13.8211 105.351 13.8804 105.574C13.8874 105.601 13.8911 105.685 13.8941 105.759C13.9026 105.961 13.9156 106.266 14.0211 106.72C14.0802 106.974 14.1691 107.358 14.5429 107.509C14.8971 107.639 15.1889 107.453 15.4188 107.291C15.4946 107.238 15.5846 107.174 15.6958 107.105C15.9494 106.947 16.0945 106.894 16.2351 106.842C16.418 106.775 16.6079 106.705 16.8933 106.486C16.9163 106.468 16.9379 106.451 16.9589 106.434C17.021 106.553 17.1167 106.669 17.2696 106.748C17.8352 107.048 18.4875 106.459 18.739 106.194C19.1888 105.718 19.3358 105.227 19.4541 104.831C19.484 104.731 19.5133 104.633 19.5475 104.537C19.7626 103.932 20.2116 103.372 20.8825 102.873L21.0276 102.765L21.1662 102.16C22.077 102.863 22.9788 103.58 23.897 104.313C24.9134 105.124 25.9571 105.956 27.0667 106.81C28.5379 107.942 30.3682 109.351 32.9174 111.017C35.4626 112.68 38.1041 114.2 40.77 115.536C43.1442 116.726 45.0457 117.546 46.3504 118.072C42.5486 118.326 37.2894 118.628 34.9126 118.671C33.9884 118.687 33.0362 118.673 32.3574 118.033C31.7039 117.418 31.3826 116.297 30.4319 115.126C30.3208 114.989 30.0069 114.613 29.729 114.679C29.4992 114.734 29.5034 115.042 29.2897 115.097C29.003 115.17 28.7628 114.676 28.1695 114.211C27.7511 113.883 27.3698 113.736 27.0419 113.61C26.9431 113.572 25.4616 113.013 25.1895 113.42C24.9852 113.725 25.6404 114.311 25.4458 114.569C25.252 114.827 24.534 114.335 23.4507 114.375C23.2553 114.383 22.0241 114.429 21.8655 114.906C21.5649 115.811 25.3821 117.469 25.0504 118.846C24.9776 119.148 24.6972 119.469 24.439 120.402C24.3362 120.774 24.309 120.981 24.4206 121.116C24.579 121.308 24.8786 121.186 25.5628 121.146C26.589 121.085 26.6361 121.317 27.4189 121.193C28 121.102 28.2792 120.926 28.4219 121.076C28.624 121.289 28.1953 121.779 28.3963 122.076C28.6014 122.378 29.3239 122.275 29.824 122.112C30.7626 121.807 31.1901 121.205 31.7167 120.732C32.289 120.219 33.2458 119.619 34.8943 119.385L46.5632 118.157C47.2454 118.429 47.7481 118.615 48.0409 118.723C48.1968 118.78 48.2969 118.816 48.3384 118.835L48.493 118.537L48.6661 118.772C48.6124 118.695 48.5535 118.611 48.4968 118.53L48.5626 118.403L49.0095 118.205C48.9494 118.068 48.8835 118.008 48.7052 117.931L49.6022 117.837C49.3309 117.859 49.0045 117.884 48.6555 117.91C48.582 117.88 48.4917 117.847 48.379 117.805C48.2476 117.757 48.0695 117.691 47.8561 117.61C44.3171 112.506 37.0378 101.693 34.3283 97.2665C33.4804 95.8816 32.6543 94.4267 33.0183 92.8294C33.3687 91.2916 34.7799 89.8071 35.7056 87.3252C35.8137 87.0354 36.1044 86.2247 35.7562 85.8631C35.4684 85.5641 35.0061 85.8444 34.7333 85.5693C34.3672 85.2003 34.9018 84.3964 35.0776 83.084C35.2015 82.1585 35.0841 81.4506 34.9831 80.8418C34.9526 80.6582 34.4804 77.9168 33.6225 77.8668C32.978 77.8293 32.6742 79.3431 32.11 79.2783C31.5478 79.2139 31.6538 77.6885 30.6279 76.0839Z" fill="#F2F2F2"/>
<path d="M149.887 139.818L45.6748 125.411C42.187 124.929 39.3082 122.429 38.3406 119.043L14.4057 35.2525C13.5947 32.4126 14.2002 29.472 16.0669 27.1839C17.9337 24.8958 20.6917 23.7133 23.6369 23.9381L128.631 31.9839C132.43 32.2749 135.618 34.9503 136.566 38.6409L159.719 128.792C160.458 131.669 159.719 134.71 157.742 136.927C156.04 138.836 153.627 139.902 151.111 139.902C150.705 139.902 150.296 139.874 149.887 139.818Z" fill="#E6E6E6"/>
<path d="M123.534 121.073L90.4806 116.503C89.3744 116.35 88.4613 115.557 88.1544 114.483L80.5628 87.9071C80.3056 87.0063 80.4976 86.0736 81.0897 85.3479C81.6818 84.6221 82.5566 84.2471 83.4907 84.3184L116.792 86.8703C117.997 86.9626 119.009 87.8112 119.309 88.9818L126.653 117.576C126.887 118.488 126.653 119.453 126.026 120.156C125.486 120.761 124.721 121.099 123.922 121.099C123.794 121.099 123.664 121.091 123.534 121.073Z" fill="white"/>
<path d="M120.577 47.3394L59.2182 41.6901C57.6713 41.5477 56.4674 40.8366 56.5347 40.105C56.602 39.3735 57.9154 38.8945 59.4624 39.0369L120.822 44.6862C122.369 44.8286 123.572 45.5394 123.505 46.2709C123.437 47.0024 122.124 47.4818 120.577 47.3394Z" fill="white"/>
<path d="M123.923 63.4703L62.5639 57.8211C61.017 57.6786 59.8131 56.9675 59.8804 56.236C59.9477 55.5045 61.2611 55.0254 62.8081 55.1678L124.167 60.8171C125.714 60.9595 126.918 61.6703 126.85 62.4018C126.783 63.1334 125.47 63.6128 123.923 63.4703Z" fill="white"/>
<path d="M125.105 77.5298L63.7458 71.8806C62.1989 71.7381 60.9949 71.027 61.0623 70.2955C61.1296 69.564 62.443 69.0849 63.9899 69.2273L125.349 74.8766C126.896 75.019 128.1 75.7298 128.032 76.4614C127.965 77.1929 126.652 77.6723 125.105 77.5298Z" fill="white"/>
<path d="M88.1329 70.7387C89.673 69.0603 91.7872 68.4948 92.8549 69.4753C93.9226 70.4558 93.5394 72.6109 91.9986 74.2896C91.3922 74.9686 90.6321 75.4925 89.7819 75.8175L83.1665 82.8462L79.9351 79.6708L86.7997 73.0789C87.0509 72.2035 87.508 71.401 88.1329 70.7387Z" fill="#FFB6B6"/>
<path d="M50.4177 72.3028C50.4177 72.3028 54.2834 68.7662 58.9093 71.854C63.5352 74.9417 74.3076 82.8398 74.3076 82.8398L81.8558 73.476L87.8039 78.8685C87.8039 78.8685 77.312 97.3528 70.5334 93.2847C63.7549 89.2166 48.6222 77.6033 49.3093 75.2004C49.9963 72.7976 50.4177 72.3028 50.4177 72.3028Z" fill="#80828A"/>
<path d="M79.0415 158.571L72.8825 170.05L67.8098 163.91L73.6451 156.023L79.0415 158.571Z" fill="#FFB6B6"/>
<path d="M75.0587 168.463L72.4527 182.547C72.4527 182.547 70.7036 187.431 67.892 182.47C65.0805 177.509 59.9896 167.244 62.9164 165.363C65.8431 163.482 69.378 161.962 69.378 161.962L75.0587 168.463Z" fill="#2F2E41"/>
<path d="M82.6762 171.072L89.1742 182.771L81.0517 183.746L77.4778 174.321L82.6762 171.072Z" fill="#FFB6B6"/>
<path d="M48.2369 65.1314C48.2369 65.1314 47.5871 71.6308 46.6124 72.2808C45.6377 72.9307 57.989 72.2808 57.989 72.2808L54.41 65.1314H48.2369Z" fill="#FFB6B6"/>
<path d="M61.5552 74.2357L57.009 70.6559H45.8934L38.4897 76.8304L43.2008 98.7659L40.9265 109.49L69.8426 110.465L64.6442 100.716C64.6442 100.716 70.8173 94.2163 68.8679 89.9917C66.9185 85.767 61.5552 74.2357 61.5552 74.2357Z" fill="#80828A"/>
<path d="M66.9187 107.865L71.1424 110.14C71.1424 110.14 93.8854 131.588 91.936 138.087C89.9866 144.587 76.9906 163.11 76.9906 163.11L70.8175 159.86L79.9147 140.037L62.5325 122.651L71.8633 139.103L85.1131 173.834L77.3155 177.084L57.1717 136.462C57.1717 136.462 40.6018 125.088 39.6271 117.939C38.6524 110.79 40.9267 109.49 40.9267 109.49L66.9187 107.865Z" fill="#2F2E41"/>
<path d="M89.0117 180.008L99.7334 190.083C99.7334 190.083 102.982 194.307 97.1342 193.982C91.286 193.657 79.5896 192.357 79.5896 188.783C79.5896 185.208 80.2394 181.308 80.2394 181.308L89.0117 180.008Z" fill="#2F2E41"/>
<path d="M51.4859 66.7563C55.6129 66.7563 58.9586 63.4099 58.9586 59.2819C58.9586 55.154 55.6129 51.8076 51.4859 51.8076C47.3588 51.8076 44.0132 55.154 44.0132 59.2819C44.0132 63.4099 47.3588 66.7563 51.4859 66.7563Z" fill="#FFB6B6"/>
<path d="M83.903 89.1055L77.7445 107.865C77.5804 108.365 77.154 108.734 76.6355 108.824L64.858 110.873C63.8018 111.056 62.929 110.051 63.259 109.031L69.4094 90.0165C69.5754 89.5034 70.017 89.128 70.5501 89.0468L82.3358 87.253C83.3852 87.0932 84.2342 88.0967 83.903 89.1055Z" fill="white"/>
<path d="M64.6081 111.219C64.1068 111.219 63.6307 111.005 63.2933 110.616C62.888 110.149 62.7596 109.519 62.9498 108.931L69.1003 89.9165C69.3055 89.2821 69.8424 88.8257 70.5014 88.7257L82.2869 86.9317C82.8915 86.8394 83.4896 87.0638 83.8853 87.5312C84.2806 87.9987 84.4028 88.6251 84.2118 89.2069L78.0533 107.966C77.8513 108.582 77.3295 109.033 76.6915 109.144L64.9137 111.193C64.8114 111.211 64.7092 111.219 64.6081 111.219ZM82.553 87.5614C82.4973 87.5614 82.441 87.5655 82.3847 87.5741L70.599 89.3681C70.1847 89.4309 69.8475 89.7178 69.7186 90.1164L63.5843 109.081C63.4717 109.43 63.5085 109.821 63.7246 110.116C63.9774 110.46 64.3885 110.623 64.8023 110.552L69.5285 109.73C74.2685 108.906 78.1677 105.534 79.6687 100.962L83.5827 89.0397C83.6813 88.7393 83.6691 88.4047 83.5134 88.1296C83.3085 87.7678 82.9432 87.5614 82.553 87.5614Z" fill="#3F3D56"/>
<path d="M65.9247 103.72C68.2008 103.804 70.0022 105.047 69.9484 106.496C69.8945 107.945 68.0059 109.05 65.729 108.966C64.8191 108.945 63.9274 108.706 63.1287 108.269L53.4895 107.79L53.8106 103.27L63.2791 104.222C64.1082 103.846 65.0154 103.674 65.9247 103.72Z" fill="#FFB6B6"/>
<path d="M40.2769 76.0179C40.2769 76.0179 45.4753 76.6679 46.1251 82.1924C46.7749 87.7168 47.7496 101.041 47.7496 101.041L59.7709 100.716L59.524 108.741C59.524 108.741 38.6524 112.74 37.3528 104.94C36.0532 97.141 35.0785 78.088 37.3528 77.053C39.6271 76.0179 40.2769 76.0179 40.2769 76.0179Z" fill="#80828A"/>
<path d="M107.781 23.8575L105.107 22.5906C106.204 24.1215 107.149 26.5124 107.655 28.4149C108.512 26.6427 109.893 24.4743 111.259 23.179L108.433 23.9061C110.175 15.3698 116.725 9.24162 124.225 9.24162L124.331 8.93329C116.497 8.93329 109.559 14.9766 107.781 23.8575Z" fill="#3F3D56"/>
<path d="M120.088 36.8641H103.193C102.477 36.8641 101.894 36.281 101.894 35.5642C101.894 34.8475 102.477 34.2643 103.193 34.2643H120.088C120.805 34.2643 121.388 34.8475 121.388 35.5642C121.388 36.281 120.805 36.8641 120.088 36.8641Z" fill="#80828A"/>
<path d="M81.6821 92.0057L70.6031 92.9395C70.3238 92.9631 70.0774 92.7549 70.0538 92.4755C70.0303 92.1962 70.2384 91.9498 70.5177 91.9263L81.5967 90.9925C81.876 90.9689 82.1223 91.177 82.1459 91.4564C82.1694 91.7357 81.9614 91.9822 81.6821 92.0057Z" fill="#3F3D56"/>
<path d="M80.7072 95.2554L69.6282 96.1892C69.3489 96.2128 69.1025 96.0046 69.079 95.7252C69.0554 95.4459 69.2636 95.1995 69.5429 95.1759L80.6219 94.2422C80.9012 94.2186 81.1475 94.4267 81.171 94.7061C81.1946 94.9854 80.9865 95.2319 80.7072 95.2554Z" fill="#3F3D56"/>
<path d="M79.7326 98.5051L68.6536 99.4389C68.3743 99.4625 68.1279 99.2543 68.1044 98.9749C68.0808 98.6956 68.2889 98.4492 68.5683 98.4256L79.6473 97.4919C79.9266 97.4683 80.1729 97.6764 80.1964 97.9558C80.2199 98.2351 80.0119 98.4816 79.7326 98.5051Z" fill="#3F3D56"/>
<path d="M49.4859 61.9694L54.7137 55.9656L53.8423 53.4331L56.6487 56.1005L58.0972 55.707C58.0972 55.707 58.0847 50.5655 53.9802 50.3333C49.8756 50.101 46.9313 50.5335 46.9313 50.5335C46.9313 50.5335 41.0625 52.373 40.833 53.7828C40.6035 55.1926 37.3157 57.0659 37.3157 57.0659C37.3157 57.0659 34.463 59.1884 35.7966 62.7459C37.1301 66.3035 40.1731 70.744 38.0667 72.9088C35.9603 75.0736 32.9837 76.7398 34.434 77.5707C35.8843 78.4016 38.5004 74.5059 40.883 76.0635C43.2655 77.6211 47.2914 83.877 51.0678 80.6461C54.8441 77.4151 55.5424 73.673 55.5424 73.673L49.5157 67.7157C49.5157 67.7157 45.8644 61.4863 49.4859 61.9694Z" fill="#2F2E41"/>
<path d="M132.567 1.50199H116.145C115.731 1.50199 115.394 1.16503 115.394 0.750916C115.394 0.336799 115.731 0 116.145 0H132.567C132.981 0 133.318 0.336803 133.318 0.750919C133.318 1.16504 132.981 1.50199 132.567 1.50199Z" fill="#FBFBFB"/>
<path d="M141.38 9.51462H107.332C106.918 9.51462 106.581 9.17767 106.581 8.76355C106.581 8.34943 106.918 8.01263 107.332 8.01263H141.38C141.794 8.01263 142.131 8.34944 142.131 8.76355C142.131 9.17767 141.794 9.51462 141.38 9.51462Z" fill="#FBFBFB"/>
</g>
<defs>
<clipPath id="clip0_3_637">
<rect width="160" height="194" fill="white"/>
</clipPath>
</defs>
</svg>
