<svg width="236" height="187" viewBox="0 0 236 187" fill="none" xmlns="http://www.w3.org/2000/svg">
<g clip-path="url(#clip0_3_594)">
<path d="M189.484 44.3767H188.458V16.2684C188.458 14.132 188.037 12.0165 187.22 10.0427C186.403 8.06896 185.205 6.27555 183.694 4.7649C182.184 3.25424 180.391 2.05592 178.418 1.23836C176.445 0.420795 174.33 1.01092e-06 172.194 0H112.659C108.345 -9.52727e-06 104.208 1.71396 101.158 4.76486C98.1083 7.81576 96.3948 11.9537 96.3948 16.2683V170.473C96.3948 174.787 98.1083 178.925 101.158 181.976C104.208 185.027 108.345 186.741 112.659 186.741H172.194C176.507 186.741 180.644 185.027 183.694 181.976C186.744 178.925 188.458 174.788 188.458 170.473V64.3847H189.484L189.484 44.3767Z" fill="#E6E6E6"/>
<path d="M184.996 16.3819V170.359C184.996 173.582 183.717 176.672 181.439 178.95C179.161 181.229 176.071 182.509 172.85 182.509H113.029C109.808 182.509 106.718 181.229 104.44 178.95C102.163 176.672 100.883 173.582 100.883 170.359V16.3819C100.883 13.1596 102.163 10.0694 104.44 7.7909C106.718 5.51242 109.808 4.23236 113.029 4.2323H120.286C119.93 5.10881 119.794 6.05954 119.891 7.00086C119.988 7.94218 120.314 8.84525 120.842 9.63063C121.37 10.416 122.082 11.0596 122.917 11.5049C123.752 11.9501 124.683 12.1834 125.629 12.1841H159.737C160.683 12.1833 161.614 11.9501 162.449 11.5049C163.284 11.0596 163.996 10.416 164.524 9.63062C165.052 8.84524 165.378 7.94217 165.475 7.00085C165.572 6.05954 165.437 5.10881 165.08 4.2323H172.85C176.071 4.23236 179.161 5.51242 181.439 7.79089C183.717 10.0694 184.996 13.1596 184.996 16.3819Z" fill="white"/>
<path d="M116.218 18.5133C114.041 18.5133 111.953 19.3784 110.413 20.9182C108.874 22.4581 108.009 24.5465 108.009 26.7242C108.009 28.9019 108.874 30.9904 110.413 32.5302C111.953 34.0701 114.041 34.9351 116.218 34.9352C118.395 34.9352 120.483 34.0701 122.022 32.5302C123.562 30.9904 124.426 28.9019 124.426 26.7242C124.426 24.5466 123.562 22.4581 122.022 20.9183C120.483 19.3784 118.395 18.5133 116.218 18.5133Z" fill="#E6E6E6"/>
<path d="M175.818 33.6522H132.722C132.178 33.6522 131.656 33.436 131.271 33.051C130.886 32.666 130.67 32.1439 130.67 31.5995C130.67 31.0551 130.886 30.533 131.271 30.148C131.656 29.7631 132.178 29.5468 132.722 29.5468H175.818C176.362 29.5468 176.884 29.7631 177.269 30.148C177.654 30.533 177.87 31.0551 177.87 31.5995C177.87 32.1439 177.654 32.666 177.269 33.051C176.884 33.436 176.362 33.6522 175.818 33.6522Z" fill="#E6E6E6"/>
<path d="M146.318 24.9281H132.722C132.178 24.9281 131.656 24.7119 131.271 24.3269C130.886 23.942 130.67 23.4198 130.67 22.8754C130.67 22.331 130.886 21.8089 131.271 21.4239C131.656 21.039 132.178 20.8227 132.722 20.8227H146.318C146.862 20.8227 147.384 21.039 147.769 21.4239C148.154 21.8089 148.37 22.331 148.37 22.8754C148.37 23.4198 148.154 23.942 147.769 24.3269C147.384 24.7119 146.862 24.9281 146.318 24.9281Z" fill="#E6E6E6"/>
<path d="M116.218 52.8965C114.041 52.8965 111.953 53.7615 110.413 55.3014C108.874 56.8412 108.009 58.9297 108.009 61.1074C108.009 63.285 108.874 65.3735 110.413 66.9134C111.953 68.4532 114.041 69.3183 116.218 69.3183C118.395 69.3183 120.483 68.4532 122.022 66.9134C123.562 65.3735 124.426 63.2851 124.426 61.1074C124.426 58.9297 123.562 56.8412 122.022 55.3014C120.483 53.7616 118.395 52.8965 116.218 52.8965Z" fill="#E6E6E6"/>
<path d="M175.818 68.0354H132.722C132.178 68.0354 131.656 67.8191 131.271 67.4342C130.886 67.0492 130.67 66.5271 130.67 65.9827C130.67 65.4383 130.886 64.9162 131.271 64.5312C131.656 64.1462 132.178 63.93 132.722 63.93H175.818C176.362 63.93 176.884 64.1462 177.269 64.5312C177.654 64.9162 177.87 65.4383 177.87 65.9827C177.87 66.5271 177.654 67.0492 177.269 67.4342C176.884 67.8191 176.362 68.0354 175.818 68.0354Z" fill="#E6E6E6"/>
<path d="M146.318 59.3113H132.722C132.178 59.3113 131.656 59.0951 131.271 58.7101C130.886 58.3251 130.67 57.803 130.67 57.2586C130.67 56.7142 130.886 56.1921 131.271 55.8071C131.656 55.4221 132.178 55.2059 132.722 55.2059H146.318C146.862 55.2059 147.384 55.4221 147.769 55.8071C148.154 56.1921 148.37 56.7142 148.37 57.2586C148.37 57.803 148.154 58.3251 147.769 58.7101C147.384 59.0951 146.862 59.3113 146.318 59.3113Z" fill="#E6E6E6"/>
<path d="M116.218 121.663C114.041 121.663 111.953 122.528 110.413 124.068C108.874 125.608 108.009 127.696 108.009 129.874C108.009 132.051 108.874 134.14 110.413 135.68C111.953 137.22 114.041 138.085 116.218 138.085C118.395 138.085 120.483 137.22 122.022 135.68C123.562 134.14 124.426 132.051 124.426 129.874C124.426 127.696 123.562 125.608 122.022 124.068C120.483 122.528 118.395 121.663 116.218 121.663Z" fill="#E6E6E6"/>
<path d="M175.818 136.802H132.722C132.178 136.802 131.656 136.585 131.271 136.201C130.886 135.816 130.67 135.293 130.67 134.749C130.67 134.205 130.886 133.682 131.271 133.298C131.656 132.913 132.178 132.696 132.722 132.696H175.818C176.362 132.696 176.884 132.913 177.269 133.298C177.654 133.682 177.87 134.205 177.87 134.749C177.87 135.293 177.654 135.816 177.269 136.201C176.884 136.585 176.362 136.802 175.818 136.802Z" fill="#E6E6E6"/>
<path d="M146.318 128.078H132.722C132.178 128.078 131.656 127.861 131.271 127.476C130.886 127.091 130.67 126.569 130.67 126.025C130.67 125.481 130.886 124.958 131.271 124.573C131.656 124.188 132.178 123.972 132.722 123.972H146.318C146.862 123.972 147.384 124.188 147.769 124.573C148.154 124.958 148.37 125.481 148.37 126.025C148.37 126.569 148.154 127.091 147.769 127.476C147.384 127.861 146.862 128.078 146.318 128.078Z" fill="#E6E6E6"/>
<path d="M116.218 156.046C114.041 156.046 111.953 156.911 110.413 158.451C108.874 159.991 108.009 162.079 108.009 164.257C108.009 166.435 108.874 168.523 110.413 170.063C111.953 171.603 114.041 172.468 116.218 172.468C118.395 172.468 120.483 171.603 122.022 170.063C123.562 168.523 124.426 166.435 124.426 164.257C124.426 162.079 123.562 159.991 122.022 158.451C120.483 156.911 118.395 156.046 116.218 156.046Z" fill="#E6E6E6"/>
<path d="M175.818 171.185H132.722C132.178 171.185 131.656 170.969 131.271 170.584C130.886 170.199 130.67 169.677 130.67 169.132C130.67 168.588 130.886 168.066 131.271 167.681C131.656 167.296 132.178 167.079 132.722 167.079H175.818C176.362 167.079 176.884 167.296 177.269 167.681C177.654 168.066 177.87 168.588 177.87 169.132C177.87 169.677 177.654 170.199 177.269 170.584C176.884 170.969 176.362 171.185 175.818 171.185Z" fill="#E6E6E6"/>
<path d="M146.318 162.461H132.722C132.178 162.461 131.656 162.245 131.271 161.86C130.886 161.475 130.67 160.952 130.67 160.408C130.67 159.864 130.886 159.342 131.271 158.957C131.656 158.572 132.178 158.355 132.722 158.355H146.318C146.862 158.355 147.384 158.572 147.769 158.957C148.154 159.342 148.37 159.864 148.37 160.408C148.37 160.952 148.154 161.475 147.769 161.86C147.384 162.245 146.862 162.461 146.318 162.461Z" fill="#E6E6E6"/>
<path d="M192.448 115.248H93.4309C92.3087 115.247 91.2328 114.8 90.4393 114.007C89.6459 113.213 89.1995 112.137 89.1982 111.014V79.1971C89.1995 78.0747 89.6459 76.9985 90.4394 76.2048C91.2328 75.4111 92.3087 74.9646 93.4309 74.9634H192.448C193.57 74.9646 194.646 75.4111 195.44 76.2048C196.233 76.9985 196.68 78.0747 196.681 79.1971V111.014C196.68 112.137 196.233 113.213 195.44 114.007C194.646 114.8 193.57 115.247 192.448 115.248Z" fill="white"/>
<path d="M105.591 106.839C103.271 106.839 101.003 106.151 99.0741 104.861C97.1452 103.572 95.6418 101.74 94.754 99.5957C93.8662 97.4518 93.6339 95.0927 94.0865 92.8168C94.5391 90.5408 95.6562 88.4502 97.2966 86.8093C98.9371 85.1685 101.027 84.051 103.302 83.5983C105.578 83.1456 107.936 83.3779 110.08 84.266C112.223 85.154 114.055 86.6579 115.344 88.5873C116.633 90.5168 117.321 92.7852 117.321 95.1058C117.317 98.2164 116.08 101.199 113.881 103.398C111.682 105.598 108.701 106.835 105.591 106.839ZM105.591 83.8861C103.372 83.8861 101.204 84.5441 99.3592 85.7769C97.5146 87.0098 96.0769 88.762 95.228 90.8122C94.379 92.8623 94.1569 95.1182 94.5897 97.2946C95.0225 99.471 96.0907 101.47 97.6594 103.039C99.2281 104.608 101.227 105.677 103.403 106.11C105.578 106.543 107.834 106.321 109.883 105.471C111.933 104.622 113.685 103.184 114.917 101.339C116.15 99.494 116.808 97.3248 116.808 95.1058C116.804 92.1311 115.621 89.2793 113.519 87.1759C111.416 85.0726 108.565 83.8894 105.591 83.8861Z" fill="#3F3D56"/>
<path d="M188.893 104.789H128.659C128.282 104.789 127.908 104.715 127.56 104.571C127.212 104.427 126.895 104.216 126.629 103.95C126.362 103.683 126.151 103.367 126.006 103.018C125.862 102.67 125.788 102.297 125.788 101.92C125.788 101.543 125.862 101.17 126.006 100.821C126.151 100.473 126.362 100.157 126.629 99.8902C126.895 99.6237 127.212 99.4124 127.56 99.2684C127.908 99.1244 128.282 99.0504 128.659 99.0508H188.893C189.27 99.0504 189.643 99.1244 189.992 99.2684C190.34 99.4124 190.656 99.6237 190.923 99.8902C191.19 100.157 191.401 100.473 191.546 100.821C191.69 101.17 191.764 101.543 191.764 101.92C191.764 102.297 191.69 102.67 191.546 103.018C191.401 103.367 191.19 103.683 190.923 103.95C190.656 104.216 190.34 104.427 189.992 104.571C189.643 104.715 189.27 104.789 188.893 104.789Z" fill="#80828A"/>
<path d="M147.661 92.5954H128.659C128.282 92.5957 127.908 92.5218 127.56 92.3778C127.212 92.2337 126.895 92.0225 126.629 91.756C126.362 91.4896 126.151 91.1731 126.006 90.8249C125.862 90.4766 125.788 90.1033 125.788 89.7263C125.788 89.3493 125.862 88.976 126.006 88.6277C126.151 88.2794 126.362 87.963 126.629 87.6966C126.895 87.4301 127.212 87.2189 127.56 87.0748C127.908 86.9308 128.282 86.8569 128.659 86.8572H147.661C148.038 86.8569 148.411 86.9308 148.76 87.0748C149.108 87.2189 149.425 87.4301 149.691 87.6966C149.958 87.963 150.169 88.2794 150.314 88.6277C150.458 88.976 150.532 89.3493 150.532 89.7263C150.532 90.1033 150.458 90.4766 150.314 90.8249C150.169 91.1731 149.958 91.4896 149.691 91.756C149.425 92.0225 149.108 92.2337 148.76 92.3778C148.411 92.5218 148.038 92.5957 147.661 92.5954Z" fill="#80828A"/>
<path d="M192.448 115.248H93.4309C92.3087 115.247 91.2328 114.8 90.4393 114.007C89.6459 113.213 89.1995 112.137 89.1982 111.014V79.1971C89.1995 78.0747 89.6459 76.9985 90.4394 76.2048C91.2328 75.4111 92.3087 74.9646 93.4309 74.9634H192.448C193.57 74.9646 194.646 75.4111 195.44 76.2048C196.233 76.9985 196.68 78.0747 196.681 79.1971V111.014C196.68 112.137 196.233 113.213 195.44 114.007C194.646 114.8 193.57 115.247 192.448 115.248ZM93.4309 75.22C92.3767 75.2212 91.3661 75.6406 90.6207 76.3862C89.8752 77.1318 89.456 78.1427 89.4548 79.1971V111.014C89.456 112.069 89.8752 113.08 90.6207 113.825C91.3661 114.571 92.3767 114.99 93.4309 114.992H192.448C193.502 114.99 194.513 114.571 195.258 113.825C196.004 113.08 196.423 112.069 196.424 111.014V79.1971C196.423 78.1427 196.004 77.1318 195.258 76.3862C194.513 75.6406 193.502 75.2212 192.448 75.22H93.4309Z" fill="#3F3D56"/>
<path d="M105.384 100.816C108.026 100.816 110.169 98.6725 110.169 96.029C110.169 93.3855 108.026 91.2425 105.384 91.2425C102.741 91.2425 100.598 93.3855 100.598 96.029C100.598 98.6725 102.741 100.816 105.384 100.816Z" fill="#2F2E41"/>
<path d="M101.649 93.4483C102.422 92.6748 102.579 91.5775 101.999 90.9974C101.419 90.4173 100.322 90.574 99.5483 91.3475C98.7751 92.121 98.6183 93.2183 99.1983 93.7984C99.7782 94.3785 100.875 94.2217 101.649 93.4483Z" fill="#2F2E41"/>
<path d="M110.371 91.9282C110.693 91.1738 110.139 90.2138 109.133 89.7841C108.128 89.3545 107.051 89.6177 106.729 90.3722C106.407 91.1266 106.961 92.0866 107.967 92.5163C108.972 92.946 110.049 92.6827 110.371 91.9282Z" fill="#2F2E41"/>
<path d="M105.535 101.234C107.778 101.234 109.596 99.4152 109.596 97.1717C109.596 94.9281 107.778 93.1094 105.535 93.1094C103.292 93.1094 101.474 94.9281 101.474 97.1717C101.474 99.4152 103.292 101.234 105.535 101.234Z" fill="#FFB8B8"/>
<path d="M101.268 94.6165C102.196 95.2563 103.298 95.5968 104.425 95.5923C104.023 95.8712 103.565 96.0595 103.083 96.1444C104.582 96.466 106.13 96.4747 107.633 96.17C107.966 96.1164 108.289 96.0058 108.585 95.8428C108.733 95.7603 108.861 95.6477 108.963 95.5122C109.064 95.3767 109.135 95.2214 109.173 95.0564C109.273 94.486 108.828 93.9679 108.367 93.6186C107.66 93.0921 106.844 92.7293 105.98 92.5566C105.116 92.3838 104.224 92.4054 103.369 92.6197C102.799 92.7343 102.281 93.0274 101.889 93.4564C101.526 93.9048 101.419 94.5962 101.764 95.058L101.268 94.6165Z" fill="#2F2E41"/>
<path d="M45.593 131.16C45.4742 130.775 45.4412 130.369 45.4965 129.97C45.5517 129.57 45.6938 129.188 45.9127 128.85C46.1316 128.512 46.422 128.225 46.7634 128.012C47.1048 127.798 47.489 127.661 47.8888 127.612L61.0568 112.221L64.1281 115.446L51.0119 130.204C51.0503 130.881 50.8389 131.549 50.4178 132.081C49.9967 132.613 49.3952 132.972 48.7272 133.09C48.0592 133.208 47.3713 133.076 46.7936 132.721C46.2159 132.365 45.7887 131.81 45.593 131.16Z" fill="#A0616A"/>
<path d="M56.7728 114.624C56.7594 114.459 56.7818 114.292 56.8385 114.136C56.8951 113.98 56.9848 113.839 57.1013 113.72L61.1694 109.594C61.6699 108.908 62.422 108.449 63.2607 108.317C64.0993 108.185 64.9561 108.391 65.643 108.89C66.3299 109.389 66.7909 110.14 66.9247 110.979C67.0586 111.818 66.8544 112.675 66.3571 113.363L63.6521 118.509C63.5749 118.656 63.467 118.785 63.3357 118.886C63.2043 118.987 63.0527 119.059 62.8911 119.097C62.7295 119.134 62.5617 119.136 62.3992 119.103C62.2367 119.07 62.0832 119.002 61.9493 118.904L57.2423 115.463C57.1083 115.365 56.997 115.24 56.916 115.095C56.835 114.95 56.7861 114.789 56.7728 114.624Z" fill="#80828A"/>
<path d="M66.3251 105.18C69.8047 105.18 72.6255 102.359 72.6255 98.8782C72.6255 95.3976 69.8047 92.5761 66.3251 92.5761C62.8455 92.5761 60.0247 95.3976 60.0247 98.8782C60.0247 102.359 62.8455 105.18 66.3251 105.18Z" fill="#A0616A"/>
<path d="M62.8995 127.08C62.7742 126.986 62.6694 126.869 62.5915 126.733C62.5136 126.598 62.4642 126.448 62.4465 126.293C62.0109 122.651 61.377 119.036 60.5476 115.463C60.1804 113.857 60.4085 112.173 61.1894 110.723C61.9703 109.273 63.251 108.155 64.7934 107.579C66.3358 107.002 68.0351 107.005 69.5753 107.588C71.1156 108.17 72.3921 109.292 73.1676 110.745C75.6454 115.396 75.8347 121.783 75.801 124.312C75.7972 124.582 75.6987 124.843 75.5228 125.047C75.3469 125.252 75.1046 125.389 74.8383 125.433L63.7835 127.294C63.7191 127.305 63.6538 127.311 63.5885 127.311C63.3398 127.311 63.098 127.229 62.8995 127.08Z" fill="#2F2E41"/>
<path d="M86.7661 106.56C86.7346 106.698 86.7141 106.839 86.7047 106.981L75.6852 113.339L73.0068 111.797L70.1514 115.536L74.6278 118.728C74.9894 118.985 75.4249 119.119 75.8688 119.108C76.3128 119.097 76.7412 118.943 77.0899 118.668L88.4529 109.701C88.9657 109.891 89.5242 109.92 90.054 109.785C90.5838 109.649 91.0599 109.356 91.4189 108.943C91.7778 108.531 92.0028 108.018 92.0637 107.475C92.1246 106.931 92.0186 106.382 91.7598 105.9C91.5011 105.418 91.1018 105.027 90.6151 104.777C90.1284 104.528 89.5773 104.433 89.0352 104.505C88.4931 104.576 87.9856 104.811 87.5803 105.178C87.175 105.545 86.891 106.027 86.7661 106.56Z" fill="#A0616A"/>
<path d="M75.3169 113.641L71.7554 118.258C71.6541 118.389 71.5256 118.497 71.3788 118.574C71.232 118.652 71.0702 118.696 70.9046 118.705C70.739 118.714 70.5733 118.688 70.419 118.627C70.2646 118.566 70.1251 118.473 70.01 118.353L65.9782 114.165C65.3093 113.643 64.8748 112.877 64.7699 112.034C64.6651 111.192 64.8984 110.342 65.4188 109.672C65.9392 109.001 66.7042 108.564 67.5461 108.457C68.3879 108.35 69.238 108.581 69.9098 109.099L74.9666 111.928C75.1114 112.009 75.237 112.12 75.3349 112.254C75.4328 112.388 75.5007 112.541 75.5339 112.704C75.5671 112.867 75.565 113.034 75.5275 113.196C75.4901 113.358 75.4182 113.509 75.3169 113.641Z" fill="#80828A"/>
<path d="M80.8689 183.832L84.0139 183.832L84.7542 171.738L80.8684 171.699L80.8689 183.832Z" fill="#A0616A"/>
<path d="M80.0669 182.805L86.2603 182.805H86.2606C86.7789 182.805 87.2921 182.907 87.771 183.106C88.2499 183.304 88.685 183.595 89.0515 183.961C89.418 184.328 89.7087 184.763 89.9071 185.242C90.1054 185.721 90.2075 186.235 90.2075 186.753V186.881L80.0671 186.882L80.0669 182.805Z" fill="#2F2E41"/>
<path d="M50.856 183.832L54.0009 183.832L55.497 171.699L50.8555 171.699L50.856 183.832Z" fill="#A0616A"/>
<path d="M50.0537 182.805L56.2471 182.805H56.2474C56.7657 182.805 57.2789 182.907 57.7578 183.106C58.2367 183.304 58.6718 183.595 59.0383 183.961C59.4048 184.328 59.6956 184.763 59.8939 185.242C60.0923 185.721 60.1943 186.235 60.1943 186.753V186.881L50.0539 186.882L50.0537 182.805Z" fill="#2F2E41"/>
<path d="M54.2835 177.531L50.3806 177.022C50.2175 177 50.0608 176.944 49.9211 176.858C49.7814 176.771 49.6618 176.655 49.5704 176.518C49.479 176.382 49.4179 176.227 49.3911 176.065C49.3644 175.902 49.3726 175.736 49.4152 175.577L55.1084 147.593C55.6744 144.876 56.066 142.126 56.2808 139.359C56.447 137.108 57.1059 133.925 59.3007 131.545C60.1932 130.568 61.0262 129.538 61.7952 128.462L63.5185 126.075L74.9985 124.248L75.0063 124.39C75.5023 133.515 77.8717 142.439 81.967 150.608C83.8092 154.282 84.8665 158.299 85.0718 162.404L85.7224 175.093C85.7305 175.253 85.705 175.414 85.6474 175.564C85.5899 175.715 85.5016 175.851 85.3882 175.966C85.2751 176.08 85.1391 176.17 84.989 176.229C84.8388 176.287 84.678 176.313 84.5171 176.305L80.786 176.135C80.5331 176.123 80.2911 176.029 80.0971 175.866C79.9031 175.703 79.7679 175.481 79.7121 175.234L76.597 161.332C76.5689 161.208 76.5152 161.092 76.4391 160.99L66.6629 147.952C66.5932 147.859 66.4995 147.786 66.3919 147.742C66.2843 147.699 66.1668 147.685 66.0519 147.703C65.937 147.72 65.8292 147.769 65.7398 147.843C65.6504 147.918 65.583 148.015 65.5445 148.125L55.5223 176.767C55.4425 176.993 55.2947 177.188 55.0994 177.327C54.9041 177.465 54.6708 177.54 54.4314 177.54C54.3819 177.54 54.3325 177.537 54.2835 177.531Z" fill="#2F2E41"/>
<path d="M59.3587 94.5041C59.8592 92.9865 60.2286 91.4288 60.4629 89.8481C60.5366 88.9279 60.3009 87.9377 59.6309 87.3027C58.377 86.1144 56.2466 86.6804 54.9353 87.805C53.0402 89.4303 52.0951 91.9281 51.7379 94.3994C51.3807 96.8707 51.5378 99.3837 51.4518 101.879C51.3658 104.375 51.009 106.941 49.7371 109.089C48.4652 111.238 46.1049 112.887 43.6153 112.704C42.6104 112.65 41.6562 112.245 40.9183 111.561C40.556 111.216 40.2817 110.79 40.1183 110.317C39.9549 109.845 39.9071 109.34 39.9791 108.845C38.7066 111.124 39.3516 114.213 41.2496 116.005C43.1476 117.796 46.0671 118.303 48.5623 117.538C51.0575 116.773 53.1112 114.855 54.3378 112.551C55.5645 110.246 56.014 107.585 55.9489 104.975C55.8988 102.971 55.5583 100.951 55.8968 98.9748C56.2354 96.9989 57.4716 94.9928 59.421 94.5275L59.3587 94.5041Z" fill="#2F2E41"/>
<path d="M68.1128 97.1017C68.4452 98.2123 69.7165 98.8971 70.8601 98.7093C72.0037 98.5214 72.9441 97.5794 73.2916 96.4735C73.6058 95.3439 73.4771 94.1371 72.932 93.0992C72.6316 92.4771 72.2115 91.9203 71.6957 91.4608C71.18 91.0012 70.5787 90.648 69.9262 90.4212C69.2701 90.2037 68.5714 90.1471 67.8889 90.2562C67.2063 90.3653 66.56 90.6368 66.0043 91.048C65.9451 90.7985 65.8206 90.5693 65.6434 90.384C65.4662 90.1987 65.2429 90.0639 64.9964 89.9936C64.5 89.8598 63.976 89.8675 63.4838 90.0159C62.0653 90.4203 60.8362 91.3147 60.015 92.5401C59.2042 93.7618 58.6679 95.1448 58.4429 96.5937C58.0559 98.7667 58.1986 101.141 59.4187 102.98C60.6388 104.819 63.1349 105.905 65.1599 105.028C65.2861 104.383 64.987 103.733 64.641 103.173C64.2949 102.614 63.8847 102.069 63.7518 101.424C63.6189 100.78 63.8737 99.9917 64.4968 99.781C65.0284 99.6012 65.5952 99.8924 66.1552 99.9276C66.4732 99.9476 66.7909 99.8836 67.0764 99.7419C67.3619 99.6003 67.6051 99.3861 67.7817 99.1208C67.9583 98.8554 68.0621 98.5483 68.0825 98.2302C68.103 97.9121 68.0395 97.5943 67.8984 97.3085L68.1128 97.1017Z" fill="#2F2E41"/>
<path d="M235.743 187H0.256522C0.188488 187 0.12324 186.973 0.0751333 186.925C0.0270261 186.877 0 186.811 0 186.743C0 186.675 0.0270261 186.61 0.0751333 186.562C0.12324 186.514 0.188488 186.487 0.256522 186.487H235.743C235.812 186.487 235.877 186.514 235.925 186.562C235.973 186.61 236 186.675 236 186.743C236 186.811 235.973 186.877 235.925 186.925C235.877 186.973 235.812 187 235.743 187Z" fill="#CCCCCC"/>
</g>
<defs>
<clipPath id="clip0_3_594">
<rect width="236" height="187" fill="white"/>
</clipPath>
</defs>
</svg>
