<svg width="342" height="397" viewBox="0 0 342 397" fill="none" xmlns="http://www.w3.org/2000/svg">
<g clip-path="url(#clip0_3_682)">
<path d="M342 352.406H250.205V351.218C274.235 351.218 297.281 341.676 314.273 324.693C331.265 307.709 340.811 284.674 340.811 260.655V196.623H342V352.406Z" fill="#F2F2F2"/>
<path d="M91.5339 120.972C89.0936 121.901 86.6018 122.689 84.0707 123.331C80.7274 124.146 78.8398 124.523 75.6129 123.271C75.4995 123.227 75.3913 123.184 75.2893 123.141C69.1729 120.542 63.9444 116.221 60.2403 110.706C56.5361 105.19 54.5161 98.7167 54.4261 92.0742C54.41 91.8463 54.41 91.6068 54.41 91.373C54.4068 90.2472 54.4607 89.122 54.5713 88.0017C54.7127 86.4756 54.957 84.9607 55.3024 83.4675L55.2701 83.4617C52.6575 80.7914 51.6523 77.1337 51.9856 73.4585C52.2139 70.9669 53.005 68.5595 54.2994 66.4179C55.5937 64.2762 57.3575 62.4562 59.4578 61.0948C62.7494 59.0263 66.4608 57.7169 70.3221 57.2618C71.359 57.1423 72.4017 57.0818 73.4454 57.0807H83.2507C85.2759 56.6068 87.3332 56.2826 89.406 56.1107H89.4221C109.156 54.4747 124.719 67.5513 123.268 83.4616C123.257 83.4792 123.241 83.4967 123.23 83.5143C122.811 84.1979 122.44 84.8464 122.112 85.4658C121.795 86.0442 121.526 86.5993 121.295 87.1252C119.494 91.1919 128.052 154.287 124.982 155.245C123.235 155.788 116.193 108.838 117.456 117.766C119.048 128.967 100.625 117.613 91.5339 120.972Z" fill="#2F2E41"/>
<path d="M121.263 235.03L148.618 293.28L43.3877 282.627L65.3541 226.708L121.263 235.03Z" fill="#FFB6B6"/>
<path d="M176.177 351.819C157.878 357.907 138.594 360.489 119.337 359.429L110.964 345.855C110.964 345.855 110.613 350.91 110.09 358.639C100.923 357.577 91.8758 355.659 83.0665 352.912C66.3604 347.691 50.7003 339.6 34.8262 332.139C31.611 312.982 30.4045 283.441 48.1804 266.243L143.859 283.767C143.859 283.767 159.21 295.244 155.103 299.355C150.996 303.459 150.36 302.824 153.059 305.521C155.757 308.217 161.587 311.823 161.646 314.181C161.67 315.102 168.214 331.8 176.177 351.819Z" fill="#2F2E41"/>
<path d="M104.555 122.469L81.4394 124.081L66.499 138.511L61.2665 139.444C56.5631 140.283 52.331 142.817 49.3727 146.566C46.4143 150.316 44.9354 155.02 45.2164 159.787C46.2927 178.014 48.7025 205.247 53.7393 214.082C61.5493 227.783 68.0001 223.484 61.5493 227.783C55.0984 232.081 50.7675 228.703 53.7393 235.497C56.7111 242.29 49.7227 251.004 49.7227 251.004L46.9407 253.784L49.8913 254.993L143.909 267.221C143.909 267.221 135.78 230.687 140.864 221.712C145.948 212.738 158.275 185.609 147.273 174.994L136.516 137.158L118.013 131.704L104.555 122.469Z" fill="#80828A"/>
<path d="M244.484 272.415C242.937 272.366 241.419 271.981 240.036 271.288C238.652 270.595 237.435 269.61 236.47 268.401C235.505 267.191 234.814 265.787 234.445 264.285C234.076 262.782 234.038 261.218 234.333 259.699L190.231 229.846L195.494 215.623L247.615 251.463C250.135 252.15 252.315 253.738 253.743 255.925C255.17 258.112 255.746 260.746 255.36 263.328C254.974 265.911 253.654 268.262 251.649 269.937C249.645 271.612 247.095 272.493 244.484 272.415Z" fill="#FFB6B6"/>
<path d="M119.918 135.371L113.51 137.908L147.696 204.643L218.466 252.859L228.667 235.626L174.796 189.117L153.229 147.773C150.193 141.955 145.109 137.467 138.957 135.177C132.805 132.886 126.022 132.956 119.918 135.371Z" fill="#80828A"/>
<path d="M91.7943 116.6C104.614 116.6 115.006 106.212 115.006 93.3993C115.006 80.5862 104.614 70.1991 91.7943 70.1991C78.9751 70.1991 68.583 80.5862 68.583 93.3993C68.583 106.212 78.9751 116.6 91.7943 116.6Z" fill="#FFB6B6"/>
<path d="M111.979 83.5886C111.592 83.7928 111.21 83.9808 110.823 84.1689C110.42 84.3623 110.017 84.5558 109.608 84.7384C101.84 88.2578 95.5128 88.6501 91.6746 83.5886C91.5695 80.9257 90.9698 78.3056 89.9059 75.862C90.0939 78.5928 89.3739 81.3091 87.8578 83.5886H80.1275C72.1661 88.8704 68.0805 93.7224 73.6068 111.062C73.9669 112.201 76.4344 152.671 77.1386 155.782C65.0863 151.161 54.6896 102.099 54.4262 89.1713C54.41 88.9618 54.41 88.7414 54.41 88.5265C54.4069 87.4909 54.4608 86.4559 54.5714 85.4262C54.7132 84.0204 54.9575 82.6269 55.3024 81.2566L55.2702 81.2513C54.0439 80.0795 53.1084 78.6376 52.5382 77.0406C51.9679 75.4435 51.7787 73.7355 51.9856 72.0524C54.0075 69.4064 56.5095 67.1644 59.3611 65.4435C61.9541 64.1884 64.6569 63.174 67.4354 62.413C67.5053 62.3969 67.5644 62.3808 67.6343 62.3647C68.4837 62.1336 69.3546 61.9241 70.2254 61.7414C72.0201 61.3652 73.8346 61.0907 75.6603 60.9193C75.7947 60.9139 75.9237 60.9031 76.042 60.9031C76.7722 60.9036 77.4889 61.1003 78.117 61.4727C78.1224 61.4727 78.1224 61.4781 78.1331 61.4781C78.7366 61.8385 79.2371 62.3482 79.5864 62.958C79.9357 63.5678 80.122 64.2572 80.1275 64.9599H88.7394C89.0566 64.9599 89.3738 64.9706 89.6909 64.9867C101.684 65.4649 111.323 70.5909 111.941 82.3743C111.968 82.7826 111.979 83.1802 111.979 83.5886Z" fill="#2F2E41"/>
<path d="M61.0642 84.5213C69.5096 84.5213 76.356 77.6782 76.356 69.2368C76.356 60.7955 69.5096 53.9524 61.0642 53.9524C52.6188 53.9524 45.7725 60.7955 45.7725 69.2368C45.7725 77.6782 52.6188 84.5213 61.0642 84.5213Z" fill="#2F2E41"/>
<path d="M82.0578 62.1673C80.3205 70.4281 71.7494 75.3688 63.5496 73.3478C59.6119 72.3772 56.2212 69.883 54.1235 66.4137C52.0257 62.9444 51.3927 58.7842 52.3637 54.8485C54.3858 46.6526 64.3372 49.0154 70.8719 43.668C80.1162 36.1033 84.4006 51.0269 82.0578 62.1673Z" fill="#2F2E41"/>
<path d="M48.0821 292.117C61.115 238.995 86.9384 193.335 129.705 157.561C131.361 154.84 134.028 152.886 137.123 152.127C140.218 151.369 143.487 151.869 146.214 153.517L247.882 215.132C250.605 216.786 252.56 219.452 253.318 222.546C254.077 225.639 253.577 228.907 251.928 231.632C235.604 286.141 211.155 333.441 170.304 366.188C168.649 368.909 165.982 370.863 162.887 371.622C159.792 372.38 156.523 371.88 153.796 370.232L52.1281 308.618C49.4053 306.963 47.4501 304.297 46.6916 301.203C45.9331 298.11 46.4332 294.842 48.0821 292.117Z" fill="#F2F2F2"/>
<path opacity="0.2" d="M66.1526 310.02C63.4297 308.366 61.4746 305.699 60.7162 302.606C59.9577 299.513 60.4578 296.245 62.1067 293.52C75.1396 240.397 100.963 194.737 143.73 158.964C144.826 157.182 146.373 155.722 148.214 154.73L146.214 153.517C143.487 151.869 140.218 151.369 137.123 152.127C134.028 152.885 131.361 154.839 129.705 157.561C86.9384 193.335 61.115 238.994 48.0822 292.117C46.4332 294.842 45.9331 298.11 46.6916 301.203C47.4501 304.297 49.4052 306.963 52.128 308.617L153.796 370.231C155.605 371.32 157.671 371.911 159.782 371.944C161.894 371.977 163.977 371.452 165.82 370.422L66.1526 310.02Z" fill="black"/>
<path d="M185.382 280.34L117.138 239.24C116.054 238.586 115.274 237.527 114.97 236.298C114.666 235.069 114.862 233.769 115.516 232.685C116.17 231.6 117.227 230.819 118.457 230.514C119.686 230.208 120.987 230.403 122.073 231.055L190.317 272.155C191.398 272.811 192.176 273.869 192.478 275.097C192.781 276.325 192.584 277.623 191.931 278.706C191.278 279.789 190.222 280.569 188.995 280.876C187.767 281.182 186.468 280.99 185.382 280.34Z" fill="white"/>
<path d="M145.683 225.838L130.669 216.796C129.581 216.145 128.796 215.089 128.487 213.86C128.178 212.631 128.37 211.33 129.021 210.242C129.672 209.155 130.728 208.37 131.958 208.061C133.187 207.752 134.49 207.944 135.578 208.595L135.603 208.61L150.617 217.652C151.699 218.308 152.477 219.366 152.779 220.594C153.082 221.822 152.885 223.12 152.232 224.204C151.579 225.287 150.523 226.067 149.295 226.374C148.068 226.68 146.769 226.487 145.683 225.838Z" fill="white"/>
<path d="M174.536 298.333L106.292 257.233C105.206 256.58 104.425 255.522 104.119 254.293C103.813 253.064 104.008 251.764 104.66 250.679C105.313 249.593 106.37 248.811 107.599 248.504C108.829 248.197 110.13 248.39 111.216 249.042L111.226 249.047L179.47 290.148C180.552 290.804 181.329 291.862 181.632 293.09C181.934 294.317 181.738 295.615 181.085 296.698C180.432 297.781 179.376 298.562 178.148 298.868C176.921 299.175 175.622 298.982 174.536 298.333Z" fill="white"/>
<path d="M194.05 202.845C205.059 202.845 213.983 193.925 213.983 182.922C213.983 171.919 205.059 162.999 194.05 162.999C183.041 162.999 174.117 171.919 174.117 182.922C174.117 193.925 183.041 202.845 194.05 202.845Z" fill="#3F3D56"/>
<path d="M297.279 138.032C298.972 137.887 300.262 136.816 300.162 135.639C300.061 134.462 298.607 133.625 296.914 133.769C295.221 133.914 293.93 134.986 294.031 136.163C294.132 137.34 295.586 138.177 297.279 138.032Z" fill="white"/>
<path d="M316.326 131.574C318.019 131.429 319.31 130.357 319.209 129.18C319.109 128.003 317.655 127.166 315.962 127.311C314.269 127.455 312.978 128.527 313.079 129.704C313.18 130.881 314.634 131.718 316.326 131.574Z" fill="#3F3D56"/>
<path d="M288.249 123.507C289.942 123.362 291.233 122.29 291.132 121.113C291.032 119.936 289.578 119.099 287.885 119.244C286.192 119.389 284.901 120.46 285.002 121.637C285.102 122.814 286.556 123.651 288.249 123.507Z" fill="#FF6584"/>
<path d="M280.259 118.826C280.988 118.662 281.387 117.679 281.15 116.632C280.914 115.586 280.131 114.87 279.402 115.035C278.674 115.199 278.275 116.181 278.512 117.228C278.748 118.275 279.531 118.991 280.259 118.826Z" fill="#E6E6E6"/>
<path d="M274.571 107.463C275.3 107.299 275.698 106.317 275.462 105.27C275.225 104.223 274.443 103.507 273.714 103.672C272.985 103.837 272.586 104.819 272.823 105.866C273.06 106.913 273.842 107.628 274.571 107.463Z" fill="#3F3D56"/>
<path d="M301.864 123.421C302.593 123.256 302.991 122.274 302.755 121.227C302.518 120.18 301.735 119.465 301.007 119.629C300.278 119.794 299.879 120.776 300.116 121.823C300.353 122.87 301.135 123.585 301.864 123.421Z" fill="#E6E6E6"/>
<path d="M293.545 130.324C294.273 130.159 294.672 129.177 294.435 128.13C294.199 127.083 293.416 126.368 292.688 126.533C291.959 126.697 291.56 127.679 291.797 128.726C292.033 129.773 292.816 130.488 293.545 130.324Z" fill="#FF6584"/>
<path d="M308.69 135.947C309.419 135.782 309.818 134.8 309.581 133.753C309.344 132.706 308.562 131.991 307.833 132.155C307.104 132.32 306.706 133.302 306.942 134.349C307.179 135.396 307.961 136.111 308.69 135.947Z" fill="#3F3D56"/>
<path d="M218.636 50.013C218.926 48.8678 217.826 47.6012 216.179 47.184C214.532 46.7668 212.962 47.3569 212.671 48.5022C212.381 49.6474 213.481 50.914 215.128 51.3312C216.775 51.7484 218.345 51.1582 218.636 50.013Z" fill="white"/>
<path d="M198.522 49.8834C198.813 48.7382 197.713 47.4716 196.066 47.0544C194.419 46.6372 192.848 47.2273 192.558 48.3726C192.268 49.5178 193.367 50.7844 195.014 51.2016C196.662 51.6188 198.232 51.0286 198.522 49.8834Z" fill="#3F3D56"/>
<path d="M222.41 66.6924C222.701 65.5471 221.601 64.2806 219.954 63.8633C218.307 63.4461 216.736 64.0363 216.446 65.1816C216.155 66.3268 217.255 67.5934 218.902 68.0106C220.549 68.4278 222.12 67.8376 222.41 66.6924Z" fill="#FF6584"/>
<path d="M227.099 72.9818C227.218 71.9151 226.713 70.9831 225.97 70.9002C225.228 70.8173 224.529 71.6148 224.41 72.6815C224.291 73.7482 224.796 74.6801 225.539 74.763C226.281 74.846 226.979 74.0485 227.099 72.9818Z" fill="#E6E6E6"/>
<path d="M228.753 85.5798C228.872 84.5131 228.367 83.5812 227.625 83.4983C226.882 83.4153 226.184 84.2128 226.065 85.2795C225.945 86.3462 226.45 87.2782 227.193 87.3611C227.935 87.444 228.634 86.6465 228.753 85.5798Z" fill="#3F3D56"/>
<path d="M208.19 61.5716C208.309 60.5049 207.804 59.573 207.061 59.4901C206.319 59.4072 205.62 60.2047 205.501 61.2714C205.382 62.338 205.887 63.27 206.629 63.3529C207.372 63.4358 208.07 62.6383 208.19 61.5716Z" fill="#E6E6E6"/>
<path d="M218.312 57.7708C218.431 56.7041 217.926 55.7721 217.183 55.6892C216.441 55.6063 215.742 56.4038 215.623 57.4705C215.504 58.5372 216.009 59.4691 216.751 59.552C217.494 59.635 218.192 58.8375 218.312 57.7708Z" fill="#FF6584"/>
<path d="M205.842 47.5021C205.961 46.4354 205.456 45.5035 204.714 45.4206C203.971 45.3376 203.273 46.1351 203.153 47.2018C203.034 48.2685 203.539 49.2005 204.282 49.2834C205.024 49.3663 205.723 48.5688 205.842 47.5021Z" fill="#3F3D56"/>
<path d="M1.18862 155.782H0V0H91.7945V1.18806C67.7644 1.18806 44.7183 10.7294 27.7265 27.7132C10.7346 44.697 1.18862 67.7319 1.18862 91.7506V155.782Z" fill="#F2F2F2"/>
<path d="M54.4213 292.68C52.9022 292.058 51.5365 291.113 50.4185 289.911C49.3005 288.71 48.4571 287.28 47.9464 285.72C47.4357 284.161 47.2701 282.509 47.4609 280.879C47.6517 279.25 48.1945 277.681 49.0516 276.281L16.3018 230.267L26.8081 218.084L65.3058 273.02C67.5553 274.637 69.1331 277.023 69.7403 279.725C70.3475 282.427 69.9419 285.258 68.6002 287.682C67.2586 290.105 65.0741 291.953 62.4609 292.874C59.8476 293.795 56.9871 293.726 54.4213 292.68Z" fill="#FFB6B6"/>
<path d="M55.1741 146.863C53.5173 145.888 51.5672 145.536 49.674 145.869C47.7807 146.202 46.0683 147.199 44.844 148.681L0.594727 210.536L41.6023 268.751L57.6487 251.524L32.6876 212.318L65.8611 180.748C68.5872 174.779 69.0036 168.012 67.0298 161.754C65.0561 155.495 60.8323 150.19 55.1741 146.863Z" fill="#80828A"/>
</g>
<defs>
<clipPath id="clip0_3_682">
<rect width="342" height="397" fill="white"/>
</clipPath>
</defs>
</svg>
