<svg width="347" height="50" viewBox="0 0 347 50" fill="none" xmlns="http://www.w3.org/2000/svg">
    <path d="M0 31.7283H3.35118C3.35118 16.075 16.1297 3.33982 31.8362 3.33982V0C14.2818 0 0 14.2334 0 31.7283Z" fill="#FBFBFB"/>
    <path d="M5.02686 31.7283H8.37803C8.37803 18.837 18.9012 8.34954 31.8363 8.34954V5.00972C17.0532 5.00972 5.02686 16.9953 5.02686 31.7283Z" fill="#FBFBFB"/>
    <path d="M10.6118 31.7283H13.963C13.963 21.9067 21.981 13.9159 31.8359 13.9159V10.5761C20.133 10.5761 10.6118 20.065 10.6118 31.7283Z" fill="#FBFBFB"/>
    <path d="M16.1973 31.7283H19.5484C19.5484 24.9758 25.0606 19.4823 31.8361 19.4823V16.1425C23.2127 16.1425 16.1973 23.1341 16.1973 31.7283Z" fill="#FBFBFB"/>
    <path d="M40.0958 27.638V40.0703C40.0958 40.1914 40.0534 40.2944 39.9686 40.3793C39.8838 40.4641 39.7808 40.5065 39.6596 40.5065H36.9332C36.8 40.5065 36.6909 40.4641 36.6061 40.3793C36.5334 40.2944 36.497 40.1914 36.497 40.0703V36.1806C36.497 36.0595 36.4546 35.9565 36.3698 35.8716C36.285 35.7868 36.182 35.7444 36.0608 35.7444H32.3166C32.1833 35.7444 32.0742 35.7868 31.9894 35.8716C31.9167 35.9565 31.8803 36.0595 31.8803 36.1806V40.0703C31.8803 40.1914 31.8379 40.2944 31.7531 40.3793C31.6683 40.4641 31.5653 40.5065 31.4441 40.5065H28.7359C28.6026 40.5065 28.4936 40.4641 28.4088 40.3793C28.336 40.2944 28.2997 40.1914 28.2997 40.0703V27.638C28.2997 27.5168 28.336 27.4138 28.4088 27.329C28.4936 27.2442 28.6026 27.2017 28.7359 27.2017H31.4441C31.5653 27.2017 31.6683 27.2442 31.7531 27.329C31.8379 27.4138 31.8803 27.5168 31.8803 27.638V31.9457C31.8803 32.0668 31.9167 32.1698 31.9894 32.2546C32.0742 32.3395 32.1833 32.3819 32.3166 32.3819H36.0608C36.182 32.3819 36.285 32.3395 36.3698 32.2546C36.4546 32.1698 36.497 32.0668 36.497 31.9457V27.638C36.497 27.5168 36.5334 27.4138 36.6061 27.329C36.6909 27.2442 36.8 27.2017 36.9332 27.2017H39.6596C39.7808 27.2017 39.8838 27.2442 39.9686 27.329C40.0534 27.4138 40.0958 27.5168 40.0958 27.638ZM42.2007 33.8541C42.2007 32.909 42.3825 32.0184 42.746 31.1823C43.1095 30.3462 43.6002 29.6191 44.2182 29.0012C44.8362 28.3711 45.5632 27.8743 46.3993 27.5107C47.2354 27.1472 48.126 26.9655 49.0712 26.9655C50.0163 26.9655 50.9069 27.1472 51.743 27.5107C52.5791 27.8743 53.3062 28.3711 53.9241 29.0012C54.5542 29.6191 55.051 30.3462 55.4146 31.1823C55.7781 32.0184 55.9598 32.909 55.9598 33.8541C55.9598 34.7993 55.7781 35.6899 55.4146 36.526C55.051 37.3621 54.5542 38.0952 53.9241 38.7253C53.3062 39.3432 52.5791 39.834 51.743 40.1975C50.9069 40.561 50.0163 40.7428 49.0712 40.7428C48.126 40.7428 47.2354 40.561 46.3993 40.1975C45.5632 39.834 44.8362 39.3432 44.2182 38.7253C43.6002 38.0952 43.1095 37.3621 42.746 36.526C42.3825 35.6899 42.2007 34.7993 42.2007 33.8541ZM45.7995 33.8541C45.7995 34.3146 45.8843 34.7508 46.054 35.1628C46.2236 35.5748 46.4539 35.9383 46.7447 36.2533C47.0476 36.5684 47.399 36.8228 47.7989 37.0167C48.1987 37.1985 48.6228 37.2894 49.0712 37.2894C49.5195 37.2894 49.9436 37.1985 50.3435 37.0167C50.7434 36.8228 51.0948 36.5684 51.3977 36.2533C51.7006 35.9383 51.9369 35.5748 52.1066 35.1628C52.2762 34.7508 52.361 34.3146 52.361 33.8541C52.361 33.4058 52.2762 32.9756 52.1066 32.5636C51.9369 32.1395 51.7006 31.776 51.3977 31.4731C51.0948 31.158 50.7434 30.9096 50.3435 30.7279C49.9436 30.534 49.5195 30.4371 49.0712 30.4371C48.6228 30.4371 48.1987 30.534 47.7989 30.7279C47.399 30.9096 47.0476 31.158 46.7447 31.4731C46.4539 31.776 46.2236 32.1395 46.054 32.5636C45.8843 32.9756 45.7995 33.4058 45.7995 33.8541ZM60.9968 40.5065H58.2886C58.1674 40.5065 58.0645 40.4641 57.9796 40.3793C57.8948 40.2944 57.8524 40.1914 57.8524 40.0703V27.638C57.8524 27.5168 57.8948 27.4138 57.9796 27.329C58.0645 27.2442 58.1674 27.2017 58.2886 27.2017H63.9413C64.6441 27.2017 65.2924 27.3229 65.8861 27.5653C66.4799 27.7955 66.9828 28.1227 67.3947 28.5468C67.8188 28.9709 68.146 29.4737 68.3762 30.0554C68.6186 30.637 68.7398 31.2792 68.7398 31.982C68.7398 32.3698 68.6913 32.7575 68.5943 33.1453C68.5095 33.5209 68.3823 33.8784 68.2127 34.2176C68.043 34.5569 67.8431 34.8659 67.6128 35.1446C67.3826 35.4112 67.1221 35.6354 66.8313 35.8171C66.7343 35.8898 66.6677 35.9807 66.6314 36.0898C66.6071 36.1867 66.6314 36.2836 66.7041 36.3806C67.1645 36.9864 67.6492 37.6105 68.1581 38.2527C68.667 38.8949 69.1214 39.4826 69.5213 40.0157C69.594 40.1127 69.6122 40.2217 69.5758 40.3429C69.5395 40.452 69.4607 40.5065 69.3396 40.5065H65.9588C65.8377 40.5065 65.7044 40.4762 65.559 40.4156C65.4257 40.3429 65.3227 40.2581 65.25 40.1612C64.8622 39.6522 64.4745 39.1372 64.0867 38.6162C63.7111 38.0952 63.3355 37.5681 62.9598 37.0349C62.8871 36.938 62.7841 36.8592 62.6508 36.7986C62.5175 36.7259 62.3903 36.6896 62.2691 36.6896H61.8693C61.7481 36.6896 61.6451 36.732 61.5603 36.8168C61.4755 36.9016 61.433 37.0046 61.433 37.1258V40.0703C61.433 40.1914 61.3906 40.2944 61.3058 40.3793C61.221 40.4641 61.118 40.5065 60.9968 40.5065ZM61.8693 33.3452H63.7959C63.9413 33.3452 64.0928 33.321 64.2503 33.2725C64.4078 33.2119 64.5532 33.1271 64.6865 33.018C64.8198 32.8969 64.9289 32.7515 65.0137 32.5818C65.0985 32.4122 65.1409 32.2122 65.1409 31.982C65.1409 31.8608 65.1167 31.7215 65.0682 31.564C65.0319 31.3943 64.9592 31.2368 64.8501 31.0914C64.7532 30.9339 64.6138 30.8066 64.4321 30.7097C64.2624 30.6006 64.0504 30.5461 63.7959 30.5461H61.8693C61.7481 30.5461 61.6451 30.5885 61.5603 30.6733C61.4755 30.7582 61.433 30.8612 61.433 30.9823V32.909C61.433 33.0301 61.4755 33.1331 61.5603 33.218C61.6451 33.3028 61.7481 33.3452 61.8693 33.3452ZM74.2421 40.5065H71.4975C71.3642 40.5065 71.2552 40.4641 71.1704 40.3793C71.0976 40.2944 71.0613 40.1914 71.0613 40.0703V27.6561C71.0613 27.535 71.0976 27.432 71.1704 27.3472C71.2552 27.2623 71.3642 27.2199 71.4975 27.2199H74.2421C74.3632 27.2199 74.4662 27.2623 74.5511 27.3472C74.6359 27.432 74.6783 27.535 74.6783 27.6561V40.0703C74.6783 40.1914 74.6359 40.2944 74.5511 40.3793C74.4662 40.4641 74.3632 40.5065 74.2421 40.5065ZM87.544 40.5065H77.2564C77.1353 40.5065 77.0323 40.4641 76.9474 40.3793C76.8626 40.2944 76.8202 40.1914 76.8202 40.0703V38.0346C76.8202 37.9134 76.8505 37.7801 76.9111 37.6347C76.9717 37.4893 77.0383 37.3681 77.111 37.2712L82.6728 31.0369C82.7455 30.9399 82.7698 30.8369 82.7455 30.7279C82.7213 30.6188 82.6426 30.5643 82.5093 30.5643H77.2564C77.1353 30.5643 77.0323 30.5219 76.9474 30.4371C76.8626 30.3522 76.8202 30.2492 76.8202 30.1281V27.638C76.8202 27.5168 76.8626 27.4138 76.9474 27.329C77.0323 27.2442 77.1353 27.2017 77.2564 27.2017H87.544C87.6773 27.2017 87.7803 27.2442 87.853 27.329C87.9378 27.4138 87.9802 27.5168 87.9802 27.638V29.6918C87.9802 29.813 87.9499 29.9463 87.8893 30.0917C87.8409 30.2371 87.7803 30.3583 87.7076 30.4552L82.1457 36.7077C82.073 36.8047 82.0488 36.9077 82.073 37.0167C82.0973 37.1137 82.17 37.1621 82.2912 37.1621H87.544C87.6773 37.1621 87.7803 37.2045 87.853 37.2894C87.9378 37.3742 87.9802 37.4772 87.9802 37.5984V40.0703C87.9802 40.1914 87.9378 40.2944 87.853 40.3793C87.7803 40.4641 87.6773 40.5065 87.544 40.5065ZM88.6344 33.8541C88.6344 32.909 88.8161 32.0184 89.1797 31.1823C89.5432 30.3462 90.0339 29.6191 90.6519 29.0012C91.2699 28.3711 91.9969 27.8743 92.833 27.5107C93.6691 27.1472 94.5597 26.9655 95.5049 26.9655C96.45 26.9655 97.3406 27.1472 98.1767 27.5107C99.0128 27.8743 99.7399 28.3711 100.358 29.0012C100.988 29.6191 101.485 30.3462 101.848 31.1823C102.212 32.0184 102.394 32.909 102.394 33.8541C102.394 34.7993 102.212 35.6899 101.848 36.526C101.485 37.3621 100.988 38.0952 100.358 38.7253C99.7399 39.3432 99.0128 39.834 98.1767 40.1975C97.3406 40.561 96.45 40.7428 95.5049 40.7428C94.5597 40.7428 93.6691 40.561 92.833 40.1975C91.9969 39.834 91.2699 39.3432 90.6519 38.7253C90.0339 38.0952 89.5432 37.3621 89.1797 36.526C88.8161 35.6899 88.6344 34.7993 88.6344 33.8541ZM92.2332 33.8541C92.2332 34.3146 92.318 34.7508 92.4877 35.1628C92.6573 35.5748 92.8875 35.9383 93.1784 36.2533C93.4813 36.5684 93.8327 36.8228 94.2326 37.0167C94.6324 37.1985 95.0565 37.2894 95.5049 37.2894C95.9532 37.2894 96.3773 37.1985 96.7772 37.0167C97.1771 36.8228 97.5285 36.5684 97.8314 36.2533C98.1343 35.9383 98.3706 35.5748 98.5402 35.1628C98.7099 34.7508 98.7947 34.3146 98.7947 33.8541C98.7947 33.4058 98.7099 32.9756 98.5402 32.5636C98.3706 32.1395 98.1343 31.776 97.8314 31.4731C97.5285 31.158 97.1771 30.9096 96.7772 30.7279C96.3773 30.534 95.9532 30.4371 95.5049 30.4371C95.0565 30.4371 94.6324 30.534 94.2326 30.7279C93.8327 30.9096 93.4813 31.158 93.1784 31.4731C92.8875 31.776 92.6573 32.1395 92.4877 32.5636C92.318 32.9756 92.2332 33.4058 92.2332 33.8541ZM116.773 27.638V40.0703C116.773 40.1914 116.731 40.2944 116.646 40.3793C116.561 40.4641 116.458 40.5065 116.337 40.5065H113.647C113.526 40.5065 113.398 40.4701 113.265 40.3974C113.132 40.3247 113.029 40.2399 112.956 40.143L108.212 33.4724C108.139 33.3755 108.061 33.3391 107.976 33.3634C107.903 33.3755 107.867 33.4421 107.867 33.5633V40.0703C107.867 40.1914 107.824 40.2944 107.74 40.3793C107.655 40.4641 107.552 40.5065 107.431 40.5065H104.722C104.601 40.5065 104.498 40.4641 104.413 40.3793C104.329 40.2944 104.286 40.1914 104.286 40.0703V27.638C104.286 27.5168 104.329 27.4138 104.413 27.329C104.498 27.2442 104.601 27.2017 104.722 27.2017H107.449C107.57 27.2017 107.697 27.2381 107.83 27.3108C107.964 27.3714 108.067 27.4502 108.139 27.5471L112.865 34.2176C112.938 34.3146 113.011 34.357 113.083 34.3449C113.168 34.3328 113.21 34.2661 113.21 34.1449V27.638C113.21 27.5168 113.253 27.4138 113.338 27.329C113.423 27.2442 113.526 27.2017 113.647 27.2017H116.337C116.458 27.2017 116.561 27.2442 116.646 27.329C116.731 27.4138 116.773 27.5168 116.773 27.638ZM129.636 27.6198C129.684 27.5107 129.763 27.4199 129.872 27.3472C129.993 27.2623 130.12 27.2199 130.254 27.2199H132.798C132.92 27.2199 133.035 27.2623 133.144 27.3472C133.265 27.4199 133.35 27.5107 133.398 27.6198L138.706 39.9794C138.754 40.0884 138.742 40.2036 138.669 40.3247C138.609 40.4459 138.481 40.5065 138.287 40.5065H135.179C135.046 40.5065 134.919 40.4701 134.798 40.3974C134.689 40.3126 134.604 40.2157 134.543 40.1066L134.053 39.0161C133.992 38.907 133.901 38.8161 133.78 38.7434C133.671 38.6586 133.556 38.6162 133.435 38.6162H129.599C129.466 38.6162 129.339 38.6586 129.218 38.7434C129.109 38.8161 129.03 38.907 128.981 39.0161L128.473 40.1066C128.424 40.2157 128.339 40.3126 128.218 40.3974C128.109 40.4701 127.994 40.5065 127.873 40.5065H124.746C124.686 40.5065 124.625 40.4944 124.565 40.4701C124.492 40.4459 124.437 40.4096 124.401 40.3611C124.353 40.3126 124.322 40.252 124.31 40.1793C124.298 40.1066 124.316 40.0218 124.365 39.9249L129.636 27.6198ZM130.708 35.5263H132.326C132.447 35.5263 132.532 35.49 132.58 35.4172C132.641 35.3324 132.641 35.2355 132.58 35.1264C132.459 34.8235 132.314 34.4721 132.144 34.0722C131.974 33.6602 131.817 33.2786 131.671 32.9272C131.623 32.8181 131.568 32.7636 131.508 32.7636C131.447 32.7636 131.393 32.8181 131.344 32.9272L130.436 35.1264C130.387 35.2355 130.387 35.3324 130.436 35.4172C130.484 35.49 130.575 35.5263 130.708 35.5263ZM143.58 31.0005V31.7639C143.58 31.8851 143.622 31.9881 143.707 32.0729C143.792 32.1577 143.895 32.2001 144.016 32.2001H148.923C149.044 32.2001 149.147 32.2425 149.232 32.3273C149.317 32.4122 149.359 32.5152 149.359 32.6363V35.181C149.359 35.3021 149.317 35.4051 149.232 35.49C149.147 35.5748 149.044 35.6172 148.923 35.6172H144.016C143.895 35.6172 143.792 35.6596 143.707 35.7444C143.622 35.8292 143.58 35.9322 143.58 36.0534V40.0703C143.58 40.1914 143.537 40.2944 143.452 40.3793C143.367 40.4641 143.264 40.5065 143.143 40.5065H140.399C140.278 40.5065 140.175 40.4641 140.09 40.3793C140.005 40.2944 139.963 40.1914 139.963 40.0703V27.638C139.963 27.5168 140.005 27.4138 140.09 27.329C140.175 27.2442 140.278 27.2017 140.399 27.2017H149.65C149.771 27.2017 149.874 27.2442 149.959 27.329C150.044 27.4138 150.086 27.5168 150.086 27.638V30.1281C150.086 30.2492 150.044 30.3522 149.959 30.4371C149.874 30.5219 149.771 30.5643 149.65 30.5643H144.016C143.895 30.5643 143.792 30.6067 143.707 30.6915C143.622 30.7763 143.58 30.8793 143.58 31.0005ZM155 40.5065H152.292C152.171 40.5065 152.068 40.4641 151.983 40.3793C151.898 40.2944 151.856 40.1914 151.856 40.0703V27.638C151.856 27.5168 151.898 27.4138 151.983 27.329C152.068 27.2442 152.171 27.2017 152.292 27.2017H157.945C158.648 27.2017 159.296 27.3229 159.89 27.5653C160.483 27.7955 160.986 28.1227 161.398 28.5468C161.822 28.9709 162.149 29.4737 162.38 30.0554C162.622 30.637 162.743 31.2792 162.743 31.982C162.743 32.3698 162.695 32.7575 162.598 33.1453C162.513 33.5209 162.386 33.8784 162.216 34.2176C162.046 34.5569 161.846 34.8659 161.616 35.1446C161.386 35.4112 161.125 35.6354 160.835 35.8171C160.738 35.8898 160.671 35.9807 160.635 36.0898C160.61 36.1867 160.635 36.2836 160.707 36.3806C161.168 36.9864 161.653 37.6105 162.162 38.2527C162.67 38.8949 163.125 39.4826 163.525 40.0157C163.597 40.1127 163.616 40.2217 163.579 40.3429C163.543 40.452 163.464 40.5065 163.343 40.5065H159.962C159.841 40.5065 159.708 40.4762 159.562 40.4156C159.429 40.3429 159.326 40.2581 159.253 40.1612C158.866 39.6522 158.478 39.1372 158.09 38.6162C157.714 38.0952 157.339 37.5681 156.963 37.0349C156.891 36.938 156.788 36.8592 156.654 36.7986C156.521 36.7259 156.394 36.6896 156.273 36.6896H155.873C155.751 36.6896 155.648 36.732 155.564 36.8168C155.479 36.9016 155.436 37.0046 155.436 37.1258V40.0703C155.436 40.1914 155.394 40.2944 155.309 40.3793C155.224 40.4641 155.121 40.5065 155 40.5065ZM155.873 33.3452H157.799C157.945 33.3452 158.096 33.321 158.254 33.2725C158.411 33.2119 158.557 33.1271 158.69 33.018C158.823 32.8969 158.932 32.7515 159.017 32.5818C159.102 32.4122 159.144 32.2122 159.144 31.982C159.144 31.8608 159.12 31.7215 159.072 31.564C159.035 31.3943 158.963 31.2368 158.853 31.0914C158.757 30.9339 158.617 30.8066 158.435 30.7097C158.266 30.6006 158.054 30.5461 157.799 30.5461H155.873C155.751 30.5461 155.648 30.5885 155.564 30.6733C155.479 30.7582 155.436 30.8612 155.436 30.9823V32.909C155.436 33.0301 155.479 33.1331 155.564 33.218C155.648 33.3028 155.751 33.3452 155.873 33.3452ZM168.245 40.5065H165.501C165.368 40.5065 165.259 40.4641 165.174 40.3793C165.101 40.2944 165.065 40.1914 165.065 40.0703V27.6561C165.065 27.535 165.101 27.432 165.174 27.3472C165.259 27.2623 165.368 27.2199 165.501 27.2199H168.245C168.367 27.2199 168.47 27.2623 168.554 27.3472C168.639 27.432 168.682 27.535 168.682 27.6561V40.0703C168.682 40.1914 168.639 40.2944 168.554 40.3793C168.47 40.4641 168.367 40.5065 168.245 40.5065ZM183.947 36.9622C183.595 37.5317 183.207 38.0528 182.783 38.5253C182.359 38.9858 181.881 39.3796 181.347 39.7068C180.826 40.0339 180.245 40.2884 179.603 40.4701C178.96 40.6519 178.251 40.7428 177.476 40.7428C176.507 40.7428 175.598 40.561 174.75 40.1975C173.901 39.834 173.156 39.3432 172.514 38.7253C171.884 38.1073 171.387 37.3802 171.024 36.5442C170.66 35.7081 170.478 34.8174 170.478 33.8723C170.478 32.9272 170.66 32.0365 171.024 31.2004C171.387 30.3644 171.884 29.6373 172.514 29.0193C173.156 28.4014 173.901 27.9106 174.75 27.5471C175.598 27.1836 176.507 27.0018 177.476 27.0018C178.276 27.0018 178.997 27.0927 179.639 27.2745C180.281 27.4562 180.863 27.7107 181.384 28.0378C181.905 28.365 182.371 28.7649 182.783 29.2374C183.207 29.6979 183.595 30.2068 183.947 30.7642C184.007 30.8612 184.019 30.9642 183.983 31.0732C183.947 31.1823 183.874 31.261 183.765 31.3095L181.184 32.3273C181.063 32.3758 180.941 32.3758 180.82 32.3273C180.699 32.2789 180.608 32.2062 180.548 32.1092C180.196 31.5518 179.772 31.1277 179.275 30.8369C178.779 30.534 178.179 30.3825 177.476 30.3825C177.016 30.3825 176.579 30.4795 176.167 30.6733C175.767 30.8672 175.416 31.1277 175.113 31.4549C174.81 31.77 174.574 32.1395 174.404 32.5636C174.235 32.9877 174.15 33.424 174.15 33.8723C174.15 34.3328 174.235 34.775 174.404 35.1991C174.574 35.6111 174.81 35.9746 175.113 36.2897C175.416 36.6047 175.767 36.8592 176.167 37.0531C176.579 37.247 177.016 37.3439 177.476 37.3439C178.142 37.3439 178.742 37.1864 179.275 36.8713C179.821 36.5442 180.251 36.1261 180.566 35.6172C180.626 35.5202 180.711 35.4475 180.82 35.3991C180.941 35.3506 181.063 35.3506 181.184 35.3991L183.765 36.4169C183.874 36.4654 183.947 36.5442 183.983 36.6532C184.019 36.7501 184.007 36.8531 183.947 36.9622ZM188.672 27.6198C188.72 27.5107 188.799 27.4199 188.908 27.3472C189.029 27.2623 189.157 27.2199 189.29 27.2199H191.834C191.956 27.2199 192.071 27.2623 192.18 27.3472C192.301 27.4199 192.386 27.5107 192.434 27.6198L197.742 39.9794C197.79 40.0884 197.778 40.2036 197.705 40.3247C197.645 40.4459 197.517 40.5065 197.324 40.5065H194.216C194.082 40.5065 193.955 40.4701 193.834 40.3974C193.725 40.3126 193.64 40.2157 193.579 40.1066L193.089 39.0161C193.028 38.907 192.937 38.8161 192.816 38.7434C192.707 38.6586 192.592 38.6162 192.471 38.6162H188.636C188.502 38.6162 188.375 38.6586 188.254 38.7434C188.145 38.8161 188.066 38.907 188.018 39.0161L187.509 40.1066C187.46 40.2157 187.375 40.3126 187.254 40.3974C187.145 40.4701 187.03 40.5065 186.909 40.5065H183.783C183.722 40.5065 183.661 40.4944 183.601 40.4701C183.528 40.4459 183.474 40.4096 183.437 40.3611C183.389 40.3126 183.358 40.252 183.346 40.1793C183.334 40.1066 183.352 40.0218 183.401 39.9249L188.672 27.6198ZM189.744 35.5263H191.362C191.483 35.5263 191.568 35.49 191.616 35.4172C191.677 35.3324 191.677 35.2355 191.616 35.1264C191.495 34.8235 191.35 34.4721 191.18 34.0722C191.011 33.6602 190.853 33.2786 190.708 32.9272C190.659 32.8181 190.605 32.7636 190.544 32.7636C190.483 32.7636 190.429 32.8181 190.38 32.9272L189.472 35.1264C189.423 35.2355 189.423 35.3324 189.472 35.4172C189.52 35.49 189.611 35.5263 189.744 35.5263ZM211.522 27.638V40.0703C211.522 40.1914 211.479 40.2944 211.395 40.3793C211.31 40.4641 211.207 40.5065 211.086 40.5065H208.396C208.274 40.5065 208.147 40.4701 208.014 40.3974C207.881 40.3247 207.778 40.2399 207.705 40.143L202.961 33.4724C202.888 33.3755 202.809 33.3391 202.725 33.3634C202.652 33.3755 202.616 33.4421 202.616 33.5633V40.0703C202.616 40.1914 202.573 40.2944 202.488 40.3793C202.404 40.4641 202.301 40.5065 202.179 40.5065H199.471C199.35 40.5065 199.247 40.4641 199.162 40.3793C199.077 40.2944 199.035 40.1914 199.035 40.0703V27.638C199.035 27.5168 199.077 27.4138 199.162 27.329C199.247 27.2442 199.35 27.2017 199.471 27.2017H202.198C202.319 27.2017 202.446 27.2381 202.579 27.3108C202.713 27.3714 202.816 27.4502 202.888 27.5471L207.614 34.2176C207.687 34.3146 207.759 34.357 207.832 34.3449C207.917 34.3328 207.959 34.2661 207.959 34.1449V27.638C207.959 27.5168 208.002 27.4138 208.087 27.329C208.171 27.2442 208.274 27.2017 208.396 27.2017H211.086C211.207 27.2017 211.31 27.2442 211.395 27.329C211.479 27.4138 211.522 27.5168 211.522 27.638ZM229.928 30.5461H227.384C227.262 30.5461 227.159 30.5885 227.075 30.6733C226.99 30.7582 226.947 30.8612 226.947 30.9823V40.0703C226.947 40.1914 226.905 40.2944 226.82 40.3793C226.748 40.4641 226.645 40.5065 226.511 40.5065H223.785C223.664 40.5065 223.561 40.4641 223.476 40.3793C223.391 40.2944 223.349 40.1914 223.349 40.0703V30.9823C223.349 30.8612 223.306 30.7582 223.221 30.6733C223.149 30.5885 223.046 30.5461 222.912 30.5461H220.331C220.21 30.5461 220.107 30.5037 220.022 30.4189C219.938 30.3341 219.895 30.2311 219.895 30.1099V27.638C219.895 27.5168 219.938 27.4138 220.022 27.329C220.107 27.2442 220.21 27.2017 220.331 27.2017H229.928C230.062 27.2017 230.165 27.2442 230.237 27.329C230.322 27.4138 230.365 27.5168 230.365 27.638V30.1099C230.365 30.2311 230.322 30.3341 230.237 30.4189C230.165 30.5037 230.062 30.5461 229.928 30.5461ZM235.346 30.9823V31.7457C235.346 31.8669 235.388 31.9699 235.473 32.0547C235.558 32.1395 235.661 32.1819 235.782 32.1819H240.708C240.829 32.1819 240.932 32.2244 241.017 32.3092C241.102 32.394 241.144 32.497 241.144 32.6182V35.1264C241.144 35.2476 241.102 35.3506 241.017 35.4354C240.932 35.5202 240.829 35.5627 240.708 35.5627H235.782C235.661 35.5627 235.558 35.6051 235.473 35.6899C235.388 35.7747 235.346 35.8777 235.346 35.9989V36.6896C235.346 36.8107 235.388 36.9137 235.473 36.9985C235.558 37.0834 235.661 37.1258 235.782 37.1258H241.435C241.556 37.1258 241.659 37.1682 241.744 37.253C241.829 37.3378 241.871 37.4408 241.871 37.562V40.0703C241.871 40.1914 241.829 40.2944 241.744 40.3793C241.659 40.4641 241.556 40.5065 241.435 40.5065H232.183C232.062 40.5065 231.959 40.4641 231.874 40.3793C231.79 40.2944 231.747 40.1914 231.747 40.0703V27.638C231.747 27.5168 231.79 27.4138 231.874 27.329C231.959 27.2442 232.062 27.2017 232.183 27.2017H241.435C241.556 27.2017 241.659 27.2442 241.744 27.329C241.829 27.4138 241.871 27.5168 241.871 27.638V30.1099C241.871 30.2311 241.829 30.3341 241.744 30.4189C241.659 30.5037 241.556 30.5461 241.435 30.5461H235.782C235.661 30.5461 235.558 30.5885 235.473 30.6733C235.388 30.7582 235.346 30.8612 235.346 30.9823ZM254.097 37.5984V40.0703C254.097 40.1914 254.054 40.2944 253.969 40.3793C253.884 40.4641 253.781 40.5065 253.66 40.5065H244.591C244.457 40.5065 244.348 40.4641 244.263 40.3793C244.191 40.2944 244.154 40.1914 244.154 40.0703V27.638C244.154 27.5168 244.191 27.4138 244.263 27.329C244.348 27.2442 244.457 27.2017 244.591 27.2017H247.317C247.438 27.2017 247.541 27.2442 247.626 27.329C247.711 27.4138 247.753 27.5168 247.753 27.638V36.7259C247.753 36.8471 247.79 36.9501 247.862 37.0349C247.947 37.1197 248.056 37.1621 248.189 37.1621H253.66C253.781 37.1621 253.884 37.2045 253.969 37.2894C254.054 37.3742 254.097 37.4772 254.097 37.5984ZM258.936 30.9823V31.7457C258.936 31.8669 258.978 31.9699 259.063 32.0547C259.148 32.1395 259.251 32.1819 259.372 32.1819H264.297C264.419 32.1819 264.522 32.2244 264.606 32.3092C264.691 32.394 264.734 32.497 264.734 32.6182V35.1264C264.734 35.2476 264.691 35.3506 264.606 35.4354C264.522 35.5202 264.419 35.5627 264.297 35.5627H259.372C259.251 35.5627 259.148 35.6051 259.063 35.6899C258.978 35.7747 258.936 35.8777 258.936 35.9989V36.6896C258.936 36.8107 258.978 36.9137 259.063 36.9985C259.148 37.0834 259.251 37.1258 259.372 37.1258H265.024C265.146 37.1258 265.249 37.1682 265.333 37.253C265.418 37.3378 265.461 37.4408 265.461 37.562V40.0703C265.461 40.1914 265.418 40.2944 265.333 40.3793C265.249 40.4641 265.146 40.5065 265.024 40.5065H255.773C255.652 40.5065 255.549 40.4641 255.464 40.3793C255.379 40.2944 255.337 40.1914 255.337 40.0703V27.638C255.337 27.5168 255.379 27.4138 255.464 27.329C255.549 27.2442 255.652 27.2017 255.773 27.2017H265.024C265.146 27.2017 265.249 27.2442 265.333 27.329C265.418 27.4138 265.461 27.5168 265.461 27.638V30.1099C265.461 30.2311 265.418 30.3341 265.333 30.4189C265.249 30.5037 265.146 30.5461 265.024 30.5461H259.372C259.251 30.5461 259.148 30.5885 259.063 30.6733C258.978 30.7582 258.936 30.8612 258.936 30.9823ZM280.257 36.9622C279.906 37.5317 279.518 38.0528 279.094 38.5253C278.67 38.9858 278.191 39.3796 277.658 39.7068C277.137 40.0339 276.556 40.2884 275.913 40.4701C275.271 40.6519 274.562 40.7428 273.787 40.7428C272.817 40.7428 271.909 40.561 271.06 40.1975C270.212 39.834 269.467 39.3432 268.825 38.7253C268.195 38.1073 267.698 37.3802 267.334 36.5442C266.971 35.7081 266.789 34.8174 266.789 33.8723C266.789 32.9272 266.971 32.0365 267.334 31.2004C267.698 30.3644 268.195 29.6373 268.825 29.0193C269.467 28.4014 270.212 27.9106 271.06 27.5471C271.909 27.1836 272.817 27.0018 273.787 27.0018C274.587 27.0018 275.308 27.0927 275.95 27.2745C276.592 27.4562 277.174 27.7107 277.695 28.0378C278.216 28.365 278.682 28.7649 279.094 29.2374C279.518 29.6979 279.906 30.2068 280.257 30.7642C280.318 30.8612 280.33 30.9642 280.294 31.0732C280.257 31.1823 280.185 31.261 280.076 31.3095L277.495 32.3273C277.374 32.3758 277.252 32.3758 277.131 32.3273C277.01 32.2789 276.919 32.2062 276.859 32.1092C276.507 31.5518 276.083 31.1277 275.586 30.8369C275.089 30.534 274.49 30.3825 273.787 30.3825C273.326 30.3825 272.89 30.4795 272.478 30.6733C272.078 30.8672 271.727 31.1277 271.424 31.4549C271.121 31.77 270.885 32.1395 270.715 32.5636C270.545 32.9877 270.461 33.424 270.461 33.8723C270.461 34.3328 270.545 34.775 270.715 35.1991C270.885 35.6111 271.121 35.9746 271.424 36.2897C271.727 36.6047 272.078 36.8592 272.478 37.0531C272.89 37.247 273.326 37.3439 273.787 37.3439C274.453 37.3439 275.053 37.1864 275.586 36.8713C276.132 36.5442 276.562 36.1261 276.877 35.6172C276.937 35.5202 277.022 35.4475 277.131 35.3991C277.252 35.3506 277.374 35.3506 277.495 35.3991L280.076 36.4169C280.185 36.4654 280.257 36.5442 280.294 36.6532C280.33 36.7501 280.318 36.8531 280.257 36.9622ZM281.043 33.8541C281.043 32.909 281.225 32.0184 281.588 31.1823C281.952 30.3462 282.443 29.6191 283.061 29.0012C283.679 28.3711 284.406 27.8743 285.242 27.5107C286.078 27.1472 286.968 26.9655 287.914 26.9655C288.859 26.9655 289.749 27.1472 290.585 27.5107C291.422 27.8743 292.149 28.3711 292.767 29.0012C293.397 29.6191 293.893 30.3462 294.257 31.1823C294.621 32.0184 294.802 32.909 294.802 33.8541C294.802 34.7993 294.621 35.6899 294.257 36.526C293.893 37.3621 293.397 38.0952 292.767 38.7253C292.149 39.3432 291.422 39.834 290.585 40.1975C289.749 40.561 288.859 40.7428 287.914 40.7428C286.968 40.7428 286.078 40.561 285.242 40.1975C284.406 39.834 283.679 39.3432 283.061 38.7253C282.443 38.0952 281.952 37.3621 281.588 36.526C281.225 35.6899 281.043 34.7993 281.043 33.8541ZM284.642 33.8541C284.642 34.3146 284.727 34.7508 284.896 35.1628C285.066 35.5748 285.296 35.9383 285.587 36.2533C285.89 36.5684 286.241 36.8228 286.641 37.0167C287.041 37.1985 287.465 37.2894 287.914 37.2894C288.362 37.2894 288.786 37.1985 289.186 37.0167C289.586 36.8228 289.937 36.5684 290.24 36.2533C290.543 35.9383 290.779 35.5748 290.949 35.1628C291.119 34.7508 291.203 34.3146 291.203 33.8541C291.203 33.4058 291.119 32.9756 290.949 32.5636C290.779 32.1395 290.543 31.776 290.24 31.4731C289.937 31.158 289.586 30.9096 289.186 30.7279C288.786 30.534 288.362 30.4371 287.914 30.4371C287.465 30.4371 287.041 30.534 286.641 30.7279C286.241 30.9096 285.89 31.158 285.587 31.4731C285.296 31.776 285.066 32.1395 284.896 32.5636C284.727 32.9756 284.642 33.4058 284.642 33.8541ZM311.526 27.6561V40.0703C311.526 40.1914 311.484 40.2944 311.399 40.3793C311.314 40.4641 311.211 40.5065 311.09 40.5065H308.346C308.224 40.5065 308.121 40.4641 308.037 40.3793C307.952 40.2944 307.909 40.1914 307.909 40.0703V34.2176C307.909 34.0965 307.855 34.0298 307.746 34.0177C307.637 34.0056 307.546 34.048 307.473 34.1449L304.42 39.0706C304.359 39.1675 304.262 39.216 304.129 39.216C303.995 39.216 303.892 39.1675 303.82 39.0706L300.766 34.1449C300.706 34.048 300.621 34.0056 300.512 34.0177C300.403 34.0298 300.348 34.0965 300.348 34.2176V40.0703C300.348 40.1914 300.306 40.2944 300.221 40.3793C300.136 40.4641 300.033 40.5065 299.912 40.5065H297.167C297.046 40.5065 296.943 40.4641 296.858 40.3793C296.774 40.2944 296.731 40.1914 296.731 40.0703V27.6561C296.731 27.535 296.774 27.432 296.858 27.3472C296.943 27.2623 297.046 27.2199 297.167 27.2199H299.712C299.833 27.2199 299.96 27.2563 300.094 27.329C300.227 27.4017 300.324 27.4865 300.385 27.5834L303.874 32.709C303.947 32.806 304.032 32.8544 304.129 32.8544C304.226 32.8544 304.304 32.806 304.365 32.709L307.855 27.5834C307.928 27.4865 308.031 27.4017 308.164 27.329C308.297 27.2563 308.424 27.2199 308.546 27.2199H311.09C311.211 27.2199 311.314 27.2623 311.399 27.3472C311.484 27.432 311.526 27.535 311.526 27.6561Z" fill="#FBFBFB"/>
</svg>
