<svg id="Layer_2" data-name="Layer 2" xmlns="http://www.w3.org/2000/svg" viewBox="0 0 305.5 75.6"><defs><style>.cls-1{fill:#009286;}.cls-2{fill:#f3c000;}.cls-3{fill:#939393;}</style></defs><title>Retail_oud2</title><g id="logo"><polygon class="cls-1" points="0.099 0.031 0.099 47.24 28.424 75.569 42.588 47.243 56.752 47.24 56.752 0.031 0.099 0.031"/><polygon class="cls-2" points="28.424 75.569 56.752 47.24 28.424 18.915 28.424 75.569"/><path class="cls-3" d="M82.851,37.635l1.863-7.268h9.357l1.817,7.268h7.224l-8.9-32.8H85.169l-9.086,32.8Zm9.767-12.31H86.077l3.134-14.176H89.3Z"/><path class="cls-3" d="M115.844,23.28h4c3.451,0,4.542,1.772,4.542,4.682,0,4.585-3.271,4.631-4.724,4.631h-3.816V23.28Zm0-13.4h4.224a3.929,3.929,0,0,1,3.953,4.178c0,3.18-2.09,4.179-3.589,4.179h-4.587V9.88Zm5.269,27.755c2.908,0,10.131-.362,10.131-8.677,0-4.495-1.272-7.631-6.133-8.312v-.09c3.726-.726,5.588-3.453,5.588-7.223,0-6.995-4.314-8.5-9.54-8.5H108.985v32.8h12.128Z"/><polygon class="cls-3" points="145.657 37.635 145.657 13.649 145.746 13.649 154.695 37.635 163.736 37.635 163.736 4.838 157.33 4.838 157.33 27.55 157.239 27.55 148.517 4.838 139.25 4.838 139.25 37.635 145.657 37.635"/><polygon class="cls-3" points="174.5 23.15 178.901 18.748 174.5 14.36 170.112 18.748 174.5 23.15"/><path class="cls-3" d="M187.871,37.635l1.862-7.268h9.357l1.817,7.268h7.224l-8.9-32.8h-9.039l-9.086,32.8Zm9.766-12.31H191.1l3.134-14.176h.091Z"/><polygon class="cls-3" points="220.454 37.635 220.454 12.333 220.544 12.333 226.542 37.635 233.082 37.635 239.397 12.333 239.487 12.333 239.487 37.635 246.167 37.635 246.167 4.838 235.49 4.838 230.04 27.141 229.948 27.141 224.813 4.838 213.778 4.838 213.778 37.635 220.454 37.635"/><path class="cls-3" d="M262.026,9.88h3.041c2.181,0,3.5,1.181,3.5,4.313,0,2.089-.772,4.815-3.5,4.815h-3.041Zm0,14.172H263.8c5.269,0,4.9,3.315,4.9,7.223,0,2.137-.181,4.362.727,6.36h6.723c-.636-1.36-.772-7.541-.772-9.63,0-5.907-4.453-6.269-5.953-6.451v-.09c4.453-.727,6.087-3.86,6.087-8.041,0-5.587-3-8.584-7.677-8.584H255.165v32.8h6.859l0-13.583Z"/><path class="cls-3" d="M294.089,33.277c-3.861,0-4.361-3.635-4.361-12.039s.5-12.038,4.361-12.038,4.36,3.637,4.36,12.038S297.947,33.277,294.089,33.277Zm0,4.9c11.312,0,11.312-8.358,11.312-16.944,0-8.676,0-16.947-11.312-16.947s-11.312,8.271-11.312,16.947C282.776,29.822,282.776,38.181,294.089,38.181Z"/></g></svg>