<?xml version="1.0" standalone="no"?>
<!DOCTYPE svg PUBLIC "-//W3C//DTD SVG 20010904//EN"
 "http://www.w3.org/TR/2001/REC-SVG-20010904/DTD/svg10.dtd">
<svg version="1.0" xmlns="http://www.w3.org/2000/svg"
 width="3000.000000pt" height="3000.000000pt" viewBox="0 0 3000.000000 3000.000000"
 preserveAspectRatio="xMidYMid meet">

<g transform="translate(0.000000,3000.000000) scale(0.100000,-0.100000)"
fill="#000000" stroke="none">
<path d="M2775 27311 c-48 -22 -69 -44 -90 -94 -13 -32 -15 -342 -15 -2864 0
-2723 1 -2829 19 -2868 22 -48 44 -69 94 -90 32 -13 342 -15 2864 -15 2723 0
2829 1 2868 19 48 22 69 44 90 94 13 32 15 342 15 2862 0 2520 -2 2830 -15
2862 -21 50 -42 72 -90 94 -39 18 -145 19 -2870 19 -2725 0 -2831 -1 -2870
-19z m4961 -865 l34 -34 0 -2057 0 -2057 -34 -34 -34 -34 -2057 0 -2057 0 -34
34 -34 34 0 2057 0 2057 34 34 34 34 2057 0 2057 0 34 -34z"/>
<path d="M4480 25614 c-45 -20 -68 -41 -91 -86 -18 -36 -19 -78 -19 -1170 0
-1078 1 -1135 19 -1173 22 -48 44 -69 94 -90 32 -13 172 -15 1164 -15 1073 0
1130 1 1168 19 48 22 69 44 90 94 13 32 15 172 15 1162 0 990 -2 1130 -15
1162 -21 50 -42 72 -90 94 -38 18 -94 19 -1170 18 -984 0 -1134 -2 -1165 -15z"/>
<path d="M9575 27311 c-48 -22 -69 -44 -90 -94 -22 -54 -22 -570 0 -624 21
-50 42 -72 90 -94 38 -18 95 -19 1170 -19 1075 0 1132 -1 1170 -19 48 -22 69
-44 90 -94 12 -30 15 -87 15 -312 0 -225 3 -282 15 -312 21 -50 42 -72 90 -94
38 -17 82 -19 745 -19 663 0 707 2 745 19 48 22 69 44 90 94 12 30 15 86 15
314 0 248 -2 282 -19 318 -22 48 -44 69 -94 90 -30 12 -87 15 -312 15 -225 0
-282 3 -312 15 -50 21 -72 42 -94 90 -17 36 -19 70 -19 320 0 250 -2 284 -19
320 -22 48 -44 69 -94 90 -32 13 -214 15 -1589 15 -1486 0 -1555 -1 -1593 -19z"/>
<path d="M14675 27311 c-48 -22 -69 -44 -90 -94 -13 -32 -15 -129 -15 -739 0
-661 2 -705 19 -743 22 -48 44 -69 94 -90 30 -12 87 -15 312 -15 225 0 282 3
312 15 50 21 72 42 94 90 17 36 19 70 19 318 0 227 3 284 15 314 21 50 42 72
90 94 36 17 69 19 320 19 251 0 284 -2 320 -19 48 -22 69 -44 90 -94 12 -30
15 -87 15 -314 0 -248 2 -282 19 -318 22 -48 44 -69 94 -90 30 -12 86 -15 314
-15 248 0 282 2 318 19 48 22 69 44 90 94 13 31 15 129 15 737 0 608 -2 706
-15 737 -21 50 -42 72 -90 94 -38 18 -95 19 -1170 19 -1075 0 -1132 -1 -1170
-19z"/>
<path d="M18925 27311 c-48 -22 -69 -44 -90 -94 -12 -30 -15 -87 -15 -312 0
-225 -3 -282 -15 -312 -21 -50 -42 -72 -90 -94 -36 -17 -70 -19 -320 -19 -250
0 -284 -2 -320 -19 -48 -22 -69 -44 -90 -94 -12 -30 -15 -87 -15 -312 0 -225
-3 -282 -15 -312 -21 -50 -42 -72 -90 -94 -36 -17 -70 -19 -320 -19 -250 0
-284 -2 -320 -19 -48 -22 -69 -44 -90 -94 -12 -30 -15 -86 -15 -314 0 -248 2
-282 19 -318 22 -48 44 -69 94 -90 30 -12 87 -15 314 -15 248 0 282 -2 318
-19 48 -22 69 -44 90 -94 22 -54 22 -570 0 -624 -21 -50 -42 -72 -90 -94 -36
-17 -70 -19 -320 -19 -250 0 -284 -2 -320 -19 -48 -22 -69 -44 -90 -94 -12
-30 -15 -87 -15 -312 0 -225 -3 -282 -15 -312 -21 -50 -42 -72 -90 -94 -36
-17 -70 -19 -318 -19 -227 0 -284 -3 -314 -15 -50 -21 -72 -42 -94 -90 -17
-38 -19 -82 -19 -745 0 -663 2 -707 19 -745 22 -48 44 -69 94 -90 54 -22 570
-22 624 0 50 21 72 42 94 90 17 36 19 70 19 320 0 250 2 284 19 320 22 48 44
69 94 90 54 22 570 22 624 0 50 -21 72 -42 94 -90 17 -36 19 -70 19 -318 0
-228 -3 -284 -15 -314 -21 -50 -42 -72 -90 -94 -36 -17 -70 -19 -318 -19 -227
0 -284 -3 -314 -15 -50 -21 -72 -42 -94 -90 -18 -38 -19 -107 -19 -1593 0
-1375 2 -1557 15 -1589 21 -50 42 -72 90 -94 36 -17 69 -19 320 -19 251 0 284
2 320 19 48 22 69 44 90 94 13 31 15 129 15 737 0 608 2 706 15 737 21 50 42
72 90 94 36 17 70 19 320 19 250 0 284 2 320 19 48 22 69 44 90 94 13 32 15
172 15 1164 0 1073 1 1130 19 1168 22 48 44 69 94 90 30 12 87 15 314 15 248
0 282 2 318 19 48 22 69 44 90 94 12 30 15 87 15 312 0 225 3 282 15 312 21
50 42 72 90 94 36 17 70 19 320 19 250 0 284 2 320 19 48 22 69 44 90 94 13
32 15 172 15 1164 0 1073 -1 1130 -19 1168 -22 48 -44 69 -94 90 -30 12 -87
15 -312 15 -225 0 -282 3 -312 15 -50 21 -72 42 -94 90 -17 38 -19 83 -19 745
0 662 -2 707 -19 745 -22 48 -44 69 -94 90 -30 12 -86 15 -314 15 -248 0 -282
-2 -318 -19z"/>
<path d="M21475 27311 c-48 -22 -69 -44 -90 -94 -13 -32 -15 -342 -15 -2864 0
-2723 1 -2829 19 -2868 22 -48 44 -69 94 -90 32 -13 342 -15 2864 -15 2723 0
2829 1 2868 19 48 22 69 44 90 94 13 32 15 342 15 2862 0 2520 -2 2830 -15
2862 -21 50 -42 72 -90 94 -39 18 -145 19 -2870 19 -2725 0 -2831 -1 -2870
-19z m4961 -865 l34 -34 0 -2057 0 -2057 -34 -34 -34 -34 -2057 0 -2057 0 -34
34 -34 34 0 2057 0 2057 34 34 34 34 2057 0 2057 0 34 -34z"/>
<path d="M23180 25614 c-45 -20 -68 -41 -91 -86 -18 -36 -19 -78 -19 -1170 0
-1078 1 -1135 19 -1173 22 -48 44 -69 94 -90 32 -13 172 -15 1164 -15 1073 0
1130 1 1168 19 48 22 69 44 90 94 13 32 15 172 15 1162 0 990 -2 1130 -15
1162 -21 50 -42 72 -90 94 -38 18 -94 19 -1170 18 -984 0 -1134 -2 -1165 -15z"/>
<path d="M9575 25611 c-48 -22 -69 -44 -90 -94 -13 -32 -15 -129 -15 -739 0
-661 2 -705 19 -743 22 -48 44 -69 94 -90 32 -13 129 -15 739 -15 661 0 705 2
743 19 48 22 69 44 90 94 22 54 22 570 0 624 -21 50 -42 72 -90 94 -36 17 -70
19 -320 19 -250 0 -284 2 -320 19 -48 22 -69 44 -90 94 -12 30 -15 87 -15 314
0 248 -2 282 -19 318 -22 48 -44 69 -94 90 -30 12 -86 15 -314 15 -248 0 -282
-2 -318 -19z"/>
<path d="M13825 25611 c-48 -22 -69 -44 -90 -94 -12 -30 -15 -87 -15 -312 0
-225 3 -282 15 -312 21 -50 42 -72 90 -94 36 -17 70 -19 318 -19 228 0 284 3
314 15 50 21 72 42 94 90 17 36 19 69 19 320 0 251 -2 284 -19 320 -22 48 -44
69 -94 90 -30 12 -86 15 -314 15 -248 0 -282 -2 -318 -19z"/>
<path d="M14675 24761 c-48 -22 -69 -44 -90 -94 -13 -31 -15 -130 -15 -739 0
-661 -2 -705 -19 -743 -22 -48 -44 -69 -94 -90 -30 -12 -86 -15 -314 -15 -248
0 -282 2 -318 19 -48 22 -69 44 -90 94 -12 30 -15 87 -15 312 0 225 -3 282
-15 312 -21 50 -42 72 -90 94 -36 17 -69 19 -320 19 -251 0 -284 -2 -320 -19
-48 -22 -69 -44 -90 -94 -12 -30 -15 -87 -15 -312 0 -225 -3 -282 -15 -312
-21 -50 -42 -72 -90 -94 -36 -17 -70 -19 -318 -19 -227 0 -284 -3 -314 -15
-50 -21 -72 -42 -94 -90 -17 -36 -19 -69 -19 -320 0 -251 2 -284 19 -320 22
-48 44 -69 94 -90 30 -12 87 -15 314 -15 248 0 282 -2 318 -19 48 -22 69 -44
90 -94 13 -32 15 -172 15 -1162 0 -990 -2 -1130 -15 -1162 -21 -50 -42 -72
-90 -94 -36 -17 -69 -19 -320 -19 -251 0 -284 2 -320 19 -48 22 -69 44 -90 94
-12 30 -15 87 -15 314 0 248 -2 282 -19 318 -22 48 -44 69 -94 90 -30 12 -87
15 -312 15 -225 0 -282 3 -312 15 -50 21 -72 42 -94 90 -17 36 -19 70 -19 320
0 250 -2 284 -19 320 -22 48 -44 69 -94 90 -30 12 -87 15 -314 15 -248 0 -282
2 -318 19 -48 22 -69 44 -90 94 -12 30 -15 87 -15 312 0 225 -3 282 -15 312
-21 50 -42 72 -90 94 -36 17 -69 19 -320 19 -251 0 -284 -2 -320 -19 -48 -22
-69 -44 -90 -94 -13 -31 -15 -129 -15 -737 0 -608 2 -706 15 -737 21 -50 42
-72 90 -94 36 -17 70 -19 320 -19 250 0 284 -2 320 -19 48 -22 69 -44 90 -94
12 -30 15 -87 15 -314 0 -248 2 -282 19 -318 22 -48 44 -69 94 -90 30 -12 87
-15 312 -15 225 0 282 -3 312 -15 50 -21 72 -42 94 -90 17 -38 19 -83 19 -745
0 -662 2 -707 19 -745 22 -48 44 -69 94 -90 31 -13 129 -15 737 -15 608 0 706
2 737 15 50 21 72 42 94 90 17 36 19 70 19 320 0 250 2 284 19 320 22 48 44
69 94 90 32 13 172 15 1162 15 990 0 1130 2 1162 15 50 21 72 42 94 90 17 36
19 70 19 320 0 250 2 284 19 320 22 48 44 69 94 90 30 12 87 15 314 15 248 0
282 2 318 19 48 22 69 44 90 94 13 31 15 129 15 737 0 608 -2 706 -15 737 -21
50 -42 72 -90 94 -36 17 -70 19 -320 19 -250 0 -284 2 -320 19 -48 22 -69 44
-90 94 -13 32 -15 129 -15 739 0 661 2 705 19 743 22 48 44 69 94 90 30 12 87
15 314 15 248 0 282 2 318 19 48 22 69 44 90 94 22 54 22 570 0 624 -21 50
-42 72 -90 94 -36 17 -70 19 -320 19 -250 0 -284 2 -320 19 -48 22 -69 44 -90
94 -12 30 -15 87 -15 314 0 248 -2 282 -19 318 -22 48 -44 69 -94 90 -30 12
-86 15 -314 15 -248 0 -282 -2 -318 -19z m-218 -2546 c50 -21 72 -42 94 -90
17 -36 19 -69 19 -320 0 -251 -2 -284 -19 -320 -22 -48 -44 -69 -94 -90 -30
-12 -86 -15 -314 -15 -248 0 -282 2 -318 19 -48 22 -69 44 -90 94 -12 30 -15
87 -15 312 0 225 3 282 15 312 21 50 42 72 90 94 36 17 70 19 318 19 228 0
284 -3 314 -15z m0 -1700 c50 -21 72 -42 94 -90 17 -36 19 -69 19 -320 0 -251
-2 -284 -19 -320 -22 -48 -44 -69 -94 -90 -30 -12 -86 -15 -314 -15 -248 0
-282 2 -318 19 -48 22 -69 44 -90 94 -12 30 -15 87 -15 312 0 225 3 282 15
312 21 50 42 72 90 94 36 17 70 19 318 19 228 0 284 -3 314 -15z"/>
<path d="M11275 23911 c-48 -22 -69 -44 -90 -94 -12 -30 -15 -87 -15 -312 0
-225 3 -282 15 -312 21 -50 42 -72 90 -94 36 -17 70 -19 318 -19 228 0 284 3
314 15 50 21 72 42 94 90 17 36 19 69 19 320 0 251 -2 284 -19 320 -22 48 -44
69 -94 90 -30 12 -86 15 -314 15 -248 0 -282 -2 -318 -19z"/>
<path d="M10425 23061 c-48 -22 -69 -44 -90 -94 -12 -30 -15 -87 -15 -312 0
-225 3 -282 15 -312 21 -50 42 -72 90 -94 36 -17 70 -19 318 -19 228 0 284 3
314 15 50 21 72 42 94 90 17 36 19 69 19 320 0 251 -2 284 -19 320 -22 48 -44
69 -94 90 -30 12 -86 15 -314 15 -248 0 -282 -2 -318 -19z"/>
<path d="M11275 22211 c-48 -22 -69 -44 -90 -94 -12 -30 -15 -87 -15 -312 0
-225 3 -282 15 -312 21 -50 42 -72 90 -94 36 -17 70 -19 318 -19 228 0 284 3
314 15 50 21 72 42 94 90 17 36 19 69 19 320 0 251 -2 284 -19 320 -22 48 -44
69 -94 90 -30 12 -86 15 -314 15 -248 0 -282 -2 -318 -19z"/>
<path d="M19775 22211 c-48 -22 -69 -44 -90 -94 -12 -30 -15 -87 -15 -312 0
-225 3 -282 15 -312 21 -50 42 -72 90 -94 36 -17 70 -19 318 -19 228 0 284 3
314 15 50 21 72 42 94 90 17 36 19 69 19 320 0 251 -2 284 -19 320 -22 48 -44
69 -94 90 -30 12 -86 15 -314 15 -248 0 -282 -2 -318 -19z"/>
<path d="M4475 20511 c-48 -22 -69 -44 -90 -94 -12 -30 -15 -87 -15 -312 0
-225 -3 -282 -15 -312 -21 -50 -42 -72 -90 -94 -36 -17 -70 -19 -320 -19 -250
0 -284 -2 -320 -19 -48 -22 -69 -44 -90 -94 -22 -54 -22 -570 0 -624 21 -50
42 -72 90 -94 38 -18 95 -19 1170 -19 1075 0 1132 1 1170 19 48 22 69 44 90
94 12 30 15 87 15 312 0 225 3 282 15 312 21 50 42 72 90 94 36 17 70 19 320
19 250 0 284 2 320 19 48 22 69 44 90 94 22 54 22 570 0 624 -21 50 -42 72
-90 94 -38 18 -95 19 -1170 19 -1075 0 -1132 -1 -1170 -19z"/>
<path d="M8725 20511 c-48 -22 -69 -44 -90 -94 -13 -32 -15 -129 -15 -739 0
-661 2 -705 19 -743 22 -48 44 -69 94 -90 54 -22 570 -22 624 0 50 21 72 42
94 90 17 38 19 82 19 745 0 663 -2 707 -19 745 -22 48 -44 69 -94 90 -30 12
-86 15 -314 15 -248 0 -282 -2 -318 -19z"/>
<path d="M19775 20511 c-48 -22 -69 -44 -90 -94 -13 -31 -15 -130 -15 -739 0
-661 -2 -705 -19 -743 -22 -48 -44 -69 -94 -90 -30 -12 -87 -15 -312 -15 -225
0 -282 -3 -312 -15 -50 -21 -72 -42 -94 -90 -17 -36 -19 -69 -19 -320 0 -251
2 -284 19 -320 22 -48 44 -69 94 -90 32 -13 214 -15 1589 -15 1486 0 1555 1
1593 19 48 22 69 44 90 94 12 30 15 87 15 312 0 225 -3 282 -15 312 -21 50
-42 72 -90 94 -36 17 -70 19 -320 19 -250 0 -284 2 -320 19 -48 22 -69 44 -90
94 -22 54 -22 570 0 624 21 50 42 72 90 94 38 17 82 19 743 19 609 0 708 2
739 15 50 21 72 42 94 90 17 36 19 69 19 320 0 251 -2 284 -19 320 -22 48 -44
69 -94 90 -32 13 -214 15 -1589 15 -1486 0 -1555 -1 -1593 -19z"/>
<path d="M24875 20511 c-48 -22 -69 -44 -90 -94 -13 -32 -15 -129 -15 -739 0
-661 2 -705 19 -743 22 -48 44 -69 94 -90 54 -22 570 -22 624 0 50 21 72 42
94 90 17 36 19 70 19 318 0 227 3 284 15 314 21 50 42 72 90 94 38 17 83 19
745 19 662 0 707 2 745 19 48 22 69 44 90 94 22 54 22 570 0 624 -21 50 -42
72 -90 94 -38 18 -95 19 -1170 19 -1075 0 -1132 -1 -1170 -19z"/>
<path d="M7025 19661 c-48 -22 -69 -44 -90 -94 -13 -32 -15 -129 -15 -739 0
-661 2 -705 19 -743 22 -48 44 -69 94 -90 54 -22 570 -22 624 0 50 21 72 42
94 90 17 38 19 82 19 745 0 663 -2 707 -19 745 -22 48 -44 69 -94 90 -30 12
-86 15 -314 15 -248 0 -282 -2 -318 -19z"/>
<path d="M23175 19661 c-48 -22 -69 -44 -90 -94 -13 -32 -15 -129 -15 -739 0
-661 2 -705 19 -743 22 -48 44 -69 94 -90 32 -13 129 -15 739 -15 661 0 705 2
743 19 48 22 69 44 90 94 22 54 22 570 0 624 -21 50 -42 72 -90 94 -36 17 -70
19 -320 19 -250 0 -284 2 -320 19 -48 22 -69 44 -90 94 -12 30 -15 87 -15 314
0 248 -2 282 -19 318 -22 48 -44 69 -94 90 -30 12 -86 15 -314 15 -248 0 -282
-2 -318 -19z"/>
<path d="M2775 18811 c-48 -22 -69 -44 -90 -94 -22 -54 -22 -570 0 -624 21
-50 42 -72 90 -94 36 -17 70 -19 318 -19 228 0 284 3 314 15 50 21 72 42 94
90 17 36 19 69 19 320 0 251 -2 284 -19 320 -22 48 -44 69 -94 90 -30 12 -86
15 -314 15 -248 0 -282 -2 -318 -19z"/>
<path d="M15525 18811 c-48 -22 -69 -44 -90 -94 -12 -30 -15 -87 -15 -312 0
-225 3 -282 15 -312 21 -50 42 -72 90 -94 36 -17 70 -19 318 -19 228 0 284 3
314 15 50 21 72 42 94 90 17 36 19 69 19 320 0 251 -2 284 -19 320 -22 48 -44
69 -94 90 -30 12 -86 15 -314 15 -248 0 -282 -2 -318 -19z"/>
<path d="M3625 17961 c-48 -22 -69 -44 -90 -94 -22 -54 -22 -570 0 -624 21
-50 42 -72 90 -94 36 -17 70 -19 318 -19 228 0 284 3 314 15 50 21 72 42 94
90 17 36 19 69 19 320 0 251 -2 284 -19 320 -22 48 -44 69 -94 90 -30 12 -86
15 -314 15 -248 0 -282 -2 -318 -19z"/>
<path d="M6175 17961 c-48 -22 -69 -44 -90 -94 -22 -54 -22 -570 0 -624 21
-50 42 -72 90 -94 36 -17 70 -19 318 -19 228 0 284 3 314 15 50 21 72 42 94
90 17 36 19 69 19 320 0 251 -2 284 -19 320 -22 48 -44 69 -94 90 -30 12 -86
15 -314 15 -248 0 -282 -2 -318 -19z"/>
<path d="M24875 17961 c-48 -22 -69 -44 -90 -94 -13 -31 -15 -130 -15 -739 0
-661 -2 -705 -19 -743 -22 -48 -44 -69 -94 -90 -30 -12 -86 -15 -314 -15 -248
0 -282 2 -318 19 -48 22 -69 44 -90 94 -12 30 -15 87 -15 312 0 225 -3 282
-15 312 -21 50 -42 72 -90 94 -38 17 -82 19 -743 19 -610 0 -707 -2 -739 -15
-50 -21 -72 -42 -94 -90 -18 -38 -19 -107 -19 -1595 0 -1488 1 -1557 19 -1595
22 -48 44 -69 94 -90 30 -12 86 -15 314 -15 248 0 282 2 318 19 48 22 69 44
90 94 13 31 15 129 15 737 0 608 2 706 15 737 21 50 42 72 90 94 36 17 69 19
320 19 251 0 284 -2 320 -19 48 -22 69 -44 90 -94 13 -31 15 -129 15 -737 0
-608 2 -706 15 -737 21 -50 42 -72 90 -94 36 -17 70 -19 318 -19 228 0 284 3
314 15 50 21 72 42 94 90 17 38 19 82 19 743 0 609 2 708 15 739 21 50 42 72
90 94 36 17 70 19 318 19 227 0 284 3 314 15 50 21 72 42 94 90 17 38 19 82
19 743 0 609 2 708 15 739 21 50 42 72 90 94 36 17 70 19 320 19 250 0 284 2
320 19 48 22 69 44 90 94 22 54 22 570 0 624 -21 50 -42 72 -90 94 -38 17 -82
19 -745 19 -663 0 -707 -2 -745 -19z"/>
<path d="M4475 17111 c-48 -22 -69 -44 -90 -94 -13 -31 -15 -130 -15 -739 0
-661 -2 -705 -19 -743 -22 -48 -44 -69 -94 -90 -31 -13 -130 -15 -739 -15
-661 0 -705 -2 -743 -19 -48 -22 -69 -44 -90 -94 -13 -31 -15 -129 -15 -737 0
-608 2 -706 15 -737 21 -50 42 -72 90 -94 36 -17 69 -19 320 -19 251 0 284 2
320 19 48 22 69 44 90 94 12 30 15 87 15 312 0 225 3 282 15 312 21 50 42 72
90 94 38 17 82 19 743 19 609 0 708 2 739 15 50 21 72 42 94 90 17 36 19 70
19 320 0 250 2 284 19 320 22 48 44 69 94 90 30 12 86 15 314 15 248 0 282 -2
318 -19 48 -22 69 -44 90 -94 12 -30 15 -86 15 -314 0 -248 -2 -282 -19 -318
-22 -48 -44 -69 -94 -90 -30 -12 -87 -15 -314 -15 -248 0 -282 -2 -318 -19
-48 -22 -69 -44 -90 -94 -13 -31 -15 -129 -15 -737 0 -608 -2 -706 -15 -737
-21 -50 -42 -72 -90 -94 -36 -17 -69 -19 -320 -19 -251 0 -284 2 -320 19 -48
22 -69 44 -90 94 -12 30 -15 87 -15 312 0 225 -3 282 -15 312 -21 50 -42 72
-90 94 -36 17 -69 19 -320 19 -251 0 -284 -2 -320 -19 -48 -22 -69 -44 -90
-94 -12 -30 -15 -87 -15 -312 0 -225 -3 -282 -15 -312 -21 -50 -42 -72 -90
-94 -36 -17 -70 -19 -320 -19 -250 0 -284 -2 -320 -19 -48 -22 -69 -44 -90
-94 -13 -32 -15 -172 -15 -1164 0 -1073 1 -1130 19 -1168 22 -48 44 -69 94
-90 30 -12 87 -15 312 -15 225 0 282 -3 312 -15 50 -21 72 -42 94 -90 17 -38
19 -82 19 -743 0 -609 2 -708 15 -739 21 -50 42 -72 90 -94 36 -17 70 -19 320
-19 250 0 284 -2 320 -19 48 -22 69 -44 90 -94 22 -54 22 -570 0 -624 -21 -50
-42 -72 -90 -94 -36 -17 -69 -19 -320 -19 -251 0 -284 2 -320 19 -48 22 -69
44 -90 94 -12 30 -15 87 -15 312 0 225 -3 282 -15 312 -21 50 -42 72 -90 94
-36 17 -69 19 -320 19 -251 0 -284 -2 -320 -19 -48 -22 -69 -44 -90 -94 -13
-32 -15 -214 -15 -1587 0 -1373 2 -1555 15 -1587 21 -50 42 -72 90 -94 38 -17
82 -19 745 -19 663 0 707 2 745 19 48 22 69 44 90 94 22 54 22 570 0 624 -21
50 -42 72 -90 94 -36 17 -70 19 -320 19 -250 0 -284 2 -320 19 -48 22 -69 44
-90 94 -22 54 -22 570 0 624 21 50 42 72 90 94 36 17 69 19 320 19 251 0 284
-2 320 -19 48 -22 69 -44 90 -94 12 -30 15 -87 15 -312 0 -225 3 -282 15 -312
21 -50 42 -72 90 -94 36 -17 70 -19 320 -19 250 0 284 -2 320 -19 48 -22 69
-44 90 -94 12 -30 15 -87 15 -312 0 -225 3 -282 15 -312 21 -50 42 -72 90 -94
36 -17 69 -19 320 -19 251 0 284 2 320 19 48 22 69 44 90 94 12 30 15 87 15
312 0 225 3 282 15 312 21 50 42 72 90 94 36 17 69 19 320 19 251 0 284 -2
320 -19 48 -22 69 -44 90 -94 12 -30 15 -87 15 -312 0 -225 3 -282 15 -312 21
-50 42 -72 90 -94 36 -17 70 -19 320 -19 250 0 284 -2 320 -19 48 -22 69 -44
90 -94 22 -54 22 -570 0 -624 -21 -50 -42 -72 -90 -94 -36 -17 -70 -19 -320
-19 -250 0 -284 -2 -320 -19 -48 -22 -69 -44 -90 -94 -13 -31 -15 -129 -15
-737 0 -608 2 -706 15 -737 21 -50 42 -72 90 -94 36 -17 69 -19 320 -19 251 0
284 2 320 19 48 22 69 44 90 94 12 30 15 87 15 312 0 225 3 282 15 312 21 50
42 72 90 94 36 17 70 19 320 19 250 0 284 2 320 19 48 22 69 44 90 94 13 31
15 129 15 737 0 608 2 706 15 737 21 50 42 72 90 94 36 17 70 19 320 19 250 0
284 2 320 19 48 22 69 44 90 94 12 30 15 87 15 312 0 225 3 282 15 312 21 50
42 72 90 94 36 17 69 19 320 19 251 0 284 -2 320 -19 48 -22 69 -44 90 -94 12
-30 15 -87 15 -312 0 -225 3 -282 15 -312 21 -50 42 -72 90 -94 36 -17 69 -19
320 -19 251 0 284 2 320 19 48 22 69 44 90 94 13 31 15 129 15 737 0 608 -2
706 -15 737 -21 50 -42 72 -90 94 -36 17 -70 19 -320 19 -250 0 -284 2 -320
19 -48 22 -69 44 -90 94 -22 54 -22 570 0 624 21 50 42 72 90 94 36 17 70 19
320 19 250 0 284 2 320 19 48 22 69 44 90 94 22 54 22 570 0 624 -21 50 -42
72 -90 94 -36 17 -70 19 -320 19 -250 0 -284 2 -320 19 -48 22 -69 44 -90 94
-13 31 -15 130 -15 739 0 661 -2 705 -19 743 -22 48 -44 69 -94 90 -30 12 -87
15 -312 15 -225 0 -282 3 -312 15 -50 21 -72 42 -94 90 -17 36 -19 69 -19 320
0 251 2 284 19 320 22 48 44 69 94 90 30 12 87 15 314 15 248 0 282 2 318 19
48 22 69 44 90 94 12 30 15 86 15 314 0 248 -2 282 -19 318 -22 48 -44 69 -94
90 -32 13 -172 15 -1162 15 -990 0 -1130 -2 -1162 -15 -50 -21 -72 -42 -94
-90 -17 -36 -19 -70 -19 -320 0 -250 -2 -284 -19 -320 -22 -48 -44 -69 -94
-90 -31 -13 -129 -15 -737 -15 -608 0 -706 -2 -737 -15 -50 -21 -72 -42 -94
-90 -17 -36 -19 -70 -19 -320 0 -250 -2 -284 -19 -320 -22 -48 -44 -69 -94
-90 -30 -12 -87 -15 -312 -15 -225 0 -282 -3 -312 -15 -50 -21 -72 -42 -94
-90 -17 -36 -19 -70 -19 -318 0 -227 -3 -284 -15 -314 -21 -50 -42 -72 -90
-94 -36 -17 -69 -19 -320 -19 -251 0 -284 2 -320 19 -48 22 -69 44 -90 94 -13
32 -15 129 -15 739 0 661 2 705 19 743 22 48 44 69 94 90 31 13 129 15 737 15
608 0 706 2 737 15 50 21 72 42 94 90 18 38 19 95 19 1168 0 992 2 1132 15
1164 21 50 42 72 90 94 36 17 70 19 320 19 250 0 284 2 320 19 48 22 69 44 90
94 13 31 15 129 15 737 0 608 2 706 15 737 21 50 42 72 90 94 36 17 70 19 318
19 227 0 284 3 314 15 50 21 72 42 94 90 17 36 19 69 19 320 0 251 -2 284 -19
320 -22 48 -44 69 -94 90 -31 13 -130 15 -739 15 -661 0 -705 2 -743 19 -48
22 -69 44 -90 94 -12 30 -15 87 -15 312 0 225 -3 282 -15 312 -21 50 -42 72
-90 94 -38 17 -82 19 -745 19 -663 0 -707 -2 -745 -19z m4890 -7650 c48 -22
69 -44 90 -94 13 -32 15 -172 15 -1162 0 -990 -2 -1130 -15 -1162 -21 -50 -42
-72 -90 -94 -38 -18 -95 -19 -1168 -19 -992 0 -1132 2 -1164 15 -50 21 -72 42
-94 90 -18 38 -19 95 -19 1168 0 992 2 1132 15 1164 21 50 42 72 90 94 38 18
95 19 1170 19 1075 0 1132 -1 1170 -19z m-3408 -1696 c50 -21 72 -42 94 -90
17 -36 19 -69 19 -320 0 -251 -2 -284 -19 -320 -22 -48 -44 -69 -94 -90 -30
-12 -86 -15 -314 -15 -248 0 -282 2 -318 19 -48 22 -69 44 -90 94 -22 54 -22
570 0 624 21 50 42 72 90 94 36 17 70 19 318 19 228 0 284 -3 314 -15z"/>
<path d="M7875 8611 c-48 -22 -69 -44 -90 -94 -22 -54 -22 -570 0 -624 21 -50
42 -72 90 -94 36 -17 70 -19 318 -19 228 0 284 3 314 15 50 21 72 42 94 90 17
36 19 69 19 320 0 251 -2 284 -19 320 -22 48 -44 69 -94 90 -30 12 -86 15
-314 15 -248 0 -282 -2 -318 -19z"/>
<path d="M26575 17111 c-48 -22 -69 -44 -90 -94 -13 -32 -15 -129 -15 -739 0
-661 2 -705 19 -743 22 -48 44 -69 94 -90 54 -22 570 -22 624 0 50 21 72 42
94 90 17 38 19 82 19 745 0 663 -2 707 -19 745 -22 48 -44 69 -94 90 -30 12
-86 15 -314 15 -248 0 -282 -2 -318 -19z"/>
<path d="M16560 16390 l0 -520 -39 0 c-33 0 -40 4 -43 23 -2 14 -11 23 -25 25
-15 2 -23 10 -23 23 0 12 -7 19 -20 19 -13 0 -20 7 -20 20 0 15 -7 20 -25 20
-18 0 -25 5 -25 19 0 16 -9 21 -45 27 -35 5 -45 10 -45 25 0 17 -8 19 -65 19
-58 0 -65 2 -65 20 0 19 -7 20 -160 20 -153 0 -160 -1 -160 -20 0 -19 -7 -20
-90 -20 -82 0 -90 -2 -90 -19 0 -15 -10 -20 -45 -25 -36 -6 -45 -11 -45 -27 0
-14 -7 -19 -25 -19 -18 0 -25 -5 -25 -20 0 -17 -7 -20 -40 -20 -33 0 -40 -3
-40 -20 0 -15 -7 -20 -25 -20 -20 0 -25 -5 -25 -25 0 -18 -5 -25 -20 -25 -13
0 -20 -7 -20 -20 0 -15 -7 -20 -25 -20 -20 0 -25 -5 -25 -25 0 -18 -5 -25 -19
-25 -15 0 -21 -10 -26 -40 -5 -30 -11 -40 -26 -40 -16 0 -19 -7 -19 -40 0 -32
-4 -40 -19 -40 -19 0 -31 -39 -31 -102 0 -21 -5 -28 -20 -28 -19 0 -20 -7 -20
-220 0 -213 1 -220 20 -220 15 0 20 -7 20 -27 0 -64 12 -103 31 -103 15 0 19
-8 19 -40 0 -33 3 -40 19 -40 16 0 21 -9 27 -45 5 -35 10 -45 25 -45 12 0 19
-7 19 -19 0 -13 8 -21 23 -23 14 -2 23 -11 25 -25 2 -15 10 -23 23 -23 12 0
19 -7 19 -20 0 -15 7 -20 25 -20 18 0 25 -5 25 -20 0 -13 7 -20 20 -20 13 0
20 -7 20 -19 0 -15 10 -20 45 -25 36 -6 45 -11 45 -27 0 -16 7 -19 45 -19 38
0 45 -3 45 -20 0 -18 7 -20 66 -20 57 0 67 -3 71 -20 5 -19 14 -20 204 -20
192 0 199 1 199 20 0 17 7 20 45 20 38 0 45 3 45 20 0 17 7 20 45 20 38 0 45
3 45 19 0 13 8 21 23 23 14 2 23 11 25 26 2 14 10 22 23 22 12 0 19 7 19 20 0
15 7 20 25 20 18 0 25 5 25 20 0 17 7 20 40 20 l40 0 0 -105 0 -105 135 0 135
0 0 1230 0 1230 -135 0 -135 0 0 -520z m-450 -540 c0 -17 7 -20 50 -20 43 0
50 -3 50 -20 0 -17 7 -20 39 -20 33 0 40 -4 43 -22 2 -15 11 -24 26 -26 14 -2
22 -10 22 -23 0 -14 7 -19 25 -19 18 0 25 -5 25 -20 0 -13 7 -20 20 -20 17 0
20 -7 20 -45 0 -37 3 -45 19 -45 20 0 31 -34 31 -96 0 -27 4 -34 20 -34 19 0
20 -7 20 -175 0 -168 -1 -175 -20 -175 -15 0 -20 -7 -20 -29 0 -57 -12 -91
-31 -91 -16 0 -19 -8 -19 -45 0 -38 -3 -45 -20 -45 -13 0 -20 -7 -20 -20 0
-15 -7 -20 -25 -20 -20 0 -25 -5 -25 -25 0 -18 -5 -25 -20 -25 -13 0 -20 -7
-20 -20 0 -15 -7 -20 -25 -20 -18 0 -25 -5 -25 -20 0 -16 -7 -20 -32 -20 -57
0 -108 -12 -108 -25 0 -24 -103 -32 -242 -18 -57 5 -68 9 -68 24 0 16 -8 19
-45 19 -38 0 -45 3 -45 20 0 17 -7 20 -45 20 -38 0 -45 3 -45 19 0 13 -8 21
-22 23 -15 2 -24 11 -26 26 -2 14 -10 22 -23 22 -12 0 -19 7 -19 20 0 15 -7
20 -25 20 -20 0 -25 5 -25 25 0 18 -5 25 -20 25 -17 0 -20 7 -20 40 0 32 -4
40 -19 40 -20 0 -31 34 -31 96 0 27 -4 34 -20 34 -19 0 -20 7 -20 130 0 123 1
130 20 130 15 0 20 7 20 28 0 63 12 102 31 102 15 0 19 8 19 39 0 33 4 40 23
43 14 2 23 11 25 26 2 14 10 22 23 22 12 0 19 7 19 20 0 13 7 20 20 20 13 0
20 7 20 20 0 15 7 20 25 20 20 0 25 5 25 25 0 23 4 25 45 25 38 0 45 3 45 20
0 17 7 20 43 20 56 0 87 9 87 26 0 11 27 14 135 14 128 0 135 -1 135 -20z"/>
<path d="M8410 15595 l0 -1145 135 0 135 0 0 444 c0 244 3 458 6 475 l7 31
338 0 c332 0 339 0 339 20 0 18 7 20 60 20 52 0 60 2 60 19 0 15 10 20 45 25
36 6 45 11 45 27 0 14 7 19 25 19 18 0 25 5 25 19 0 13 8 21 23 23 14 2 23 11
25 26 2 14 10 22 22 22 14 0 20 10 25 40 5 30 11 40 26 40 14 0 19 7 19 25 0
18 5 25 20 25 16 0 20 7 20 38 0 50 10 82 25 82 18 0 25 57 25 201 0 151 -6
186 -31 192 -16 4 -19 15 -19 66 0 54 -2 61 -19 61 -13 0 -21 8 -23 23 -2 14
-11 23 -25 25 -19 3 -23 10 -23 43 0 33 -3 39 -21 39 -12 0 -23 8 -26 20 -3
11 -14 20 -24 20 -14 0 -19 7 -19 25 0 23 -4 25 -45 25 -38 0 -45 3 -45 20 0
14 -7 20 -21 20 -12 0 -23 8 -26 19 -5 20 -41 31 -99 31 -27 0 -34 4 -34 20 0
20 -7 20 -475 20 l-475 0 0 -1145z m770 905 c0 -19 7 -20 90 -20 83 0 90 -1
90 -20 0 -14 7 -20 21 -20 12 0 23 -8 26 -20 3 -11 14 -20 24 -20 14 0 19 -7
19 -25 0 -20 5 -25 25 -25 18 0 25 -5 25 -20 0 -13 7 -20 20 -20 17 0 20 -7
20 -45 0 -38 3 -45 19 -45 16 0 20 -11 26 -80 10 -108 -1 -180 -26 -180 -16 0
-19 -7 -19 -45 0 -38 -3 -45 -19 -45 -15 0 -21 -10 -26 -40 -5 -30 -11 -40
-26 -40 -12 0 -19 -7 -19 -19 0 -16 -9 -21 -45 -27 -35 -5 -45 -10 -45 -25 0
-16 -8 -19 -45 -19 -38 0 -45 -3 -45 -20 0 -20 -7 -20 -295 -20 l-295 0 0 399
c0 219 3 413 6 430 l7 31 243 0 c237 0 244 -1 244 -20z"/>
<path d="M10670 16110 c0 -18 -7 -20 -70 -20 -63 0 -70 -2 -70 -20 0 -17 -7
-20 -45 -20 -38 0 -45 -3 -45 -19 0 -16 -9 -21 -45 -27 -35 -5 -45 -10 -45
-25 0 -14 -7 -19 -25 -19 -18 0 -25 -5 -25 -20 0 -13 -7 -20 -20 -20 -13 0
-20 -7 -20 -20 0 -14 -7 -20 -21 -20 -12 0 -23 -8 -26 -19 -3 -11 -13 -21 -24
-24 -11 -3 -19 -14 -19 -26 0 -14 -6 -21 -19 -21 -13 0 -21 -8 -23 -22 -2 -15
-11 -24 -25 -26 -19 -3 -23 -10 -23 -43 0 -32 -3 -39 -19 -39 -16 0 -20 -8
-23 -42 -2 -36 -7 -44 -25 -46 -22 -3 -23 -7 -23 -108 0 -97 -1 -104 -20 -104
-18 0 -20 -7 -20 -85 0 -78 2 -85 20 -85 19 0 20 -7 20 -90 0 -81 2 -90 19
-90 20 0 31 -34 31 -96 0 -27 4 -34 19 -34 14 0 20 -10 25 -39 4 -27 12 -40
26 -44 12 -3 20 -14 20 -26 0 -14 6 -21 20 -21 13 0 20 -7 20 -20 0 -13 7 -20
19 -20 13 0 21 -8 23 -22 2 -15 11 -24 26 -26 14 -2 22 -10 22 -23 0 -14 7
-19 25 -19 18 0 25 -5 25 -20 0 -13 7 -20 20 -20 13 0 20 -7 20 -19 0 -15 10
-20 45 -25 36 -6 45 -11 45 -27 0 -16 7 -19 45 -19 38 0 45 -3 45 -20 0 -18 7
-20 66 -20 57 0 67 -3 71 -20 5 -19 14 -20 184 -20 145 0 179 3 179 14 0 15
42 26 96 26 27 0 34 4 34 19 0 15 10 20 45 25 36 6 45 11 45 27 0 14 7 19 25
19 18 0 25 5 25 20 0 13 7 20 20 20 13 0 20 7 20 20 0 13 7 20 19 20 15 0 21
10 26 40 5 30 11 40 26 40 18 0 19 -9 19 -125 l0 -125 140 0 140 0 0 789 c0
434 -3 803 -6 820 l-6 31 -134 0 -134 0 0 -110 c0 -102 -1 -110 -19 -110 -13
0 -21 8 -23 23 -2 14 -11 23 -25 25 -15 2 -23 10 -23 23 0 14 -7 19 -25 19
-18 0 -25 5 -25 19 0 15 -10 21 -40 26 -30 5 -40 11 -40 26 0 14 -7 19 -25 19
-18 0 -25 5 -25 20 0 18 -7 20 -70 20 -63 0 -70 2 -70 20 0 19 -7 20 -175 20
-168 0 -175 -1 -175 -20z m313 -260 c4 -17 14 -20 71 -20 59 0 66 -2 66 -20 0
-14 7 -20 21 -20 12 0 23 -8 26 -19 3 -13 17 -22 44 -26 29 -5 39 -11 39 -26
0 -12 7 -19 19 -19 15 0 21 -10 26 -40 5 -29 12 -40 25 -40 13 0 19 -11 24
-45 6 -36 11 -45 27 -45 17 0 19 -7 19 -70 0 -63 2 -70 20 -70 19 0 20 -7 20
-125 0 -118 -1 -125 -20 -125 -18 0 -20 -7 -20 -65 0 -58 -2 -65 -19 -65 -16
0 -21 -9 -27 -45 -5 -34 -11 -45 -24 -45 -13 0 -20 -11 -25 -40 -5 -30 -11
-40 -26 -40 -12 0 -19 -7 -19 -19 0 -13 -8 -21 -22 -23 -15 -2 -24 -11 -26
-25 -3 -19 -10 -23 -43 -23 -32 0 -39 -3 -39 -20 0 -17 -7 -20 -46 -20 -36 0
-47 -4 -51 -19 -4 -14 -18 -20 -65 -25 -127 -13 -248 -4 -248 19 0 14 -44 25
-96 25 -27 0 -34 4 -34 20 0 15 -7 20 -25 20 -18 0 -25 5 -25 19 0 15 -10 21
-40 26 -37 6 -40 10 -46 46 -6 33 -10 39 -30 39 -17 0 -24 6 -24 20 0 13 -7
20 -20 20 -15 0 -20 7 -20 25 0 18 -5 25 -20 25 -15 0 -20 7 -20 29 0 54 -12
89 -31 94 -18 5 -19 17 -19 177 0 160 1 172 19 177 19 5 31 40 31 94 0 22 5
29 20 29 15 0 20 7 20 25 0 18 5 25 20 25 13 0 20 7 20 20 0 15 7 20 25 20 19
0 25 5 25 21 0 12 8 23 19 26 11 3 21 13 24 24 3 11 14 19 26 19 14 0 21 6 21
20 0 17 7 20 45 20 38 0 45 3 45 20 0 17 7 20 46 20 37 0 47 4 51 20 5 19 14
20 133 20 119 0 128 -1 133 -20z"/>
<path d="M12740 16110 c0 -18 -7 -20 -70 -20 -63 0 -70 -2 -70 -19 0 -16 -8
-20 -42 -23 -36 -2 -44 -7 -46 -25 -2 -15 -10 -23 -23 -23 -12 0 -19 -7 -19
-20 0 -15 -7 -20 -25 -20 -18 0 -25 -5 -25 -20 0 -17 -7 -20 -40 -20 l-40 0 0
85 0 85 -134 0 -133 0 -7 -31 c-3 -17 -6 -386 -6 -820 l0 -789 140 0 140 0 0
495 c0 412 2 495 14 495 15 0 26 50 26 123 0 40 3 47 20 47 15 0 20 7 20 25 0
18 5 25 19 25 15 0 21 10 26 39 6 36 10 40 45 46 26 4 40 13 43 26 3 13 14 19
31 19 19 0 26 5 26 20 0 18 7 20 65 20 58 0 65 2 65 20 0 18 7 20 65 20 48 0
65 -3 65 -14 0 -12 40 -26 75 -26 7 0 15 17 19 39 4 27 12 40 26 44 16 4 20
13 20 46 0 34 3 41 20 41 18 0 20 7 20 65 l0 65 -155 0 c-148 0 -155 -1 -155
-20z"/>
<path d="M13817 16110 c-5 -18 -14 -20 -91 -20 -78 0 -86 -2 -86 -19 0 -15
-10 -20 -45 -25 -36 -6 -45 -11 -45 -27 0 -14 -7 -19 -25 -19 -18 0 -25 -5
-25 -20 0 -17 -7 -20 -40 -20 -33 0 -40 -3 -40 -20 0 -15 -7 -20 -25 -20 -20
0 -25 -5 -25 -25 0 -20 -5 -25 -25 -25 -18 0 -25 -5 -25 -20 0 -13 -7 -20 -20
-20 -15 0 -20 -7 -20 -25 0 -18 -5 -25 -19 -25 -15 0 -21 -10 -26 -40 -5 -30
-11 -40 -26 -40 -16 0 -19 -7 -19 -45 0 -37 -3 -45 -19 -45 -20 0 -31 -34 -31
-96 0 -27 -4 -34 -20 -34 -19 0 -20 -7 -20 -195 0 -188 1 -195 20 -195 18 0
20 -7 20 -61 0 -51 3 -62 19 -66 22 -5 31 -31 31 -85 0 -31 4 -38 19 -38 13 0
21 -8 23 -22 2 -15 11 -24 26 -26 18 -3 22 -10 22 -43 0 -35 3 -39 25 -39 18
0 25 -5 25 -20 0 -13 7 -20 20 -20 15 0 20 -7 20 -25 0 -20 5 -25 25 -25 18 0
25 -5 25 -20 0 -17 7 -20 40 -20 33 0 40 -3 40 -19 0 -16 9 -21 45 -27 35 -5
45 -10 45 -25 0 -14 7 -19 25 -19 18 0 25 -5 25 -20 0 -18 7 -20 59 -20 78 0
121 -9 121 -26 0 -11 34 -14 180 -14 173 0 180 1 180 20 0 17 7 20 45 20 38 0
45 3 45 20 0 17 7 20 45 20 38 0 45 3 45 20 0 14 7 20 21 20 12 0 23 8 26 20
3 11 14 20 24 20 14 0 19 7 19 25 0 20 5 25 25 25 18 0 25 5 25 19 0 16 33 31
71 31 5 0 9 -49 9 -110 l0 -110 135 0 135 0 0 820 0 820 -129 0 -128 0 -7 -31
c-3 -17 -6 -76 -6 -130 0 -92 -1 -99 -20 -99 -15 0 -20 7 -20 25 0 18 -5 25
-20 25 -13 0 -20 7 -20 20 0 15 -7 20 -25 20 -18 0 -25 5 -25 20 0 13 -7 20
-20 20 -13 0 -20 7 -20 20 0 15 -7 20 -25 20 -20 0 -25 5 -25 25 0 23 -4 25
-45 25 -38 0 -45 3 -45 20 0 18 -7 20 -65 20 -58 0 -65 2 -65 20 0 19 -7 20
-159 20 -150 0 -159 -1 -164 -20z m316 -260 c4 -16 14 -20 51 -20 39 0 46 -3
46 -20 0 -17 7 -20 41 -20 32 0 42 -4 46 -20 3 -11 14 -20 24 -20 14 0 19 -7
19 -25 0 -20 5 -25 25 -25 18 0 25 -5 25 -20 0 -13 7 -20 20 -20 17 0 20 -7
20 -40 0 -33 4 -40 19 -40 15 0 20 -10 25 -45 6 -36 11 -45 27 -45 18 0 19 -9
19 -220 0 -208 -1 -220 -19 -220 -19 0 -31 -34 -31 -91 0 -22 -5 -29 -20 -29
-15 0 -20 -7 -20 -25 0 -18 -5 -25 -19 -25 -13 0 -21 -8 -23 -22 -2 -15 -11
-24 -25 -26 -15 -2 -23 -10 -23 -23 0 -12 -7 -19 -20 -19 -13 0 -20 -7 -20
-20 0 -15 -7 -20 -25 -20 -18 0 -25 -5 -25 -20 0 -16 -7 -20 -34 -20 -52 0
-96 -11 -96 -25 0 -15 -54 -25 -140 -25 -86 0 -140 10 -140 25 0 14 -44 25
-96 25 -27 0 -34 4 -34 20 0 17 -7 20 -45 20 -38 0 -45 3 -45 19 0 13 -8 21
-22 23 -15 2 -24 11 -26 26 -2 14 -10 22 -23 22 -12 0 -19 7 -19 20 0 13 -7
20 -19 20 -15 0 -21 10 -26 40 -5 30 -11 40 -26 40 -14 0 -19 7 -19 25 0 18
-5 25 -19 25 -22 0 -31 40 -31 148 0 65 -2 72 -20 72 -17 0 -20 7 -20 40 0 33
3 40 20 40 18 0 20 7 20 86 0 76 2 86 19 91 20 5 31 30 31 71 0 15 6 22 19 22
15 0 21 10 26 40 5 30 11 40 26 40 12 0 19 7 19 20 0 14 7 20 21 20 12 0 23 8
26 20 3 11 14 20 24 20 12 0 19 7 19 19 0 16 9 21 45 27 35 5 45 10 45 25 0
17 8 19 65 19 58 0 65 2 65 20 0 19 7 20 134 20 125 0 134 -1 139 -20z"/>
<path d="M19627 16110 c-4 -17 -14 -20 -71 -20 -59 0 -66 -2 -66 -19 0 -16 -8
-20 -42 -23 -36 -2 -44 -7 -46 -25 -3 -17 -10 -23 -28 -23 -17 0 -24 -5 -24
-20 0 -13 -7 -20 -20 -20 -13 0 -20 -7 -20 -20 0 -17 -7 -20 -45 -20 l-45 0 0
85 0 85 -135 0 -135 0 0 -820 0 -820 135 0 135 0 0 516 c0 498 1 516 19 521
20 5 31 41 31 99 0 27 4 34 19 34 15 0 21 10 26 40 5 30 11 40 26 40 12 0 19
7 19 20 0 14 7 20 21 20 12 0 23 8 26 20 4 14 17 22 44 26 29 5 39 11 39 25 0
17 8 19 70 19 63 0 70 2 70 20 0 18 7 20 64 20 55 0 64 -3 69 -20 4 -17 14
-20 71 -20 59 0 66 -2 66 -19 0 -16 8 -20 43 -23 35 -2 43 -7 45 -25 2 -15 10
-23 23 -23 12 0 19 -7 19 -20 0 -15 7 -20 25 -20 23 0 25 -4 25 -40 0 -33 3
-40 19 -40 15 0 20 -10 26 -50 4 -31 12 -50 20 -50 7 0 15 -10 19 -22 3 -13 6
-254 6 -535 l0 -513 135 0 135 0 0 540 c0 533 0 540 20 540 16 0 20 7 20 34 0
62 11 96 31 96 12 0 19 7 19 20 0 13 7 20 19 20 13 0 21 8 23 23 2 14 11 23
26 25 14 2 22 10 22 23 0 16 7 19 45 19 38 0 45 3 45 20 0 16 7 20 34 20 54 0
96 11 96 26 0 11 17 14 70 14 63 0 70 -2 70 -20 0 -18 7 -20 65 -20 58 0 65
-2 65 -20 0 -15 7 -20 25 -20 18 0 25 -5 25 -19 0 -13 8 -21 23 -23 14 -2 23
-11 25 -25 2 -15 10 -23 23 -23 12 0 19 -7 19 -20 0 -13 7 -20 19 -20 15 0 21
-10 26 -40 5 -30 11 -40 26 -40 17 0 19 -8 19 -90 0 -83 1 -90 20 -90 20 0 20
-7 20 -475 l0 -475 135 0 135 0 0 560 c0 553 0 560 -20 560 -18 0 -20 7 -20
85 0 77 -2 85 -19 85 -16 0 -21 9 -27 45 -5 35 -10 45 -25 45 -12 0 -19 7 -19
20 0 13 -7 20 -19 20 -13 0 -21 8 -23 23 -2 14 -11 23 -25 25 -15 2 -23 10
-23 23 0 13 -7 19 -21 19 -12 0 -23 8 -26 20 -3 11 -14 20 -24 20 -12 0 -19 7
-19 19 0 16 -9 21 -45 27 -35 5 -45 10 -45 25 0 17 -8 19 -70 19 -63 0 -70 2
-70 20 0 19 -7 20 -155 20 -148 0 -155 -1 -155 -20 0 -18 -7 -20 -70 -20 -62
0 -70 -2 -70 -19 0 -14 -10 -20 -39 -25 -27 -4 -40 -12 -44 -26 -3 -12 -14
-20 -26 -20 -14 0 -21 -6 -21 -20 0 -15 -7 -20 -25 -20 -18 0 -25 -5 -25 -20
0 -13 -7 -20 -20 -20 -13 0 -20 -7 -20 -19 0 -13 -8 -21 -22 -23 -15 -2 -24
-11 -26 -25 -4 -29 -42 -31 -49 -3 -3 11 -14 20 -24 20 -14 0 -19 7 -19 25 0
18 -5 25 -20 25 -13 0 -20 7 -20 20 0 15 -7 20 -25 20 -18 0 -25 5 -25 19 0
15 -10 21 -39 26 -27 4 -41 13 -44 26 -4 15 -14 19 -46 19 -34 0 -41 3 -41 20
0 17 -7 20 -50 20 -43 0 -50 3 -50 20 0 19 -7 20 -154 20 -145 0 -154 -1 -159
-20z"/>
<path d="M17110 16070 c0 -13 7 -20 20 -20 18 0 20 -7 20 -65 0 -57 2 -65 19
-65 20 0 31 -34 31 -96 0 -27 4 -34 20 -34 16 0 20 -7 20 -34 0 -62 11 -96 31
-96 16 0 19 -8 19 -45 0 -38 3 -45 20 -45 18 0 20 -7 20 -65 0 -57 2 -65 19
-65 20 0 31 -34 31 -96 0 -27 4 -34 20 -34 16 0 19 -8 22 -62 3 -57 5 -63 26
-66 20 -3 22 -9 22 -63 0 -52 2 -59 20 -59 17 0 20 -7 20 -46 0 -37 4 -47 19
-51 19 -5 31 -40 31 -94 0 -22 5 -29 20 -29 18 0 20 -7 20 -65 0 -57 2 -65 19
-65 20 0 31 -34 31 -96 0 -27 4 -34 20 -34 16 0 20 -7 20 -34 0 -54 11 -96 26
-96 8 0 14 -9 14 -20 0 -13 -7 -20 -20 -20 -17 0 -20 -7 -20 -50 0 -43 -3 -50
-20 -50 -15 0 -20 -7 -20 -29 0 -54 -12 -89 -31 -94 -16 -4 -19 -15 -19 -66 0
-54 -2 -61 -20 -61 -16 0 -20 -7 -20 -34 0 -62 -11 -96 -31 -96 -16 0 -19 -8
-19 -45 0 -38 -3 -45 -20 -45 -16 0 -19 -8 -22 -62 -3 -57 -5 -63 -25 -66 -19
-3 -23 -10 -23 -43 l0 -39 154 0 154 0 6 31 c3 17 6 47 6 65 0 27 4 34 20 34
16 0 20 7 20 38 0 54 9 80 31 85 15 4 19 14 19 51 0 39 3 46 20 46 18 0 20 7
20 60 0 52 3 60 19 60 20 0 31 34 31 96 0 27 4 34 20 34 16 0 20 7 20 34 0 62
11 96 31 96 16 0 19 8 19 45 0 38 3 45 20 45 18 0 20 7 20 61 0 51 3 62 19 66
20 5 31 41 31 99 0 27 4 34 20 34 16 0 20 7 20 38 0 54 9 80 31 85 15 4 19 14
19 51 0 39 3 46 20 46 18 0 20 7 20 60 0 52 3 60 19 60 20 0 31 34 31 96 0 27
4 34 20 34 17 0 20 7 20 45 0 37 3 45 19 45 20 0 31 34 31 96 0 27 4 34 20 34
18 0 20 7 20 65 0 57 2 65 19 65 20 0 31 34 31 96 0 27 4 34 20 34 16 0 20 7
20 38 0 54 9 80 31 85 15 4 19 14 19 51 0 39 3 46 20 46 16 0 20 7 20 38 0 50
10 82 25 82 7 0 15 14 19 31 12 62 19 59 -148 59 l-153 0 -7 -31 c-3 -17 -6
-47 -6 -65 0 -27 -4 -34 -20 -34 -16 0 -20 -7 -20 -34 0 -62 -11 -96 -31 -96
-16 0 -19 -8 -19 -45 0 -38 -3 -45 -20 -45 -18 0 -20 -7 -20 -61 0 -51 -3 -62
-19 -66 -19 -5 -31 -40 -31 -94 0 -22 -5 -29 -20 -29 -16 0 -20 -7 -20 -34 0
-58 -11 -94 -31 -99 -16 -4 -19 -15 -19 -66 0 -54 -2 -61 -20 -61 -17 0 -20
-7 -20 -44 0 -39 -3 -45 -22 -48 -21 -3 -23 -9 -26 -65 -3 -55 -6 -63 -22 -63
-16 0 -20 -7 -20 -34 0 -18 -3 -48 -6 -65 -6 -28 -10 -31 -45 -31 -39 0 -39 0
-39 41 0 32 -4 42 -19 46 -20 5 -31 41 -31 99 0 27 -4 34 -20 34 -16 0 -20 7
-20 34 0 53 -11 96 -25 96 -14 0 -25 43 -25 96 0 27 -4 34 -20 34 -18 0 -20 7
-20 61 0 51 -3 62 -19 66 -22 6 -31 31 -31 91 0 35 -3 42 -20 42 -15 0 -20 7
-20 28 0 63 -12 102 -31 102 -17 0 -19 8 -19 65 0 58 -2 65 -20 65 -15 0 -20
7 -20 28 0 63 -12 102 -31 102 -15 0 -19 8 -19 40 l0 40 -155 0 c-148 0 -155
-1 -155 -20z"/>
<path d="M25725 15411 c-48 -22 -69 -44 -90 -94 -12 -30 -15 -87 -15 -312 0
-225 3 -282 15 -312 21 -50 42 -72 90 -94 36 -17 70 -19 318 -19 228 0 284 3
314 15 50 21 72 42 94 90 17 36 19 69 19 320 0 251 -2 284 -19 320 -22 48 -44
69 -94 90 -30 12 -86 15 -314 15 -248 0 -282 -2 -318 -19z"/>
<path d="M26575 13711 c-48 -22 -69 -44 -90 -94 -12 -30 -15 -87 -15 -312 0
-225 3 -282 15 -312 21 -50 42 -72 90 -94 36 -17 70 -19 318 -19 228 0 284 3
314 15 50 21 72 42 94 90 17 36 19 69 19 320 0 251 -2 284 -19 320 -22 48 -44
69 -94 90 -30 12 -86 15 -314 15 -248 0 -282 -2 -318 -19z"/>
<path d="M9590 13190 l0 -40 40 0 40 0 0 40 0 40 -40 0 -40 0 0 -40z"/>
<path d="M10450 13175 c0 -8 7 -15 15 -15 8 0 15 7 15 15 0 8 -7 15 -15 15 -8
0 -15 -7 -15 -15z"/>
<path d="M9547 13103 c-4 -3 -7 -21 -7 -40 0 -26 4 -33 20 -33 17 0 20 7 20
40 0 38 -14 52 -33 33z"/>
<path d="M9680 13065 c0 -38 3 -45 20 -45 17 0 20 7 20 45 0 38 -3 45 -20 45
-17 0 -20 -7 -20 -45z"/>
<path d="M8370 13045 c0 -12 17 -15 90 -15 73 0 90 3 90 15 0 12 -17 15 -90
15 -73 0 -90 -3 -90 -15z"/>
<path d="M8732 13043 c5 -26 38 -29 38 -4 0 15 -6 21 -21 21 -14 0 -19 -5 -17
-17z"/>
<path d="M9997 13033 c-3 -14 -2 -100 1 -190 4 -128 8 -163 18 -163 11 0 14
31 14 150 l0 150 25 0 c18 0 25 5 25 20 0 15 -7 20 -25 20 -18 0 -25 5 -25 20
0 30 -27 24 -33 -7z"/>
<path d="M10090 13045 c0 -11 13 -15 54 -15 97 0 114 -7 121 -51 9 -54 35 -53
35 1 0 33 -3 40 -20 40 -13 0 -20 7 -20 20 0 18 -7 20 -85 20 -69 0 -85 -3
-85 -15z"/>
<path d="M10450 12870 c0 -162 2 -190 15 -190 13 0 15 28 15 190 0 162 -2 190
-15 190 -13 0 -15 -28 -15 -190z"/>
<path d="M10630 12870 c0 -162 2 -190 15 -190 13 0 15 23 15 150 l0 150 25 0
c18 0 25 5 25 20 0 15 -7 20 -25 20 -18 0 -25 5 -25 20 0 11 -7 20 -15 20 -13
0 -15 -28 -15 -190z"/>
<path d="M10720 13045 c0 -11 13 -15 54 -15 97 0 114 -7 121 -51 7 -38 8 -39
46 -39 39 0 39 0 39 40 l0 40 -45 0 c-38 0 -45 3 -45 20 0 18 -7 20 -85 20
-69 0 -85 -3 -85 -15z"/>
<path d="M11030 13045 c0 -11 16 -15 68 -17 61 -3 67 -5 70 -25 2 -15 10 -23
23 -23 18 0 19 -8 19 -150 0 -143 1 -150 20 -150 19 0 20 7 20 169 l0 168 -40
7 c-26 4 -40 11 -40 21 0 12 -15 15 -70 15 -55 0 -70 -3 -70 -15z"/>
<path d="M11440 13045 c0 -12 16 -15 85 -15 69 0 85 3 85 15 0 12 -16 15 -85
15 -69 0 -85 -3 -85 -15z"/>
<path d="M8280 12975 c0 -38 3 -45 20 -45 15 0 20 7 20 25 0 20 5 25 25 25 18
0 25 5 25 20 0 17 -7 20 -45 20 l-45 0 0 -45z"/>
<path d="M8550 13000 c0 -15 7 -20 25 -20 20 0 25 -5 25 -25 0 -18 5 -25 20
-25 15 0 20 7 20 25 0 18 -5 25 -20 25 -13 0 -20 7 -20 20 0 15 -7 20 -25 20
-18 0 -25 -5 -25 -20z"/>
<path d="M9000 12980 c0 -33 3 -40 20 -40 17 0 20 7 20 40 0 33 -3 40 -20 40
-17 0 -20 -7 -20 -40z"/>
<path d="M9500 12975 c0 -38 3 -45 20 -45 17 0 20 7 20 45 0 38 -3 45 -20 45
-17 0 -20 -7 -20 -45z"/>
<path d="M11390 13000 c0 -13 7 -20 20 -20 13 0 20 7 20 20 0 13 -7 20 -20 20
-13 0 -20 -7 -20 -20z"/>
<path d="M11660 12980 c0 -33 3 -40 20 -40 17 0 20 7 20 40 0 33 -3 40 -20 40
-17 0 -20 -7 -20 -40z"/>
<path d="M8780 12935 c0 -38 3 -45 20 -45 17 0 20 7 20 45 0 38 -3 45 -20 45
-17 0 -20 -7 -20 -45z"/>
<path d="M9724 12949 c3 -17 6 -35 6 -40 0 -5 7 -9 15 -9 11 0 15 11 15 40 0
34 -3 40 -21 40 -19 0 -21 -4 -15 -31z"/>
<path d="M11350 12870 c0 -56 3 -70 15 -70 12 0 15 14 15 70 0 56 -3 70 -15
70 -12 0 -15 -14 -15 -70z"/>
<path d="M11710 12870 c0 -47 3 -60 15 -60 12 0 15 13 15 60 0 47 -3 60 -15
60 -12 0 -15 -13 -15 -60z"/>
<path d="M8960 12855 c0 -38 3 -45 20 -45 17 0 20 7 20 45 0 38 -3 45 -20 45
-17 0 -20 -7 -20 -45z"/>
<path d="M9456 12859 c-3 -17 -6 -37 -6 -43 0 -8 46 -10 160 -7 157 3 160 3
160 -18 0 -14 6 -21 20 -21 18 0 20 7 20 60 0 53 -2 60 -20 60 -13 0 -20 -7
-20 -19 0 -22 -40 -31 -140 -31 -100 0 -140 9 -140 31 0 31 -27 21 -34 -12z"/>
<path d="M24025 12861 c-48 -22 -69 -44 -90 -94 -12 -30 -15 -87 -15 -312 0
-225 -3 -282 -15 -312 -21 -50 -42 -72 -90 -94 -38 -18 -133 -19 -2445 -19
-2312 0 -2407 -1 -2445 -19 -48 -22 -69 -44 -90 -94 -13 -32 -15 -257 -15
-2012 0 -1755 2 -1980 15 -2012 21 -50 42 -72 90 -94 36 -17 70 -19 318 -19
227 0 284 -3 314 -15 50 -21 72 -42 94 -90 17 -36 19 -70 19 -320 0 -250 2
-284 19 -320 22 -48 44 -69 94 -90 54 -22 570 -22 624 0 50 21 72 42 94 90 18
38 19 95 19 1170 0 1075 -1 1132 -19 1170 -22 48 -44 69 -94 90 -30 12 -87 15
-314 15 -248 0 -282 2 -318 19 -48 22 -69 44 -90 94 -13 32 -15 129 -15 739 0
661 2 705 19 743 22 48 44 69 94 90 54 22 570 22 624 0 50 -21 72 -42 94 -90
17 -38 19 -83 19 -745 0 -662 2 -707 19 -745 22 -48 44 -69 94 -90 32 -13 172
-15 1164 -15 1073 0 1130 1 1168 19 48 22 69 44 90 94 12 30 15 87 15 312 0
225 -3 282 -15 312 -21 50 -42 72 -90 94 -38 17 -82 19 -743 19 -609 0 -708 2
-739 15 -50 21 -72 42 -94 90 -17 36 -19 69 -19 320 0 251 2 284 19 320 22 48
44 69 94 90 32 13 214 15 1587 15 1373 0 1555 2 1587 15 50 21 72 42 94 90 17
38 19 82 19 745 0 663 -2 707 -19 745 -22 48 -44 69 -94 90 -30 12 -86 15
-314 15 -248 0 -282 -2 -318 -19z"/>
<path d="M25725 12861 c-48 -22 -69 -44 -90 -94 -12 -30 -15 -87 -15 -312 0
-225 3 -282 15 -312 21 -50 42 -72 90 -94 36 -17 70 -19 318 -19 228 0 284 3
314 15 50 21 72 42 94 90 17 36 19 69 19 320 0 251 -2 284 -19 320 -22 48 -44
69 -94 90 -30 12 -86 15 -314 15 -248 0 -282 -2 -318 -19z"/>
<path d="M8820 12833 c0 -34 12 -63 26 -63 10 0 14 13 14 40 0 33 -3 40 -20
40 -12 0 -20 -7 -20 -17z"/>
<path d="M8280 12765 l0 -45 45 0 c38 0 45 -3 45 -20 0 -19 7 -20 90 -20 83 0
90 1 90 20 0 13 7 20 20 20 13 0 20 7 20 20 0 13 -7 20 -20 20 -13 0 -20 -7
-20 -19 0 -15 -10 -20 -45 -25 -68 -11 -135 2 -135 25 0 14 -7 19 -25 19 -20
0 -25 5 -25 25 0 18 -5 25 -20 25 -17 0 -20 -7 -20 -45z"/>
<path d="M8600 12785 c0 -18 5 -25 20 -25 15 0 20 7 20 25 0 18 -5 25 -20 25
-15 0 -20 -7 -20 -25z"/>
<path d="M8910 12780 c0 -13 -7 -20 -20 -20 -18 0 -20 -7 -20 -85 0 -78 2 -85
20 -85 16 0 20 7 20 38 0 52 10 82 26 82 10 0 14 13 14 45 0 38 -3 45 -20 45
-13 0 -20 -7 -20 -20z"/>
<path d="M11660 12760 c0 -33 3 -40 20 -40 17 0 20 7 20 40 0 33 -3 40 -20 40
-17 0 -20 -7 -20 -40z"/>
<path d="M9410 12720 c0 -33 3 -40 20 -40 17 0 20 7 20 40 0 33 -3 40 -20 40
-17 0 -20 -7 -20 -40z"/>
<path d="M9814 12729 c3 -17 6 -35 6 -40 0 -5 7 -9 15 -9 11 0 15 11 15 40 0
34 -3 40 -21 40 -19 0 -21 -4 -15 -31z"/>
<path d="M11390 12740 c0 -13 7 -20 20 -20 13 0 20 7 20 20 0 13 -7 20 -20 20
-13 0 -20 -7 -20 -20z"/>
<path d="M11440 12700 c0 -18 7 -20 91 -20 80 0 90 2 87 17 -3 14 -17 18 -91
20 -81 2 -87 1 -87 -17z"/>
<path d="M8820 12505 c0 -38 3 -45 20 -45 17 0 20 7 20 45 0 38 -3 45 -20 45
-17 0 -20 -7 -20 -45z"/>
<path d="M12125 12011 c-48 -22 -69 -44 -90 -94 -13 -31 -15 -130 -15 -739 0
-661 -2 -705 -19 -743 -22 -48 -44 -69 -94 -90 -30 -12 -87 -15 -312 -15 -225
0 -282 -3 -312 -15 -50 -21 -72 -42 -94 -90 -17 -38 -19 -82 -19 -743 0 -610
2 -707 15 -739 21 -50 42 -72 90 -94 36 -17 69 -19 320 -19 251 0 284 2 320
19 48 22 69 44 90 94 12 30 15 87 15 312 0 225 3 282 15 312 21 50 42 72 90
94 36 17 70 19 318 19 227 0 284 3 314 15 50 21 72 42 94 90 18 38 19 95 19
1170 0 1075 -1 1132 -19 1170 -22 48 -44 69 -94 90 -30 12 -86 15 -314 15
-248 0 -282 -2 -318 -19z"/>
<path d="M16375 12011 c-48 -22 -69 -44 -90 -94 -12 -30 -15 -87 -15 -312 0
-225 3 -282 15 -312 21 -50 42 -72 90 -94 36 -17 70 -19 320 -19 250 0 284 -2
320 -19 48 -22 69 -44 90 -94 12 -30 15 -86 15 -314 0 -248 -2 -282 -19 -318
-22 -48 -44 -69 -94 -90 -54 -22 -570 -22 -624 0 -50 21 -72 42 -94 90 -17 36
-19 70 -19 318 0 227 -3 284 -15 314 -21 50 -42 72 -90 94 -38 18 -95 19
-1168 19 -992 0 -1132 -2 -1164 -15 -50 -21 -72 -42 -94 -90 -17 -36 -19 -69
-19 -320 0 -251 2 -284 19 -320 22 -48 44 -69 94 -90 31 -13 130 -15 739 -15
661 0 705 -2 743 -19 48 -22 69 -44 90 -94 12 -30 15 -87 15 -314 0 -248 2
-282 19 -318 22 -48 44 -69 94 -90 30 -12 87 -15 314 -15 248 0 282 -2 318
-19 48 -22 69 -44 90 -94 12 -30 15 -87 15 -312 0 -225 3 -282 15 -312 21 -50
42 -72 90 -94 36 -17 69 -19 320 -19 251 0 284 2 320 19 48 22 69 44 90 94 12
30 15 87 15 312 0 225 3 282 15 312 21 50 42 72 90 94 36 17 70 19 318 19 227
0 284 3 314 15 50 21 72 42 94 90 18 38 19 95 19 1168 0 992 -2 1132 -15 1164
-21 50 -42 72 -90 94 -38 17 -82 19 -745 19 -663 0 -707 -2 -745 -19z"/>
<path d="M26575 12011 c-48 -22 -69 -44 -90 -94 -12 -30 -15 -87 -15 -312 0
-225 3 -282 15 -312 21 -50 42 -72 90 -94 36 -17 70 -19 318 -19 228 0 284 3
314 15 50 21 72 42 94 90 17 36 19 69 19 320 0 251 -2 284 -19 320 -22 48 -44
69 -94 90 -30 12 -86 15 -314 15 -248 0 -282 -2 -318 -19z"/>
<path d="M10425 11161 c-48 -22 -69 -44 -90 -94 -12 -30 -15 -87 -15 -312 0
-225 3 -282 15 -312 21 -50 42 -72 90 -94 36 -17 70 -19 318 -19 228 0 284 3
314 15 50 21 72 42 94 90 17 36 19 69 19 320 0 251 -2 284 -19 320 -22 48 -44
69 -94 90 -30 12 -86 15 -314 15 -248 0 -282 -2 -318 -19z"/>
<path d="M24025 10311 c-48 -22 -69 -44 -90 -94 -12 -30 -15 -87 -15 -312 0
-225 3 -282 15 -312 21 -50 42 -72 90 -94 38 -18 107 -19 1593 -19 1375 0
1557 2 1589 15 50 21 72 42 94 90 17 36 19 69 19 320 0 251 -2 284 -19 320
-22 48 -44 69 -94 90 -32 13 -214 15 -1589 15 -1486 0 -1555 -1 -1593 -19z"/>
<path d="M13825 9461 c-48 -22 -69 -44 -90 -94 -13 -31 -15 -130 -15 -739 0
-661 -2 -705 -19 -743 -22 -48 -44 -69 -94 -90 -31 -13 -130 -15 -739 -15
-661 0 -705 -2 -743 -19 -48 -22 -69 -44 -90 -94 -12 -30 -15 -86 -15 -314 0
-248 2 -282 19 -318 22 -48 44 -69 94 -90 31 -13 130 -15 739 -15 661 0 705
-2 743 -19 48 -22 69 -44 90 -94 12 -30 15 -87 15 -312 0 -225 3 -282 15 -312
21 -50 42 -72 90 -94 36 -17 69 -19 320 -19 251 0 284 2 320 19 48 22 69 44
90 94 12 30 15 87 15 312 0 225 3 282 15 312 21 50 42 72 90 94 36 17 70 19
318 19 227 0 284 3 314 15 50 21 72 42 94 90 17 36 19 69 19 320 0 251 -2 284
-19 320 -22 48 -44 69 -94 90 -30 12 -87 15 -312 15 -225 0 -282 3 -312 15
-50 21 -72 42 -94 90 -17 38 -19 83 -19 745 0 662 -2 707 -19 745 -22 48 -44
69 -94 90 -30 12 -86 15 -314 15 -248 0 -282 -2 -318 -19z"/>
<path d="M15525 8611 c-48 -22 -69 -44 -90 -94 -12 -30 -15 -87 -15 -312 0
-225 3 -282 15 -312 21 -50 42 -72 90 -94 36 -17 70 -19 318 -19 228 0 284 3
314 15 50 21 72 42 94 90 17 36 19 69 19 320 0 251 -2 284 -19 320 -22 48 -44
69 -94 90 -30 12 -86 15 -314 15 -248 0 -282 -2 -318 -19z"/>
<path d="M17225 8611 c-48 -22 -69 -44 -90 -94 -13 -31 -15 -130 -15 -739 0
-661 -2 -705 -19 -743 -22 -48 -44 -69 -94 -90 -31 -13 -130 -15 -739 -15
-661 0 -705 -2 -743 -19 -48 -22 -69 -44 -90 -94 -13 -31 -15 -129 -15 -737 0
-608 2 -706 15 -737 21 -50 42 -72 90 -94 36 -17 69 -19 320 -19 251 0 284 2
320 19 48 22 69 44 90 94 12 30 15 87 15 312 0 225 3 282 15 312 21 50 42 72
90 94 36 17 69 19 320 19 251 0 284 -2 320 -19 48 -22 69 -44 90 -94 12 -30
15 -87 15 -312 0 -225 -3 -282 -15 -312 -21 -50 -42 -72 -90 -94 -36 -17 -70
-19 -320 -19 -250 0 -284 -2 -320 -19 -48 -22 -69 -44 -90 -94 -13 -31 -15
-129 -15 -737 0 -608 2 -706 15 -737 21 -50 42 -72 90 -94 36 -17 70 -19 318
-19 228 0 284 3 314 15 50 21 72 42 94 90 17 36 19 70 19 318 0 227 3 284 15
314 21 50 42 72 90 94 38 17 83 19 745 19 662 0 707 2 745 19 48 22 69 44 90
94 22 54 22 570 0 624 -21 50 -42 72 -90 94 -36 17 -70 19 -320 19 -250 0
-284 2 -320 19 -48 22 -69 44 -90 94 -13 32 -15 215 -15 1589 0 1486 -1 1555
-19 1593 -22 48 -44 69 -94 90 -30 12 -86 15 -314 15 -248 0 -282 -2 -318 -19z"/>
<path d="M21475 8611 c-48 -22 -69 -44 -90 -94 -13 -32 -15 -342 -15 -2864 0
-2723 1 -2829 19 -2868 22 -48 44 -69 94 -90 32 -13 342 -15 2864 -15 2723 0
2829 1 2868 19 48 22 69 44 90 94 13 32 15 342 15 2862 0 2520 -2 2830 -15
2862 -21 50 -42 72 -90 94 -39 18 -145 19 -2870 19 -2725 0 -2831 -1 -2870
-19z m4961 -865 l34 -34 0 -2057 0 -2057 -34 -34 -34 -34 -2057 0 -2057 0 -34
34 -34 34 0 2057 0 2057 34 34 34 34 2057 0 2057 0 34 -34z"/>
<path d="M23180 6914 c-45 -20 -68 -41 -91 -86 -18 -36 -19 -78 -19 -1170 0
-1078 1 -1135 19 -1173 22 -48 44 -69 94 -90 32 -13 172 -15 1164 -15 1073 0
1130 1 1168 19 48 22 69 44 90 94 13 32 15 172 15 1162 0 990 -2 1130 -15
1162 -21 50 -42 72 -90 94 -38 18 -94 19 -1170 18 -984 0 -1134 -2 -1165 -15z"/>
<path d="M18925 6911 c-48 -22 -69 -44 -90 -94 -12 -30 -15 -87 -15 -312 0
-225 3 -282 15 -312 21 -50 42 -72 90 -94 36 -17 70 -19 318 -19 228 0 284 3
314 15 50 21 72 42 94 90 17 36 19 69 19 320 0 251 -2 284 -19 320 -22 48 -44
69 -94 90 -30 12 -86 15 -314 15 -248 0 -282 -2 -318 -19z"/>
<path d="M12125 6061 c-48 -22 -69 -44 -90 -94 -12 -30 -15 -87 -15 -312 0
-225 3 -282 15 -312 21 -50 42 -72 90 -94 36 -17 70 -19 318 -19 228 0 284 3
314 15 50 21 72 42 94 90 17 36 19 69 19 320 0 251 -2 284 -19 320 -22 48 -44
69 -94 90 -30 12 -86 15 -314 15 -248 0 -282 -2 -318 -19z"/>
<path d="M4475 5211 c-48 -22 -69 -44 -90 -94 -13 -32 -15 -129 -15 -739 0
-661 2 -705 19 -743 22 -48 44 -69 94 -90 54 -22 570 -22 624 0 50 21 72 42
94 90 17 38 19 82 19 745 0 663 -2 707 -19 745 -22 48 -44 69 -94 90 -30 12
-86 15 -314 15 -248 0 -282 -2 -318 -19z"/>
<path d="M11275 5211 c-48 -22 -69 -44 -90 -94 -12 -30 -15 -87 -15 -312 0
-225 3 -282 15 -312 21 -50 42 -72 90 -94 36 -17 70 -19 318 -19 228 0 284 3
314 15 50 21 72 42 94 90 17 36 19 69 19 320 0 251 -2 284 -19 320 -22 48 -44
69 -94 90 -30 12 -86 15 -314 15 -248 0 -282 -2 -318 -19z"/>
<path d="M13825 5211 c-48 -22 -69 -44 -90 -94 -13 -32 -15 -172 -15 -1164 0
-1073 1 -1130 19 -1168 22 -48 44 -69 94 -90 32 -13 172 -15 1164 -15 1073 0
1130 1 1168 19 48 22 69 44 90 94 12 30 15 87 15 312 0 225 -3 282 -15 312
-21 50 -42 72 -90 94 -38 17 -82 19 -743 19 -609 0 -708 2 -739 15 -50 21 -72
42 -94 90 -17 36 -19 70 -19 318 0 228 3 284 15 314 21 50 42 72 90 94 36 17
70 19 320 19 250 0 284 2 320 19 48 22 69 44 90 94 22 54 22 570 0 624 -21 50
-42 72 -90 94 -38 17 -82 19 -745 19 -663 0 -707 -2 -745 -19z"/>
<path d="M19775 5211 c-48 -22 -69 -44 -90 -94 -12 -30 -15 -87 -15 -312 0
-225 -3 -282 -15 -312 -21 -50 -42 -72 -90 -94 -36 -17 -70 -19 -320 -19 -250
0 -284 -2 -320 -19 -48 -22 -69 -44 -90 -94 -13 -32 -15 -129 -15 -739 0 -661
2 -705 19 -743 22 -48 44 -69 94 -90 31 -13 129 -15 737 -15 608 0 706 2 737
15 50 21 72 42 94 90 18 38 19 95 19 1170 0 1075 -1 1132 -19 1170 -22 48 -44
69 -94 90 -30 12 -86 15 -314 15 -248 0 -282 -2 -318 -19z"/>
<path d="M9575 4361 c-48 -22 -69 -44 -90 -94 -12 -30 -15 -87 -15 -312 0
-225 -3 -282 -15 -312 -21 -50 -42 -72 -90 -94 -36 -17 -70 -19 -320 -19 -250
0 -284 -2 -320 -19 -48 -22 -69 -44 -90 -94 -22 -54 -22 -570 0 -624 21 -50
42 -72 90 -94 38 -18 95 -19 1170 -19 1075 0 1132 1 1170 19 48 22 69 44 90
94 13 31 15 129 15 737 0 608 -2 706 -15 737 -21 50 -42 72 -90 94 -38 17 -82
19 -745 19 -663 0 -707 -2 -745 -19z"/>
<path d="M12125 4361 c-48 -22 -69 -44 -90 -94 -12 -30 -15 -87 -15 -312 0
-225 3 -282 15 -312 21 -50 42 -72 90 -94 36 -17 70 -19 318 -19 228 0 284 3
314 15 50 21 72 42 94 90 17 36 19 69 19 320 0 251 -2 284 -19 320 -22 48 -44
69 -94 90 -30 12 -86 15 -314 15 -248 0 -282 -2 -318 -19z"/>
<path d="M3625 3511 c-48 -22 -69 -44 -90 -94 -22 -54 -22 -570 0 -624 21 -50
42 -72 90 -94 36 -17 70 -19 318 -19 228 0 284 3 314 15 50 21 72 42 94 90 17
36 19 69 19 320 0 251 -2 284 -19 320 -22 48 -44 69 -94 90 -30 12 -86 15
-314 15 -248 0 -282 -2 -318 -19z"/>
</g>
</svg>
