<svg width="267" height="259" viewBox="0 0 267 259" fill="none" xmlns="http://www.w3.org/2000/svg">
<g clip-path="url(#clip0_50_8778)">
<rect width="267" height="258" transform="translate(0 0.759766)" fill="#EFFFF5"/>
<path d="M243.585 247.584C243.299 247.597 243.017 247.522 242.775 247.369C242.534 247.217 242.346 246.993 242.235 246.73C242.125 246.467 242.099 246.176 242.159 245.897C242.22 245.618 242.365 245.364 242.575 245.171L242.67 244.791C242.658 244.761 242.645 244.731 242.633 244.7C242.345 244.022 241.863 243.443 241.248 243.037C240.632 242.632 239.911 242.417 239.173 242.419C238.436 242.422 237.716 242.642 237.103 243.053C236.491 243.463 236.014 244.045 235.731 244.726C234.602 247.443 233.165 250.164 232.811 253.036C232.656 254.306 232.721 255.593 233.006 256.84C230.355 251.061 228.978 244.78 228.969 238.423C228.968 236.827 229.057 235.233 229.235 233.648C229.381 232.348 229.585 231.058 229.845 229.776C231.266 222.825 234.317 216.309 238.747 210.764C240.892 209.595 242.626 207.797 243.716 205.613C244.111 204.828 244.39 203.99 244.545 203.125C244.303 203.156 243.633 199.475 243.815 199.249C243.478 198.738 242.875 198.484 242.507 197.985C240.676 195.505 238.153 195.938 236.836 199.309C234.023 200.728 233.996 203.081 235.722 205.344C236.82 206.783 236.971 208.732 237.935 210.273C237.835 210.4 237.732 210.523 237.633 210.65C235.821 212.978 234.242 215.479 232.918 218.115C233.24 215.161 232.855 212.174 231.796 209.397C230.723 206.81 228.711 204.631 226.94 202.394C224.812 199.708 220.449 200.88 220.074 204.286C220.07 204.319 220.067 204.352 220.063 204.385C220.326 204.533 220.584 204.691 220.836 204.857C221.152 205.068 221.398 205.371 221.54 205.724C221.682 206.077 221.713 206.464 221.631 206.836C221.549 207.207 221.356 207.545 221.078 207.805C220.8 208.066 220.45 208.236 220.074 208.294L220.035 208.3C220.129 209.247 220.295 210.187 220.531 211.109C218.258 219.892 223.165 223.091 230.171 223.234C230.325 223.314 230.476 223.393 230.631 223.468C229.3 227.235 228.466 231.159 228.148 235.142C227.968 237.491 227.979 239.851 228.18 242.199L228.168 242.116C227.66 239.505 226.267 237.15 224.223 235.447C221.186 232.954 216.897 232.037 213.621 230.033C213.273 229.81 212.868 229.691 212.455 229.69C212.041 229.689 211.636 229.806 211.286 230.028C210.937 230.249 210.659 230.566 210.484 230.941C210.309 231.315 210.245 231.732 210.299 232.142C210.303 232.171 210.308 232.2 210.312 232.229C210.801 232.428 211.276 232.657 211.736 232.915C211.999 233.063 212.257 233.221 212.509 233.387C212.825 233.599 213.071 233.901 213.213 234.254C213.354 234.607 213.386 234.994 213.304 235.366C213.222 235.737 213.029 236.075 212.751 236.335C212.473 236.596 212.123 236.766 211.747 236.824L211.708 236.83C211.68 236.834 211.657 236.838 211.629 236.842C212.463 238.832 213.634 240.665 215.091 242.258C216.512 249.925 222.615 250.653 229.144 248.42H229.147C229.864 251.531 230.902 254.558 232.244 257.455H243.307C243.347 257.332 243.383 257.205 243.419 257.082C242.394 257.146 241.366 257.085 240.357 256.9C241.178 255.893 241.999 254.879 242.82 253.872C242.838 253.854 242.855 253.834 242.871 253.813C243.288 253.298 243.708 252.787 244.124 252.272L244.125 252.271C244.147 250.692 243.965 249.116 243.585 247.584Z" fill="#F2F2F2"/>
<path d="M225.151 149.275C228.083 138.637 233.552 129.576 242.383 122.606C242.732 122.067 243.281 121.688 243.91 121.552C244.539 121.417 245.195 121.537 245.736 121.885L265.891 134.889C266.431 135.238 266.81 135.787 266.945 136.415C267.081 137.044 266.961 137.7 266.613 138.24L249.381 164.909C249.032 165.449 248.483 165.828 247.854 165.963C247.225 166.098 246.569 165.979 246.028 165.631L225.873 152.626C225.333 152.277 224.954 151.728 224.819 151.1C224.683 150.472 224.803 149.816 225.151 149.275Z" fill="#F2F2F2"/>
<path d="M231.901 142.218C232.657 136.597 237.31 130.851 242.98 125.072C243.307 124.567 243.821 124.212 244.41 124.086C244.999 123.959 245.614 124.071 246.12 124.397L263.442 135.573C263.947 135.9 264.302 136.414 264.429 137.002C264.556 137.591 264.444 138.205 264.118 138.711L248.784 162.443C248.457 162.949 247.942 163.303 247.354 163.43C246.765 163.557 246.15 163.445 245.644 163.119L234.913 156.195C232.661 154.739 231.08 152.449 230.515 149.829C229.95 147.209 230.449 144.471 231.901 142.218Z" fill="white"/>
<path d="M233.447 165.136C230.89 154.402 231.316 143.829 235.696 133.47C235.742 132.829 236.041 132.233 236.526 131.812C237.012 131.391 237.645 131.179 238.287 131.224L262.218 132.921C262.86 132.967 263.456 133.266 263.878 133.751C264.299 134.237 264.51 134.869 264.466 135.51L262.217 167.176C262.171 167.817 261.872 168.413 261.387 168.834C260.901 169.255 260.268 169.467 259.626 169.422L235.695 167.725C235.054 167.679 234.457 167.38 234.035 166.895C233.614 166.41 233.403 165.777 233.447 165.136Z" fill="#F2F2F2"/>
<path d="M235.962 155.702C233.915 150.412 235.224 143.137 237.407 135.344C237.451 134.744 237.73 134.186 238.185 133.791C238.64 133.397 239.233 133.199 239.834 133.241L260.401 134.699C261.002 134.742 261.56 135.022 261.955 135.477C262.35 135.931 262.548 136.524 262.506 137.124L260.505 165.302C260.462 165.903 260.182 166.461 259.727 166.855C259.272 167.25 258.679 167.448 258.079 167.406L245.338 166.502C242.662 166.31 240.173 165.064 238.415 163.039C236.657 161.015 235.775 158.376 235.962 155.702Z" fill="white"/>
<path d="M235.511 98.8689L225.258 60.9478C224.819 59.3425 223.766 57.9741 222.326 57.1378C220.886 56.3016 219.175 56.0646 217.562 56.478C216.728 56.6919 215.945 57.0734 215.263 57.5992C214.581 58.125 214.013 58.7841 213.594 59.5364C213.175 60.2887 212.914 61.1183 212.826 61.9748C212.739 62.8313 212.827 63.6966 213.085 64.518L224.943 103.583L231.147 127.623C230.243 128.313 229.574 129.263 229.23 130.346C228.886 131.429 228.884 132.591 229.224 133.676C229.564 134.76 230.23 135.713 231.131 136.406C232.032 137.098 233.125 137.497 234.26 137.548C235.396 137.599 236.52 137.299 237.479 136.689C238.438 136.079 239.187 135.189 239.622 134.139C240.057 133.09 240.159 131.932 239.912 130.823C239.666 129.713 239.084 128.707 238.246 127.94L235.511 98.8689Z" fill="#FFB6B6"/>
<path d="M161.571 105.429L172.085 67.5791C172.526 65.9742 172.317 64.2606 171.505 62.8079C170.692 61.3552 169.341 60.28 167.742 59.8143C166.915 59.5734 166.047 59.5034 165.192 59.6084C164.337 59.7135 163.512 59.9915 162.768 60.4255C162.024 60.8595 161.376 61.4403 160.864 62.1327C160.352 62.825 159.986 63.6143 159.79 64.4524L150.074 104.103L143.154 127.948C142.025 128.081 140.965 128.559 140.116 129.315C139.268 130.072 138.674 131.071 138.414 132.177C138.153 133.283 138.24 134.442 138.662 135.497C139.084 136.552 139.821 137.451 140.773 138.073C141.724 138.695 142.844 139.009 143.98 138.973C145.117 138.936 146.214 138.551 147.124 137.87C148.034 137.189 148.711 136.244 149.065 135.164C149.419 134.085 149.431 132.922 149.101 131.835L161.571 105.429Z" fill="#FFB6B6"/>
<path d="M221.738 250.82L215.038 250.819L211.851 224.996L221.739 224.996L221.738 250.82Z" fill="#FFB6B6"/>
<path d="M221.974 257.804L201.371 257.804V257.543C201.371 255.418 202.216 253.38 203.72 251.877C205.224 250.374 207.263 249.53 209.39 249.53L213.154 246.677L220.176 249.53L221.974 249.53L221.974 257.804Z" fill="#2F2E41"/>
<path d="M174.59 250.887L167.994 249.712L169.393 223.729L179.127 225.464L174.59 250.887Z" fill="#FFB6B6"/>
<path d="M173.596 257.804L153.313 254.189L153.359 253.933C153.732 251.841 154.922 249.983 156.666 248.767C158.411 247.551 160.567 247.078 162.661 247.451L166.867 245.302L173.279 249.343L175.049 249.659L173.596 257.804Z" fill="#2F2E41"/>
<path d="M175.243 132.085C175.243 132.085 168.999 140.923 169.254 143.889C169.508 146.855 171.713 144.489 169.508 146.855C167.303 149.221 166.018 147.633 167.102 150.556C168.185 153.479 168.626 151.587 168.185 153.479C167.744 155.372 168.626 227.77 168.626 227.77H180.108C180.108 227.77 186.583 185.79 185.764 183.831C184.944 181.871 184.963 182.724 185.835 180.641C186.708 178.558 187.529 176.081 187.529 176.081L196.605 150.556L203.606 186.494L211.846 229.199H222.849C222.849 229.199 224.734 166.401 225.567 165.618C226.4 164.836 225.403 163.077 224.358 162.064C223.313 161.05 223.521 160.021 223.858 157.933C224.195 155.845 225.616 154.681 225.567 153.37C225.518 152.06 228.605 131.239 223.754 127.927C218.902 124.615 175.243 132.085 175.243 132.085Z" fill="#2F2E41"/>
<path d="M213.635 44.0528L200.791 40.727L194.796 32.4639L180.558 34.213L177.527 45.4839L167.391 51.3636C185.561 51.4721 175.776 104.076 178.446 107.47C180.62 110.232 167.599 116.803 171.68 120.994C175.761 125.185 174.252 123.508 173.305 128.071C172.358 132.635 165.455 137.464 173.305 137.416C181.155 137.368 228.521 136.692 227.168 131.282C225.815 125.873 225.836 127.246 223.795 123.855C221.755 120.463 220.381 122.358 221.068 117.354C221.755 112.349 219.524 108.478 221.078 106.263C223.463 102.863 221.06 78.3244 218.811 78.9794L213.635 44.0528Z" fill="#C5C5C5"/>
<path d="M209.968 44.2282C209.968 44.2282 219.363 40.2397 222.746 47.6779C223.827 50.0536 224.737 56.0208 225.613 54.6975C226.49 53.3743 225.644 56.2752 226.187 56.2788C226.671 56.282 227.416 55.499 226.853 58.1965C226.677 59.0813 226.728 59.9963 227.001 60.8563C227.274 61.7162 227.76 62.493 228.415 63.1143L212.086 72.8869L209.968 44.2282Z" fill="#C5C5C5"/>
<path d="M174.668 50.9904C174.668 50.9904 165.274 47.0019 161.89 54.4401C160.939 56.532 161.175 61.1802 159.322 60.6583C157.469 60.1365 158.785 62.1027 158.54 62.7857C158.268 63.547 159.458 65.7015 157.787 64.9476C156.116 64.1936 156.221 69.8765 156.221 69.8765L172.55 79.6491L174.668 50.9904Z" fill="#C5C5C5"/>
<path d="M179.123 39.8506L176.416 44.584C176.416 44.584 168.973 48.6411 168.973 49.3173C168.973 49.9935 170.326 55.5149 168.973 59.8543C167.62 64.1937 171.556 72.3544 172.356 79.07C175.74 107.47 165.678 117.789 163.56 135.871L185.032 142.137C185.032 142.137 188.596 94.6225 188.596 83.8034C188.596 72.9842 179.123 39.8506 179.123 39.8506Z" fill="#2F2E41"/>
<path d="M198.746 37.8218L204.278 40.9658C204.278 40.9658 211.517 42.5607 211.603 43.2314C211.69 43.902 211.715 51.0299 213.612 55.1609C215.509 59.292 214.987 61.4887 220.095 73.701C222.705 79.9407 228.698 129.864 228.698 129.864L208.203 138.82C208.203 138.82 198.594 92.1492 197.211 81.4187C195.828 70.6881 198.746 37.8218 198.746 37.8218Z" fill="#2F2E41"/>
<path d="M184.915 31.3747C192.643 31.3747 198.907 25.1148 198.907 17.3929C198.907 9.67099 192.643 3.41113 184.915 3.41113C177.188 3.41113 170.924 9.67099 170.924 17.3929C170.924 25.1148 177.188 31.3747 184.915 31.3747Z" fill="#FFB6B6"/>
<path d="M194.123 28.2564C190.816 25.673 195.337 14.3084 189.875 16.7342C189.875 16.7342 183.2 12.4891 181.859 15.2787C180.306 18.5088 174.783 17.0434 171.39 15.9033C171.657 15.284 171.847 14.6343 171.955 13.9688C171.329 14.4619 170.665 14.9059 169.97 15.2969C169.505 15.0481 169.092 14.7102 168.757 14.3023C168.426 13.9236 168.219 13.4528 168.163 12.953C168.108 12.4533 168.207 11.9485 168.447 11.5067C169.012 10.6395 170.177 10.3727 170.862 9.60247C170.942 9.49417 170.993 9.36828 171.013 9.23558C171.033 9.10289 171.02 8.96737 170.976 8.84065C170.895 8.53078 170.882 8.20671 170.94 7.89153C170.998 7.57635 171.125 7.27781 171.312 7.01719C171.498 6.75657 171.74 6.54028 172.02 6.38373C172.3 6.22718 172.611 6.13421 172.93 6.11147C173.059 6.11539 173.187 6.08761 173.302 6.03057C173.878 5.67845 174.409 5.25908 174.886 4.78131C174.091 4.8177 175.063 -0.0451874 182.945 0.875862C184.929 0.803096 185.966 2.99013 187.92 3.3358C192.657 0.631015 196.885 4.53269 198.942 8.26223C200.999 11.9918 203.226 24.0114 194.123 28.2564Z" fill="#2F2E41"/>
<path d="M134.423 8.19873H9.00219C6.61613 8.20072 4.32829 9.14846 2.64062 10.834C0.952952 12.5196 0.00330192 14.8053 0 17.1897V130.125C0.00310281 132.509 0.952537 134.796 2.6401 136.482C4.32767 138.169 6.61561 139.117 9.00219 139.12H134.423C136.809 139.117 139.096 138.168 140.783 136.482C142.469 134.795 143.418 132.509 143.42 130.125V17.1897C143.418 14.8058 142.469 12.5202 140.782 10.8345C139.095 9.14886 136.808 8.20091 134.423 8.19873Z" fill="white"/>
<path d="M77.1162 34.1188H63.7172C63.0591 34.1188 62.4279 33.8576 61.9626 33.3926C61.4973 32.9276 61.2358 32.2969 61.2358 31.6392C61.2358 30.9816 61.4973 30.3509 61.9626 29.8859C62.4279 29.4209 63.0591 29.1597 63.7172 29.1597H77.1162C77.7743 29.1597 78.4054 29.4209 78.8708 29.8859C79.3361 30.3509 79.5975 30.9816 79.5975 31.6392C79.5975 32.2969 79.3361 32.9276 78.8708 33.3926C78.4054 33.8576 77.7743 34.1188 77.1162 34.1188Z" fill="#C5C5C5"/>
<path d="M254.778 148.047H241.379C240.721 148.047 240.09 147.785 239.625 147.32C239.159 146.855 238.898 146.225 238.898 145.567C238.898 144.909 239.159 144.279 239.625 143.814C240.09 143.349 240.721 143.087 241.379 143.087H254.778C255.436 143.087 256.068 143.349 256.533 143.814C256.998 144.279 257.26 144.909 257.26 145.567C257.26 146.225 256.998 146.855 256.533 147.32C256.068 147.785 255.436 148.047 254.778 148.047Z" fill="#C5C5C5"/>
<path d="M111.855 86.0573H28.9789C28.3208 86.0573 27.6896 85.7961 27.2243 85.331C26.759 84.866 26.4976 84.2353 26.4976 83.5777C26.4976 82.9201 26.759 82.2894 27.2243 81.8244C27.6896 81.3594 28.3208 81.0981 28.9789 81.0981H111.855C112.513 81.0981 113.144 81.3594 113.609 81.8244C114.075 82.2894 114.336 82.9201 114.336 83.5777C114.336 84.2353 114.075 84.866 113.609 85.331C113.144 85.7961 112.513 86.0573 111.855 86.0573Z" fill="#E6E6E6"/>
<path d="M111.855 102.423H28.9789C28.3208 102.423 27.6896 102.161 27.2243 101.696C26.759 101.231 26.4976 100.601 26.4976 99.943C26.4976 99.2853 26.759 98.6546 27.2243 98.1896C27.6896 97.7246 28.3208 97.4634 28.9789 97.4634H111.855C112.513 97.4634 113.144 97.7246 113.609 98.1896C114.075 98.6546 114.336 99.2853 114.336 99.943C114.336 100.601 114.075 101.231 113.609 101.696C113.144 102.161 112.513 102.423 111.855 102.423Z" fill="#E6E6E6"/>
<path d="M111.855 118.788H28.9789C28.3208 118.788 27.6896 118.527 27.2243 118.062C26.759 117.597 26.4976 116.966 26.4976 116.308C26.4976 115.651 26.759 115.02 27.2243 114.555C27.6896 114.09 28.3208 113.829 28.9789 113.829H111.855C112.513 113.829 113.144 114.09 113.609 114.555C114.075 115.02 114.336 115.651 114.336 116.308C114.336 116.966 114.075 117.597 113.609 118.062C113.144 118.527 112.513 118.788 111.855 118.788Z" fill="#E6E6E6"/>
<path d="M94.9152 41.5586H45.9192C43.5331 41.5606 41.2453 42.5083 39.5576 44.1939C37.87 45.8794 36.9203 48.1652 36.917 50.5495V65.2931C36.9201 67.678 37.8695 69.9644 39.5571 71.6508C41.2447 73.3372 43.5326 74.2859 45.9192 74.289H94.9152C97.3012 74.2857 99.5885 73.3367 101.275 71.6503C102.962 69.9638 103.91 67.6775 103.912 65.2931V50.5495C103.91 48.1657 102.962 45.88 101.275 44.1944C99.5879 42.5087 97.3007 41.5608 94.9152 41.5586ZM102.92 65.2931C102.92 67.4159 102.076 69.4518 100.574 70.9529C99.0718 72.4539 97.0345 73.2972 94.9102 73.2972H59.7387C53.9493 73.2972 48.3969 70.999 44.3031 66.908C40.2094 62.8171 37.9095 57.2687 37.9095 51.4832V50.5495C37.9129 48.4282 38.758 46.3948 40.2595 44.8953C41.761 43.3958 43.7964 42.5525 45.9192 42.5504H94.9152C97.0375 42.5527 99.0722 43.3962 100.573 44.8958C102.074 46.3954 102.918 48.4287 102.92 50.5495V65.2931Z" fill="#E6E6E6"/>
<path d="M70.9658 63.2449C75.6251 63.2449 79.4022 59.4704 79.4022 54.8144C79.4022 50.1583 75.6251 46.3838 70.9658 46.3838C66.3064 46.3838 62.5293 50.1583 62.5293 54.8144C62.5293 59.4704 66.3064 63.2449 70.9658 63.2449Z" fill="#E6E6E6"/>
<path d="M90.3745 74.2893L52.604 74.1554L64.5143 71.1799L65.9981 66.2852L77.4171 66.2207L80.8364 71.0608L89.4713 73.2974L90.2554 73.5007L90.3745 74.2893Z" fill="#E6E6E6"/>
<path d="M66.1711 60.1975C67.9814 58.7834 65.5067 52.5627 68.4963 53.8905C68.4963 53.8905 72.1503 51.5668 72.8844 53.0938C73.7345 54.8619 76.7576 54.0598 78.6145 53.4357C78.4686 53.0967 78.3648 52.7411 78.3056 52.3768C78.6484 52.6467 79.0116 52.8897 79.3918 53.1038C79.6469 52.9676 79.8726 52.7826 80.0562 52.5594C80.2374 52.352 80.3507 52.0943 80.381 51.8208C80.4113 51.5472 80.357 51.2709 80.2256 51.0291C79.9167 50.5544 79.2789 50.4083 78.9036 49.9868C78.8602 49.9275 78.8318 49.8586 78.821 49.7859C78.8101 49.7133 78.8171 49.6391 78.8412 49.5698C78.8859 49.4001 78.8927 49.2228 78.861 49.0502C78.8293 48.8777 78.7599 48.7143 78.6577 48.5716C78.5556 48.429 78.4232 48.3106 78.2701 48.2249C78.1169 48.1392 77.9467 48.0883 77.7717 48.0759C77.7012 48.078 77.6313 48.0628 77.5682 48.0316C77.2531 47.8388 76.962 47.6093 76.7012 47.3478C77.1364 47.3677 76.6042 44.7059 72.2899 45.21C71.2036 45.1702 70.6364 46.3673 69.5668 46.5565C66.974 45.076 64.6597 47.2117 63.5336 49.2531C62.4075 51.2946 61.1884 57.8738 66.1711 60.1975Z" fill="#E6E6E6"/>
<path d="M134.423 8.19873H9.00219C6.61613 8.20072 4.32829 9.14846 2.64062 10.834C0.952952 12.5196 0.00330192 14.8053 0 17.1897V130.125C0.00310281 132.509 0.952537 134.796 2.6401 136.482C4.32767 138.169 6.61561 139.117 9.00219 139.12H134.423C136.809 139.117 139.096 138.168 140.783 136.482C142.469 134.795 143.418 132.509 143.42 130.125V17.1897C143.418 14.8058 142.469 12.5202 140.782 10.8345C139.095 9.14886 136.808 8.20091 134.423 8.19873ZM142.427 130.125C142.427 132.247 141.583 134.283 140.081 135.784C138.579 137.285 136.542 138.129 134.418 138.129H65.6063C57.1211 138.129 48.719 136.459 40.8797 133.214C33.0404 129.969 25.9174 125.213 19.9175 119.217C13.9175 113.221 9.15809 106.103 5.91094 98.2694C2.6638 90.4355 0.992522 82.0393 0.992525 73.56V17.1897C0.995902 15.0684 1.84102 13.035 3.34253 11.5354C4.84405 10.0359 6.87939 9.19262 9.00219 9.19056H134.423C136.545 9.19282 138.58 10.0363 140.08 11.5359C141.581 13.0356 142.425 15.0689 142.427 17.1897V130.125Z" fill="#E6E6E6"/>
<path d="M265.454 258.607L108.954 258.76C108.798 258.759 108.648 258.696 108.538 258.586C108.428 258.475 108.366 258.325 108.366 258.169C108.366 258.013 108.428 257.863 108.538 257.753C108.648 257.642 108.798 257.579 108.954 257.579L265.454 257.426C265.61 257.427 265.76 257.49 265.87 257.6C265.98 257.711 266.042 257.861 266.042 258.017C266.042 258.173 265.98 258.323 265.87 258.433C265.76 258.544 265.61 258.606 265.454 258.607Z" fill="#CACACA"/>
</g>
<defs>
<clipPath id="clip0_50_8778">
<rect width="267" height="258" fill="white" transform="translate(0 0.759766)"/>
</clipPath>
</defs>
</svg>
