<svg width="365" height="350" viewBox="0 0 365 350" fill="none" xmlns="http://www.w3.org/2000/svg">
<g clip-path="url(#clip0_3_1074)">
<path d="M0.000169121 156.352C-0.0541935 193.259 12.9989 228.987 36.8322 257.164C37.6977 258.192 38.5794 259.204 39.4773 260.21C50.0444 272.096 62.3536 282.309 75.9848 290.501C79.1114 292.378 82.3065 294.147 85.5701 295.808C85.9001 295.976 86.2354 296.144 86.5654 296.306C86.9603 296.506 87.3606 296.701 87.7609 296.896C96.0195 300.939 104.622 304.237 113.466 306.753C114.386 307.013 115.307 307.265 116.23 307.51C127.864 310.589 139.815 312.312 151.845 312.645C152.472 312.661 153.089 312.672 153.684 312.682C153.895 312.688 154.101 312.693 154.306 312.693C154.982 312.699 155.653 312.704 156.329 312.704C169.007 312.713 181.638 311.182 193.946 308.143C195.179 307.84 196.407 307.521 197.629 307.186C204.069 305.428 210.388 303.254 216.546 300.677C219.791 299.325 222.979 297.866 226.11 296.301C226.818 295.944 227.527 295.587 228.225 295.219C228.522 295.073 228.814 294.916 229.106 294.764C245.79 285.957 260.751 274.218 273.273 260.107C274.139 259.139 274.988 258.154 275.827 257.164C298.805 229.946 364.626 189.49 364.626 151.078C364.626 99.4226 287.613 58.8944 249.002 30.4264C248.115 29.7718 247.222 29.1226 246.319 28.4896C246.14 28.3652 245.962 28.2407 245.783 28.1163C229.911 16.9964 212.095 8.94975 193.259 4.393C192.188 4.1279 191.117 3.87904 190.035 3.64641C169.632 -0.817097 148.547 -1.18671 128.001 2.55897C126.924 2.75915 125.848 2.96473 124.777 3.18654C106.109 7.01609 88.3047 14.2471 72.2524 24.5186C71.8954 24.7458 71.5383 24.973 71.1813 25.2111C70.4619 25.6764 69.7425 26.1524 69.0338 26.6339C47.7694 40.9319 30.3495 60.2436 18.3104 82.8656C6.27135 105.488 -0.0169273 130.725 0.000169121 156.352Z" fill="#F2F2F2"/>
<path d="M195.91 235.994C195.885 236.326 195.992 236.654 196.207 236.907C196.423 237.161 196.729 237.319 197.06 237.349L245.784 241.675L246.319 241.724V28.4896C246.141 28.3652 245.962 28.2407 245.784 28.1163C235.37 20.8314 224.106 14.8468 212.24 10.2954L209.687 45.5152L209.455 48.7396L206.928 83.6673L206.15 94.4118L195.91 235.994Z" fill="#E6E6E6"/>
<path d="M72.2527 24.5186C71.8957 24.7458 71.5387 24.9731 71.1816 25.2111V241.724L72.2527 241.626L121.678 237.239L121.586 235.994L111.346 94.4118L110.567 83.6673L108.041 48.7397L107.808 45.5152L105.13 8.58044C93.5835 12.5836 82.5482 17.9332 72.2527 24.5186Z" fill="#E6E6E6"/>
<path d="M71.1807 25.2111C70.4613 25.6763 69.7418 26.1524 69.0332 26.6339V244.677C69.0332 250.125 72.2626 254.691 76.5792 255.855C77.2846 256.046 78.0122 256.142 78.7429 256.141H239.291C240.02 256.142 240.746 256.046 241.45 255.855C243.054 255.409 244.508 254.538 245.658 253.334C247.851 250.99 249.049 247.887 249.001 244.677V30.4264C248.114 29.7718 247.221 29.1226 246.318 28.4896C246.14 28.3652 245.961 28.2407 245.783 28.1163V244.677C245.784 245.379 245.7 246.079 245.534 246.76C244.771 249.979 242.256 252.338 239.291 252.338H78.7429C75.162 252.338 72.2518 248.903 72.2518 244.677V24.5186C71.8947 24.7458 71.5377 24.973 71.1807 25.2111Z" fill="#E6E6E6"/>
<path d="M247.393 45.5174H70.6426V48.7413H247.393V45.5174Z" fill="#E6E6E6"/>
<path d="M193.259 4.39302C192.188 4.12792 191.117 3.87906 190.035 3.64642V91.1873H193.259V4.39302Z" fill="#E6E6E6"/>
<path d="M128.001 2.55896C126.925 2.75913 125.848 2.96472 124.777 3.18653V91.1873H128.001V2.55896Z" fill="#E6E6E6"/>
<path d="M35.9883 250.499C35.9875 252.349 36.3419 254.182 37.0323 255.898C37.2974 256.563 37.6139 257.207 37.9789 257.824C38.4503 258.628 38.9973 259.385 39.6125 260.085C40.9715 261.634 42.6453 262.875 44.5222 263.725C46.3991 264.575 48.4358 265.014 50.4961 265.014H262.168C266.016 265.014 269.706 263.485 272.427 260.764C275.147 258.043 276.676 254.352 276.676 250.504C276.676 246.656 275.147 242.965 272.427 240.244C269.706 237.523 266.016 235.994 262.168 235.994H50.4961C46.6505 235.998 42.9634 237.527 40.2436 240.246C37.5238 242.965 35.9935 246.652 35.9883 250.499Z" fill="#E6E6E6"/>
<path d="M70.6423 94.413L246.318 94.413V83.6667L70.6423 83.6667V94.413Z" fill="#E6E6E6"/>
<path d="M166.002 86.3533H150.959C150.959 84.7857 151.582 83.2824 152.69 82.1739C153.798 81.0655 155.302 80.4428 156.869 80.4428H160.092C161.66 80.4428 163.163 81.0655 164.271 82.1739C165.379 83.2824 166.002 84.7857 166.002 86.3533Z" fill="#E6E6E6"/>
<path d="M312.416 195.171H267.54C266.963 195.17 266.41 194.941 266.003 194.533C265.595 194.125 265.366 193.573 265.365 192.996V141.08C265.365 139.994 279.889 131.012 286.134 127.2C287.288 126.483 288.62 126.103 289.979 126.103C291.338 126.103 292.67 126.484 293.824 127.202C300.066 131.012 314.59 139.994 314.59 141.08V192.996C314.589 193.573 314.36 194.125 313.952 194.533C313.545 194.941 312.992 195.17 312.416 195.171Z" fill="#CCCCCC"/>
<path d="M317.257 132.284L309.002 115.453C308.875 115.193 308.686 114.969 308.452 114.799C308.219 114.63 307.947 114.52 307.661 114.479C307.661 114.479 307.661 114.474 307.655 114.479C307.459 114.452 307.26 114.457 307.066 114.495C306.912 114.528 306.764 114.579 306.622 114.647L279.441 127.977L279.403 127.999C279.125 128.142 278.889 128.356 278.72 128.619C278.551 128.882 278.454 129.185 278.44 129.497C278.425 129.795 278.486 130.091 278.618 130.358L283.103 139.501L284.666 142.693L285.997 145.398H294.549L300.066 142.693L316.435 134.664C316.859 134.457 317.185 134.091 317.339 133.644C317.493 133.198 317.464 132.708 317.257 132.284Z" fill="white"/>
<path d="M317.257 132.284L309.002 115.453C308.875 115.193 308.686 114.969 308.452 114.799C308.219 114.63 307.947 114.52 307.661 114.479C307.661 114.479 307.661 114.474 307.655 114.479C307.459 114.452 307.26 114.457 307.066 114.495C306.912 114.528 306.764 114.579 306.622 114.647L279.441 127.977L279.403 127.999C279.125 128.142 278.889 128.356 278.72 128.619C278.551 128.882 278.454 129.185 278.44 129.497C278.425 129.795 278.486 130.091 278.618 130.358L283.103 139.501L284.666 142.693L285.997 145.398H294.549L300.066 142.693L316.435 134.664C316.859 134.457 317.185 134.091 317.339 133.644C317.493 133.198 317.464 132.708 317.257 132.284ZM314.78 133.647C311.88 135.124 304.15 139.008 296.637 142.693C296.539 142.741 296.437 142.79 296.339 142.839C295.566 143.223 295.203 143.396 295.068 143.461C295.192 143.391 295.463 143.25 295.506 143.223C295.49 143.217 295.252 143.326 294.516 143.672C293.256 144.266 291.853 144.49 290.471 144.316C289.089 144.143 287.785 143.58 286.711 142.693C285.929 142.045 285.293 141.239 284.844 140.328L284.147 138.9L280.171 130.796L279.695 129.827C279.661 129.759 279.642 129.684 279.637 129.607C279.632 129.531 279.643 129.454 279.668 129.382C279.693 129.309 279.732 129.243 279.783 129.185C279.834 129.128 279.896 129.082 279.965 129.048L280.046 129.01L307.147 115.712C307.216 115.679 307.291 115.659 307.367 115.654C307.444 115.65 307.52 115.66 307.593 115.685C307.665 115.71 307.732 115.75 307.789 115.801C307.846 115.852 307.893 115.914 307.926 115.983L308.602 117.368L315.515 131.45C315.703 131.84 315.731 132.288 315.593 132.698C315.456 133.108 315.164 133.449 314.78 133.647Z" fill="#80828A"/>
<path d="M288.291 136.961L309.001 126.802C309.184 126.713 309.335 126.569 309.433 126.39C309.531 126.212 309.572 126.007 309.55 125.805L308.372 115.311C308.357 115.183 308.318 115.058 308.255 114.945C308.192 114.832 308.107 114.732 308.006 114.652C307.904 114.572 307.788 114.512 307.663 114.477C307.539 114.442 307.408 114.431 307.28 114.447C307.168 114.46 307.059 114.492 306.958 114.541L279.159 128.117L279.157 128.118C279.01 128.189 278.883 128.295 278.788 128.427C278.692 128.56 278.631 128.714 278.61 128.876C278.589 129.038 278.608 129.203 278.667 129.355C278.725 129.508 278.821 129.643 278.945 129.749L287.212 136.826C287.359 136.952 287.54 137.032 287.732 137.056C287.924 137.079 288.118 137.047 288.291 136.961Z" fill="#80828A"/>
<path d="M299.393 134.246C300.615 133.647 301.123 132.176 300.527 130.96C299.931 129.745 298.457 129.245 297.234 129.845C296.012 130.444 295.505 131.916 296.101 133.131C296.697 134.347 298.171 134.846 299.393 134.246Z" fill="#3F3D56"/>
<path d="M284.39 138.721C283.772 139.232 283.05 139.6 282.274 139.801C281.498 140.001 280.688 140.029 279.9 139.883C279.112 139.737 278.366 139.419 277.714 138.953C277.063 138.487 276.521 137.884 276.127 137.186L251.865 145.891L225.865 139.639L230.572 128.686L250.213 135.024L278.527 129.479C279.743 128.895 281.131 128.778 282.428 129.15C283.725 129.522 284.841 130.356 285.563 131.495C286.286 132.635 286.566 134 286.35 135.331C286.133 136.663 285.436 137.869 284.39 138.721Z" fill="#FFB6B6"/>
<path d="M208.947 134.513C213.674 135.845 239.376 145.034 246.195 145.081C246.407 146.013 246.922 146.848 247.661 147.455C248.399 148.062 249.318 148.405 250.274 148.432L251.954 134.358C249.848 131.933 248.119 133.2 247.303 134.162L239.116 129.532L208.962 115.365C207.655 114.751 206.208 114.497 204.77 114.629C203.332 114.761 201.955 115.274 200.782 116.115C199.781 116.835 198.957 117.772 198.372 118.858C197.787 119.943 197.457 121.147 197.405 122.378C197.354 123.61 197.584 124.837 198.077 125.967C198.57 127.097 199.313 128.1 200.251 128.9C203.184 131.42 206.448 133.808 208.947 134.513Z" fill="#80828A"/>
<path d="M133.576 226.411C134.007 229.587 136.167 232.455 138.944 234.327C139.606 234.775 140.304 235.165 141.031 235.495C141.831 235.856 142.656 236.159 143.5 236.401C147.201 237.482 151.2 237.529 155.091 237.551C159.025 237.576 162.958 237.601 166.89 237.626C169.991 237.644 173.192 237.644 176.056 236.455C176.099 236.439 176.141 236.421 176.182 236.401C178.995 235.186 181.391 232.516 181.323 229.462C181.296 228.386 180.991 227.335 180.439 226.411C180.074 225.79 179.635 225.216 179.131 224.7C177.572 223.083 175.409 221.815 173.383 220.794C170.041 219.116 166.265 216.938 165.288 213.488C165.185 213.125 165.115 212.754 165.079 212.378C164.849 210.006 166.003 207.825 167.472 205.874C167.616 205.68 167.767 205.486 167.921 205.292C168.252 204.878 168.593 204.472 168.931 204.084C169.075 203.919 169.218 203.75 169.366 203.581C170.724 202.007 172.093 200.325 172.808 198.446C173.116 197.659 173.287 196.825 173.314 195.981C173.393 192.93 169.984 189.858 167.404 191.299C166.139 191.176 164.875 191.051 163.61 190.921C162.058 190.767 160.513 190.612 158.964 190.454H158.96C158.612 190.425 158.271 190.389 157.929 190.353C154.706 190.034 151.486 189.711 148.268 189.387C146.838 189.247 145.156 189.193 144.226 190.292C143.212 191.493 143.737 193.39 144.739 194.601C145.742 195.808 147.132 196.664 148.074 197.914C148.646 198.728 149.044 199.652 149.243 200.627C149.441 201.602 149.436 202.608 149.227 203.581C149.126 204.163 148.975 204.736 148.774 205.292C148.423 206.285 147.935 207.224 147.326 208.084C145.214 211.045 142.084 213.086 139.307 215.433C136.526 217.783 133.925 220.765 133.544 224.38C133.533 224.485 133.522 224.592 133.519 224.7C133.478 225.271 133.497 225.844 133.576 226.411Z" fill="#E6E6E6"/>
<path d="M156.172 193.507C158.976 190.737 161.364 187.575 163.262 184.121C165.155 180.685 166.552 176.998 167.414 173.171C168.288 169.286 168.577 165.293 168.273 161.324C167.641 153.239 164.654 145.516 159.681 139.111C159.377 138.722 159.066 138.338 158.748 137.96C158.393 137.538 157.791 138.146 158.143 138.566C163.218 144.652 166.397 152.092 167.288 159.967C167.932 165.985 167.213 172.07 165.184 177.771C163.155 183.473 159.868 188.644 155.567 192.901C155.174 193.289 155.779 193.894 156.172 193.507Z" fill="#E6E6E6"/>
<path d="M160.027 139.838C159.681 139.709 159.341 139.56 159.011 139.395C158.994 139.42 158.978 139.447 158.961 139.472L160.027 139.838Z" fill="#E6E6E6"/>
<path d="M162.383 131.883C162.196 129.863 161.213 127.886 159.34 126.945C158.349 126.392 157.187 126.231 156.083 126.494C154.979 126.756 154.014 127.423 153.377 128.362C153.29 128.518 153.255 128.698 153.277 128.875C153.3 129.052 153.38 129.217 153.504 129.345C153.781 129.687 154.06 130.026 154.337 130.367C154.515 130.586 154.836 130.848 154.789 131.168C154.721 131.631 154.186 131.594 153.766 131.529C153.682 131.5 153.594 131.486 153.505 131.488C153.475 131.483 153.442 131.477 153.417 131.474C153.202 131.476 152.997 131.562 152.845 131.714C152.693 131.866 152.607 132.071 152.605 132.286C152.605 132.358 152.615 132.429 152.634 132.498L152.634 132.502C153.09 134.693 154.228 136.684 155.884 138.19C156.646 138.912 157.504 139.525 158.434 140.011C158.53 140.084 158.64 140.137 158.758 140.166C158.875 140.195 158.997 140.2 159.116 140.181C159.235 140.161 159.349 140.118 159.451 140.053C159.553 139.988 159.64 139.903 159.708 139.804C160.05 139.321 160.36 138.817 160.637 138.295C161.746 136.358 162.594 134.153 162.383 131.883Z" fill="#E6E6E6"/>
<path d="M175.841 136.197C175.139 136.088 174.438 135.979 173.736 135.87C174.417 135.196 175.181 134.611 176.01 134.129C176.133 134.059 176.235 133.957 176.306 133.834C176.377 133.711 176.413 133.571 176.411 133.429C176.241 131.878 175.564 130.49 174.105 129.774C173.45 129.443 172.72 129.288 171.987 129.323C171.253 129.359 170.542 129.583 169.921 129.975C169.185 130.557 168.542 131.246 168.013 132.02C167.314 132.878 166.611 133.735 165.964 134.633C164.664 136.334 163.813 138.334 163.488 140.45C163.189 142.791 163.628 145.167 164.742 147.247C164.834 148.442 164.925 149.637 165.016 150.832C165.019 150.974 165.059 151.112 165.131 151.233C165.204 151.355 165.306 151.456 165.429 151.526C165.552 151.597 165.69 151.634 165.832 151.635C165.973 151.637 166.113 151.601 166.237 151.533C169.026 150.165 171.425 148.113 173.208 145.568C174.991 143.023 176.102 140.069 176.437 136.979C176.437 136.801 176.379 136.628 176.271 136.487C176.164 136.345 176.012 136.243 175.841 136.197Z" fill="#E6E6E6"/>
<path d="M166.535 173.345C166.815 173.36 167.096 173.367 167.372 173.363C169.763 173.348 172.126 172.845 174.316 171.884C176.505 170.923 178.476 169.525 180.106 167.775C181.425 166.33 182.487 164.668 183.243 162.863C183.217 162.86 183.196 162.856 183.171 162.852C182.007 162.673 180.839 162.489 179.675 162.31C180.911 160.698 182.554 159.446 184.435 158.68C184.69 157.056 184.709 155.404 184.493 153.775C181.863 158.062 175.715 158.407 171.831 161.598C169.979 163.142 168.716 165.279 168.256 167.646C168.142 168.231 168.08 168.825 168.073 169.421C168.069 169.565 168.069 169.705 168.073 169.845L167.987 170.039L166.535 173.345Z" fill="#E6E6E6"/>
<path d="M163.43 172.677C162.556 170.597 161.88 168.103 159.468 167.394C158.433 167.095 157.323 167.197 156.36 167.681C155.397 168.165 154.652 168.994 154.273 170.003C154.236 170.142 154.235 170.288 154.272 170.426C154.308 170.565 154.381 170.691 154.482 170.793C154.752 171.124 155.021 171.455 155.29 171.787C154.957 171.801 154.623 171.805 154.287 171.794C154.11 171.795 153.938 171.854 153.797 171.961C153.655 172.069 153.553 172.219 153.505 172.389C153.209 173.605 153.038 174.847 152.992 176.097C152.91 176.555 152.992 177.027 153.225 177.43C153.59 177.936 153.985 178.421 154.407 178.882C154.822 179.392 155.236 179.902 155.65 180.412C155.248 180.43 154.843 180.428 154.438 180.407C154.313 180.409 154.191 180.438 154.079 180.494C153.968 180.55 153.871 180.631 153.796 180.73C153.72 180.829 153.668 180.944 153.644 181.066C153.62 181.188 153.624 181.314 153.655 181.435C154.633 184.852 156.562 187.922 159.218 190.284C159.319 190.381 159.444 190.451 159.581 190.486C159.717 190.521 159.86 190.52 159.996 190.484C160.132 190.449 160.256 190.378 160.358 190.281C160.459 190.183 160.533 190.061 160.574 189.926C160.619 189.799 160.678 189.669 160.71 189.539C160.716 189.519 160.722 189.499 160.73 189.479C160.708 189.514 160.677 189.562 160.639 189.618C160.691 189.541 160.735 189.458 160.771 189.373C160.845 189.203 160.898 189.021 160.961 188.848C161.218 188.136 161.475 187.425 161.732 186.713C161.761 186.633 161.787 186.551 161.819 186.472C161.844 186.47 161.869 186.463 161.891 186.452C162.118 186.347 162.369 185.907 162.528 185.704C162.75 185.42 162.962 185.13 163.157 184.826C163.879 183.69 164.392 182.432 164.67 181.115C165.301 178.173 164.572 175.397 163.43 172.677Z" fill="#E6E6E6"/>
<path d="M160.73 189.48C160.774 189.368 160.835 189.311 160.73 189.48V189.48Z" fill="#E6E6E6"/>
<path d="M12.914 340.454L17.0846 333.75L17.9177 337.581C18.0637 338.252 18.2098 338.933 18.345 339.61C19.5296 338.598 20.79 337.662 22.0232 336.764C25.8097 334.016 29.5945 331.264 33.3775 328.508L32.1929 335.379C31.4626 339.61 30.6998 343.927 28.8931 347.795C28.6929 348.233 28.4766 348.666 28.2439 349.088H10.642C10.5004 348.696 10.4025 348.29 10.3499 347.876C10.3455 347.849 10.3438 347.822 10.3446 347.795C10.0686 345.171 11.5184 342.699 12.914 340.454Z" fill="#F0F0F0"/>
<path d="M280.348 339.371L276.178 332.668L275.345 336.499C275.199 337.17 275.053 337.851 274.917 338.528C273.733 337.516 272.472 336.58 271.239 335.682C267.453 332.933 263.668 330.182 259.885 327.426L261.069 334.297C261.8 338.528 262.562 342.845 264.369 346.713C264.569 347.151 264.786 347.584 265.018 348.006H282.62C282.762 347.614 282.86 347.208 282.912 346.794C282.917 346.767 282.919 346.74 282.918 346.713C283.194 344.089 281.744 341.617 280.348 339.371Z" fill="#F0F0F0"/>
<path d="M304.69 339.371L300.519 332.668L299.686 336.499C299.54 337.17 299.394 337.851 299.259 338.528C298.074 337.516 296.814 336.58 295.581 335.682C291.794 332.933 288.01 330.182 284.227 327.426L285.411 334.297C286.141 338.528 286.904 342.845 288.711 346.713C288.911 347.151 289.127 347.584 289.36 348.006H306.962C307.104 347.614 307.202 347.208 307.254 346.794C307.259 346.767 307.26 346.74 307.259 346.713C307.535 344.089 306.086 341.617 304.69 339.371Z" fill="#F0F0F0"/>
<path d="M305.123 142.693H274.831C274.472 142.693 274.128 142.835 273.875 143.089C273.621 143.342 273.479 143.686 273.479 144.045C273.479 144.404 273.621 144.748 273.875 145.002C274.128 145.255 274.472 145.398 274.831 145.398H305.123C305.482 145.398 305.826 145.255 306.079 145.002C306.333 144.748 306.475 144.404 306.475 144.045C306.475 143.686 306.333 143.342 306.079 143.089C305.826 142.835 305.482 142.693 305.123 142.693Z" fill="white"/>
<path d="M269.422 172.719C270.617 172.719 271.585 171.75 271.585 170.555C271.585 169.359 270.617 168.391 269.422 168.391C268.227 168.391 267.258 169.359 267.258 170.555C267.258 171.75 268.227 172.719 269.422 172.719Z" fill="white"/>
<path d="M224.557 105.856L206.062 104.254L199.673 113.13L192.1 191.576L228.687 194.461L245.081 198.997L224.557 105.856Z" fill="#3F3D56"/>
<path d="M190.005 341.909L197.02 341.909L200.358 314.845L190.004 314.845L190.005 341.909Z" fill="#FFB6B6"/>
<path d="M188.215 339.619L190.19 339.619L197.899 336.483L202.031 339.618C204.366 339.618 206.606 340.546 208.257 342.197C209.909 343.849 210.836 346.089 210.836 348.424V348.71L188.215 348.711L188.215 339.619Z" fill="#2F2E41"/>
<path d="M217.191 337.488L224.035 339.033L233.251 313.369L223.151 311.089L217.191 337.488Z" fill="#FFB6B6"/>
<path d="M215.949 334.859L217.876 335.294L226.086 333.934L229.426 337.902C231.704 338.417 233.685 339.815 234.932 341.79C236.179 343.765 236.59 346.154 236.076 348.432L236.013 348.711L213.947 343.728L215.949 334.859Z" fill="#2F2E41"/>
<path d="M181.118 176.454C177.829 186.376 178.177 197.145 181.909 208.704L183.504 273.784C180.867 276.687 180.463 302.664 184.526 311.14C189.952 322.458 184.962 323.971 188.798 331.48H199.922L205.063 297.461L205.429 269.887C206.907 266.388 205.694 254.076 205.694 254.076L206.121 228.545L226.178 273.269C217.091 281.048 217.909 306.176 217.759 317.322L214.78 330.473L228.471 331.698L234.512 313.862L241.305 302.871C244.767 283.397 245.793 269.101 242.842 263.261L222.707 188.338L181.118 176.454Z" fill="#2F2E41"/>
<path d="M178.888 176.984C178.927 177.78 179.091 178.565 179.375 179.31C179.408 179.402 179.44 179.488 179.478 179.58C180.145 181.176 181.331 182.501 182.843 183.34C183.288 183.591 183.757 183.796 184.244 183.952L188.457 184.628L224.694 190.422L226.15 186.046L223.407 179.185L225.225 173.288L225.636 116.147V116.104L219.053 105.603L218.998 98.9645L200.618 98.5154L198.622 103.579L194.678 105.938C185.937 111.164 182.789 120.735 182.978 130.922C185.991 142.592 183.773 155.565 181.528 169.474L179.694 173.142C179.1 174.332 178.823 175.655 178.888 176.984Z" fill="#80828A"/>
<path opacity="0.2" d="M178.889 176.984C178.927 177.78 179.091 178.565 179.376 179.31L182.843 183.34C183.288 183.591 183.757 183.796 184.244 183.952L188.458 184.628L182.361 173.164L195.76 143.825L178.889 176.984Z" fill="black"/>
<path d="M217.117 105.181L198.621 103.579C193.339 105.995 188.776 109.744 185.382 114.459C181.988 119.173 179.88 124.691 179.265 130.468L173.168 187.789L212.46 194.461L228.854 198.997L217.117 105.181Z" fill="#3F3D56"/>
<path d="M194.641 79.9318C195.257 84.4277 197.633 88.495 201.246 91.24C204.859 93.985 209.414 95.1831 213.909 94.5711C218.405 93.9591 222.474 91.5871 225.222 87.9762C227.971 84.3654 229.173 79.811 228.565 75.314L228.532 75.071C227.823 70.6343 225.398 66.6544 221.781 63.9896C218.165 61.3248 213.645 60.1888 209.198 60.8265C204.752 61.4643 200.734 63.8248 198.011 67.3988C195.289 70.9728 194.08 75.4739 194.646 79.9311L194.641 79.9318Z" fill="#FFB8B8"/>
<path d="M198.999 88.7504C198.12 86.9644 197.217 85.0469 197.464 83.0716C197.711 81.0963 199.648 79.2082 201.549 79.7953C202.687 80.1463 203.546 81.2695 204.735 81.327C206.371 81.4061 207.309 79.5338 207.818 77.977L209.892 71.6369C211.883 73.189 214.192 74.2823 216.655 74.8388C219.117 75.3954 221.672 75.4014 224.137 74.8564C226.062 74.4162 228.007 73.5578 229.137 71.9374C230.266 70.3169 230.259 67.8033 228.71 66.578C227.951 65.9772 226.94 65.7489 226.214 65.1078C225.764 64.7101 225.453 64.1779 225.329 63.5902C225.205 63.0024 225.273 62.3901 225.523 61.8441C225.774 61.298 226.193 60.8471 226.72 60.5581C227.247 60.2691 227.852 60.1574 228.448 60.2394L223.226 59.5868L224.782 56.7728C223.661 57.6565 222.101 57.7754 220.696 57.5224C219.292 57.2694 217.969 56.691 216.594 56.3052C209.997 54.4532 202.33 57.6733 199.033 63.6807C197.748 63.2516 196.363 63.2231 195.062 63.5989C193.76 63.9747 192.604 64.7372 191.745 65.7852C190.348 67.5594 189.968 69.9271 189.913 72.1852C189.812 76.6377 190.782 81.0492 192.744 85.0477C193.306 86.3177 194.114 87.464 195.121 88.4206C195.628 88.8949 196.233 89.2525 196.892 89.4683C197.552 89.6841 198.251 89.7529 198.941 89.6699" fill="#2F2E41"/>
<path d="M213.163 193.167L178.064 186.634L189.347 126C189.776 123.695 190.655 121.497 191.933 119.532C193.211 117.567 194.864 115.872 196.797 114.546C198.73 113.219 200.905 112.287 203.198 111.801C205.492 111.315 207.858 111.286 210.163 111.715C212.467 112.144 214.665 113.023 216.63 114.301C218.595 115.579 220.289 117.232 221.616 119.165C222.942 121.099 223.874 123.274 224.36 125.568C224.846 127.861 224.875 130.228 224.446 132.533L213.163 193.167ZM180.587 184.903L211.432 190.644L222.319 132.137C222.697 130.111 222.672 128.031 222.246 126.014C221.82 123.998 221.001 122.085 219.835 120.385C218.67 118.686 217.181 117.232 215.454 116.108C213.726 114.984 211.794 114.212 209.769 113.834C207.743 113.457 205.662 113.483 203.646 113.91C201.63 114.338 199.718 115.158 198.019 116.325C196.321 117.491 194.868 118.981 193.745 120.709C192.622 122.437 191.851 124.37 191.475 126.396L180.587 184.903Z" fill="#CCCCCC"/>
<path d="M169.658 212.143L209.083 220.706C211.334 221.194 213.554 219.766 214.043 217.515L219.808 190.961C220.297 188.711 218.869 186.49 216.618 186.001L177.193 177.439C174.942 176.95 172.722 178.378 172.233 180.629L166.468 207.183C165.979 209.434 167.407 211.655 169.658 212.143Z" fill="#CCCCCC"/>
<path d="M192.496 186.78V194.96L192.913 195.052L193.421 195.165L207.453 198.276H207.464L211.759 199.228H211.943C212.091 199.229 212.239 199.199 212.375 199.14C212.512 199.081 212.636 198.995 212.738 198.887C212.923 198.687 213.025 198.424 213.024 198.152V186.78C213.026 186.613 212.987 186.448 212.912 186.3C212.836 186.151 212.727 186.022 212.592 185.925C212.571 185.902 212.547 185.882 212.521 185.865C212.441 185.819 212.356 185.781 212.267 185.752C212.259 185.747 212.249 185.745 212.24 185.746C212.238 185.744 212.235 185.743 212.233 185.742C212.23 185.741 212.227 185.74 212.224 185.741C212.132 185.717 212.038 185.704 211.943 185.703H193.556C193.334 185.702 193.117 185.774 192.94 185.909C192.802 186.008 192.69 186.139 192.613 186.29C192.536 186.442 192.496 186.61 192.496 186.78Z" fill="white"/>
<path d="M192.496 186.78V194.96L192.913 195.052L193.421 195.165C193.371 195.008 193.331 194.847 193.302 194.684C193.292 194.65 193.285 194.616 193.28 194.581C193.241 194.347 193.222 194.11 193.221 193.872V186.78C193.222 186.686 193.26 186.596 193.327 186.53C193.394 186.464 193.484 186.428 193.578 186.428H211.943C212.036 186.428 212.127 186.464 212.194 186.53C212.26 186.596 212.299 186.686 212.3 186.78V197.232C212.297 197.495 212.192 197.746 212.008 197.933C211.823 198.12 211.572 198.227 211.31 198.233C210.936 198.238 210.444 198.244 209.86 198.249C209.178 198.26 208.367 198.271 207.464 198.276L211.759 199.228H211.943C212.091 199.229 212.239 199.199 212.375 199.14C212.512 199.081 212.636 198.995 212.738 198.887C212.923 198.687 213.025 198.424 213.024 198.152V186.78C213.026 186.613 212.987 186.448 212.912 186.3C212.836 186.151 212.727 186.022 212.592 185.925C212.571 185.902 212.547 185.882 212.521 185.865C212.441 185.819 212.356 185.781 212.267 185.752C212.259 185.747 212.249 185.745 212.24 185.746C212.238 185.744 212.235 185.743 212.233 185.742C212.23 185.741 212.227 185.74 212.224 185.741C212.132 185.717 212.038 185.704 211.943 185.703H193.556C193.334 185.702 193.117 185.774 192.94 185.909C192.802 186.008 192.69 186.139 192.613 186.29C192.536 186.442 192.496 186.61 192.496 186.78ZM192.496 194.175V194.402L193.28 194.581C193.241 194.347 193.222 194.11 193.221 193.872V193.483C192.983 193.721 192.74 193.948 192.496 194.175Z" fill="#80828A"/>
<path d="M196 192.961H209.993C210.117 192.961 210.237 192.923 210.339 192.852C210.44 192.781 210.517 192.681 210.559 192.565L212.72 186.535C212.746 186.461 212.758 186.382 212.754 186.304C212.75 186.225 212.73 186.148 212.696 186.078C212.662 186.007 212.615 185.943 212.557 185.891C212.498 185.838 212.43 185.798 212.356 185.772C212.291 185.749 212.224 185.737 212.155 185.737L193.388 185.704H193.387C193.288 185.703 193.191 185.728 193.103 185.774C193.016 185.821 192.941 185.888 192.886 185.971C192.832 186.054 192.798 186.148 192.79 186.247C192.781 186.346 192.796 186.445 192.836 186.536L195.448 192.6C195.495 192.707 195.572 192.799 195.67 192.863C195.768 192.927 195.883 192.961 196 192.961Z" fill="#80828A"/>
<path d="M202.771 194.448C203.596 194.448 204.266 193.783 204.266 192.961C204.266 192.14 203.596 191.474 202.771 191.474C201.945 191.474 201.275 192.14 201.275 192.961C201.275 193.783 201.945 194.448 202.771 194.448Z" fill="#3F3D56"/>
<path d="M177.609 191.665L177.956 191.741L178.626 191.887L185.523 193.418L191.83 194.814L192.496 194.96L192.912 195.052L193.302 194.684L193.388 194.603L195.465 192.633L200.556 187.813C200.741 187.638 200.859 187.402 200.886 187.148C200.914 186.894 200.851 186.639 200.707 186.428C200.678 186.376 200.641 186.329 200.599 186.287L200.058 185.714L200.047 185.703L192.782 178.031C192.665 177.907 192.52 177.813 192.359 177.757C192.198 177.7 192.026 177.683 191.857 177.707C191.839 177.706 191.821 177.708 191.803 177.712C191.687 177.735 191.576 177.777 191.473 177.837C191.395 177.879 191.322 177.932 191.257 177.994L177.918 190.626L177.907 190.637C177.773 190.766 177.675 190.928 177.626 191.108C177.609 191.151 177.604 191.189 177.593 191.221C177.571 191.369 177.577 191.519 177.609 191.665Z" fill="white"/>
<path d="M177.609 191.665L177.956 191.741L178.626 191.887L178.399 191.649C178.353 191.599 178.322 191.536 178.31 191.469C178.299 191.402 178.307 191.333 178.334 191.27C178.352 191.225 178.38 191.184 178.415 191.151L191.755 178.518C191.788 178.486 191.828 178.461 191.871 178.444C191.914 178.427 191.961 178.419 192.007 178.421C192.053 178.422 192.099 178.433 192.141 178.453C192.183 178.472 192.221 178.5 192.252 178.535L192.901 179.216L199.041 185.703L199.052 185.714L199.441 186.125C199.525 186.213 199.591 186.316 199.636 186.428C199.711 186.613 199.73 186.816 199.689 187.012C199.649 187.207 199.551 187.386 199.409 187.526C198.592 188.321 196.991 189.874 195.065 191.714C194.476 192.287 193.861 192.877 193.221 193.483C192.983 193.721 192.739 193.948 192.496 194.175C192.431 194.24 192.366 194.305 192.301 194.359C192.144 194.516 191.987 194.662 191.83 194.814L192.496 194.96L192.912 195.052L193.302 194.684L193.388 194.603L195.465 192.633L200.556 187.813C200.741 187.638 200.859 187.402 200.886 187.148C200.914 186.894 200.851 186.639 200.707 186.428C200.678 186.376 200.641 186.329 200.599 186.287L200.058 185.714L200.047 185.703L192.782 178.031C192.665 177.907 192.52 177.813 192.359 177.757C192.198 177.7 192.026 177.683 191.857 177.707C191.839 177.706 191.821 177.708 191.803 177.712C191.687 177.735 191.576 177.777 191.473 177.837C191.395 177.879 191.322 177.932 191.257 177.994L177.918 190.626L177.907 190.637C177.773 190.766 177.675 190.928 177.626 191.108C177.609 191.151 177.604 191.189 177.593 191.221C177.571 191.369 177.577 191.519 177.609 191.665Z" fill="#80828A"/>
<path d="M177.594 191.194V191.221C177.601 191.363 177.658 191.498 177.757 191.6C177.814 191.659 177.882 191.707 177.957 191.741L178.628 191.887L185.524 193.418L186.006 192.963L188.5 190.599L190.674 188.543L192.497 186.812L192.827 186.504L193.671 185.703L194.828 184.605C194.919 184.52 194.981 184.41 195.006 184.289C195.031 184.168 195.018 184.042 194.969 183.928L192.903 179.216L192.394 178.064C192.349 177.959 192.274 177.87 192.179 177.807C192.084 177.743 191.973 177.709 191.859 177.707C191.84 177.706 191.822 177.708 191.805 177.712C191.735 177.713 191.667 177.73 191.604 177.761C191.558 177.78 191.514 177.805 191.475 177.837C191.458 177.847 191.448 177.864 191.431 177.874L177.919 190.626L177.908 190.637L177.784 190.756C177.695 190.854 177.633 190.973 177.605 191.102C177.596 191.132 177.592 191.163 177.594 191.194Z" fill="#80828A"/>
<path d="M190.607 190.652C191.207 190.084 191.235 189.14 190.67 188.544C190.106 187.948 189.162 187.924 188.562 188.492C187.963 189.06 187.934 190.004 188.499 190.6C189.064 191.197 190.007 191.22 190.607 190.652Z" fill="#3F3D56"/>
<path d="M176.102 191.329L177.611 191.665L177.957 191.741L178.628 191.887L185.525 193.418L191.832 194.814L192.497 194.96L192.914 195.052L193.422 195.165L207.454 198.276H207.465L211.76 199.228L213.788 199.677L218.581 189.923L218.094 189.685L213.491 199.055L212.739 198.887L209.861 198.249L193.39 194.603L193.282 194.581L192.497 194.402L192.302 194.359L186.006 192.963L178.336 191.27L177.627 191.108L177.605 191.102L176.664 190.897L177.194 180.304L176.653 180.282L176.102 191.329Z" fill="#CCCCCC"/>
<path d="M364.999 349.356C364.999 349.441 364.983 349.525 364.951 349.603C364.918 349.681 364.871 349.752 364.811 349.812C364.751 349.872 364.68 349.919 364.602 349.952C364.524 349.984 364.44 350 364.355 350H0.692538C0.521816 350 0.358084 349.932 0.237365 349.811C0.116646 349.691 0.0488281 349.527 0.0488281 349.356C0.0488281 349.185 0.116646 349.022 0.237365 348.901C0.358084 348.78 0.521816 348.712 0.692538 348.712H364.355C364.44 348.712 364.524 348.729 364.602 348.761C364.68 348.793 364.751 348.841 364.811 348.9C364.871 348.96 364.918 349.031 364.951 349.11C364.983 349.188 364.999 349.272 364.999 349.356Z" fill="#CCCCCC"/>
<path d="M215.474 205.371C214.793 204.949 214.213 204.382 213.774 203.711C213.336 203.04 213.05 202.282 212.937 201.488C212.823 200.695 212.885 199.886 213.118 199.12C213.351 198.353 213.749 197.646 214.284 197.05L198.274 176.847L195.875 150.21L207.756 151.164L208.039 171.803L222.353 196.857C223.295 197.823 223.85 199.101 223.913 200.449C223.976 201.797 223.542 203.121 222.694 204.17C221.846 205.219 220.643 205.921 219.312 206.143C217.981 206.364 216.616 206.089 215.474 205.371Z" fill="#FFB6B6"/>
<path d="M195.317 132.538C195.568 137.443 195.089 164.738 197.227 171.214C196.412 171.713 195.785 172.468 195.447 173.362C195.109 174.256 195.077 175.237 195.358 176.151L209.227 173.239C210.851 170.468 209.097 169.235 207.924 168.769L209.69 159.53L213.46 126.424C213.623 124.99 213.401 123.537 212.816 122.216C212.231 120.896 211.304 119.756 210.131 118.913C209.129 118.195 207.977 117.714 206.762 117.507C205.547 117.3 204.301 117.372 203.118 117.718C201.935 118.064 200.846 118.674 199.933 119.503C199.021 120.331 198.309 121.357 197.851 122.501C196.402 126.087 195.185 129.944 195.317 132.538Z" fill="#80828A"/>
</g>
<defs>
<clipPath id="clip0_3_1074">
<rect width="365" height="350" fill="white"/>
</clipPath>
</defs>
</svg>
