<svg width="25" height="25" viewBox="0 0 25 25" fill="none" xmlns="http://www.w3.org/2000/svg">
<circle cx="12.5" cy="12.5" r="12.5" fill="#0B81FF"/>
<path d="M16.8903 16H13.9635C13.1389 15.9991 12.3486 15.6826 11.7655 15.1202C11.1825 14.5578 10.8546 13.7954 10.8536 13V12.647C10.8536 12.458 10.9583 12.2832 11.128 12.1887C11.2978 12.094 11.507 12.094 11.6768 12.1887C11.8466 12.2832 11.9512 12.458 11.9512 12.647V13C11.9517 13.5147 12.164 14.0081 12.5411 14.3721C12.9184 14.7359 13.4299 14.9406 13.9634 14.9412H16.8903C17.6092 14.9412 18.2735 14.5712 18.6329 13.9705C18.9923 13.37 18.9923 12.63 18.6329 12.0295C18.2735 11.4288 17.6092 11.0588 16.8903 11.0588H14.3292C14.1332 11.0588 13.9521 10.9579 13.8541 10.7941C13.7559 10.6303 13.7559 10.4285 13.8541 10.2647C13.9521 10.1009 14.1332 10 14.3292 10H16.8903C18.0013 10 19.028 10.5718 19.5834 11.5001C20.1389 12.4282 20.1389 13.5718 19.5834 14.4999C19.028 15.4282 18.0013 16 16.8903 16L16.8903 16ZM11.2196 15.4706C11.2195 15.3302 11.1617 15.1955 11.0588 15.0962C10.9559 14.997 10.8163 14.9412 10.6708 14.9412H8.10978C7.39083 14.9412 6.72655 14.5712 6.36714 13.9705C6.00774 13.37 6.00774 12.63 6.36714 12.0295C6.72655 11.4288 7.39087 11.0588 8.10978 11.0588H11.0366C11.5702 11.0594 12.0816 11.2641 12.4589 11.6279C12.836 11.9919 13.0483 12.4854 13.0488 13V13.353C13.0488 13.542 13.1534 13.7168 13.3232 13.8113C13.493 13.906 13.7022 13.906 13.872 13.8113C14.0418 13.7168 14.1464 13.542 14.1464 13.353V13C14.1454 12.2046 13.8175 11.4422 13.2345 10.8798C12.6514 10.3174 11.8611 10.0009 11.0366 10H8.10974C6.99869 10 5.97205 10.5718 5.41665 11.5001C4.86112 12.4282 4.86112 13.5718 5.41665 14.4999C5.97205 15.4282 6.99869 16 8.10974 16H10.6708C10.8163 15.9999 10.9558 15.9441 11.0587 15.8448C11.1616 15.7456 11.2194 15.611 11.2196 15.4706L11.2196 15.4706Z" fill="white"/>
</svg>
