<svg width="236" height="187" viewBox="0 0 236 187" fill="none" xmlns="http://www.w3.org/2000/svg">
<g clip-path="url(#clip0_147_1017)">
<path d="M189.484 44.3767H188.458V16.2684C188.458 14.132 188.038 12.0165 187.22 10.0427C186.403 8.06896 185.205 6.27555 183.695 4.7649C182.184 3.25424 180.391 2.05592 178.418 1.23836C176.445 0.420795 174.33 1.01092e-06 172.194 0H112.659C108.346 -9.52727e-06 104.209 1.71396 101.159 4.76486C98.1086 7.81576 96.395 11.9537 96.395 16.2683V170.473C96.395 174.787 98.1085 178.925 101.159 181.976C104.209 185.027 108.345 186.741 112.659 186.741H172.194C176.508 186.741 180.644 185.027 183.695 181.976C186.745 178.925 188.458 174.788 188.458 170.473V64.3847H189.484L189.484 44.3767Z" fill="#E6E6E6"/>
<path d="M184.996 16.382V170.36C184.996 173.582 183.717 176.672 181.439 178.951C179.161 181.229 176.071 182.509 172.85 182.509H113.029C109.808 182.509 106.718 181.229 104.44 178.951C102.163 176.672 100.883 173.582 100.883 170.36V16.382C100.883 13.1598 102.163 10.0695 104.44 7.79102C106.718 5.51254 109.808 4.23248 113.029 4.23242H120.286C119.93 5.10893 119.794 6.05966 119.891 7.00098C119.988 7.9423 120.314 8.84537 120.842 9.63075C121.37 10.4161 122.082 11.0598 122.917 11.505C123.752 11.9502 124.683 12.1835 125.629 12.1842H159.737C160.683 12.1835 161.614 11.9502 162.449 11.505C163.284 11.0597 163.996 10.4161 164.524 9.63074C165.052 8.84536 165.378 7.9423 165.475 7.00098C165.572 6.05966 165.437 5.10893 165.08 4.23242H172.85C176.071 4.23248 179.161 5.51254 181.439 7.79102C183.717 10.0695 184.996 13.1598 184.996 16.382Z" fill="white"/>
<path d="M116.218 18.5137C114.041 18.5137 111.953 19.3787 110.414 20.9186C108.874 22.4584 108.009 24.5469 108.009 26.7245C108.009 28.9022 108.874 30.9907 110.414 32.5305C111.953 34.0704 114.041 34.9355 116.218 34.9355C118.395 34.9355 120.483 34.0704 122.022 32.5306C123.562 30.9907 124.427 28.9022 124.427 26.7246C124.427 24.5469 123.562 22.4584 122.022 20.9186C120.483 19.3787 118.395 18.5137 116.218 18.5137Z" fill="#E6E6E6"/>
<path d="M175.818 33.6523H132.722C132.178 33.6523 131.656 33.4361 131.271 33.0511C130.886 32.6661 130.67 32.144 130.67 31.5996C130.67 31.0552 130.886 30.5331 131.271 30.1481C131.656 29.7631 132.178 29.5469 132.722 29.5469H175.818C176.362 29.5469 176.884 29.7631 177.269 30.1481C177.654 30.5331 177.87 31.0552 177.87 31.5996C177.87 32.144 177.654 32.6661 177.269 33.0511C176.884 33.4361 176.362 33.6523 175.818 33.6523Z" fill="#E6E6E6"/>
<path d="M146.318 24.9277H132.722C132.178 24.9277 131.656 24.7115 131.271 24.3265C130.886 23.9415 130.67 23.4194 130.67 22.875C130.67 22.3306 130.886 21.8085 131.271 21.4235C131.656 21.0385 132.178 20.8223 132.722 20.8223H146.318C146.862 20.8223 147.384 21.0385 147.769 21.4235C148.154 21.8085 148.37 22.3306 148.37 22.875C148.37 23.4194 148.154 23.9415 147.769 24.3265C147.384 24.7115 146.862 24.9277 146.318 24.9277Z" fill="#E6E6E6"/>
<path d="M116.218 52.8965C114.041 52.8965 111.953 53.7615 110.414 55.3014C108.874 56.8412 108.009 58.9297 108.009 61.1074C108.009 63.285 108.874 65.3735 110.414 66.9134C111.953 68.4532 114.041 69.3183 116.218 69.3183C118.395 69.3183 120.483 68.4532 122.022 66.9134C123.562 65.3735 124.427 63.2851 124.427 61.1074C124.427 58.9297 123.562 56.8412 122.022 55.3014C120.483 53.7616 118.395 52.8965 116.218 52.8965Z" fill="#E6E6E6"/>
<path d="M175.818 68.0351H132.722C132.178 68.0351 131.656 67.8189 131.271 67.4339C130.886 67.049 130.67 66.5268 130.67 65.9824C130.67 65.438 130.886 64.9159 131.271 64.5309C131.656 64.146 132.178 63.9297 132.722 63.9297H175.818C176.362 63.9297 176.884 64.146 177.269 64.5309C177.654 64.9159 177.87 65.438 177.87 65.9824C177.87 66.5268 177.654 67.049 177.269 67.4339C176.884 67.8189 176.362 68.0351 175.818 68.0351Z" fill="#E6E6E6"/>
<path d="M146.318 59.3115H132.722C132.178 59.3115 131.656 59.0952 131.271 58.7103C130.886 58.3253 130.67 57.8032 130.67 57.2588C130.67 56.7144 130.886 56.1922 131.271 55.8073C131.656 55.4223 132.178 55.2061 132.722 55.2061H146.318C146.862 55.2061 147.384 55.4223 147.769 55.8073C148.154 56.1922 148.37 56.7144 148.37 57.2588C148.37 57.8032 148.154 58.3253 147.769 58.7103C147.384 59.0952 146.862 59.3115 146.318 59.3115Z" fill="#E6E6E6"/>
<path d="M116.218 121.663C114.041 121.663 111.953 122.528 110.414 124.068C108.874 125.608 108.009 127.696 108.009 129.874C108.009 132.052 108.874 134.14 110.414 135.68C111.953 137.22 114.041 138.085 116.218 138.085C118.395 138.085 120.483 137.22 122.022 135.68C123.562 134.14 124.427 132.052 124.427 129.874C124.427 127.696 123.562 125.608 122.022 124.068C120.483 122.528 118.395 121.663 116.218 121.663Z" fill="#E6E6E6"/>
<path d="M175.818 136.802H132.722C132.178 136.802 131.656 136.585 131.271 136.201C130.886 135.816 130.67 135.293 130.67 134.749C130.67 134.205 130.886 133.682 131.271 133.298C131.656 132.913 132.178 132.696 132.722 132.696H175.818C176.362 132.696 176.884 132.913 177.269 133.298C177.654 133.682 177.87 134.205 177.87 134.749C177.87 135.293 177.654 135.816 177.269 136.201C176.884 136.585 176.362 136.802 175.818 136.802Z" fill="#E6E6E6"/>
<path d="M146.318 128.078H132.722C132.178 128.078 131.656 127.862 131.271 127.477C130.886 127.092 130.67 126.57 130.67 126.025C130.67 125.481 130.886 124.959 131.271 124.574C131.656 124.189 132.178 123.973 132.722 123.973H146.318C146.862 123.973 147.384 124.189 147.769 124.574C148.154 124.959 148.37 125.481 148.37 126.025C148.37 126.57 148.154 127.092 147.769 127.477C147.384 127.862 146.862 128.078 146.318 128.078Z" fill="#E6E6E6"/>
<path d="M116.218 156.046C114.041 156.046 111.953 156.911 110.414 158.451C108.874 159.991 108.009 162.079 108.009 164.257C108.009 166.434 108.874 168.523 110.414 170.063C111.953 171.603 114.041 172.468 116.218 172.468C118.395 172.468 120.483 171.603 122.022 170.063C123.562 168.523 124.427 166.434 124.427 164.257C124.427 162.079 123.562 159.991 122.022 158.451C120.483 156.911 118.395 156.046 116.218 156.046Z" fill="#E6E6E6"/>
<path d="M175.818 171.185H132.722C132.178 171.185 131.656 170.968 131.271 170.583C130.886 170.198 130.67 169.676 130.67 169.132C130.67 168.587 130.886 168.065 131.271 167.68C131.656 167.295 132.178 167.079 132.722 167.079H175.818C176.362 167.079 176.884 167.295 177.269 167.68C177.654 168.065 177.87 168.587 177.87 169.132C177.87 169.676 177.654 170.198 177.269 170.583C176.884 170.968 176.362 171.185 175.818 171.185Z" fill="#E6E6E6"/>
<path d="M146.318 162.461H132.722C132.178 162.461 131.656 162.245 131.271 161.86C130.886 161.475 130.67 160.953 130.67 160.408C130.67 159.864 130.886 159.342 131.271 158.957C131.656 158.572 132.178 158.355 132.722 158.355H146.318C146.862 158.355 147.384 158.572 147.769 158.957C148.154 159.342 148.37 159.864 148.37 160.408C148.37 160.953 148.154 161.475 147.769 161.86C147.384 162.245 146.862 162.461 146.318 162.461Z" fill="#E6E6E6"/>
<path d="M192.448 115.248H93.4309C92.3087 115.246 91.2328 114.8 90.4393 114.006C89.6459 113.213 89.1995 112.136 89.1982 111.014V79.1966C89.1995 78.0742 89.6459 76.998 90.4394 76.2043C91.2328 75.4106 92.3087 74.9642 93.4309 74.9629H192.448C193.57 74.9642 194.646 75.4106 195.44 76.2043C196.233 76.998 196.68 78.0742 196.681 79.1966V111.014C196.68 112.136 196.233 113.213 195.44 114.006C194.646 114.8 193.57 115.246 192.448 115.248Z" fill="white"/>
<path d="M105.591 106.839C103.271 106.839 101.003 106.151 99.0744 104.861C97.1454 103.572 95.642 101.74 94.7542 99.5959C93.8664 97.452 93.6341 95.0929 94.0867 92.817C94.5393 90.541 95.6565 88.4504 97.2969 86.8095C98.9373 85.1687 101.027 84.0512 103.303 83.5985C105.578 83.1458 107.937 83.3781 110.08 84.2662C112.223 85.1542 114.055 86.658 115.344 88.5875C116.633 90.517 117.321 92.7854 117.321 95.1059C117.317 98.2166 116.08 101.199 113.881 103.398C111.682 105.598 108.701 106.835 105.591 106.839ZM105.591 83.8862C103.373 83.8862 101.204 84.5443 99.3594 85.7771C97.5148 87.0099 96.0772 88.7622 95.2282 90.8124C94.3792 92.8625 94.1571 95.1184 94.5899 97.2948C95.0227 99.4712 96.091 101.47 97.6597 103.039C99.2284 104.609 101.227 105.677 103.403 106.11C105.579 106.543 107.834 106.321 109.884 105.472C111.933 104.622 113.685 103.184 114.917 101.339C116.15 99.4942 116.808 97.325 116.808 95.1059C116.804 92.1313 115.622 89.2795 113.519 87.1761C111.416 85.0727 108.565 83.8896 105.591 83.8862Z" fill="#3F3D56"/>
<path d="M188.893 104.789H128.659C128.282 104.789 127.908 104.715 127.56 104.571C127.212 104.427 126.895 104.216 126.629 103.95C126.362 103.683 126.151 103.367 126.006 103.018C125.862 102.67 125.788 102.297 125.788 101.92C125.788 101.543 125.862 101.17 126.006 100.821C126.151 100.473 126.362 100.157 126.629 99.8902C126.895 99.6237 127.212 99.4124 127.56 99.2684C127.908 99.1244 128.282 99.0504 128.659 99.0508H188.893C189.27 99.0504 189.643 99.1244 189.992 99.2684C190.34 99.4124 190.656 99.6237 190.923 99.8902C191.19 100.157 191.401 100.473 191.546 100.821C191.69 101.17 191.764 101.543 191.764 101.92C191.764 102.297 191.69 102.67 191.546 103.018C191.401 103.367 191.19 103.683 190.923 103.95C190.656 104.216 190.34 104.427 189.992 104.571C189.643 104.715 189.27 104.789 188.893 104.789Z" fill="#6C63FF"/>
<path d="M147.661 92.5956H128.659C128.282 92.5959 127.908 92.522 127.56 92.378C127.212 92.2339 126.895 92.0227 126.629 91.7562C126.362 91.4898 126.151 91.1734 126.006 90.8251C125.862 90.4768 125.788 90.1035 125.788 89.7265C125.788 89.3495 125.862 88.9762 126.006 88.6279C126.151 88.2797 126.362 87.9633 126.629 87.6968C126.895 87.4303 127.212 87.2191 127.56 87.075C127.908 86.931 128.282 86.8571 128.659 86.8574H147.661C148.038 86.8571 148.411 86.931 148.76 87.075C149.108 87.2191 149.425 87.4303 149.691 87.6968C149.958 87.9633 150.169 88.2797 150.314 88.6279C150.458 88.9762 150.532 89.3495 150.532 89.7265C150.532 90.1035 150.458 90.4768 150.314 90.8251C150.169 91.1734 149.958 91.4898 149.691 91.7562C149.425 92.0227 149.108 92.2339 148.76 92.378C148.411 92.522 148.038 92.5959 147.661 92.5956Z" fill="#6C63FF"/>
<path d="M192.448 115.248H93.4309C92.3087 115.246 91.2328 114.8 90.4393 114.006C89.6459 113.213 89.1995 112.136 89.1982 111.014V79.1966C89.1995 78.0742 89.6459 76.998 90.4394 76.2043C91.2328 75.4106 92.3087 74.9642 93.4309 74.9629H192.448C193.57 74.9642 194.646 75.4106 195.44 76.2043C196.233 76.998 196.68 78.0742 196.681 79.1966V111.014C196.68 112.136 196.233 113.213 195.44 114.006C194.646 114.8 193.57 115.246 192.448 115.248ZM93.4309 75.2195C92.3767 75.2207 91.3661 75.6401 90.6207 76.3857C89.8752 77.1313 89.456 78.1422 89.4548 79.1966V111.014C89.456 112.068 89.8752 113.079 90.6207 113.825C91.3661 114.57 92.3767 114.99 93.4309 114.991H192.448C193.502 114.99 194.513 114.57 195.258 113.825C196.004 113.079 196.423 112.068 196.424 111.014V79.1966C196.423 78.1422 196.004 77.1313 195.258 76.3857C194.513 75.6401 193.502 75.2207 192.448 75.2195H93.4309Z" fill="#3F3D56"/>
<path d="M105.383 100.815C108.026 100.815 110.169 98.6722 110.169 96.0287C110.169 93.3852 108.026 91.2422 105.383 91.2422C102.741 91.2422 100.598 93.3852 100.598 96.0287C100.598 98.6722 102.741 100.815 105.383 100.815Z" fill="#2F2E41"/>
<path d="M101.648 93.4483C102.422 92.6748 102.578 91.5775 101.998 90.9974C101.418 90.4173 100.321 90.5741 99.5481 91.3475C98.7748 92.121 98.6181 93.2183 99.1981 93.7984C99.778 94.3785 100.875 94.2218 101.648 93.4483Z" fill="#2F2E41"/>
<path d="M110.371 91.9283C110.693 91.1739 110.139 90.2139 109.134 89.7842C108.128 89.3545 107.052 89.6178 106.729 90.3722C106.407 91.1267 106.961 92.0866 107.967 92.5163C108.973 92.946 110.049 92.6828 110.371 91.9283Z" fill="#2F2E41"/>
<path d="M105.535 101.234C107.778 101.234 109.596 99.4151 109.596 97.1716C109.596 94.9281 107.778 93.1094 105.535 93.1094C103.292 93.1094 101.474 94.9281 101.474 97.1716C101.474 99.4151 103.292 101.234 105.535 101.234Z" fill="#FFB8B8"/>
<path d="M101.268 94.6167C102.196 95.2565 103.298 95.597 104.425 95.5925C104.023 95.8714 103.565 96.0597 103.083 96.1446C104.582 96.4662 106.13 96.4749 107.633 96.1702C107.966 96.1166 108.289 96.006 108.585 95.843C108.733 95.7605 108.861 95.6479 108.963 95.5124C109.064 95.3769 109.135 95.2216 109.173 95.0566C109.273 94.4862 108.828 93.968 108.367 93.6188C107.66 93.0923 106.844 92.7295 105.98 92.5567C105.116 92.384 104.224 92.4055 103.369 92.6199C102.799 92.7345 102.281 93.0276 101.889 93.4565C101.526 93.905 101.419 94.5964 101.764 95.0582L101.268 94.6167Z" fill="#2F2E41"/>
<path d="M45.5927 131.16C45.4739 130.775 45.441 130.369 45.4962 129.97C45.5515 129.57 45.6936 129.188 45.9125 128.85C46.1313 128.512 46.4217 128.225 46.7632 128.012C47.1046 127.798 47.4887 127.661 47.8886 127.612L61.0566 112.221L64.1279 115.446L51.0117 130.204C51.05 130.881 50.8386 131.549 50.4175 132.081C49.9964 132.613 49.3949 132.972 48.727 133.09C48.059 133.208 47.371 133.076 46.7933 132.721C46.2157 132.365 45.7885 131.81 45.5927 131.16Z" fill="#A0616A"/>
<path d="M56.7728 114.624C56.7594 114.459 56.7818 114.293 56.8385 114.137C56.8951 113.981 56.9848 113.839 57.1013 113.721L61.1694 109.595C61.6699 108.909 62.422 108.449 63.2607 108.317C64.0993 108.185 64.9561 108.391 65.643 108.891C66.3299 109.39 66.7909 110.141 66.9247 110.979C67.0586 111.818 66.8544 112.675 66.3571 113.364L63.6521 118.51C63.5749 118.657 63.467 118.785 63.3357 118.887C63.2043 118.988 63.0527 119.06 62.8911 119.097C62.7295 119.135 62.5617 119.137 62.3992 119.104C62.2367 119.07 62.0832 119.003 61.9493 118.905L57.2423 115.464C57.1083 115.366 56.997 115.24 56.916 115.095C56.835 114.95 56.7861 114.79 56.7728 114.624Z" fill="#6C63FF"/>
<path d="M66.3253 105.18C69.805 105.18 72.6258 102.359 72.6258 98.8783C72.6258 95.3977 69.805 92.5762 66.3253 92.5762C62.8457 92.5762 60.0249 95.3977 60.0249 98.8783C60.0249 102.359 62.8457 105.18 66.3253 105.18Z" fill="#A0616A"/>
<path d="M62.8995 127.079C62.7742 126.986 62.6694 126.868 62.5915 126.733C62.5136 126.598 62.4642 126.448 62.4465 126.293C62.0109 122.651 61.377 119.035 60.5476 115.462C60.1804 113.857 60.4085 112.172 61.1894 110.722C61.9703 109.272 63.251 108.155 64.7934 107.579C66.3358 107.002 68.0351 107.005 69.5753 107.588C71.1156 108.17 72.3921 109.292 73.1676 110.745C75.6454 115.396 75.8347 121.782 75.801 124.312C75.7972 124.582 75.6987 124.842 75.5228 125.047C75.3469 125.252 75.1046 125.388 74.8383 125.433L63.7835 127.294C63.7191 127.305 63.6538 127.31 63.5885 127.31C63.3398 127.31 63.098 127.229 62.8995 127.079Z" fill="#2F2E41"/>
<path d="M86.7661 106.56C86.7346 106.698 86.7141 106.839 86.7047 106.981L75.6852 113.34L73.0068 111.797L70.1514 115.536L74.6278 118.728C74.9894 118.985 75.4249 119.119 75.8688 119.108C76.3128 119.097 76.7412 118.943 77.0899 118.668L88.4529 109.701C88.9657 109.891 89.5242 109.92 90.054 109.785C90.5838 109.649 91.0599 109.356 91.4189 108.943C91.7778 108.531 92.0028 108.018 92.0637 107.475C92.1246 106.931 92.0186 106.382 91.7598 105.9C91.5011 105.418 91.1018 105.027 90.6151 104.778C90.1284 104.528 89.5773 104.433 89.0352 104.505C88.4931 104.576 87.9856 104.811 87.5803 105.178C87.175 105.545 86.891 106.027 86.7661 106.56Z" fill="#A0616A"/>
<path d="M75.3166 113.641L71.7552 118.258C71.6538 118.389 71.5254 118.497 71.3786 118.575C71.2317 118.652 71.07 118.697 70.9044 118.706C70.7387 118.715 70.5731 118.688 70.4187 118.627C70.2643 118.567 70.1249 118.473 70.0098 118.354L65.978 114.166C65.3091 113.643 64.8746 112.877 64.7697 112.035C64.6648 111.192 64.8982 110.343 65.4186 109.672C65.939 109.001 66.704 108.565 67.5458 108.457C68.3877 108.35 69.2377 108.581 69.9096 109.1L74.9664 111.928C75.1112 112.009 75.2368 112.12 75.3346 112.254C75.4325 112.388 75.5004 112.542 75.5336 112.704C75.5669 112.867 75.5647 113.035 75.5273 113.196C75.4898 113.358 75.418 113.51 75.3166 113.641Z" fill="#6C63FF"/>
<path d="M80.8692 183.833L84.0141 183.833L84.7544 171.738L80.8687 171.699L80.8692 183.833Z" fill="#A0616A"/>
<path d="M80.0669 182.805L86.2603 182.805H86.2606C86.7789 182.805 87.2921 182.907 87.771 183.105C88.2499 183.304 88.685 183.594 89.0515 183.961C89.418 184.328 89.7087 184.763 89.9071 185.242C90.1054 185.721 90.2075 186.234 90.2075 186.753V186.881L80.0671 186.881L80.0669 182.805Z" fill="#2F2E41"/>
<path d="M50.856 183.832L54.0009 183.832L55.497 171.698L50.8555 171.698L50.856 183.832Z" fill="#A0616A"/>
<path d="M50.0537 182.805L56.2471 182.805H56.2474C56.7657 182.805 57.2789 182.907 57.7578 183.105C58.2367 183.304 58.6718 183.594 59.0383 183.961C59.4048 184.328 59.6956 184.763 59.8939 185.242C60.0923 185.721 60.1943 186.234 60.1943 186.753V186.881L50.0539 186.881L50.0537 182.805Z" fill="#2F2E41"/>
<path d="M54.2838 177.531L50.3808 177.022C50.2177 177.001 50.0611 176.945 49.9214 176.858C49.7816 176.771 49.6621 176.655 49.5707 176.519C49.4793 176.382 49.4181 176.227 49.3914 176.065C49.3646 175.903 49.3728 175.736 49.4155 175.577L55.1087 147.593C55.6746 144.877 56.0662 142.126 56.2811 139.36C56.4473 137.108 57.1061 133.925 59.3009 131.545C60.1935 130.568 61.0265 129.539 61.7955 128.462L63.5188 126.075L74.9987 124.248L75.0066 124.39C75.5025 133.515 77.8719 142.439 81.9672 150.608C83.8094 154.282 84.8668 158.299 85.0721 162.404L85.7226 175.093C85.7308 175.254 85.7052 175.414 85.6477 175.565C85.5901 175.715 85.5018 175.852 85.3884 175.966C85.2754 176.081 85.1393 176.17 84.9892 176.229C84.8391 176.287 84.6783 176.313 84.5174 176.305L80.7863 176.136C80.5334 176.124 80.2913 176.029 80.0973 175.866C79.9033 175.704 79.7681 175.482 79.7124 175.235L76.5972 161.333C76.5692 161.209 76.5154 161.092 76.4394 160.99L66.6632 147.952C66.5935 147.859 66.4998 147.787 66.3921 147.743C66.2845 147.699 66.167 147.685 66.0521 147.703C65.9373 147.721 65.8294 147.769 65.7401 147.844C65.6507 147.918 65.5832 148.015 65.5448 148.125L55.5226 176.767C55.4427 176.993 55.295 177.188 55.0997 177.327C54.9044 177.465 54.671 177.54 54.4316 177.541C54.3822 177.541 54.3328 177.537 54.2838 177.531Z" fill="#2F2E41"/>
<path d="M59.3589 94.5037C59.8594 92.9862 60.2288 91.4285 60.4632 89.8478C60.5368 88.9275 60.3011 87.9373 59.6311 87.3024C58.3772 86.1141 56.2469 86.68 54.9356 87.8046C53.0405 89.43 52.0953 91.9277 51.7381 94.399C51.3809 96.8703 51.5381 99.3834 51.4521 101.879C51.3661 104.374 51.0093 106.94 49.7373 109.089C48.4654 111.238 46.1051 112.887 43.6155 112.704C42.6106 112.65 41.6564 112.245 40.9185 111.561C40.5563 111.216 40.282 110.789 40.1186 110.317C39.9551 109.844 39.9074 109.339 39.9793 108.844C38.7068 111.124 39.3519 114.213 41.2499 116.004C43.1479 117.796 46.0674 118.302 48.5626 117.537C51.0578 116.772 53.1114 114.854 54.3381 112.55C55.5647 110.246 56.0142 107.584 55.9491 104.975C55.8991 102.971 55.5585 100.95 55.8971 98.9744C56.2356 96.9986 57.4719 94.9924 59.4212 94.5271L59.3589 94.5037Z" fill="#2F2E41"/>
<path d="M68.1128 97.1015C68.4452 98.2121 69.7165 98.8969 70.8601 98.7091C72.0037 98.5212 72.9441 97.5792 73.2916 96.4733C73.6058 95.3437 73.4771 94.1369 72.932 93.099C72.6316 92.4768 72.2115 91.9201 71.6957 91.4606C71.18 91.001 70.5787 90.6478 69.9262 90.4209C69.2701 90.2035 68.5714 90.1469 67.8889 90.256C67.2063 90.3651 66.56 90.6366 66.0043 91.0478C65.9451 90.7983 65.8206 90.5691 65.6434 90.3838C65.4662 90.1985 65.2429 90.0637 64.9964 89.9934C64.5 89.8596 63.976 89.8673 63.4838 90.0157C62.0653 90.4201 60.8362 91.3145 60.015 92.5399C59.2042 93.7616 58.6679 95.1445 58.4429 96.5935C58.0559 98.7665 58.1986 101.141 59.4187 102.98C60.6388 104.819 63.1349 105.905 65.1599 105.028C65.2861 104.383 64.987 103.732 64.641 103.173C64.2949 102.613 63.8847 102.068 63.7518 101.424C63.6189 100.78 63.8737 99.9915 64.4968 99.7807C65.0284 99.601 65.5952 99.8922 66.1552 99.9274C66.4732 99.9474 66.7909 99.8833 67.0764 99.7417C67.3619 99.6001 67.6051 99.3859 67.7817 99.1206C67.9583 98.8552 68.0621 98.5481 68.0825 98.23C68.103 97.9119 68.0395 97.594 67.8984 97.3083L68.1128 97.1015Z" fill="#2F2E41"/>
<path d="M235.743 187H0.256522C0.188488 187 0.12324 186.972 0.0751333 186.924C0.0270261 186.876 0 186.811 0 186.743C0 186.675 0.0270261 186.61 0.0751333 186.561C0.12324 186.513 0.188488 186.486 0.256522 186.486H235.743C235.812 186.486 235.877 186.513 235.925 186.561C235.973 186.61 236 186.675 236 186.743C236 186.811 235.973 186.876 235.925 186.924C235.877 186.972 235.812 187 235.743 187Z" fill="#CCCCCC"/>
</g>
<defs>
<clipPath id="clip0_147_1017">
<rect width="236" height="187" fill="white"/>
</clipPath>
</defs>
</svg>
