<svg width="152" height="184" viewBox="0 0 152 184" fill="none" xmlns="http://www.w3.org/2000/svg">
<g clip-path="url(#clip0_5_127)">
<path d="M29.0965 72.1621C28.9207 71.8876 27.8131 70.1581 26.9925 70.3333C25.437 70.6654 26.2808 77.5481 24.0194 78.2345C23.5231 78.3851 22.8246 78.2534 21.2644 78.6701C20.6437 78.8359 20.3219 78.9722 20.222 79.2466C20.0802 79.6359 20.509 79.9632 21.1458 80.912C22.1006 82.335 21.807 82.5983 22.6468 83.6183C23.2702 84.3755 23.7594 84.628 23.6635 84.9602C23.5278 85.4304 22.4605 85.2283 22.2042 85.7673C21.9426 86.3174 22.702 87.268 23.3588 87.8491C24.5914 88.9397 25.8197 89.0449 26.9446 89.4024C28.167 89.7909 29.8388 90.6589 31.5695 92.8293L45.4 111.524C44.2847 111.102 42.1115 110.235 39.147 108.752C36.6465 107.501 34.1676 106.076 31.7787 104.517C30.7486 103.845 29.8484 103.22 29.0397 102.637L29.1218 102.68L28.7267 101.252C28.5751 100.685 28.4758 100.222 28.6861 99.8489C28.8021 99.6496 29.021 99.4438 29.2761 99.2054C29.5685 98.9328 29.9007 98.6241 30.2242 98.1954C30.5241 97.8098 30.5923 97.4659 30.4425 97.1776C30.3917 97.0795 30.325 97.01 30.2546 96.9588C30.335 96.8316 30.4266 96.6814 30.5081 96.5009C30.6807 96.1175 30.723 95.7894 30.7535 95.5451C30.8788 94.563 30.7195 93.9844 30.2783 93.8248C30.0917 93.7576 29.9233 93.7883 29.7824 93.8545C29.7719 93.653 29.7451 93.4159 29.6715 93.1605C29.4348 92.3402 29.1054 91.9244 28.667 91.8902C28.0544 91.8418 27.7454 92.5177 27.3883 93.299C27.2282 93.646 26.8082 94.5705 26.5889 94.5713C26.5617 94.5711 26.4844 94.5545 26.4158 94.5394C26.2279 94.4986 25.9446 94.4371 25.5023 94.4248C25.2543 94.4178 24.8799 94.4069 24.6509 94.7136C24.4469 95.0075 24.5475 95.32 24.6402 95.5697C24.6709 95.6522 24.7076 95.7501 24.7444 95.8688C24.8285 96.1395 24.8425 96.2854 24.8563 96.4269C24.8742 96.611 24.8927 96.8021 25.0248 97.1166C25.036 97.1421 25.0462 97.1659 25.0566 97.1893C24.9325 97.2176 24.8024 97.2775 24.6931 97.3988C24.2817 97.8458 24.6655 98.586 24.8482 98.8805C25.1767 99.4077 25.5931 99.6609 25.9279 99.8646C26.0124 99.916 26.0954 99.9665 26.1756 100.021C26.591 100.304 26.9356 100.732 27.2117 101.282C26.8851 101.034 26.5728 100.795 26.2797 100.57C25.2299 99.763 24.2428 98.9768 23.2806 98.2107C22.2911 97.4226 21.3222 96.6513 20.3365 95.8989L20.3986 95.6284L20.1605 95.7665C18.6061 94.5861 17.0052 93.4523 15.2078 92.3767C15.1342 92.3326 15.047 92.281 14.9572 92.2284L14.8716 91.9191C14.72 91.3517 14.6207 90.8884 14.831 90.5156C14.947 90.3163 15.1659 90.1105 15.421 89.8722C15.7134 89.5995 16.0456 89.2908 16.3691 88.8621C16.669 88.4765 16.7372 88.1326 16.5874 87.8444C16.5366 87.7463 16.4699 87.6767 16.3995 87.6255C16.4799 87.4983 16.5715 87.3482 16.653 87.1677C16.8256 86.7842 16.8679 86.4561 16.8984 86.2118C17.0237 85.2297 16.8644 84.6511 16.4232 84.4915C16.2367 84.4243 16.0683 84.455 15.9273 84.5212C15.9169 84.3197 15.89 84.0826 15.8164 83.8272C15.5797 83.007 15.2503 82.5912 14.8119 82.5569C14.1993 82.5085 13.8903 83.1845 13.5332 83.9657C13.3731 84.3127 12.9531 85.2372 12.7338 85.2381C12.7066 85.2378 12.6293 85.2212 12.5607 85.2061C12.3728 85.1653 12.0895 85.1038 11.6472 85.0915C11.3992 85.0845 11.0249 85.0737 10.7958 85.3803C10.5918 85.6743 10.6924 85.9867 10.7851 86.2365C10.8159 86.3189 10.8525 86.4168 10.8894 86.5355C10.9734 86.8062 10.9874 86.9522 11.0012 87.0936C11.0191 87.2777 11.0376 87.4688 11.1697 87.7833C11.1809 87.8088 11.1911 87.8326 11.2015 87.856C11.0774 87.8844 10.9473 87.9442 10.838 88.0655C10.4266 88.5125 10.8104 89.2527 10.9931 89.5473C11.3217 90.0744 11.738 90.3276 12.0728 90.5313C12.1573 90.5828 12.2403 90.6332 12.3205 90.6877C12.5553 90.8474 12.7665 91.0557 12.9577 91.3022C12.348 91.0968 11.644 90.9276 10.8501 90.855C9.90143 90.7684 8.94026 90.8323 7.98216 91.0408C7.97544 90.9687 7.96884 90.8979 7.96148 90.8194C7.88004 89.9394 7.82045 89.5743 7.51674 89.2321C7.3693 89.065 7.14345 88.8812 6.49778 88.6713C5.60283 88.3802 4.83628 88.3362 4.62206 88.3296C3.55218 88.2991 2.6281 88.273 1.78912 88.9174C1.62904 89.0395 1.14288 89.4094 0.876028 90.0619C0.73943 90.392 0.714799 90.6599 0.69503 90.8754C0.674171 91.1006 0.661032 91.2496 0.534403 91.4581C0.454477 91.591 0.358322 91.6993 0.281905 91.7865C0.134331 91.9613 -0.143054 92.2812 0.0894214 92.6284C0.145288 92.7125 0.215896 92.7715 0.296146 92.8114C0.253561 93.106 0.279528 93.4107 0.425655 93.6867C0.55658 93.9349 0.782247 94.1011 1.39023 94.3976C2.32051 94.8517 3.07025 95.0728 3.21914 95.1146C4.1841 95.3878 4.66797 95.5248 5.18666 95.5051C6.29042 95.4611 7.09225 95.1193 7.56974 94.4886C7.59382 94.4578 7.6161 94.4264 7.63741 94.3949C7.9721 93.8995 8.00835 93.3811 8.06618 92.5555C8.07712 92.3962 8.07387 92.2124 8.05988 91.9783C8.96493 91.7682 9.87189 91.6966 10.7646 91.7782C12.697 91.955 14.0702 92.7768 14.7297 93.1719C16.3722 94.1548 17.853 95.1925 19.289 96.2718L19.1159 96.3722C18.6047 96.6625 18.1811 96.8759 17.7666 96.7674C17.5442 96.7059 17.2892 96.5466 16.9937 96.3607C16.6554 96.1474 16.2722 95.9048 15.7748 95.7011C15.3253 95.5093 14.9748 95.5306 14.7336 95.7484C14.6515 95.8223 14.601 95.9044 14.5692 95.9854C14.4257 95.94 14.257 95.8896 14.0615 95.8567C13.6463 95.7872 13.3177 95.8296 13.0733 95.8621C12.0902 95.9902 11.5702 96.2908 11.5275 96.7575C11.5097 96.9547 11.5821 97.1096 11.682 97.2289C11.4895 97.2901 11.2666 97.3762 11.0379 97.512C10.3034 97.9487 9.98417 98.3724 10.0622 98.8046C10.1707 99.4086 10.9038 99.5356 11.7511 99.6824C12.1279 99.749 13.13 99.9202 13.1864 100.132C13.193 100.158 13.1966 100.237 13.1994 100.307C13.2075 100.499 13.2198 100.788 13.3201 101.219C13.3762 101.46 13.4606 101.824 13.8158 101.968C14.1523 102.09 14.4294 101.914 14.6478 101.761C14.7199 101.71 14.8054 101.65 14.911 101.584C15.1519 101.435 15.2898 101.384 15.4233 101.335C15.5971 101.271 15.7775 101.204 16.0486 100.997C16.0705 100.98 16.091 100.964 16.111 100.948C16.1699 101.061 16.2609 101.171 16.4061 101.246C16.9435 101.53 17.5631 100.971 17.8021 100.72C18.2294 100.269 18.369 99.8027 18.4814 99.4276C18.5098 99.333 18.5376 99.24 18.5702 99.1487C18.7745 98.5746 19.201 98.0436 19.8384 97.57L19.9762 97.4676L20.1079 96.8941C20.9731 97.5605 21.8298 98.2409 22.7022 98.9356C23.6677 99.7051 24.6593 100.494 25.7134 101.304C27.111 102.378 28.8498 103.714 31.2715 105.294C33.6894 106.872 36.1989 108.314 38.7315 109.581C40.987 110.709 42.7934 111.486 44.0329 111.985C40.4211 112.227 35.4249 112.513 33.167 112.554C32.289 112.569 31.3844 112.556 30.7395 111.949C30.1187 111.365 29.8135 110.302 28.9103 109.192C28.8048 109.062 28.5065 108.705 28.2425 108.768C28.0243 108.82 28.0282 109.112 27.8252 109.164C27.5528 109.233 27.3247 108.764 26.761 108.323C26.3635 108.013 26.0013 107.873 25.6898 107.754C25.5959 107.718 24.1885 107.187 23.9301 107.573C23.7359 107.863 24.3583 108.419 24.1735 108.664C23.9894 108.908 23.3073 108.441 22.2781 108.48C22.0925 108.487 20.9229 108.53 20.7723 108.983C20.4866 109.841 24.113 111.414 23.7978 112.72C23.7287 113.007 23.4624 113.311 23.217 114.196C23.1194 114.548 23.0936 114.745 23.1996 114.873C23.3501 115.055 23.6346 114.939 24.2847 114.901C25.2596 114.844 25.3043 115.064 26.0479 114.946C26.6 114.859 26.8652 114.692 27.0008 114.835C27.1928 115.037 26.7855 115.502 26.9765 115.783C27.1714 116.07 27.8577 115.972 28.3328 115.818C29.2245 115.529 29.6306 114.957 30.1308 114.509C30.6745 114.022 31.5835 113.453 33.1496 113.231L44.2351 112.066C44.8832 112.324 45.3607 112.5 45.6389 112.603C45.787 112.657 45.8821 112.691 45.9215 112.709L46.0683 112.427L46.2328 112.65C46.1818 112.577 46.1258 112.497 46.0719 112.42L46.1344 112.3L46.559 112.112C46.5019 111.982 46.4393 111.926 46.2699 111.852L47.1221 111.763C46.8644 111.784 46.5542 111.807 46.2227 111.832C46.1529 111.804 46.0672 111.772 45.96 111.733C45.8352 111.687 45.666 111.624 45.4633 111.548C42.1012 106.707 35.1859 96.4507 32.6118 92.2528C31.8064 90.9393 31.0216 89.5594 31.3674 88.0444C31.7002 86.5859 33.0409 85.1779 33.9203 82.8239C34.023 82.549 34.2991 81.7801 33.9684 81.4371C33.695 81.1536 33.2558 81.4194 32.9966 81.1585C32.6489 80.8085 33.1567 80.0461 33.3237 78.8013C33.4414 77.9235 33.3299 77.2521 33.2339 76.6747C33.205 76.5006 32.7564 73.9005 31.9414 73.8531C31.3291 73.8175 31.0405 75.2532 30.5045 75.1918C29.9704 75.1307 30.0711 73.6839 29.0965 72.1621Z" fill="#F2F2F2"/>
<path d="M142.393 132.611L43.391 118.946C40.0775 118.489 37.3428 116.119 36.4235 112.907L13.6853 33.4354C12.9149 30.7419 13.4901 27.9528 15.2635 25.7827C17.0369 23.6125 19.6571 22.491 22.4549 22.7042L122.199 30.3353C125.808 30.6113 128.837 33.1488 129.738 36.6491L151.733 122.154C152.435 124.882 151.733 127.766 149.855 129.869C148.238 131.679 145.945 132.69 143.555 132.69C143.17 132.69 142.781 132.664 142.393 132.611Z" fill="#E6E6E6"/>
<path d="M117.358 114.832L85.9567 110.498C84.9058 110.353 84.0384 109.601 83.7468 108.582L76.5348 83.3758C76.2904 82.5214 76.4728 81.6368 77.0353 80.9485C77.5978 80.2602 78.4289 79.9044 79.3163 79.9721L110.953 82.3925C112.097 82.48 113.058 83.2849 113.344 84.3951L120.32 111.515C120.543 112.381 120.32 113.295 119.725 113.962C119.212 114.536 118.485 114.857 117.726 114.857C117.604 114.857 117.481 114.849 117.358 114.832Z" fill="white"/>
<path d="M114.549 44.8992L56.2572 39.5411C54.7876 39.4061 53.6439 38.7316 53.7079 38.0378C53.7718 37.344 55.0196 36.8896 56.4892 37.0247L114.781 42.3828C116.25 42.5178 117.393 43.192 117.329 43.8858C117.265 44.5796 116.018 45.0343 114.549 44.8992Z" fill="white"/>
<path d="M117.727 60.1987L59.4358 54.8406C57.9662 54.7055 56.8225 54.0311 56.8865 53.3372C56.9504 52.6434 58.1982 52.189 59.6678 52.3241L117.959 57.6822C119.429 57.8173 120.572 58.4914 120.508 59.1853C120.444 59.8791 119.197 60.3338 117.727 60.1987Z" fill="white"/>
<path d="M118.85 73.5335L60.5584 68.1754C59.0888 68.0403 57.9451 67.3658 58.009 66.672C58.073 65.9782 59.3208 65.5238 60.7903 65.6589L119.082 71.017C120.551 71.1521 121.694 71.8262 121.63 72.52C121.567 73.2139 120.319 73.6685 118.85 73.5335Z" fill="white"/>
<path d="M83.7262 67.0923C85.1893 65.5005 87.1978 64.9641 88.2121 65.8941C89.2264 66.8241 88.8624 68.868 87.3986 70.4602C86.8225 71.1042 86.1005 71.6011 85.2927 71.9094L79.0081 78.5758L75.9382 75.5641L82.4596 69.3119C82.6982 68.4817 83.1325 67.7206 83.7262 67.0923Z" fill="#FFB6B6"/>
<path d="M47.8968 68.5758C47.8968 68.5758 51.5692 65.2216 55.9638 68.1502C60.3584 71.0787 70.5922 78.5697 70.5922 78.5697L77.763 69.6886L83.4137 74.8031C83.4137 74.8031 73.4464 92.3347 67.0067 88.4762C60.5671 84.6178 46.191 73.6031 46.8438 71.3241C47.4965 69.0451 47.8968 68.5758 47.8968 68.5758Z" fill="#6C63FF"/>
<path d="M75.0894 150.397L69.2383 161.284L64.4193 155.461L69.9629 147.98L75.0894 150.397Z" fill="#FFB6B6"/>
<path d="M71.3057 159.779L68.83 173.137C68.83 173.137 67.1683 177.77 64.4974 173.064C61.8264 168.359 56.9901 158.623 59.7705 156.839C62.551 155.055 65.909 153.613 65.909 153.613L71.3057 159.779Z" fill="#2F2E41"/>
<path d="M78.5425 162.254L84.7156 173.35L76.9992 174.274L73.604 165.336L78.5425 162.254Z" fill="#FFB6B6"/>
<path d="M45.8251 61.7741C45.8251 61.7741 45.2078 67.9385 44.2818 68.5549C43.3558 69.1714 55.0896 68.5549 55.0896 68.5549L51.6895 61.7741H45.8251Z" fill="#FFB6B6"/>
<path d="M58.4776 70.4091L54.1588 67.0139H43.5989L36.5654 72.87L41.0409 93.6748L38.8803 103.846L66.3506 104.771L61.4121 95.5241C61.4121 95.5241 67.2766 89.3598 65.4247 85.3529C63.5727 81.3461 58.4776 70.4091 58.4776 70.4091Z" fill="#6C63FF"/>
<path d="M63.5726 102.305L67.5851 104.462C67.5851 104.462 89.191 124.805 87.339 130.969C85.4871 137.134 73.1409 154.702 73.1409 154.702L67.2765 151.62L75.9188 132.819L59.4058 116.329L68.27 131.933L80.8573 164.873L73.4496 167.956L54.313 129.428C54.313 129.428 38.5716 118.641 37.6456 111.86C36.7196 105.079 38.8802 103.846 38.8802 103.846L63.5726 102.305Z" fill="#2F2E41"/>
<path d="M84.5612 170.73L94.7468 180.284C94.7468 180.284 97.8334 184.291 92.2776 183.983C86.7218 183.675 75.6102 182.442 75.6102 179.052C75.6102 175.661 76.2275 171.963 76.2275 171.963L84.5612 170.73Z" fill="#2F2E41"/>
<path d="M48.9116 63.3152C52.8323 63.3152 56.0106 60.1413 56.0106 56.2262C56.0106 52.311 52.8323 49.1371 48.9116 49.1371C44.9909 49.1371 41.8125 52.311 41.8125 56.2262C41.8125 60.1413 44.9909 63.3152 48.9116 63.3152Z" fill="#FFB6B6"/>
<path d="M79.7079 84.5124L73.8573 102.305C73.7014 102.779 73.2962 103.129 72.8038 103.214L61.615 105.158C60.6117 105.332 59.7826 104.378 60.0961 103.411L65.9389 85.3765C66.0966 84.8898 66.5161 84.5337 67.0226 84.4568L78.219 82.7554C79.216 82.6039 80.0225 83.5557 79.7079 84.5124Z" fill="white"/>
<path d="M61.3777 105.486C60.9015 105.486 60.4492 105.283 60.1286 104.914C59.7436 104.472 59.6216 103.874 59.8023 103.316L65.6452 85.2816C65.8403 84.6799 66.3503 84.2471 66.9763 84.1523L78.1726 82.4507C78.7469 82.3632 79.3151 82.576 79.691 83.0193C80.0666 83.4627 80.1826 84.0569 80.0011 84.6086L74.1506 102.401C73.9587 102.985 73.463 103.413 72.8569 103.518L61.668 105.461C61.5708 105.478 61.4737 105.486 61.3777 105.486ZM78.4253 83.0479C78.3724 83.0479 78.3189 83.0518 78.2654 83.06L67.069 84.7615C66.6755 84.8211 66.3551 85.0932 66.2327 85.4712L60.405 103.459C60.2981 103.789 60.333 104.16 60.5384 104.44C60.7785 104.767 61.1691 104.921 61.5622 104.854L66.052 104.074C70.5551 103.292 74.2593 100.094 75.6852 95.758L79.4036 84.45C79.4972 84.1652 79.4856 83.8477 79.3377 83.5869C79.1431 83.2437 78.796 83.0479 78.4253 83.0479Z" fill="#3F3D56"/>
<path d="M62.6283 98.3735C64.7905 98.4534 66.5019 99.6323 66.4507 101.006C66.3996 102.381 64.6054 103.429 62.4424 103.349C61.5779 103.329 60.7309 103.102 59.9721 102.688L50.8148 102.234L51.1199 97.9471L60.1149 98.85C60.9026 98.493 61.7644 98.3296 62.6283 98.3735Z" fill="#FFB6B6"/>
<path d="M38.2629 72.0995C38.2629 72.0995 43.2014 72.7159 43.8187 77.9556C44.436 83.1954 45.362 95.8324 45.362 95.8324L56.7822 95.5241L56.5477 103.136C56.5477 103.136 36.7196 106.928 35.485 99.531C34.2504 92.1337 33.3244 74.0629 35.485 73.0812C37.6456 72.0995 38.2629 72.0995 38.2629 72.0995Z" fill="#6C63FF"/>
<path d="M102.392 22.6277L99.8519 21.4261C100.894 22.8781 101.792 25.1457 102.272 26.9502C103.086 25.2693 104.398 23.2127 105.696 21.9842L103.012 22.6739C104.666 14.5776 110.888 8.76525 118.014 8.76525L118.114 8.47281C110.672 8.47281 104.081 14.2046 102.392 22.6277Z" fill="#3F3D56"/>
<path d="M114.084 34.9639H98.0337C97.3529 34.9639 96.7991 34.4108 96.7991 33.731C96.7991 33.0512 97.3529 32.4981 98.0337 32.4981H114.084C114.765 32.4981 115.318 33.0512 115.318 33.731C115.318 34.4108 114.765 34.9639 114.084 34.9639Z" fill="#6C63FF"/>
<path d="M77.5979 87.2632L67.0728 88.1488C66.8075 88.1711 66.5734 87.9737 66.551 87.7087C66.5287 87.4438 66.7264 87.2101 66.9917 87.1878L77.5168 86.3021C77.7821 86.2798 78.0161 86.4771 78.0385 86.7421C78.0609 87.0071 77.8632 87.2408 77.5979 87.2632Z" fill="#3F3D56"/>
<path d="M76.672 90.3454L66.1469 91.231C65.8816 91.2533 65.6475 91.0559 65.6251 90.7909C65.6028 90.526 65.8005 90.2923 66.0658 90.27L76.5909 89.3843C76.8562 89.362 77.0902 89.5593 77.1126 89.8243C77.135 90.0893 76.9373 90.323 76.672 90.3454Z" fill="#3F3D56"/>
<path d="M75.746 93.4276L65.2209 94.3132C64.9556 94.3355 64.7215 94.1381 64.6991 93.8731C64.6768 93.6082 64.8745 93.3745 65.1398 93.3522L75.6649 92.4665C75.9302 92.4442 76.1642 92.6415 76.1866 92.9065C76.2089 93.1715 76.0113 93.4052 75.746 93.4276Z" fill="#3F3D56"/>
<path d="M47.0116 58.7751L51.978 53.0807L51.1501 50.6789L53.8162 53.2088L55.1924 52.8355C55.1924 52.8355 55.1805 47.9591 51.2811 47.7388C47.3818 47.5185 44.5847 47.9287 44.5847 47.9287C44.5847 47.9287 39.0094 49.6734 38.7914 51.0105C38.5734 52.3476 35.4499 54.1243 35.4499 54.1243C35.4499 54.1243 32.7399 56.1375 34.0067 59.5116C35.2736 62.8858 38.1645 67.0975 36.1634 69.1506C34.1623 71.2038 31.3345 72.7841 32.7123 73.5722C34.0901 74.3603 36.5754 70.6654 38.8388 72.1427C41.1022 73.62 44.9268 79.5535 48.5144 76.4891C52.1019 73.4247 52.7653 69.8755 52.7653 69.8755L47.0399 64.2252C47.0399 64.2252 43.5711 58.3169 47.0116 58.7751Z" fill="#2F2E41"/>
<path d="M125.939 1.42457H110.337C109.944 1.42457 109.624 1.10498 109.624 0.712209C109.624 0.319438 109.944 0 110.337 0H125.939C126.332 0 126.652 0.319442 126.652 0.712212C126.652 1.10498 126.332 1.42457 125.939 1.42457Z" fill="#FBFBFB"/>
<path d="M134.311 9.02418H101.966C101.572 9.02418 101.252 8.70459 101.252 8.31182C101.252 7.91905 101.572 7.59961 101.966 7.59961H134.311C134.704 7.59961 135.024 7.91905 135.024 8.31182C135.024 8.70459 134.704 9.02418 134.311 9.02418Z" fill="#FBFBFB"/>
</g>
<defs>
<clipPath id="clip0_5_127">
<rect width="152" height="184" fill="white"/>
</clipPath>
</defs>
</svg>
