<svg width="1174" height="1043" viewBox="0 0 1174 1043" fill="none" xmlns="http://www.w3.org/2000/svg">
<ellipse cx="43.1821" cy="41.039" rx="43.1821" ry="41.039" transform="matrix(0.378456 0.925619 -0.909197 0.416367 292.144 43)" fill="url(#paint0_linear_148_5134)"/>
<ellipse cx="139.346" cy="134.082" rx="139.346" ry="134.082" transform="matrix(0.495484 0.868617 -0.84269 0.538399 132.98 61.582)" fill="url(#paint1_linear_148_5134)"/>
<ellipse cx="77.6531" cy="81.1752" rx="77.6531" ry="81.1752" transform="matrix(0.998995 -0.0448163 0.0400212 0.999199 702 221.96)" fill="url(#paint2_linear_148_5134)"/>
<ellipse cx="81.505" cy="77.4017" rx="81.505" ry="77.4017" transform="matrix(0.370282 -0.928919 0.913125 0.40768 224 857.423)" fill="url(#paint3_linear_148_5134)"/>
<ellipse cx="112.716" cy="107.041" rx="112.716" ry="107.041" transform="matrix(-0.701958 -0.712218 0.740123 -0.672472 28.248 959.451)" fill="url(#paint4_linear_148_5134)"/>
<ellipse cx="1039.32" cy="683.422" rx="57.4221" ry="53.3223" transform="rotate(-90 1039.32 683.422)" fill="url(#paint5_linear_148_5134)"/>
<ellipse cx="73.3794" cy="73.045" rx="73.3794" ry="73.045" transform="matrix(0.765525 -0.643406 0.600203 0.799848 -157 886.426)" fill="url(#paint6_linear_148_5134)"/>
<ellipse cx="104.674" cy="97.3349" rx="104.674" ry="97.3349" transform="matrix(-0.518366 -0.855159 0.861537 -0.507694 963.519 1117.86)" fill="url(#paint7_linear_148_5134)"/>
<rect width="11.2914" height="63.8854" rx="5.6457" transform="matrix(-0.576613 0.817017 -0.784291 -0.620393 181.528 692.152)" fill="#2C334B"/>
<rect width="15.6467" height="93.3822" rx="7.82334" transform="matrix(-0.901705 -0.432353 0.393842 -0.919178 1137.11 433.6)" fill="#2C334B"/>
<rect width="15.995" height="91.4136" rx="7.99752" transform="matrix(-0.525794 -0.850612 0.879026 -0.476773 137.41 1056.19)" fill="#2C334B"/>
<rect width="37.0757" height="189.821" rx="18.5378" transform="matrix(-0.837653 0.546202 -0.592348 -0.805682 672.442 36.7822)" fill="#2C334B"/>
<rect width="15.6624" height="52.8538" rx="7.83119" transform="matrix(-0.901705 -0.432353 0.393842 -0.919178 758.38 836.211)" fill="#2C334B"/>
<rect width="18.914" height="113.955" rx="9.457" transform="matrix(-0.662978 -0.748639 0.710216 -0.703983 958.54 174.382)" fill="#2C334B"/>
<defs>
<linearGradient id="paint0_linear_148_5134" x1="43.1821" y1="0" x2="43.1821" y2="82.078" gradientUnits="userSpaceOnUse">
<stop stop-color="#2E344A"/>
<stop offset="1" stop-color="#2C334B" stop-opacity="0"/>
</linearGradient>
<linearGradient id="paint1_linear_148_5134" x1="139.346" y1="0" x2="139.346" y2="268.165" gradientUnits="userSpaceOnUse">
<stop stop-color="#2E344A"/>
<stop offset="1" stop-color="#2C334B" stop-opacity="0"/>
</linearGradient>
<linearGradient id="paint2_linear_148_5134" x1="77.6531" y1="0" x2="77.6531" y2="162.35" gradientUnits="userSpaceOnUse">
<stop stop-color="#2E344A"/>
<stop offset="1" stop-color="#2C334B" stop-opacity="0"/>
</linearGradient>
<linearGradient id="paint3_linear_148_5134" x1="81.505" y1="0" x2="81.505" y2="154.803" gradientUnits="userSpaceOnUse">
<stop stop-color="#2E344A"/>
<stop offset="1" stop-color="#2C334B" stop-opacity="0"/>
</linearGradient>
<linearGradient id="paint4_linear_148_5134" x1="112.716" y1="0" x2="112.716" y2="214.082" gradientUnits="userSpaceOnUse">
<stop stop-color="#2E344A"/>
<stop offset="1" stop-color="#2C334B" stop-opacity="0"/>
</linearGradient>
<linearGradient id="paint5_linear_148_5134" x1="1039.32" y1="630.099" x2="1039.32" y2="736.744" gradientUnits="userSpaceOnUse">
<stop stop-color="#2E344A"/>
<stop offset="1" stop-color="#2C334B" stop-opacity="0"/>
</linearGradient>
<linearGradient id="paint6_linear_148_5134" x1="73.3794" y1="0" x2="73.3794" y2="146.09" gradientUnits="userSpaceOnUse">
<stop stop-color="#2E344A"/>
<stop offset="1" stop-color="#2C334B" stop-opacity="0"/>
</linearGradient>
<linearGradient id="paint7_linear_148_5134" x1="104.674" y1="0" x2="104.674" y2="194.67" gradientUnits="userSpaceOnUse">
<stop stop-color="#2E344A"/>
<stop offset="1" stop-color="#2C334B" stop-opacity="0"/>
</linearGradient>
</defs>
</svg>
