<svg width="342" height="397" viewBox="0 0 342 397" fill="none" xmlns="http://www.w3.org/2000/svg">
<g clip-path="url(#clip0_496_2137)">
<path d="M342 352.405H250.206V351.217C274.236 351.217 297.282 341.676 314.274 324.692C331.266 307.709 340.811 284.674 340.811 260.655V196.623H342V352.405Z" fill="#F2F2F2"/>
<path d="M91.5343 120.972C89.0941 121.901 86.6022 122.689 84.0712 123.331C80.7279 124.146 78.8403 124.523 75.6134 123.271C75.5 123.227 75.3918 123.184 75.2898 123.141C69.1734 120.542 63.9449 116.221 60.2407 110.706C56.5366 105.19 54.5166 98.7167 54.4266 92.0742C54.4105 91.8463 54.4105 91.6068 54.4105 91.373C54.4073 90.2472 54.4612 89.122 54.5718 88.0017C54.7132 86.4756 54.9574 84.9607 55.3029 83.4675L55.2706 83.4617C52.658 80.7914 51.6528 77.1337 51.986 73.4585C52.2144 70.9669 53.0055 68.5595 54.2999 66.4179C55.5942 64.2762 57.358 62.4562 59.4583 61.0948C62.7499 59.0263 66.4613 57.7169 70.3226 57.2618C71.3595 57.1423 72.4022 57.0818 73.4459 57.0807H83.2512C85.2764 56.6068 87.3337 56.2826 89.4064 56.1107H89.4226C109.157 54.4747 124.72 67.5513 123.268 83.4616C123.257 83.4792 123.241 83.4967 123.23 83.5143C122.811 84.1979 122.44 84.8464 122.112 85.4658C121.795 86.0442 121.526 86.5993 121.295 87.1252C119.494 91.1919 128.053 154.287 124.983 155.245C123.236 155.788 116.194 108.838 117.457 117.766C119.048 128.967 100.626 117.613 91.5343 120.972Z" fill="#2F2E41"/>
<path d="M121.263 235.03L148.618 293.28L43.3877 282.627L65.3541 226.708L121.263 235.03Z" fill="#FFB6B6"/>
<path d="M176.177 351.819C157.878 357.907 138.594 360.489 119.337 359.428L110.963 345.855C110.963 345.855 110.612 350.91 110.089 358.638C100.923 357.576 91.8753 355.659 83.066 352.912C66.3599 347.69 50.6998 339.6 34.8257 332.139C31.6105 312.981 30.404 283.44 48.1799 266.243L143.858 283.767C143.858 283.767 159.209 295.244 155.103 299.354C150.996 303.459 150.36 302.823 153.058 305.52C155.756 308.217 161.587 311.823 161.646 314.181C161.67 315.102 168.213 331.8 176.177 351.819Z" fill="#2F2E41"/>
<path d="M104.555 122.469L81.4394 124.081L66.499 138.511L61.2665 139.444C56.5631 140.283 52.331 142.817 49.3727 146.566C46.4143 150.316 44.9354 155.02 45.2164 159.787C46.2927 178.014 48.7025 205.247 53.7393 214.082C61.5493 227.783 68.0001 223.484 61.5493 227.783C55.0984 232.081 50.7675 228.703 53.7393 235.497C56.7111 242.29 49.7227 251.004 49.7227 251.004L46.9407 253.784L49.8913 254.993L143.909 267.221C143.909 267.221 135.78 230.687 140.864 221.712C145.948 212.738 158.275 185.609 147.273 174.994L136.516 137.158L118.013 131.704L104.555 122.469Z" fill="#6C63FF"/>
<path d="M244.485 272.415C242.938 272.366 241.42 271.981 240.036 271.288C238.652 270.595 237.436 269.61 236.47 268.401C235.505 267.191 234.814 265.787 234.445 264.285C234.076 262.782 234.038 261.218 234.334 259.699L190.232 229.846L195.494 215.623L247.615 251.463C250.135 252.15 252.316 253.738 253.743 255.925C255.171 258.112 255.746 260.746 255.36 263.328C254.975 265.911 253.654 268.262 251.65 269.937C249.645 271.612 247.096 272.493 244.485 272.415Z" fill="#FFB6B6"/>
<path d="M119.919 135.371L113.51 137.908L147.696 204.643L218.466 252.859L228.668 235.626L174.797 189.117L153.229 147.773C150.194 141.955 145.109 137.467 138.957 135.177C132.805 132.886 126.023 132.956 119.919 135.371Z" fill="#6C63FF"/>
<path d="M91.7943 116.6C104.614 116.6 115.006 106.213 115.006 93.3994C115.006 80.5863 104.614 70.1992 91.7943 70.1992C78.9751 70.1992 68.583 80.5863 68.583 93.3994C68.583 106.213 78.9751 116.6 91.7943 116.6Z" fill="#FFB6B6"/>
<path d="M111.979 83.5888C111.592 83.7929 111.21 83.981 110.823 84.1691C110.42 84.3625 110.017 84.5559 109.608 84.7386C101.841 88.258 95.5133 88.6503 91.675 83.5888C91.57 80.9259 90.9703 78.3058 89.9064 75.8622C90.0944 78.593 89.3744 81.3093 87.8583 83.5888H80.128C72.1666 88.8706 68.081 93.7225 73.6073 111.062C73.9674 112.201 76.4349 152.671 77.1391 155.782C65.0867 151.161 54.6901 102.099 54.4267 89.1715C54.4105 88.9619 54.4105 88.7416 54.4105 88.5267C54.4074 87.4911 54.4613 86.4561 54.5718 85.4264C54.7137 84.0206 54.958 82.627 55.3029 81.2568L55.2707 81.2514C54.0444 80.0797 53.1089 78.6378 52.5387 77.0408C51.9684 75.4437 51.7792 73.7357 51.9861 72.0526C54.0079 69.4066 56.51 67.1646 59.3616 65.4436C61.9546 64.1886 64.6573 63.1742 67.4359 62.4132C67.5058 62.3971 67.5649 62.3809 67.6348 62.3648C68.4842 62.1338 69.3551 61.9242 70.2259 61.7415C72.0206 61.3654 73.8351 61.0909 75.6608 60.9195C75.7952 60.9141 75.9242 60.9033 76.0424 60.9033C76.7727 60.9038 77.4894 61.1005 78.1175 61.4729C78.1229 61.4729 78.1229 61.4783 78.1336 61.4783C78.7371 61.8387 79.2376 62.3483 79.5869 62.9581C79.9362 63.568 80.1225 64.2574 80.128 64.96H88.7399C89.0571 64.96 89.3742 64.9708 89.6914 64.9869C101.685 65.4651 111.323 70.5911 111.942 82.3745C111.968 82.7828 111.979 83.1804 111.979 83.5888Z" fill="#2F2E41"/>
<path d="M61.0637 84.5215C69.5091 84.5215 76.3555 77.6785 76.3555 69.2371C76.3555 60.7957 69.5091 53.9526 61.0637 53.9526C52.6183 53.9526 45.772 60.7957 45.772 69.2371C45.772 77.6785 52.6183 84.5215 61.0637 84.5215Z" fill="#2F2E41"/>
<path d="M82.0578 62.1673C80.3205 70.4281 71.7494 75.3688 63.5496 73.3478C59.6119 72.3772 56.2212 69.883 54.1235 66.4137C52.0257 62.9444 51.3927 58.7842 52.3637 54.8484C54.3858 46.6526 64.3372 49.0154 70.8719 43.668C80.1162 36.1033 84.4006 51.0269 82.0578 62.1673Z" fill="#2F2E41"/>
<path d="M48.0816 292.117C61.1145 238.995 86.9379 193.335 129.705 157.561C131.36 154.84 134.028 152.886 137.123 152.127C140.217 151.369 143.487 151.869 146.213 153.517L247.881 215.132C250.604 216.786 252.559 219.452 253.318 222.546C254.076 225.639 253.576 228.907 251.927 231.632C235.604 286.141 211.155 333.441 170.304 366.188C168.649 368.909 165.981 370.863 162.886 371.622C159.792 372.38 156.522 371.88 153.796 370.232L52.1276 308.618C49.4048 306.963 47.4496 304.297 46.6911 301.203C45.9326 298.11 46.4327 294.842 48.0816 292.117Z" fill="#F2F2F2"/>
<path opacity="0.2" d="M66.1526 310.02C63.4298 308.366 61.4746 305.699 60.7162 302.606C59.9577 299.513 60.4578 296.245 62.1067 293.52C75.1396 240.397 100.963 194.738 143.73 158.964C144.826 157.182 146.373 155.722 148.214 154.73L146.214 153.517C143.487 151.869 140.218 151.369 137.123 152.127C134.028 152.886 131.361 154.84 129.705 157.561C86.9384 193.335 61.115 238.994 48.0822 292.117C46.4332 294.842 45.9331 298.11 46.6916 301.203C47.4501 304.297 49.4052 306.963 52.128 308.617L153.796 370.232C155.605 371.32 157.671 371.911 159.782 371.944C161.894 371.978 163.977 371.452 165.82 370.422L66.1526 310.02Z" fill="black"/>
<path d="M185.383 280.34L117.139 239.24C116.054 238.586 115.275 237.527 114.97 236.298C114.666 235.069 114.863 233.769 115.516 232.685C116.17 231.6 117.228 230.819 118.457 230.514C119.687 230.208 120.987 230.403 122.073 231.055L190.317 272.155C191.399 272.811 192.176 273.869 192.479 275.097C192.781 276.325 192.585 277.623 191.932 278.706C191.279 279.789 190.223 280.569 188.995 280.876C187.768 281.182 186.469 280.99 185.383 280.34Z" fill="white"/>
<path d="M145.683 225.838L130.669 216.796C129.581 216.145 128.796 215.089 128.487 213.86C128.178 212.631 128.37 211.33 129.021 210.242C129.672 209.155 130.728 208.37 131.958 208.061C133.187 207.752 134.49 207.944 135.578 208.595L135.603 208.61L150.617 217.652C151.699 218.308 152.477 219.366 152.779 220.594C153.082 221.822 152.885 223.12 152.232 224.204C151.579 225.287 150.523 226.067 149.295 226.374C148.068 226.68 146.769 226.487 145.683 225.838Z" fill="white"/>
<path d="M174.537 298.333L106.292 257.233C105.207 256.579 104.425 255.522 104.119 254.293C103.814 253.064 104.008 251.764 104.661 250.678C105.314 249.593 106.371 248.811 107.6 248.504C108.829 248.197 110.13 248.39 111.217 249.042L111.227 249.047L179.471 290.147C180.552 290.804 181.33 291.862 181.632 293.089C181.935 294.317 181.738 295.615 181.085 296.698C180.432 297.781 179.376 298.562 178.149 298.868C176.921 299.174 175.622 298.982 174.537 298.333Z" fill="white"/>
<path d="M194.049 202.845C205.058 202.845 213.982 193.925 213.982 182.922C213.982 171.918 205.058 162.999 194.049 162.999C183.041 162.999 174.117 171.918 174.117 182.922C174.117 193.925 183.041 202.845 194.049 202.845Z" fill="#3F3D56"/>
<path d="M297.279 138.032C298.972 137.887 300.262 136.816 300.162 135.639C300.061 134.462 298.607 133.625 296.914 133.769C295.221 133.914 293.93 134.986 294.031 136.163C294.132 137.34 295.586 138.177 297.279 138.032Z" fill="white"/>
<path d="M316.326 131.574C318.019 131.429 319.31 130.357 319.209 129.18C319.109 128.003 317.655 127.166 315.962 127.311C314.269 127.455 312.978 128.527 313.079 129.704C313.18 130.881 314.634 131.718 316.326 131.574Z" fill="#3F3D56"/>
<path d="M288.249 123.507C289.942 123.362 291.233 122.29 291.132 121.113C291.032 119.936 289.578 119.099 287.885 119.244C286.192 119.389 284.901 120.46 285.002 121.637C285.102 122.814 286.556 123.651 288.249 123.507Z" fill="#FF6584"/>
<path d="M280.259 118.826C280.988 118.662 281.387 117.68 281.15 116.633C280.914 115.586 280.131 114.87 279.402 115.035C278.674 115.2 278.275 116.182 278.512 117.229C278.748 118.276 279.531 118.991 280.259 118.826Z" fill="#E6E6E6"/>
<path d="M274.571 107.463C275.3 107.298 275.698 106.316 275.462 105.269C275.225 104.223 274.443 103.507 273.714 103.672C272.985 103.836 272.586 104.818 272.823 105.865C273.06 106.912 273.842 107.628 274.571 107.463Z" fill="#3F3D56"/>
<path d="M301.864 123.421C302.593 123.256 302.991 122.274 302.755 121.227C302.518 120.18 301.735 119.465 301.007 119.629C300.278 119.794 299.879 120.776 300.116 121.823C300.353 122.87 301.135 123.585 301.864 123.421Z" fill="#E6E6E6"/>
<path d="M293.545 130.324C294.273 130.159 294.672 129.177 294.435 128.13C294.199 127.083 293.416 126.368 292.688 126.533C291.959 126.697 291.56 127.679 291.797 128.726C292.033 129.773 292.816 130.488 293.545 130.324Z" fill="#FF6584"/>
<path d="M308.691 135.947C309.419 135.782 309.818 134.8 309.581 133.753C309.345 132.706 308.562 131.991 307.833 132.156C307.105 132.32 306.706 133.302 306.943 134.349C307.179 135.396 307.962 136.111 308.691 135.947Z" fill="#3F3D56"/>
<path d="M218.636 50.0129C218.926 48.8676 217.826 47.601 216.179 47.1838C214.532 46.7666 212.962 47.3568 212.671 48.5021C212.381 49.6473 213.481 50.9139 215.128 51.3311C216.775 51.7483 218.345 51.1581 218.636 50.0129Z" fill="white"/>
<path d="M198.522 49.8834C198.812 48.7382 197.713 47.4716 196.066 47.0544C194.418 46.6372 192.848 47.2274 192.558 48.3726C192.267 49.5179 193.367 50.7845 195.014 51.2017C196.661 51.6189 198.232 51.0287 198.522 49.8834Z" fill="#3F3D56"/>
<path d="M222.41 66.6926C222.701 65.5473 221.601 64.2807 219.954 63.8635C218.307 63.4463 216.736 64.0365 216.446 65.1817C216.155 66.327 217.255 67.5936 218.902 68.0108C220.549 68.428 222.12 67.8378 222.41 66.6926Z" fill="#FF6584"/>
<path d="M227.099 72.9816C227.218 71.915 226.713 70.983 225.971 70.9001C225.228 70.8172 224.53 71.6147 224.411 72.6814C224.291 73.7481 224.797 74.68 225.539 74.7629C226.281 74.8458 226.98 74.0483 227.099 72.9816Z" fill="#E6E6E6"/>
<path d="M228.753 85.5798C228.872 84.5131 228.367 83.5812 227.625 83.4983C226.882 83.4153 226.184 84.2128 226.065 85.2795C225.945 86.3462 226.45 87.2782 227.193 87.3611C227.935 87.444 228.634 86.6465 228.753 85.5798Z" fill="#3F3D56"/>
<path d="M208.19 61.5715C208.309 60.5048 207.804 59.5729 207.061 59.49C206.319 59.407 205.62 60.2045 205.501 61.2712C205.382 62.3379 205.887 63.2699 206.629 63.3528C207.372 63.4357 208.07 62.6382 208.19 61.5715Z" fill="#E6E6E6"/>
<path d="M218.312 57.7707C218.431 56.704 217.926 55.7721 217.183 55.6892C216.441 55.6063 215.742 56.4038 215.623 57.4704C215.504 58.5371 216.009 59.4691 216.751 59.552C217.494 59.6349 218.192 58.8374 218.312 57.7707Z" fill="#FF6584"/>
<path d="M205.842 47.5022C205.961 46.4355 205.456 45.5035 204.714 45.4206C203.971 45.3377 203.273 46.1352 203.153 47.2019C203.034 48.2686 203.539 49.2005 204.282 49.2834C205.024 49.3663 205.723 48.5688 205.842 47.5022Z" fill="#3F3D56"/>
<path d="M1.18862 155.782H0V0H91.7945V1.18806C67.7644 1.18806 44.7183 10.7294 27.7265 27.7132C10.7346 44.697 1.18862 67.7319 1.18862 91.7506V155.782Z" fill="#F2F2F2"/>
<path d="M54.4213 292.68C52.9022 292.058 51.5365 291.113 50.4185 289.912C49.3005 288.71 48.4571 287.28 47.9464 285.721C47.4357 284.161 47.2701 282.509 47.4609 280.88C47.6517 279.25 48.1945 277.681 49.0516 276.281L16.3018 230.267L26.8081 218.084L65.3058 273.02C67.5553 274.637 69.1331 277.023 69.7403 279.725C70.3475 282.428 69.9418 285.259 68.6002 287.682C67.2586 290.105 65.0741 291.953 62.4609 292.874C59.8476 293.795 56.9871 293.726 54.4213 292.68Z" fill="#FFB6B6"/>
<path d="M55.1737 146.863C53.5168 145.889 51.5667 145.536 49.6735 145.869C47.7802 146.203 46.0678 147.199 44.8435 148.681L0.594238 210.536L41.6018 268.751L57.6482 251.524L32.6871 212.318L65.8606 180.748C68.5867 174.779 69.0031 168.012 67.0293 161.754C65.0556 155.496 60.8318 150.19 55.1737 146.863Z" fill="#6C63FF"/>
</g>
<defs>
<clipPath id="clip0_496_2137">
<rect width="342" height="397" fill="white"/>
</clipPath>
</defs>
</svg>
