<svg width="365" height="350" viewBox="0 0 365 350" fill="none" xmlns="http://www.w3.org/2000/svg">
<g clip-path="url(#clip0_496_2067)">
<path d="M0.000169121 156.352C-0.0541935 193.259 12.9989 228.987 36.8322 257.164C37.6977 258.192 38.5794 259.204 39.4773 260.21C50.0444 272.096 62.3536 282.309 75.9848 290.501C79.1114 292.378 82.3065 294.147 85.5701 295.808C85.9001 295.976 86.2354 296.144 86.5654 296.306C86.9603 296.506 87.3606 296.701 87.7609 296.896C96.0195 300.939 104.622 304.237 113.466 306.753C114.386 307.013 115.307 307.265 116.23 307.51C127.864 310.589 139.815 312.312 151.845 312.645C152.472 312.661 153.089 312.672 153.684 312.682C153.895 312.688 154.101 312.693 154.306 312.693C154.982 312.699 155.653 312.704 156.329 312.704C169.007 312.713 181.638 311.182 193.946 308.143C195.179 307.84 196.407 307.521 197.629 307.186C204.069 305.428 210.388 303.254 216.546 300.677C219.791 299.325 222.979 297.866 226.11 296.301C226.818 295.944 227.527 295.587 228.225 295.219C228.522 295.073 228.814 294.916 229.106 294.764C245.79 285.957 260.751 274.218 273.273 260.107C274.139 259.139 274.988 258.154 275.827 257.164C298.805 229.946 364.626 189.49 364.626 151.078C364.626 99.4226 287.613 58.8944 249.002 30.4264C248.115 29.7718 247.222 29.1226 246.319 28.4896C246.14 28.3652 245.962 28.2407 245.783 28.1163C229.911 16.9964 212.095 8.94975 193.259 4.393C192.188 4.1279 191.117 3.87904 190.035 3.64641C169.632 -0.817097 148.547 -1.18671 128.001 2.55897C126.924 2.75915 125.848 2.96473 124.777 3.18654C106.109 7.01609 88.3047 14.2471 72.2524 24.5186C71.8954 24.7458 71.5383 24.973 71.1813 25.2111C70.4619 25.6764 69.7425 26.1524 69.0338 26.6339C47.7694 40.9319 30.3495 60.2436 18.3104 82.8656C6.27135 105.488 -0.0169273 130.725 0.000169121 156.352Z" fill="#F2F2F2"/>
<path d="M195.91 235.994C195.885 236.325 195.992 236.653 196.207 236.907C196.423 237.16 196.729 237.319 197.06 237.348L245.784 241.674L246.319 241.723V28.4891C246.141 28.3647 245.962 28.2402 245.784 28.1158C235.37 20.8309 224.106 14.8463 212.24 10.2949L209.687 45.5147L209.455 48.7391L206.928 83.6668L206.15 94.4113L195.91 235.994Z" fill="#E6E6E6"/>
<path d="M72.2527 24.5183C71.8957 24.7455 71.5387 24.9727 71.1816 25.2107V241.723L72.2527 241.626L121.678 237.238L121.586 235.994L111.346 94.4114L110.567 83.6669L108.041 48.7393L107.808 45.5149L105.13 8.58008C93.5835 12.5832 82.5482 17.9328 72.2527 24.5183Z" fill="#E6E6E6"/>
<path d="M71.1807 25.211C70.4613 25.6763 69.7418 26.1524 69.0332 26.6339V244.677C69.0332 250.125 72.2626 254.691 76.5792 255.855C77.2846 256.046 78.0122 256.142 78.7429 256.141H239.291C240.02 256.142 240.746 256.046 241.45 255.855C243.054 255.409 244.508 254.538 245.658 253.334C247.851 250.99 249.049 247.887 249.001 244.677V30.4264C248.114 29.7718 247.221 29.1226 246.318 28.4896C246.14 28.3651 245.961 28.2407 245.783 28.1163V244.677C245.784 245.379 245.7 246.079 245.534 246.76C244.771 249.979 242.256 252.338 239.291 252.338H78.7429C75.162 252.338 72.2518 248.903 72.2518 244.677V24.5186C71.8947 24.7458 71.5377 24.973 71.1807 25.211Z" fill="#E6E6E6"/>
<path d="M247.392 45.5176H70.6416V48.7415H247.392V45.5176Z" fill="#E6E6E6"/>
<path d="M193.259 4.39308C192.188 4.12798 191.117 3.87912 190.035 3.64648V91.1874H193.259V4.39308Z" fill="#E6E6E6"/>
<path d="M128 2.55859C126.924 2.75877 125.847 2.96435 124.776 3.18617V91.187H128V2.55859Z" fill="#E6E6E6"/>
<path d="M35.9883 250.499C35.9875 252.349 36.3419 254.182 37.0323 255.898C37.2974 256.563 37.6139 257.207 37.9789 257.824C38.4503 258.628 38.9973 259.385 39.6125 260.085C40.9715 261.634 42.6453 262.875 44.5222 263.725C46.3991 264.575 48.4358 265.014 50.4961 265.014H262.168C266.016 265.014 269.706 263.485 272.427 260.764C275.147 258.043 276.676 254.352 276.676 250.504C276.676 246.656 275.147 242.965 272.427 240.244C269.706 237.523 266.016 235.994 262.168 235.994H50.4961C46.6505 235.998 42.9634 237.527 40.2436 240.246C37.5238 242.965 35.9935 246.652 35.9883 250.499Z" fill="#E6E6E6"/>
<path d="M70.6413 94.4131L246.317 94.4131V83.6668L70.6413 83.6668V94.4131Z" fill="#E6E6E6"/>
<path d="M166.001 86.3535H150.958C150.958 84.786 151.581 83.2826 152.689 82.1742C153.798 81.0658 155.301 80.4431 156.868 80.4431H160.091C161.659 80.4431 163.162 81.0658 164.27 82.1742C165.378 83.2826 166.001 84.786 166.001 86.3535Z" fill="#E6E6E6"/>
<path d="M312.416 195.171H267.54C266.963 195.17 266.41 194.941 266.003 194.533C265.595 194.126 265.366 193.573 265.365 192.996V141.08C265.365 139.994 279.889 131.012 286.134 127.201C287.288 126.483 288.62 126.103 289.979 126.104C291.338 126.104 292.67 126.484 293.824 127.202C300.066 131.012 314.59 139.994 314.59 141.08V192.996C314.589 193.573 314.36 194.126 313.952 194.533C313.545 194.941 312.992 195.17 312.416 195.171Z" fill="#CCCCCC"/>
<path d="M317.257 132.283L309.002 115.453C308.875 115.193 308.686 114.969 308.452 114.799C308.219 114.63 307.947 114.52 307.661 114.479C307.661 114.479 307.661 114.473 307.655 114.479C307.459 114.452 307.26 114.457 307.066 114.495C306.912 114.528 306.764 114.578 306.622 114.647L279.441 127.977L279.403 127.999C279.125 128.142 278.889 128.356 278.72 128.619C278.551 128.882 278.454 129.185 278.44 129.497C278.425 129.795 278.486 130.091 278.618 130.357L283.103 139.501L284.666 142.692L285.997 145.398H294.549L300.066 142.692L316.435 134.664C316.859 134.457 317.185 134.09 317.339 133.644C317.493 133.198 317.464 132.708 317.257 132.283Z" fill="white"/>
<path d="M317.257 132.283L309.002 115.453C308.875 115.193 308.686 114.969 308.452 114.799C308.219 114.63 307.947 114.52 307.661 114.479C307.661 114.479 307.661 114.473 307.655 114.479C307.459 114.452 307.26 114.457 307.066 114.495C306.912 114.528 306.764 114.578 306.622 114.647L279.441 127.977L279.403 127.999C279.125 128.142 278.889 128.356 278.72 128.619C278.551 128.882 278.454 129.185 278.44 129.497C278.425 129.795 278.486 130.091 278.618 130.357L283.103 139.501L284.666 142.692L285.997 145.398H294.549L300.066 142.692L316.435 134.664C316.859 134.457 317.185 134.09 317.339 133.644C317.493 133.198 317.464 132.708 317.257 132.283ZM314.78 133.647C311.88 135.124 304.15 139.008 296.637 142.692C296.539 142.741 296.437 142.79 296.339 142.839C295.566 143.223 295.203 143.396 295.068 143.461C295.192 143.39 295.463 143.25 295.506 143.223C295.49 143.217 295.252 143.325 294.516 143.672C293.256 144.266 291.853 144.49 290.471 144.316C289.089 144.143 287.785 143.58 286.711 142.692C285.929 142.045 285.293 141.239 284.844 140.328L284.147 138.9L280.171 130.796L279.695 129.827C279.661 129.758 279.642 129.684 279.637 129.607C279.632 129.531 279.643 129.454 279.668 129.382C279.693 129.309 279.732 129.242 279.783 129.185C279.834 129.128 279.896 129.081 279.965 129.048L280.046 129.01L307.147 115.712C307.216 115.679 307.291 115.659 307.367 115.654C307.444 115.649 307.52 115.66 307.593 115.685C307.665 115.71 307.732 115.75 307.789 115.801C307.846 115.852 307.893 115.914 307.926 115.983L308.602 117.368L315.515 131.45C315.703 131.84 315.731 132.288 315.593 132.698C315.456 133.108 315.164 133.449 314.78 133.647Z" fill="#6C63FF"/>
<path d="M288.292 136.961L309.002 126.802C309.185 126.712 309.336 126.568 309.434 126.39C309.532 126.211 309.573 126.007 309.551 125.805L308.373 115.311C308.358 115.182 308.319 115.058 308.256 114.945C308.193 114.832 308.108 114.732 308.007 114.652C307.905 114.571 307.789 114.512 307.664 114.477C307.54 114.441 307.409 114.431 307.281 114.446C307.169 114.459 307.06 114.491 306.959 114.541L279.16 128.117L279.158 128.117C279.011 128.188 278.884 128.295 278.789 128.427C278.693 128.56 278.632 128.714 278.611 128.876C278.59 129.038 278.609 129.202 278.668 129.355C278.726 129.507 278.822 129.643 278.946 129.749L287.213 136.826C287.36 136.951 287.541 137.031 287.733 137.055C287.925 137.079 288.119 137.046 288.292 136.961Z" fill="#6C63FF"/>
<path d="M299.392 134.247C300.614 133.647 301.122 132.176 300.526 130.96C299.93 129.745 298.456 129.246 297.233 129.845C296.011 130.445 295.504 131.916 296.1 133.132C296.696 134.347 298.17 134.846 299.392 134.247Z" fill="#3F3D56"/>
<path d="M284.39 138.722C283.772 139.232 283.05 139.6 282.274 139.801C281.498 140.002 280.688 140.03 279.9 139.883C279.112 139.737 278.366 139.42 277.714 138.954C277.063 138.488 276.521 137.884 276.127 137.186L251.865 145.891L225.865 139.639L230.572 128.687L250.213 135.024L278.527 129.479C279.743 128.895 281.131 128.778 282.428 129.15C283.725 129.522 284.841 130.356 285.563 131.496C286.286 132.635 286.566 134 286.35 135.332C286.133 136.663 285.436 137.87 284.39 138.722Z" fill="#FFB6B6"/>
<path d="M208.947 134.512C213.674 135.845 239.376 145.033 246.195 145.08C246.407 146.012 246.922 146.848 247.661 147.454C248.399 148.061 249.318 148.405 250.274 148.432L251.954 134.358C249.848 131.933 248.119 133.2 247.303 134.162L239.116 129.532L208.962 115.365C207.655 114.751 206.208 114.497 204.77 114.629C203.332 114.76 201.955 115.273 200.782 116.115C199.781 116.834 198.957 117.772 198.372 118.857C197.787 119.942 197.457 121.146 197.405 122.378C197.354 123.61 197.584 124.837 198.077 125.967C198.57 127.096 199.313 128.099 200.251 128.899C203.184 131.42 206.448 133.808 208.947 134.512Z" fill="#6C63FF"/>
<path d="M133.577 226.411C134.008 229.587 136.168 232.455 138.945 234.327C139.607 234.774 140.305 235.165 141.032 235.495C141.832 235.856 142.657 236.159 143.501 236.4C147.202 237.482 151.201 237.529 155.092 237.55C159.026 237.576 162.959 237.601 166.891 237.626C169.992 237.644 173.193 237.644 176.057 236.454C176.1 236.439 176.142 236.421 176.183 236.4C178.996 235.186 181.392 232.516 181.324 229.461C181.297 228.385 180.992 227.335 180.44 226.411C180.075 225.79 179.636 225.215 179.132 224.7C177.573 223.083 175.41 221.814 173.384 220.794C170.042 219.116 166.266 216.938 165.289 213.488C165.186 213.125 165.116 212.754 165.08 212.378C164.85 210.006 166.004 207.825 167.473 205.874C167.617 205.68 167.768 205.486 167.922 205.292C168.253 204.878 168.594 204.472 168.932 204.084C169.076 203.919 169.219 203.75 169.367 203.581C170.725 202.007 172.094 200.325 172.809 198.446C173.117 197.659 173.288 196.825 173.315 195.981C173.394 192.93 169.985 189.857 167.405 191.298C166.14 191.176 164.875 191.05 163.611 190.921C162.059 190.767 160.514 190.612 158.965 190.454H158.961C158.613 190.425 158.272 190.389 157.93 190.353C154.707 190.033 151.487 189.711 148.269 189.387C146.839 189.246 145.157 189.193 144.227 190.292C143.213 191.492 143.738 193.39 144.74 194.601C145.743 195.808 147.133 196.663 148.075 197.914C148.647 198.728 149.045 199.652 149.244 200.627C149.442 201.602 149.437 202.608 149.228 203.581C149.127 204.163 148.976 204.736 148.775 205.291C148.424 206.284 147.936 207.224 147.327 208.084C145.215 211.045 142.085 213.086 139.308 215.432C136.527 217.783 133.926 220.765 133.545 224.38C133.534 224.484 133.523 224.592 133.52 224.7C133.479 225.271 133.498 225.844 133.577 226.411Z" fill="#E6E6E6"/>
<path d="M156.172 193.507C158.976 190.737 161.364 187.575 163.262 184.121C165.155 180.685 166.552 176.998 167.414 173.171C168.288 169.286 168.577 165.294 168.273 161.324C167.641 153.239 164.654 145.516 159.681 139.111C159.377 138.722 159.066 138.338 158.748 137.96C158.393 137.538 157.791 138.146 158.143 138.566C163.218 144.652 166.397 152.093 167.288 159.967C167.932 165.985 167.213 172.07 165.184 177.772C163.155 183.473 159.868 188.644 155.567 192.901C155.174 193.289 155.779 193.894 156.172 193.507Z" fill="#E6E6E6"/>
<path d="M160.026 139.838C159.68 139.709 159.34 139.56 159.01 139.395C158.993 139.42 158.977 139.447 158.96 139.472L160.026 139.838Z" fill="#E6E6E6"/>
<path d="M162.384 131.883C162.197 129.863 161.214 127.886 159.341 126.945C158.35 126.393 157.188 126.232 156.084 126.494C154.98 126.756 154.015 127.423 153.378 128.362C153.291 128.518 153.256 128.698 153.278 128.875C153.301 129.052 153.381 129.217 153.505 129.346C153.782 129.687 154.061 130.026 154.338 130.367C154.516 130.587 154.837 130.848 154.79 131.168C154.722 131.632 154.187 131.594 153.767 131.529C153.683 131.5 153.595 131.486 153.506 131.488C153.476 131.483 153.443 131.478 153.418 131.475C153.203 131.476 152.998 131.562 152.846 131.714C152.694 131.866 152.608 132.071 152.606 132.286C152.606 132.358 152.616 132.429 152.635 132.498L152.635 132.502C153.091 134.693 154.229 136.685 155.885 138.19C156.647 138.912 157.505 139.525 158.435 140.011C158.531 140.084 158.641 140.137 158.759 140.166C158.876 140.196 158.998 140.201 159.117 140.181C159.236 140.162 159.35 140.118 159.452 140.053C159.554 139.988 159.641 139.904 159.709 139.804C160.051 139.321 160.361 138.817 160.638 138.295C161.747 136.358 162.595 134.153 162.384 131.883Z" fill="#E6E6E6"/>
<path d="M175.841 136.196C175.139 136.088 174.438 135.979 173.736 135.87C174.417 135.196 175.181 134.611 176.01 134.129C176.133 134.059 176.235 133.957 176.306 133.834C176.377 133.711 176.413 133.571 176.411 133.429C176.241 131.878 175.564 130.49 174.105 129.774C173.45 129.443 172.72 129.288 171.987 129.323C171.253 129.359 170.542 129.583 169.921 129.975C169.185 130.557 168.542 131.246 168.013 132.02C167.314 132.878 166.611 133.735 165.964 134.633C164.664 136.334 163.813 138.334 163.488 140.45C163.189 142.791 163.628 145.167 164.742 147.247C164.834 148.442 164.925 149.637 165.016 150.832C165.019 150.973 165.059 151.112 165.131 151.233C165.204 151.355 165.306 151.456 165.429 151.526C165.552 151.597 165.69 151.634 165.832 151.635C165.973 151.636 166.113 151.601 166.237 151.533C169.026 150.164 171.425 148.112 173.208 145.568C174.991 143.023 176.102 140.068 176.437 136.979C176.437 136.801 176.379 136.628 176.271 136.487C176.164 136.345 176.012 136.243 175.841 136.196Z" fill="#E6E6E6"/>
<path d="M166.535 173.346C166.815 173.36 167.096 173.367 167.372 173.364C169.763 173.348 172.126 172.845 174.316 171.884C176.505 170.923 178.476 169.525 180.106 167.776C181.425 166.33 182.487 164.669 183.243 162.863C183.217 162.86 183.196 162.856 183.171 162.853C182.007 162.673 180.839 162.49 179.675 162.31C180.911 160.699 182.554 159.446 184.435 158.681C184.69 157.057 184.709 155.405 184.493 153.775C181.863 158.062 175.715 158.407 171.831 161.598C169.979 163.143 168.716 165.279 168.256 167.646C168.142 168.231 168.08 168.825 168.073 169.422C168.069 169.565 168.069 169.705 168.073 169.846L167.987 170.04L166.535 173.346Z" fill="#E6E6E6"/>
<path d="M163.43 172.677C162.556 170.597 161.88 168.103 159.468 167.394C158.433 167.095 157.323 167.197 156.36 167.681C155.397 168.165 154.652 168.994 154.273 170.003C154.236 170.142 154.235 170.287 154.272 170.426C154.308 170.565 154.381 170.691 154.482 170.793C154.752 171.124 155.021 171.455 155.29 171.786C154.957 171.801 154.623 171.805 154.287 171.794C154.11 171.795 153.938 171.854 153.797 171.961C153.655 172.068 153.553 172.219 153.505 172.389C153.209 173.605 153.038 174.847 152.992 176.097C152.91 176.555 152.992 177.027 153.225 177.43C153.59 177.936 153.985 178.421 154.407 178.882C154.822 179.391 155.236 179.902 155.65 180.412C155.248 180.43 154.843 180.428 154.438 180.407C154.313 180.408 154.191 180.438 154.079 180.494C153.968 180.55 153.871 180.63 153.796 180.729C153.72 180.829 153.668 180.944 153.644 181.066C153.62 181.188 153.624 181.314 153.655 181.434C154.633 184.852 156.562 187.921 159.218 190.284C159.319 190.381 159.444 190.451 159.581 190.486C159.717 190.521 159.86 190.52 159.996 190.484C160.132 190.448 160.256 190.378 160.358 190.28C160.459 190.183 160.533 190.061 160.574 189.926C160.619 189.799 160.678 189.669 160.71 189.539C160.716 189.519 160.722 189.499 160.73 189.479C160.708 189.514 160.677 189.562 160.639 189.618C160.691 189.541 160.735 189.458 160.771 189.372C160.845 189.203 160.898 189.021 160.961 188.848C161.218 188.136 161.475 187.424 161.732 186.713C161.761 186.633 161.787 186.55 161.819 186.472C161.844 186.47 161.869 186.463 161.891 186.451C162.118 186.347 162.369 185.907 162.528 185.704C162.75 185.42 162.962 185.13 163.157 184.826C163.879 183.689 164.392 182.432 164.67 181.115C165.301 178.173 164.572 175.397 163.43 172.677Z" fill="#E6E6E6"/>
<path d="M160.729 189.481C160.773 189.369 160.835 189.311 160.729 189.481V189.481Z" fill="#E6E6E6"/>
<path d="M12.9131 340.453L17.0836 333.75L17.9167 337.581C18.0627 338.251 18.2088 338.933 18.344 339.609C19.5286 338.598 20.789 337.662 22.0222 336.764C25.8088 334.015 29.5935 331.263 33.3765 328.508L32.1919 335.379C31.4616 339.609 30.6988 343.927 28.8922 347.795C28.692 348.233 28.4757 348.666 28.2429 349.088H10.641C10.4995 348.696 10.4015 348.289 10.3489 347.876C10.3446 347.849 10.3428 347.822 10.3437 347.795C10.0676 345.171 11.5174 342.698 12.9131 340.453Z" fill="#F0F0F0"/>
<path d="M280.348 339.371L276.178 332.668L275.345 336.499C275.199 337.169 275.053 337.851 274.917 338.527C273.733 337.516 272.472 336.58 271.239 335.682C267.453 332.933 263.668 330.181 259.885 327.426L261.069 334.297C261.8 338.527 262.562 342.845 264.369 346.713C264.569 347.151 264.786 347.584 265.018 348.006H282.62C282.762 347.614 282.86 347.207 282.912 346.794C282.917 346.767 282.919 346.74 282.918 346.713C283.194 344.089 281.744 341.616 280.348 339.371Z" fill="#F0F0F0"/>
<path d="M304.69 339.371L300.519 332.668L299.686 336.499C299.54 337.169 299.394 337.851 299.259 338.527C298.074 337.516 296.814 336.58 295.581 335.682C291.794 332.933 288.01 330.181 284.227 327.426L285.411 334.297C286.141 338.527 286.904 342.845 288.711 346.713C288.911 347.151 289.127 347.584 289.36 348.006H306.962C307.104 347.614 307.202 347.207 307.254 346.794C307.259 346.767 307.26 346.74 307.259 346.713C307.535 344.089 306.086 341.616 304.69 339.371Z" fill="#F0F0F0"/>
<path d="M305.124 142.692H274.832C274.473 142.692 274.129 142.835 273.876 143.089C273.622 143.342 273.479 143.686 273.479 144.045C273.479 144.404 273.622 144.748 273.876 145.001C274.129 145.255 274.473 145.397 274.832 145.397H305.124C305.483 145.397 305.827 145.255 306.08 145.001C306.334 144.748 306.476 144.404 306.476 144.045C306.476 143.686 306.334 143.342 306.08 143.089C305.827 142.835 305.483 142.692 305.124 142.692Z" fill="white"/>
<path d="M269.423 172.719C270.618 172.719 271.586 171.75 271.586 170.555C271.586 169.359 270.618 168.391 269.423 168.391C268.228 168.391 267.259 169.359 267.259 170.555C267.259 171.75 268.228 172.719 269.423 172.719Z" fill="white"/>
<path d="M224.557 105.855L206.062 104.254L199.673 113.129L192.1 191.576L228.687 194.46L245.081 198.997L224.557 105.855Z" fill="#3F3D56"/>
<path d="M190.004 341.909L197.019 341.909L200.357 314.845L190.003 314.845L190.004 341.909Z" fill="#FFB6B6"/>
<path d="M188.215 339.618L190.19 339.618L197.899 336.482L202.031 339.618C204.366 339.618 206.606 340.546 208.257 342.197C209.909 343.848 210.836 346.088 210.836 348.424V348.71L188.215 348.711L188.215 339.618Z" fill="#2F2E41"/>
<path d="M217.191 337.488L224.035 339.033L233.251 313.369L223.151 311.089L217.191 337.488Z" fill="#FFB6B6"/>
<path d="M215.95 334.859L217.877 335.294L226.087 333.934L229.427 337.902C231.705 338.417 233.686 339.815 234.933 341.79C236.18 343.764 236.591 346.154 236.077 348.432L236.014 348.711L213.948 343.728L215.95 334.859Z" fill="#2F2E41"/>
<path d="M181.119 176.454C177.83 186.376 178.178 197.146 181.91 208.705L183.505 273.785C180.868 276.688 180.464 302.664 184.527 311.14C189.953 322.458 184.963 323.972 188.798 331.481H199.922L205.064 297.462L205.43 269.887C206.908 266.388 205.695 254.076 205.695 254.076L206.122 228.545L226.179 273.269C217.092 281.048 217.91 306.176 217.76 317.322L214.781 330.474L228.471 331.698L234.513 313.862L241.306 302.872C244.768 283.398 245.794 269.101 242.843 263.261L222.708 188.338L181.119 176.454Z" fill="#2F2E41"/>
<path d="M178.887 176.984C178.926 177.78 179.09 178.565 179.374 179.31C179.407 179.402 179.439 179.489 179.477 179.581C180.144 181.176 181.33 182.501 182.842 183.341C183.287 183.591 183.756 183.796 184.243 183.952L188.457 184.628L224.693 190.422L226.149 186.046L223.406 179.186L225.224 173.289L225.635 116.147V116.104L219.052 105.603L218.998 98.9647L200.617 98.5156L198.621 103.58L194.677 105.938C185.936 111.164 182.788 120.735 182.977 130.922C185.99 142.592 183.772 155.565 181.527 169.475L179.693 173.143C179.099 174.332 178.822 175.655 178.887 176.984Z" fill="#6C63FF"/>
<path opacity="0.2" d="M178.888 176.984C178.926 177.78 179.09 178.565 179.375 179.31L182.842 183.341C183.287 183.591 183.756 183.796 184.243 183.952L188.457 184.628L182.36 173.164L195.759 143.825L178.888 176.984Z" fill="black"/>
<path d="M217.116 105.181L198.62 103.579C193.338 105.994 188.775 109.744 185.381 114.459C181.987 119.173 179.879 124.691 179.264 130.468L173.167 187.789L212.459 194.461L228.853 198.997L217.116 105.181Z" fill="#3F3D56"/>
<path d="M194.641 79.932C195.257 84.4279 197.633 88.4952 201.246 91.2402C204.859 93.9852 209.414 95.1833 213.909 94.5713C218.405 93.9594 222.474 91.5873 225.222 87.9765C227.971 84.3656 229.173 79.8113 228.565 75.3142L228.532 75.0712C227.823 70.6346 225.398 66.6546 221.781 63.9898C218.165 61.325 213.645 60.189 209.198 60.8268C204.752 61.4646 200.734 63.825 198.011 67.399C195.289 70.973 194.08 75.4741 194.646 79.9313L194.641 79.932Z" fill="#FFB8B8"/>
<path d="M198.998 88.7504C198.119 86.9644 197.216 85.0469 197.463 83.0716C197.71 81.0963 199.647 79.2082 201.548 79.7953C202.686 80.1463 203.545 81.2695 204.734 81.327C206.37 81.4061 207.308 79.5338 207.817 77.977L209.891 71.6369C211.882 73.189 214.191 74.2823 216.654 74.8388C219.116 75.3954 221.671 75.4014 224.136 74.8564C226.061 74.4162 228.006 73.5578 229.136 71.9374C230.265 70.3169 230.258 67.8033 228.709 66.578C227.95 65.9772 226.939 65.7489 226.213 65.1078C225.763 64.7101 225.452 64.1779 225.328 63.5902C225.204 63.0024 225.272 62.3901 225.522 61.8441C225.773 61.298 226.192 60.8471 226.719 60.5581C227.246 60.2691 227.851 60.1574 228.447 60.2394L223.225 59.5868L224.781 56.7728C223.66 57.6565 222.1 57.7754 220.695 57.5224C219.291 57.2694 217.968 56.691 216.594 56.3052C209.996 54.4532 202.329 57.6733 199.032 63.6807C197.747 63.2516 196.362 63.2231 195.061 63.5989C193.759 63.9747 192.603 64.7372 191.744 65.7852C190.347 67.5594 189.967 69.9271 189.913 72.1852C189.811 76.6377 190.781 81.0492 192.743 85.0477C193.305 86.3177 194.113 87.464 195.12 88.4206C195.627 88.8949 196.232 89.2525 196.891 89.4683C197.551 89.6841 198.25 89.7529 198.94 89.6699" fill="#2F2E41"/>
<path d="M213.162 193.167L178.063 186.634L189.346 126C189.775 123.695 190.654 121.497 191.932 119.532C193.21 117.566 194.863 115.872 196.796 114.546C198.729 113.219 200.904 112.286 203.197 111.8C205.491 111.315 207.857 111.285 210.162 111.714C212.466 112.143 214.664 113.022 216.629 114.301C218.594 115.579 220.288 117.232 221.615 119.165C222.941 121.098 223.873 123.274 224.359 125.567C224.845 127.861 224.874 130.228 224.445 132.533L213.162 193.167ZM180.586 184.902L211.431 190.644L222.318 132.137C222.696 130.111 222.671 128.03 222.245 126.014C221.819 123.997 221 122.085 219.834 120.385C218.669 118.685 217.18 117.232 215.453 116.108C213.725 114.984 211.793 114.211 209.768 113.834C207.742 113.457 205.661 113.483 203.645 113.91C201.629 114.337 199.717 115.158 198.019 116.324C196.32 117.491 194.867 118.981 193.744 120.709C192.621 122.437 191.85 124.369 191.474 126.396L180.586 184.902Z" fill="#CCCCCC"/>
<path d="M169.658 212.144L209.083 220.706C211.334 221.195 213.554 219.766 214.043 217.515L219.808 190.962C220.297 188.711 218.869 186.49 216.618 186.001L177.193 177.439C174.942 176.95 172.722 178.379 172.233 180.63L166.468 207.183C165.979 209.434 167.407 211.655 169.658 212.144Z" fill="#CCCCCC"/>
<path d="M192.496 186.78V194.96L192.913 195.052L193.421 195.165L207.453 198.276H207.464L211.759 199.228H211.943C212.091 199.229 212.239 199.199 212.375 199.14C212.512 199.082 212.636 198.996 212.738 198.888C212.923 198.687 213.025 198.424 213.024 198.152V186.78C213.026 186.613 212.987 186.449 212.912 186.3C212.836 186.151 212.727 186.023 212.592 185.925C212.571 185.902 212.547 185.882 212.521 185.865C212.441 185.819 212.356 185.781 212.267 185.752C212.259 185.747 212.249 185.746 212.24 185.746C212.238 185.744 212.235 185.743 212.233 185.742C212.23 185.741 212.227 185.741 212.224 185.741C212.132 185.717 212.038 185.704 211.943 185.703H193.556C193.334 185.702 193.117 185.775 192.94 185.909C192.802 186.008 192.69 186.139 192.613 186.291C192.536 186.442 192.496 186.61 192.496 186.78Z" fill="white"/>
<path d="M192.496 186.78V194.96L192.913 195.052L193.421 195.165C193.371 195.008 193.331 194.847 193.302 194.684C193.292 194.65 193.285 194.616 193.28 194.581C193.241 194.347 193.222 194.11 193.221 193.872V186.78C193.222 186.686 193.26 186.596 193.327 186.53C193.394 186.464 193.484 186.428 193.578 186.428H211.943C212.036 186.428 212.127 186.464 212.194 186.53C212.26 186.596 212.299 186.686 212.3 186.78V197.232C212.297 197.495 212.192 197.746 212.008 197.933C211.823 198.12 211.572 198.228 211.31 198.233C210.936 198.238 210.444 198.244 209.86 198.249C209.178 198.26 208.367 198.271 207.464 198.276L211.759 199.228H211.943C212.091 199.229 212.239 199.199 212.375 199.14C212.512 199.082 212.636 198.996 212.738 198.888C212.923 198.687 213.025 198.424 213.024 198.152V186.78C213.026 186.613 212.987 186.449 212.912 186.3C212.836 186.151 212.727 186.023 212.592 185.925C212.571 185.902 212.547 185.882 212.521 185.865C212.441 185.819 212.356 185.781 212.267 185.752C212.259 185.747 212.249 185.746 212.24 185.746C212.238 185.744 212.235 185.743 212.233 185.742C212.23 185.741 212.227 185.741 212.224 185.741C212.132 185.717 212.038 185.704 211.943 185.703H193.556C193.334 185.702 193.117 185.775 192.94 185.909C192.802 186.008 192.69 186.139 192.613 186.291C192.536 186.442 192.496 186.61 192.496 186.78ZM192.496 194.175V194.403L193.28 194.581C193.241 194.347 193.222 194.11 193.221 193.872V193.483C192.983 193.721 192.74 193.948 192.496 194.175Z" fill="#6C63FF"/>
<path d="M196 192.961H209.993C210.117 192.961 210.237 192.923 210.339 192.852C210.44 192.781 210.517 192.681 210.559 192.565L212.72 186.535C212.746 186.461 212.758 186.382 212.754 186.304C212.75 186.225 212.73 186.148 212.696 186.078C212.662 186.007 212.615 185.943 212.557 185.891C212.498 185.838 212.43 185.798 212.356 185.772C212.291 185.749 212.224 185.737 212.155 185.737L193.388 185.704H193.387C193.288 185.703 193.191 185.728 193.103 185.774C193.016 185.821 192.941 185.888 192.886 185.971C192.832 186.054 192.798 186.148 192.79 186.247C192.781 186.346 192.796 186.445 192.836 186.536L195.448 192.6C195.495 192.707 195.572 192.799 195.67 192.863C195.768 192.927 195.883 192.961 196 192.961Z" fill="#6C63FF"/>
<path d="M202.771 194.449C203.596 194.449 204.266 193.783 204.266 192.962C204.266 192.14 203.596 191.475 202.771 191.475C201.945 191.475 201.275 192.14 201.275 192.962C201.275 193.783 201.945 194.449 202.771 194.449Z" fill="#3F3D56"/>
<path d="M177.61 191.665L177.956 191.74L178.627 191.887L185.524 193.418L191.831 194.813L192.497 194.96L192.913 195.051L193.303 194.684L193.389 194.602L195.466 192.633L200.557 187.813C200.742 187.638 200.86 187.402 200.887 187.148C200.915 186.894 200.852 186.639 200.708 186.428C200.679 186.376 200.642 186.329 200.6 186.287L200.059 185.714L200.048 185.703L192.783 178.031C192.666 177.907 192.521 177.813 192.36 177.756C192.199 177.7 192.027 177.683 191.858 177.707C191.84 177.706 191.822 177.708 191.804 177.712C191.688 177.735 191.577 177.777 191.474 177.837C191.396 177.879 191.323 177.932 191.258 177.993L177.919 190.626L177.908 190.637C177.774 190.766 177.676 190.928 177.627 191.108C177.61 191.151 177.605 191.189 177.594 191.221C177.572 191.369 177.578 191.519 177.61 191.665Z" fill="white"/>
<path d="M177.61 191.665L177.956 191.74L178.627 191.887L178.4 191.649C178.354 191.599 178.323 191.536 178.311 191.469C178.3 191.402 178.308 191.332 178.335 191.27C178.353 191.225 178.381 191.184 178.416 191.151L191.756 178.518C191.789 178.486 191.829 178.461 191.872 178.444C191.915 178.427 191.961 178.419 192.008 178.421C192.054 178.422 192.1 178.433 192.142 178.453C192.184 178.472 192.222 178.5 192.253 178.534L192.902 179.216L199.042 185.703L199.053 185.714L199.442 186.125C199.526 186.213 199.592 186.315 199.637 186.428C199.712 186.613 199.731 186.816 199.69 187.011C199.65 187.207 199.552 187.386 199.41 187.526C198.593 188.321 196.992 189.874 195.066 191.713C194.477 192.287 193.862 192.877 193.222 193.483C192.984 193.721 192.74 193.948 192.497 194.175C192.432 194.24 192.367 194.305 192.302 194.359C192.145 194.516 191.988 194.662 191.831 194.813L192.497 194.96L192.913 195.051L193.303 194.684L193.389 194.602L195.466 192.633L200.557 187.813C200.742 187.638 200.86 187.402 200.887 187.148C200.915 186.894 200.852 186.639 200.708 186.428C200.679 186.376 200.642 186.329 200.6 186.287L200.059 185.714L200.048 185.703L192.783 178.031C192.666 177.907 192.521 177.813 192.36 177.756C192.199 177.7 192.027 177.683 191.858 177.707C191.84 177.706 191.822 177.708 191.804 177.712C191.688 177.735 191.577 177.777 191.474 177.837C191.396 177.879 191.323 177.932 191.258 177.993L177.919 190.626L177.908 190.637C177.774 190.766 177.676 190.928 177.627 191.108C177.61 191.151 177.605 191.189 177.594 191.221C177.572 191.369 177.578 191.519 177.61 191.665Z" fill="#6C63FF"/>
<path d="M177.593 191.195V191.222C177.6 191.363 177.657 191.498 177.756 191.6C177.813 191.66 177.881 191.707 177.956 191.741L178.627 191.887L185.523 193.418L186.005 192.964L188.499 190.599L190.673 188.544L192.496 186.812L192.826 186.504L193.67 185.703L194.827 184.605C194.918 184.521 194.98 184.41 195.005 184.289C195.03 184.168 195.017 184.042 194.968 183.929L192.902 179.217L192.393 178.064C192.348 177.96 192.273 177.87 192.178 177.807C192.083 177.744 191.972 177.709 191.858 177.707C191.84 177.707 191.821 177.708 191.804 177.713C191.734 177.713 191.666 177.73 191.603 177.761C191.557 177.78 191.513 177.805 191.474 177.837C191.457 177.848 191.447 177.864 191.43 177.875L177.918 190.626L177.907 190.637L177.783 190.756C177.694 190.854 177.632 190.974 177.604 191.103C177.595 191.132 177.591 191.163 177.593 191.195Z" fill="#6C63FF"/>
<path d="M190.608 190.652C191.208 190.084 191.236 189.14 190.671 188.544C190.107 187.947 189.163 187.924 188.563 188.492C187.964 189.06 187.935 190.004 188.5 190.6C189.065 191.197 190.008 191.22 190.608 190.652Z" fill="#3F3D56"/>
<path d="M176.101 191.33L177.61 191.665L177.956 191.741L178.627 191.887L185.524 193.418L191.831 194.814L192.496 194.96L192.913 195.052L193.421 195.165L207.453 198.276H207.464L211.759 199.228L213.787 199.677L218.58 189.923L218.093 189.685L213.49 199.055L212.738 198.888L209.86 198.249L193.389 194.603L193.281 194.581L192.496 194.403L192.301 194.359L186.005 192.964L178.335 191.27L177.626 191.108L177.604 191.102L176.663 190.897L177.193 180.304L176.652 180.282L176.101 191.33Z" fill="#CCCCCC"/>
<path d="M365 349.357C365 349.441 364.984 349.525 364.952 349.603C364.919 349.682 364.872 349.753 364.812 349.813C364.752 349.872 364.681 349.92 364.603 349.952C364.525 349.984 364.441 350.001 364.356 350.001H0.693515C0.522792 350.001 0.35906 349.933 0.238342 349.812C0.117623 349.691 0.0498047 349.527 0.0498047 349.357C0.0498047 349.186 0.117623 349.022 0.238342 348.901C0.35906 348.781 0.522792 348.713 0.693515 348.713H364.356C364.441 348.713 364.525 348.729 364.603 348.761C364.681 348.794 364.752 348.841 364.812 348.901C364.872 348.961 364.919 349.032 364.952 349.11C364.984 349.188 365 349.272 365 349.357Z" fill="#CCCCCC"/>
<path d="M215.474 205.371C214.793 204.949 214.213 204.382 213.774 203.712C213.336 203.041 213.05 202.282 212.937 201.489C212.823 200.695 212.885 199.887 213.118 199.12C213.351 198.353 213.749 197.647 214.284 197.05L198.274 176.847L195.875 150.21L207.756 151.164L208.039 171.804L222.353 196.858C223.295 197.824 223.85 199.101 223.913 200.449C223.976 201.797 223.542 203.121 222.694 204.17C221.846 205.22 220.643 205.922 219.312 206.143C217.981 206.364 216.616 206.09 215.474 205.371Z" fill="#FFB6B6"/>
<path d="M195.316 132.538C195.567 137.443 195.088 164.738 197.226 171.214C196.411 171.712 195.785 172.468 195.446 173.362C195.108 174.256 195.076 175.237 195.357 176.151L209.226 173.239C210.85 170.468 209.096 169.235 207.923 168.769L209.689 159.53L213.459 126.424C213.622 124.989 213.4 123.537 212.815 122.216C212.23 120.896 211.303 119.755 210.13 118.912C209.128 118.195 207.976 117.714 206.761 117.507C205.546 117.3 204.3 117.372 203.117 117.718C201.934 118.064 200.845 118.674 199.932 119.503C199.02 120.331 198.308 121.357 197.85 122.501C196.401 126.087 195.184 129.944 195.316 132.538Z" fill="#6C63FF"/>
</g>
<defs>
<clipPath id="clip0_496_2067">
<rect width="365" height="350" fill="white"/>
</clipPath>
</defs>
</svg>
