<svg width="342" height="397" viewBox="0 0 342 397" fill="none" xmlns="http://www.w3.org/2000/svg">
    <g clip-path="url(#clip0_63_1130)">
        <path d="M342 352.406H250.205V351.218C274.236 351.218 297.282 341.676 314.274 324.693C331.265 307.709 340.811 284.674 340.811 260.655V196.623H342V352.406Z" fill="#F2F2F2"/>
        <path d="M91.5343 120.972C89.0941 121.901 86.6022 122.689 84.0712 123.331C80.7279 124.146 78.8402 124.523 75.6133 123.271C75.5 123.227 75.3918 123.184 75.2898 123.141C69.1733 120.542 63.9448 116.221 60.2407 110.706C56.5366 105.19 54.5166 98.7167 54.4266 92.0742C54.4104 91.8463 54.4104 91.6068 54.4104 91.373C54.4073 90.2472 54.4611 89.122 54.5718 88.0017C54.7132 86.4756 54.9574 84.9607 55.3028 83.4675L55.2706 83.4617C52.658 80.7914 51.6527 77.1337 51.986 73.4585C52.2144 70.9669 53.0055 68.5595 54.2998 66.4179C55.5942 64.2762 57.358 62.4562 59.4583 61.0948C62.7498 59.0263 66.4612 57.7169 70.3226 57.2618C71.3594 57.1423 72.4022 57.0818 73.4459 57.0807H83.2512C85.2763 56.6068 87.3336 56.2826 89.4064 56.1107H89.4225C109.157 54.4747 124.72 67.5513 123.268 83.4616C123.257 83.4792 123.241 83.4967 123.23 83.5143C122.811 84.1979 122.44 84.8464 122.112 85.4658C121.795 86.0442 121.526 86.5993 121.295 87.1252C119.494 91.1919 128.052 154.287 124.983 155.245C123.236 155.788 116.194 108.838 117.457 117.766C119.048 128.967 100.626 117.613 91.5343 120.972Z" fill="#2F2E41"/>
        <path d="M121.263 235.03L148.618 293.28L43.3878 282.627L65.3541 226.708L121.263 235.03Z" fill="#FFB6B6"/>
        <path d="M176.177 351.819C157.878 357.907 138.594 360.489 119.337 359.429L110.963 345.855C110.963 345.855 110.613 350.91 110.09 358.639C100.923 357.577 91.8755 355.659 83.0662 352.912C66.3601 347.691 50.7 339.6 34.8259 332.139C31.6107 312.982 30.4042 283.441 48.1801 266.243L143.858 283.767C143.858 283.767 159.209 295.244 155.103 299.355C150.996 303.459 150.36 302.824 153.058 305.521C155.757 308.217 161.587 311.823 161.646 314.181C161.67 315.102 168.213 331.8 176.177 351.819Z" fill="#2F2E41"/>
        <path d="M104.555 122.469L81.4396 124.081L66.4991 138.511L61.2666 139.444C56.5633 140.283 52.3312 142.817 49.3728 146.566C46.4145 150.316 44.9356 155.02 45.2166 159.787C46.2929 178.014 48.7027 205.247 53.7394 214.082C61.5494 227.783 68.0003 223.484 61.5494 227.783C55.0985 232.081 50.7676 228.703 53.7394 235.497C56.7113 242.29 49.7228 251.004 49.7228 251.004L46.9409 253.784L49.8915 254.993L143.91 267.221C143.91 267.221 135.78 230.687 140.864 221.712C145.948 212.738 158.275 185.609 147.274 174.994L136.517 137.158L118.013 131.704L104.555 122.469Z" fill="#1A4BA6"/>
        <path d="M244.485 272.415C242.938 272.366 241.42 271.981 240.036 271.288C238.652 270.595 237.436 269.61 236.47 268.401C235.505 267.191 234.814 265.787 234.445 264.285C234.076 262.782 234.038 261.218 234.334 259.699L190.232 229.846L195.494 215.623L247.615 251.463C250.135 252.15 252.316 253.738 253.743 255.925C255.171 258.112 255.746 260.746 255.36 263.328C254.974 265.911 253.654 268.262 251.65 269.937C249.645 271.612 247.096 272.493 244.485 272.415Z" fill="#FFB6B6"/>
        <path d="M119.919 135.371L113.51 137.908L147.696 204.643L218.466 252.859L228.668 235.626L174.797 189.117L153.229 147.773C150.194 141.955 145.109 137.467 138.957 135.177C132.805 132.886 126.023 132.956 119.919 135.371Z" fill="#1A4BA6"/>
        <path d="M91.7946 116.6C104.614 116.6 115.006 106.212 115.006 93.3993C115.006 80.5862 104.614 70.1991 91.7946 70.1991C78.9753 70.1991 68.5833 80.5862 68.5833 93.3993C68.5833 106.212 78.9753 116.6 91.7946 116.6Z" fill="#FFB6B6"/>
        <path d="M111.979 83.5886C111.592 83.7928 111.21 83.9808 110.823 84.1689C110.42 84.3623 110.017 84.5558 109.608 84.7384C101.84 88.2578 95.5132 88.6501 91.675 83.5886C91.5699 80.9257 90.9702 78.3056 89.9063 75.862C90.0943 78.5928 89.3743 81.3091 87.8582 83.5886H80.1279C72.1665 88.8704 68.0809 93.7224 73.6072 111.062C73.9673 112.201 76.4348 152.671 77.139 155.782C65.0867 151.161 54.69 102.099 54.4266 89.1713C54.4104 88.9618 54.4104 88.7414 54.4104 88.5265C54.4073 87.4909 54.4612 86.4559 54.5718 85.4262C54.7136 84.0204 54.9579 82.6269 55.3028 81.2566L55.2706 81.2513C54.0443 80.0795 53.1088 78.6376 52.5386 77.0406C51.9683 75.4435 51.7791 73.7355 51.986 72.0524C54.0079 69.4064 56.5099 67.1644 59.3615 65.4435C61.9545 64.1884 64.6573 63.174 67.4358 62.413C67.5057 62.3969 67.5648 62.3808 67.6347 62.3647C68.4841 62.1336 69.355 61.9241 70.2258 61.7414C72.0205 61.3652 73.835 61.0907 75.6607 60.9193C75.7951 60.9139 75.9241 60.9031 76.0424 60.9031C76.7726 60.9036 77.4893 61.1003 78.1174 61.4727C78.1228 61.4727 78.1228 61.4781 78.1335 61.4781C78.737 61.8385 79.2375 62.3482 79.5868 62.958C79.9361 63.5678 80.1224 64.2572 80.1279 64.9599H88.7398C89.057 64.9599 89.3741 64.9706 89.6913 64.9867C101.685 65.4649 111.323 70.5909 111.941 82.3743C111.968 82.7826 111.979 83.1802 111.979 83.5886Z" fill="#2F2E41"/>
        <path d="M61.0639 84.5213C69.5093 84.5213 76.3556 77.6782 76.3556 69.2368C76.3556 60.7955 69.5093 53.9524 61.0639 53.9524C52.6185 53.9524 45.7721 60.7955 45.7721 69.2368C45.7721 77.6782 52.6185 84.5213 61.0639 84.5213Z" fill="#2F2E41"/>
        <path d="M82.0578 62.1673C80.3206 70.4281 71.7494 75.3688 63.5496 73.3478C59.612 72.3772 56.2213 69.883 54.1235 66.4137C52.0258 62.9444 51.3928 58.7842 52.3638 54.8484C54.3858 46.6526 64.3373 49.0154 70.872 43.668C80.1163 36.1033 84.4007 51.0269 82.0578 62.1673Z" fill="#2F2E41"/>
        <path d="M48.0818 292.117C61.1147 238.995 86.9381 193.335 129.705 157.561C131.36 154.84 134.028 152.886 137.123 152.127C140.218 151.369 143.487 151.869 146.213 153.517L247.882 215.132C250.604 216.786 252.559 219.452 253.318 222.546C254.076 225.639 253.576 228.907 251.927 231.632C235.604 286.141 211.155 333.441 170.304 366.188C168.649 368.909 165.981 370.863 162.887 371.622C159.792 372.38 156.522 371.88 153.796 370.232L52.1278 308.618C49.405 306.963 47.4498 304.297 46.6913 301.203C45.9328 298.11 46.4329 294.842 48.0818 292.117Z" fill="#F2F2F2"/>
        <path opacity="0.2" d="M66.1523 310.02C63.4295 308.366 61.4744 305.699 60.7159 302.606C59.9574 299.513 60.4575 296.245 62.1065 293.52C75.1393 240.397 100.963 194.737 143.73 158.964C144.825 157.182 146.372 155.722 148.214 154.73L146.213 153.517C143.487 151.869 140.218 151.369 137.123 152.127C134.028 152.885 131.36 154.839 129.705 157.561C86.9382 193.335 61.1148 238.994 48.0819 292.117C46.433 294.842 45.9329 298.11 46.6913 301.203C47.4498 304.297 49.4049 306.963 52.1278 308.617L153.796 370.232C155.605 371.32 157.67 371.911 159.782 371.944C161.894 371.977 163.977 371.452 165.82 370.422L66.1523 310.02Z" fill="black"/>
        <path d="M185.383 280.34L117.139 239.24C116.054 238.586 115.275 237.527 114.97 236.298C114.666 235.069 114.863 233.769 115.516 232.685C116.17 231.6 117.228 230.819 118.457 230.514C119.687 230.208 120.987 230.403 122.073 231.055L190.317 272.155C191.399 272.811 192.176 273.869 192.479 275.097C192.781 276.325 192.585 277.623 191.932 278.706C191.279 279.789 190.223 280.569 188.995 280.876C187.768 281.182 186.469 280.99 185.383 280.34Z" fill="white"/>
        <path d="M145.683 225.838L130.669 216.796C129.581 216.145 128.796 215.089 128.487 213.86C128.178 212.631 128.37 211.33 129.021 210.242C129.672 209.155 130.728 208.37 131.958 208.061C133.187 207.752 134.49 207.944 135.578 208.595L135.603 208.61L150.617 217.652C151.699 218.308 152.477 219.366 152.779 220.594C153.082 221.822 152.885 223.12 152.232 224.204C151.579 225.287 150.523 226.067 149.295 226.374C148.068 226.68 146.769 226.487 145.683 225.838Z" fill="#00C249"/>
        <path d="M174.537 298.333L106.292 257.233C105.207 256.58 104.425 255.522 104.119 254.293C103.813 253.064 104.008 251.764 104.661 250.679C105.314 249.593 106.371 248.811 107.6 248.504C108.829 248.197 110.13 248.39 111.217 249.042L111.227 249.047L179.471 290.148C180.552 290.804 181.33 291.862 181.632 293.09C181.935 294.317 181.738 295.615 181.085 296.698C180.432 297.781 179.376 298.562 178.149 298.868C176.921 299.175 175.622 298.982 174.537 298.333Z" fill="white"/>
        <path d="M194.049 202.845C205.058 202.845 213.982 193.925 213.982 182.922C213.982 171.919 205.058 162.999 194.049 162.999C183.041 162.999 174.117 171.919 174.117 182.922C174.117 193.925 183.041 202.845 194.049 202.845Z" fill="#3F3D56"/>
        <path d="M297.279 138.032C298.972 137.887 300.262 136.816 300.162 135.639C300.061 134.462 298.607 133.625 296.914 133.769C295.221 133.914 293.93 134.986 294.031 136.163C294.132 137.34 295.586 138.177 297.279 138.032Z" fill="white"/>
        <path d="M316.327 131.574C318.02 131.429 319.31 130.357 319.21 129.18C319.109 128.003 317.655 127.166 315.962 127.311C314.269 127.455 312.978 128.527 313.079 129.704C313.18 130.881 314.634 131.718 316.327 131.574Z" fill="#3F3D56"/>
        <path d="M288.25 123.507C289.942 123.362 291.233 122.29 291.133 121.113C291.032 119.936 289.578 119.099 287.885 119.244C286.192 119.389 284.901 120.46 285.002 121.637C285.103 122.814 286.557 123.651 288.25 123.507Z" fill="#1A4BA6"/>
        <path d="M280.26 118.826C280.988 118.662 281.387 117.679 281.15 116.632C280.914 115.586 280.131 114.87 279.402 115.035C278.674 115.199 278.275 116.181 278.512 117.228C278.748 118.275 279.531 118.991 280.26 118.826Z" fill="#E6E6E6"/>
        <path d="M274.571 107.463C275.299 107.299 275.698 106.317 275.462 105.27C275.225 104.223 274.442 103.507 273.714 103.672C272.985 103.837 272.586 104.819 272.823 105.866C273.06 106.913 273.842 107.628 274.571 107.463Z" fill="#3F3D56"/>
        <path d="M301.864 123.421C302.593 123.256 302.991 122.274 302.755 121.227C302.518 120.18 301.736 119.465 301.007 119.629C300.278 119.794 299.879 120.776 300.116 121.823C300.353 122.87 301.135 123.585 301.864 123.421Z" fill="#E6E6E6"/>
        <path d="M293.544 130.324C294.273 130.159 294.672 129.177 294.435 128.13C294.199 127.083 293.416 126.368 292.687 126.533C291.959 126.697 291.56 127.679 291.797 128.726C292.033 129.773 292.816 130.488 293.544 130.324Z" fill="#1A4BA6"/>
        <path d="M308.69 135.947C309.419 135.782 309.818 134.8 309.581 133.753C309.345 132.706 308.562 131.991 307.833 132.155C307.105 132.32 306.706 133.302 306.943 134.349C307.179 135.396 307.962 136.111 308.69 135.947Z" fill="#3F3D56"/>
        <path d="M218.636 50.013C218.926 48.8678 217.826 47.6012 216.179 47.184C214.532 46.7668 212.962 47.3569 212.671 48.5022C212.381 49.6474 213.481 50.914 215.128 51.3312C216.775 51.7484 218.345 51.1582 218.636 50.013Z" fill="white"/>
        <path d="M198.522 49.8834C198.812 48.7382 197.713 47.4716 196.066 47.0544C194.419 46.6372 192.848 47.2273 192.558 48.3726C192.267 49.5178 193.367 50.7844 195.014 51.2016C196.661 51.6188 198.232 51.0286 198.522 49.8834Z" fill="#3F3D56"/>
        <path d="M222.41 66.6924C222.701 65.5471 221.601 64.2806 219.954 63.8633C218.307 63.4461 216.736 64.0363 216.446 65.1816C216.155 66.3268 217.255 67.5934 218.902 68.0106C220.549 68.4278 222.12 67.8376 222.41 66.6924Z" fill="#1A4BA6"/>
        <path d="M227.099 72.9818C227.218 71.9151 226.713 70.9831 225.971 70.9002C225.228 70.8173 224.53 71.6148 224.41 72.6815C224.291 73.7482 224.796 74.6801 225.539 74.763C226.281 74.846 226.98 74.0485 227.099 72.9818Z" fill="#E6E6E6"/>
        <path d="M228.753 85.5798C228.872 84.5131 228.367 83.5812 227.625 83.4983C226.882 83.4153 226.184 84.2128 226.064 85.2795C225.945 86.3462 226.45 87.2782 227.193 87.3611C227.935 87.444 228.634 86.6465 228.753 85.5798Z" fill="#3F3D56"/>
        <path d="M208.19 61.5716C208.309 60.5049 207.804 59.573 207.061 59.4901C206.319 59.4072 205.62 60.2047 205.501 61.2714C205.382 62.338 205.887 63.27 206.629 63.3529C207.372 63.4358 208.07 62.6383 208.19 61.5716Z" fill="#E6E6E6"/>
        <path d="M218.312 57.7708C218.431 56.7041 217.926 55.7721 217.183 55.6892C216.441 55.6063 215.742 56.4038 215.623 57.4705C215.504 58.5372 216.009 59.4691 216.752 59.552C217.494 59.635 218.192 58.8375 218.312 57.7708Z" fill="#1A4BA6"/>
        <path d="M205.842 47.5021C205.961 46.4354 205.456 45.5035 204.713 45.4206C203.971 45.3376 203.272 46.1351 203.153 47.2018C203.034 48.2685 203.539 49.2005 204.281 49.2834C205.024 49.3663 205.722 48.5688 205.842 47.5021Z" fill="#3F3D56"/>
        <path d="M1.18862 155.782H0V0H91.7945V1.18806C67.7644 1.18806 44.7183 10.7294 27.7265 27.7132C10.7346 44.697 1.18862 67.7319 1.18862 91.7506V155.782Z" fill="#F2F2F2"/>
        <path d="M54.4212 292.68C52.9021 292.058 51.5363 291.113 50.4184 289.911C49.3004 288.71 48.4569 287.28 47.9462 285.72C47.4356 284.161 47.2699 282.509 47.4608 280.879C47.6516 279.25 48.1943 277.681 49.0514 276.281L16.3016 230.267L26.808 218.084L65.3056 273.02C67.5551 274.637 69.133 277.023 69.7402 279.725C70.3474 282.427 69.9417 285.258 68.6 287.682C67.2584 290.105 65.074 291.953 62.4607 292.874C59.8475 293.795 56.9869 293.726 54.4212 292.68Z" fill="#FFB6B6"/>
        <path d="M55.1737 146.863C53.5168 145.888 51.5667 145.536 49.6735 145.869C47.7802 146.202 46.0678 147.199 44.8435 148.681L0.594238 210.536L41.6018 268.751L57.6482 251.524L32.6871 212.318L65.8606 180.748C68.5867 174.779 69.0031 168.012 67.0293 161.754C65.0556 155.495 60.8318 150.19 55.1737 146.863Z" fill="#1A4BA6"/>
    </g>
    <defs>
        <clipPath id="clip0_63_1130">
            <rect width="342" height="397" fill="white"/>
        </clipPath>
    </defs>
</svg>
