<svg width="267" height="259" viewBox="0 0 267 259" fill="none" xmlns="http://www.w3.org/2000/svg">
<g clip-path="url(#clip0_50_8702)">
<rect width="267" height="258" transform="translate(0 0.666504)" fill="#EDEFFF"/>
<path d="M243.585 247.49C243.299 247.504 243.017 247.429 242.775 247.276C242.534 247.123 242.346 246.9 242.235 246.637C242.125 246.373 242.099 246.083 242.159 245.804C242.22 245.525 242.365 245.271 242.575 245.077L242.67 244.698C242.658 244.668 242.645 244.637 242.633 244.607C242.345 243.929 241.863 243.35 241.248 242.944C240.632 242.538 239.911 242.323 239.173 242.326C238.436 242.329 237.716 242.549 237.103 242.96C236.491 243.37 236.014 243.952 235.731 244.633C234.602 247.349 233.165 250.071 232.811 252.943C232.656 254.213 232.721 255.5 233.006 256.747C230.355 250.968 228.978 244.687 228.969 238.329C228.968 236.734 229.057 235.14 229.235 233.555C229.381 232.255 229.585 230.964 229.845 229.683C231.266 222.732 234.317 216.216 238.747 210.671C240.892 209.502 242.626 207.704 243.716 205.52C244.111 204.735 244.39 203.897 244.545 203.031C244.303 203.063 243.633 199.382 243.815 199.156C243.478 198.645 242.875 198.391 242.507 197.892C240.676 195.411 238.153 195.845 236.836 199.216C234.023 200.634 233.996 202.987 235.722 205.25C236.82 206.69 236.971 208.638 237.935 210.18C237.835 210.307 237.732 210.429 237.633 210.556C235.821 212.885 234.242 215.385 232.918 218.022C233.24 215.068 232.855 212.08 231.796 209.304C230.723 206.717 228.711 204.538 226.94 202.301C224.812 199.614 220.449 200.787 220.074 204.193C220.07 204.226 220.067 204.259 220.063 204.292C220.326 204.44 220.584 204.597 220.836 204.764C221.152 204.975 221.398 205.277 221.54 205.63C221.682 205.983 221.713 206.371 221.631 206.743C221.549 207.114 221.356 207.452 221.078 207.712C220.8 207.972 220.45 208.143 220.074 208.201L220.035 208.206C220.129 209.154 220.295 210.093 220.531 211.016C218.258 219.799 223.165 222.997 230.171 223.141C230.325 223.22 230.476 223.3 230.631 223.375C229.3 227.142 228.466 231.066 228.148 235.048C227.968 237.398 227.979 239.758 228.18 242.106L228.168 242.022C227.66 239.412 226.267 237.056 224.223 235.354C221.186 232.861 216.897 231.943 213.621 229.94C213.273 229.717 212.868 229.597 212.455 229.596C212.041 229.595 211.636 229.713 211.286 229.934C210.937 230.156 210.659 230.473 210.484 230.847C210.309 231.222 210.245 231.639 210.299 232.049C210.303 232.078 210.308 232.107 210.312 232.136C210.801 232.335 211.276 232.564 211.736 232.822C211.999 232.97 212.257 233.127 212.509 233.294C212.825 233.505 213.071 233.807 213.213 234.16C213.354 234.513 213.386 234.901 213.304 235.273C213.222 235.644 213.029 235.982 212.751 236.242C212.473 236.502 212.123 236.673 211.747 236.731L211.708 236.736C211.68 236.74 211.657 236.744 211.629 236.748C212.463 238.739 213.634 240.571 215.091 242.165C216.512 249.832 222.615 250.559 229.144 248.327H229.147C229.864 251.437 230.902 254.465 232.244 257.361H243.307C243.347 257.238 243.383 257.112 243.419 256.989C242.394 257.053 241.366 256.992 240.357 256.807C241.178 255.8 241.999 254.786 242.82 253.779C242.838 253.76 242.855 253.741 242.871 253.72C243.288 253.205 243.708 252.693 244.124 252.178L244.125 252.178C244.147 250.599 243.965 249.023 243.585 247.49Z" fill="#F2F2F2"/>
<path d="M225.151 149.182C228.083 138.544 233.552 129.483 242.383 122.513C242.732 121.973 243.281 121.594 243.91 121.459C244.539 121.324 245.195 121.443 245.736 121.791L265.891 134.796C266.431 135.145 266.81 135.694 266.945 136.322C267.081 136.95 266.961 137.606 266.613 138.147L249.381 164.816C249.032 165.356 248.483 165.734 247.854 165.87C247.225 166.005 246.569 165.886 246.028 165.538L225.873 152.533C225.333 152.184 224.954 151.635 224.819 151.007C224.683 150.379 224.803 149.722 225.151 149.182Z" fill="#F2F2F2"/>
<path d="M231.901 142.125C232.657 136.504 237.31 130.758 242.98 124.979C243.307 124.474 243.821 124.119 244.41 123.992C244.999 123.866 245.614 123.978 246.12 124.303L263.442 135.48C263.947 135.807 264.302 136.321 264.429 136.909C264.556 137.497 264.444 138.112 264.118 138.618L248.784 162.35C248.457 162.855 247.942 163.21 247.354 163.337C246.765 163.463 246.15 163.352 245.644 163.026L234.913 156.102C232.661 154.646 231.08 152.356 230.515 149.736C229.95 147.115 230.449 144.378 231.901 142.125Z" fill="white"/>
<path d="M233.447 165.043C230.89 154.308 231.316 143.735 235.696 133.377C235.742 132.736 236.041 132.14 236.526 131.719C237.012 131.297 237.645 131.086 238.287 131.131L262.218 132.828C262.86 132.874 263.456 133.173 263.878 133.658C264.299 134.143 264.51 134.776 264.466 135.417L262.217 167.083C262.171 167.724 261.872 168.32 261.387 168.741C260.901 169.162 260.268 169.373 259.626 169.329L235.695 167.632C235.054 167.586 234.457 167.287 234.035 166.802C233.614 166.316 233.403 165.684 233.447 165.043Z" fill="#F2F2F2"/>
<path d="M235.962 155.609C233.915 150.319 235.224 143.044 237.407 135.251C237.451 134.651 237.73 134.092 238.185 133.698C238.64 133.304 239.233 133.106 239.834 133.148L260.401 134.606C261.002 134.649 261.56 134.929 261.955 135.383C262.35 135.838 262.548 136.43 262.506 137.031L260.505 165.209C260.462 165.809 260.182 166.368 259.727 166.762C259.272 167.156 258.679 167.354 258.079 167.312L245.338 166.409C242.662 166.216 240.173 164.971 238.415 162.946C236.657 160.921 235.775 158.283 235.962 155.609Z" fill="white"/>
<path d="M235.511 98.7757L225.258 60.8545C224.819 59.2492 223.766 57.8808 222.326 57.0446C220.886 56.2084 219.175 55.9714 217.562 56.3848C216.728 56.5986 215.945 56.9801 215.263 57.5059C214.581 58.0317 214.013 58.6909 213.594 59.4431C213.175 60.1954 212.914 61.0251 212.826 61.8816C212.739 62.738 212.827 63.6034 213.085 64.4248L224.943 103.489L231.147 127.53C230.243 128.219 229.574 129.17 229.23 130.253C228.886 131.336 228.884 132.498 229.224 133.582C229.564 134.666 230.23 135.62 231.131 136.312C232.032 137.005 233.125 137.404 234.26 137.455C235.396 137.505 236.52 137.205 237.479 136.595C238.438 135.986 239.187 135.095 239.622 134.046C240.057 132.996 240.159 131.838 239.912 130.729C239.666 129.62 239.084 128.614 238.246 127.846L235.511 98.7757Z" fill="#FFB6B6"/>
<path d="M161.571 105.335L172.085 67.4859C172.526 65.881 172.317 64.1673 171.505 62.7146C170.692 61.2619 169.341 60.1868 167.742 59.7211C166.915 59.4802 166.047 59.4101 165.192 59.5152C164.337 59.6202 163.512 59.8982 162.768 60.3322C162.024 60.7662 161.376 61.3471 160.864 62.0394C160.352 62.7317 159.986 63.521 159.79 64.3592L150.074 104.01L143.154 127.855C142.025 127.988 140.965 128.465 140.116 129.222C139.268 129.978 138.674 130.977 138.414 132.083C138.153 133.189 138.24 134.349 138.662 135.404C139.084 136.458 139.821 137.358 140.773 137.98C141.724 138.602 142.844 138.916 143.98 138.88C145.117 138.843 146.214 138.458 147.124 137.777C148.034 137.095 148.711 136.151 149.065 135.071C149.419 133.991 149.431 132.829 149.101 131.742L161.571 105.335Z" fill="#FFB6B6"/>
<path d="M221.738 250.727L215.038 250.726L211.851 224.902L221.739 224.903L221.738 250.727Z" fill="#FFB6B6"/>
<path d="M221.974 257.711L201.371 257.71V257.45C201.371 255.325 202.216 253.286 203.72 251.784C205.224 250.281 207.263 249.437 209.39 249.437L213.154 246.583L220.176 249.437L221.974 249.437L221.974 257.711Z" fill="#2F2E41"/>
<path d="M174.59 250.794L167.994 249.618L169.393 223.636L179.127 225.371L174.59 250.794Z" fill="#FFB6B6"/>
<path d="M173.596 257.711L153.313 254.096L153.359 253.84C153.732 251.748 154.922 249.889 156.666 248.674C158.411 247.458 160.567 246.985 162.661 247.358L166.867 245.209L173.279 249.25L175.049 249.565L173.596 257.711Z" fill="#2F2E41"/>
<path d="M175.243 131.992C175.243 131.992 168.999 140.83 169.254 143.796C169.508 146.761 171.713 144.395 169.508 146.761C167.303 149.127 166.018 147.54 167.102 150.463C168.185 153.386 168.626 151.493 168.185 153.386C167.744 155.279 168.626 227.677 168.626 227.677H180.108C180.108 227.677 186.583 185.697 185.764 183.737C184.944 181.777 184.963 182.631 185.835 180.548C186.708 178.465 187.529 175.987 187.529 175.987L196.605 150.463L203.606 186.401L211.846 229.105H222.849C222.849 229.105 224.734 166.308 225.567 165.525C226.4 164.743 225.403 162.984 224.358 161.971C223.313 160.957 223.521 159.928 223.858 157.84C224.195 155.752 225.616 154.587 225.567 153.277C225.518 151.967 228.605 131.146 223.754 127.834C218.902 124.522 175.243 131.992 175.243 131.992Z" fill="#2F2E41"/>
<path d="M213.635 43.9595L200.791 40.6337L194.796 32.3706L180.558 34.1197L177.527 45.3907L167.391 51.2703C185.561 51.3788 175.776 103.983 178.446 107.377C180.62 110.139 167.599 116.709 171.68 120.901C175.761 125.092 174.252 123.415 173.305 127.978C172.358 132.541 165.455 137.371 173.305 137.323C181.155 137.275 228.521 136.599 227.168 131.189C225.815 125.779 225.836 127.153 223.795 123.761C221.755 120.37 220.381 122.265 221.068 117.26C221.755 112.255 219.524 108.384 221.078 106.17C223.463 102.77 221.06 78.2311 218.811 78.8861L213.635 43.9595Z" fill="#C5C5C5"/>
<path d="M209.968 44.135C209.968 44.135 219.363 40.1464 222.746 47.5846C223.827 49.9603 224.737 55.9275 225.613 54.6043C226.49 53.281 225.644 56.182 226.187 56.1855C226.671 56.1887 227.416 55.4058 226.853 58.1032C226.677 58.988 226.728 59.9031 227.001 60.763C227.274 61.623 227.76 62.3998 228.415 63.021L212.086 72.7936L209.968 44.135Z" fill="#C5C5C5"/>
<path d="M174.668 50.8972C174.668 50.8972 165.274 46.9086 161.89 54.3468C160.939 56.4387 161.175 61.0869 159.322 60.5651C157.469 60.0432 158.785 62.0094 158.54 62.6925C158.268 63.4538 159.458 65.6082 157.787 64.8543C156.116 64.1004 156.221 69.7832 156.221 69.7832L172.55 79.5559L174.668 50.8972Z" fill="#C5C5C5"/>
<path d="M179.123 39.7573L176.416 44.4907C176.416 44.4907 168.973 48.5479 168.973 49.2241C168.973 49.9003 170.326 55.4217 168.973 59.761C167.62 64.1004 171.556 72.2612 172.356 78.9767C175.74 107.377 165.678 117.696 163.56 135.777L185.032 142.044C185.032 142.044 188.596 94.5293 188.596 83.7101C188.596 72.891 179.123 39.7573 179.123 39.7573Z" fill="#2F2E41"/>
<path d="M198.746 37.7285L204.278 40.8725C204.278 40.8725 211.517 42.4674 211.603 43.1381C211.69 43.8088 211.715 50.9366 213.612 55.0677C215.509 59.1988 214.987 61.3954 220.095 73.6077C222.705 79.8475 228.698 129.77 228.698 129.77L208.203 138.727C208.203 138.727 198.594 92.0559 197.211 81.3254C195.828 70.5949 198.746 37.7285 198.746 37.7285Z" fill="#2F2E41"/>
<path d="M184.915 31.2814C192.643 31.2814 198.907 25.0216 198.907 17.2997C198.907 9.57773 192.643 3.31787 184.915 3.31787C177.188 3.31787 170.924 9.57773 170.924 17.2997C170.924 25.0216 177.188 31.2814 184.915 31.2814Z" fill="#FFB6B6"/>
<path d="M194.123 28.1632C190.816 25.5797 195.337 14.2152 189.875 16.6409C189.875 16.6409 183.2 12.3959 181.859 15.1854C180.306 18.4155 174.783 16.9502 171.39 15.8101C171.657 15.1908 171.847 14.5411 171.955 13.8756C171.329 14.3686 170.665 14.8126 169.97 15.2037C169.505 14.9549 169.092 14.6169 168.757 14.2091C168.426 13.8304 168.219 13.3595 168.163 12.8597C168.108 12.36 168.207 11.8553 168.447 11.4134C169.012 10.5462 170.177 10.2794 170.862 9.50921C170.942 9.40091 170.993 9.27501 171.013 9.14232C171.033 9.00963 171.02 8.87411 170.976 8.74739C170.895 8.43752 170.882 8.11345 170.94 7.79827C170.998 7.48309 171.125 7.18455 171.312 6.92393C171.498 6.66331 171.74 6.44702 172.02 6.29047C172.3 6.13391 172.611 6.04095 172.93 6.0182C173.059 6.02213 173.187 5.99435 173.302 5.9373C173.878 5.58519 174.409 5.16582 174.886 4.68805C174.091 4.72443 175.063 -0.138449 182.945 0.7826C184.929 0.709834 185.966 2.89687 187.92 3.24254C192.657 0.537753 196.885 4.43943 198.942 8.16897C200.999 11.8986 203.226 23.9181 194.123 28.1632Z" fill="#2F2E41"/>
<path d="M134.423 8.10547H9.00219C6.61613 8.10745 4.32829 9.0552 2.64062 10.7408C0.952952 12.4263 0.00330192 14.712 0 17.0964V130.031C0.00310281 132.416 0.952537 134.703 2.6401 136.389C4.32767 138.075 6.61561 139.024 9.00219 139.027H134.423C136.809 139.024 139.096 138.075 140.783 136.388C142.469 134.702 143.418 132.416 143.42 130.031V17.0964C143.418 14.7125 142.469 12.4269 140.782 10.7413C139.095 9.0556 136.808 8.10765 134.423 8.10547Z" fill="white"/>
<path d="M77.1162 34.0256H63.7172C63.0591 34.0256 62.4279 33.7643 61.9626 33.2993C61.4973 32.8343 61.2358 32.2036 61.2358 31.546C61.2358 30.8884 61.4973 30.2577 61.9626 29.7927C62.4279 29.3276 63.0591 29.0664 63.7172 29.0664H77.1162C77.7743 29.0664 78.4054 29.3276 78.8708 29.7927C79.3361 30.2577 79.5975 30.8884 79.5975 31.546C79.5975 32.2036 79.3361 32.8343 78.8708 33.2993C78.4054 33.7643 77.7743 34.0256 77.1162 34.0256Z" fill="#C5C5C5"/>
<path d="M254.778 147.953H241.379C240.721 147.953 240.09 147.692 239.625 147.227C239.159 146.762 238.898 146.131 238.898 145.474C238.898 144.816 239.159 144.185 239.625 143.72C240.09 143.255 240.721 142.994 241.379 142.994H254.778C255.436 142.994 256.068 143.255 256.533 143.72C256.998 144.185 257.26 144.816 257.26 145.474C257.26 146.131 256.998 146.762 256.533 147.227C256.068 147.692 255.436 147.953 254.778 147.953Z" fill="#C5C5C5"/>
<path d="M111.855 85.964H28.9789C28.3208 85.964 27.6896 85.7028 27.2243 85.2378C26.759 84.7728 26.4976 84.1421 26.4976 83.4845C26.4976 82.8268 26.759 82.1961 27.2243 81.7311C27.6896 81.2661 28.3208 81.0049 28.9789 81.0049H111.855C112.513 81.0049 113.144 81.2661 113.609 81.7311C114.075 82.1961 114.336 82.8268 114.336 83.4845C114.336 84.1421 114.075 84.7728 113.609 85.2378C113.144 85.7028 112.513 85.964 111.855 85.964Z" fill="#E6E6E6"/>
<path d="M111.855 102.329H28.9789C28.3208 102.329 27.6896 102.068 27.2243 101.603C26.759 101.138 26.4976 100.507 26.4976 99.8497C26.4976 99.1921 26.759 98.5614 27.2243 98.0964C27.6896 97.6313 28.3208 97.3701 28.9789 97.3701H111.855C112.513 97.3701 113.144 97.6313 113.609 98.0964C114.075 98.5614 114.336 99.1921 114.336 99.8497C114.336 100.507 114.075 101.138 113.609 101.603C113.144 102.068 112.513 102.329 111.855 102.329Z" fill="#E6E6E6"/>
<path d="M111.855 118.695H28.9789C28.3208 118.695 27.6896 118.433 27.2243 117.968C26.759 117.503 26.4976 116.873 26.4976 116.215C26.4976 115.557 26.759 114.927 27.2243 114.462C27.6896 113.997 28.3208 113.735 28.9789 113.735H111.855C112.513 113.735 113.144 113.997 113.609 114.462C114.075 114.927 114.336 115.557 114.336 116.215C114.336 116.873 114.075 117.503 113.609 117.968C113.144 118.433 112.513 118.695 111.855 118.695Z" fill="#E6E6E6"/>
<path d="M94.9152 41.4653H45.9192C43.5331 41.4673 41.2453 42.4151 39.5576 44.1006C37.87 45.7862 36.9203 48.0719 36.917 50.4563V65.1999C36.9201 67.5848 37.8695 69.8711 39.5571 71.5575C41.2447 73.2439 43.5326 74.1927 45.9192 74.1958H94.9152C97.3012 74.1925 99.5885 73.2435 101.275 71.557C102.962 69.8705 103.91 67.5843 103.912 65.1999V50.4563C103.91 48.0724 102.962 45.7868 101.275 44.1011C99.5879 42.4155 97.3007 41.4675 94.9152 41.4653ZM102.92 65.1999C102.92 67.3227 102.076 69.3585 100.574 70.8596C99.0718 72.3606 97.0345 73.2039 94.9102 73.2039H59.7387C53.9493 73.2039 48.3969 70.9057 44.3031 66.8148C40.2094 62.7239 37.9095 57.1754 37.9095 51.39V50.4563C37.9129 48.335 38.758 46.3016 40.2595 44.802C41.761 43.3025 43.7964 42.4592 45.9192 42.4572H94.9152C97.0375 42.4594 99.0722 43.3029 100.573 44.8025C102.074 46.3022 102.918 48.3355 102.92 50.4563V65.1999Z" fill="#E6E6E6"/>
<path d="M70.9658 63.1517C75.6251 63.1517 79.4022 59.3772 79.4022 54.7211C79.4022 50.065 75.6251 46.2905 70.9658 46.2905C66.3064 46.2905 62.5293 50.065 62.5293 54.7211C62.5293 59.3772 66.3064 63.1517 70.9658 63.1517Z" fill="#E6E6E6"/>
<path d="M90.3745 74.196L52.604 74.0621L64.5143 71.0866L65.9981 66.1919L77.4171 66.1274L80.8364 70.9676L89.4713 73.2042L90.2554 73.4075L90.3745 74.196Z" fill="#E6E6E6"/>
<path d="M66.1711 60.1042C67.9814 58.6901 65.5067 52.4694 68.4963 53.7972C68.4963 53.7972 72.1503 51.4736 72.8844 53.0005C73.7345 54.7686 76.7576 53.9665 78.6145 53.3425C78.4686 53.0034 78.3648 52.6478 78.3056 52.2835C78.6484 52.5534 79.0116 52.7965 79.3918 53.0105C79.6469 52.8743 79.8726 52.6893 80.0562 52.4661C80.2374 52.2588 80.3507 52.0011 80.381 51.7275C80.4113 51.4539 80.357 51.1777 80.2256 50.9358C79.9167 50.4611 79.2789 50.3151 78.9036 49.8935C78.8602 49.8342 78.8318 49.7653 78.821 49.6927C78.8101 49.62 78.8171 49.5459 78.8412 49.4765C78.8859 49.3069 78.8927 49.1295 78.861 48.957C78.8293 48.7844 78.7599 48.621 78.6577 48.4784C78.5556 48.3357 78.4232 48.2173 78.2701 48.1316C78.1169 48.0459 77.9467 47.9951 77.7717 47.9826C77.7012 47.9848 77.6313 47.9695 77.5682 47.9383C77.2531 47.7456 76.962 47.516 76.7012 47.2545C77.1364 47.2744 76.6042 44.6126 72.2899 45.1168C71.2036 45.0769 70.6364 46.2741 69.5668 46.4633C66.974 44.9827 64.6597 47.1184 63.5336 49.1599C62.4075 51.2014 61.1884 57.7806 66.1711 60.1042Z" fill="#E6E6E6"/>
<path d="M134.423 8.10547H9.00219C6.61613 8.10745 4.32829 9.0552 2.64062 10.7408C0.952952 12.4263 0.00330192 14.712 0 17.0964V130.031C0.00310281 132.416 0.952537 134.703 2.6401 136.389C4.32767 138.075 6.61561 139.024 9.00219 139.027H134.423C136.809 139.024 139.096 138.075 140.783 136.388C142.469 134.702 143.418 132.416 143.42 130.031V17.0964C143.418 14.7125 142.469 12.4269 140.782 10.7413C139.095 9.0556 136.808 8.10765 134.423 8.10547ZM142.427 130.031C142.427 132.154 141.583 134.19 140.081 135.691C138.579 137.192 136.542 138.035 134.418 138.035H65.6063C57.1211 138.035 48.719 136.365 40.8797 133.12C33.0404 129.876 25.9174 125.119 19.9175 119.124C13.9175 113.128 9.15809 106.01 5.91094 98.1761C2.6638 90.3423 0.992522 81.946 0.992525 73.4668V17.0964C0.995902 14.9751 1.84102 12.9417 3.34253 11.4422C4.84405 9.94262 6.87939 9.09936 9.00219 9.0973H134.423C136.545 9.09956 138.58 9.94305 140.08 11.4427C141.581 12.9423 142.425 14.9756 142.427 17.0964V130.031Z" fill="#E6E6E6"/>
<path d="M265.454 258.514L108.954 258.666C108.798 258.666 108.648 258.603 108.538 258.492C108.428 258.382 108.366 258.232 108.366 258.076C108.366 257.92 108.428 257.77 108.538 257.659C108.648 257.549 108.798 257.486 108.954 257.485L265.454 257.333C265.61 257.334 265.76 257.396 265.87 257.507C265.98 257.618 266.042 257.767 266.042 257.923C266.042 258.08 265.98 258.229 265.87 258.34C265.76 258.451 265.61 258.513 265.454 258.514Z" fill="#CACACA"/>
</g>
<defs>
<clipPath id="clip0_50_8702">
<rect width="267" height="258" fill="white" transform="translate(0 0.666504)"/>
</clipPath>
</defs>
</svg>
