<svg width="220" height="55" viewBox="0 0 220 55" fill="none" xmlns="http://www.w3.org/2000/svg">
<path d="M219.851 38.4902C218.861 38.3802 218.091 38.1052 217.541 37.8303C216.936 37.5554 216.552 37.2255 216.222 36.8406C215.892 36.4557 215.727 35.9608 215.617 35.4109C215.507 34.8061 215.452 34.2012 215.452 33.4864L215.562 11.217C215.562 11.217 213.472 9.12748 207.479 6.87305C207.534 7.4779 207.479 15.7258 207.479 15.7258L207.424 35.136C207.424 36.6206 207.589 37.9953 207.864 39.205C208.139 40.4147 208.744 41.4594 209.568 42.2842C210.393 43.109 211.603 43.7688 213.032 44.2637C214.462 44.7586 216.167 44.9235 218.476 44.9785L219.851 38.4902Z" fill="#207692"/>
<path d="M200.055 38.2704C199.066 38.1604 198.681 38.0504 198.131 37.8305C197.526 37.5556 197.141 37.2256 196.811 36.8407C196.481 36.4558 196.316 35.961 196.206 35.4111C196.096 34.8062 196.041 34.2014 196.041 33.4866C196.041 33.4866 196.151 8.63279 196.151 2.9692C192.522 1.59454 187.958 0.549805 187.958 0.549805L188.013 35.0812C188.013 36.5658 188.178 37.9405 188.453 39.1502C188.783 40.3599 189.333 41.4046 190.158 42.2294C190.983 43.0542 192.137 43.714 193.622 44.2089C194.667 44.5388 196.701 44.7038 198.241 44.8137C199.506 40.5798 200.055 38.2704 200.055 38.2704Z" fill="#207692"/>
<path d="M163.212 38.0502C162.387 37.5554 161.947 36.6756 161.947 35.4109C161.947 34.7511 162.112 34.2562 162.387 33.8163C162.662 33.3764 163.047 33.0465 163.597 32.7716C164.092 32.4966 164.697 32.3317 165.357 32.2767C166.016 32.1667 166.731 32.1667 167.501 32.1117C168.491 32.1667 169.536 32.4416 170.855 32.8815V38.5451C170.415 38.6551 169.755 38.6551 169.041 38.7101C168.326 38.7651 167.556 38.7651 166.786 38.7651C165.247 38.7651 164.092 38.5451 163.212 38.0502ZM163.267 15.4509C162.332 15.5609 161.508 15.6708 160.628 15.7808C159.748 15.8908 159.033 16.0557 158.318 16.2207C157.604 16.3856 157.054 16.5506 156.559 16.6606L156.614 23.094C157.604 22.7091 160.463 21.9942 161.782 21.8293C163.102 21.6093 164.202 21.4444 165.522 21.4444C167.556 21.4444 168.546 21.9942 169.591 22.819C170.415 23.6438 170.745 25.0735 170.745 26.4481V28.2627C169.865 27.9877 168.601 27.053 165.302 26.888C163.762 26.7781 162.827 26.998 161.398 27.3279C159.968 27.6578 158.703 28.1527 157.604 28.8125C156.504 29.4724 155.569 30.4071 154.909 31.5619C154.249 32.7166 153.919 34.0912 153.919 35.7958C153.919 37.5004 154.194 38.985 154.799 40.1397C155.404 41.2944 156.174 42.2842 157.274 42.999C158.373 43.7138 159.638 44.2637 161.123 44.5936C162.607 44.9235 164.257 45.0885 166.126 45.0885C169.041 45.0885 171.515 44.9235 173.55 44.5936C175.584 44.2637 177.179 43.9338 178.333 43.7138V26.888C178.333 25.1285 178.113 23.5339 177.728 22.1042C177.344 20.6746 176.684 19.4649 175.694 18.4751C174.759 17.4854 173.44 16.7156 171.9 16.1657C170.305 15.6158 168.326 15.3409 165.961 15.3409C165.137 15.2859 164.202 15.3409 163.267 15.4509Z" fill="#207692"/>
<path d="M146.003 18.5303C146.003 18.5303 144.519 18.9702 142.429 19.1901C140.285 19.4101 137.92 18.8602 137.92 18.8602L137.865 44.4288H145.893L146.003 18.5303Z" fill="#207692"/>
<path d="M130.937 16.8258C127.528 15.5062 125.494 15.5062 125.768 15.5611C125.164 15.5062 124.614 15.4512 124.229 15.4512C121.809 15.4512 119.61 15.6711 117.686 16.111C115.761 16.5509 114.056 17.0458 112.572 17.5406V39.4802L120.6 33.9266V22.7094C120.985 22.5994 121.48 22.4894 122.194 22.3794C122.909 22.2695 123.514 22.2145 124.009 22.2145C125.109 22.2145 126.153 22.3245 127.143 22.5444C127.638 22.6544 128.133 22.7643 128.518 22.8743C130.827 18.6954 130.937 16.8258 130.937 16.8258Z" fill="#207692"/>
<path d="M85.9585 32.8268C85.9585 34.6414 86.1235 36.346 86.4534 37.8306C86.7833 39.3152 87.3881 40.6349 88.2679 41.6796C89.1477 42.7244 90.3024 43.5492 91.7321 44.154C93.1617 44.7589 94.9762 45.0338 97.1757 45.0338C98.8803 45.0338 100.365 44.8688 101.575 44.5939C102.784 44.319 103.829 43.9341 104.819 43.5492L104.764 37.1707C102.894 37.8856 99.1552 38.2155 98.4954 38.2155C96.7358 38.2155 95.5261 37.7206 94.9213 36.7309C94.3164 35.7411 94.0415 34.3664 94.0415 32.6619V22.7643C94.0415 22.7643 100.09 21.7746 103.664 20.5099C103.664 18.9153 103.774 18.4204 103.774 15.6711C98.4404 16.221 94.0965 16.111 94.0965 16.111L94.1515 7.09326C94.1515 7.09326 89.4226 8.90781 86.0685 11.2722C86.0135 16.221 86.0685 22.8193 86.0685 22.8193L85.9585 32.8268Z" fill="#207692"/>
<path fill-rule="evenodd" clip-rule="evenodd" d="M178.391 38.4902C178.391 39.8649 178.611 43.384 170.858 44.8686C173.937 44.4288 176.961 43.9339 178.391 43.604" fill="#207692"/>
<path fill-rule="evenodd" clip-rule="evenodd" d="M112.517 40.5799C113.176 40.3049 117.85 38.2705 120.545 34.4214C120.545 32.8268 120.545 31.5071 120.545 30.4624C116.036 33.4317 113.011 34.8063 112.517 34.9713" fill="#CCD8DF"/>
<path fill-rule="evenodd" clip-rule="evenodd" d="M137.644 10.4473C137.644 10.4473 141.768 11.8769 146.057 10.4473C146.057 10.9971 146.002 12.3168 146.002 12.9766C144.683 13.4165 141.658 15.2861 137.589 13.9664" fill="#CCD8DF"/>
<path fill-rule="evenodd" clip-rule="evenodd" d="M42.6826 52.7319C39.8233 49.8176 35.2595 49.8176 32.3452 52.7319C32.3452 49.4877 32.3452 46.0236 32.3452 42.6694C35.2595 45.6387 39.7684 45.6387 42.6826 42.6694" fill="#207692"/>
<path fill-rule="evenodd" clip-rule="evenodd" d="M47.6865 40.5801C51.6455 40.5801 54.7797 43.7693 54.7797 47.6733C54.7797 51.6323 51.5905 54.7665 47.6865 54.7665C43.7275 54.7665 40.5933 51.5773 40.5933 47.6733C40.5933 43.7693 43.7825 40.5801 47.6865 40.5801Z" fill="#207692"/>
<path fill-rule="evenodd" clip-rule="evenodd" d="M42.6826 32.4419C39.8233 29.5276 35.2595 29.5276 32.3452 32.4419C32.3452 29.1977 32.3452 25.7336 32.3452 22.3794C35.2595 25.3487 39.7684 25.3487 42.6826 22.3794" fill="#207692"/>
<path fill-rule="evenodd" clip-rule="evenodd" d="M47.6865 20.29C51.6455 20.29 54.7797 23.4792 54.7797 27.3833C54.7797 31.2873 51.6455 34.5315 47.6865 34.5315C43.7275 34.5315 40.5933 31.3423 40.5933 27.4383C40.5933 23.4792 43.7825 20.29 47.6865 20.29Z" fill="#207692"/>
<path fill-rule="evenodd" clip-rule="evenodd" d="M47.6865 0C51.6455 0 54.8347 3.1892 54.8347 7.09323C54.8347 10.9973 51.6455 14.2414 47.6865 14.2414C43.7275 14.2414 40.5933 11.0522 40.5933 7.14821C40.5933 3.24419 43.7825 0 47.6865 0Z" fill="#207692"/>
<path fill-rule="evenodd" clip-rule="evenodd" d="M27.3979 40.5801C31.3569 40.5801 34.4911 43.7693 34.4911 47.6733C34.4911 51.6323 31.3019 54.7665 27.3979 54.7665C23.4939 54.7665 20.3047 51.6323 20.3047 47.7283C20.3047 43.7693 23.4939 40.5801 27.3979 40.5801Z" fill="#207692"/>
<path fill-rule="evenodd" clip-rule="evenodd" d="M32.4565 32.3867C29.5423 35.246 29.5423 39.8099 32.4565 42.7241C29.2123 42.7241 25.7482 42.7241 22.394 42.7241C25.3633 39.8099 25.3633 35.301 22.394 32.3867" fill="#207692"/>
<path fill-rule="evenodd" clip-rule="evenodd" d="M27.3979 20.29C31.3569 20.29 34.4911 23.4792 34.4911 27.3833C34.4911 31.2873 31.3019 34.4765 27.3979 34.4765C23.4939 34.4765 20.3047 31.3423 20.3047 27.3833C20.3047 23.4792 23.4939 20.29 27.3979 20.29Z" fill="#207692"/>
<path fill-rule="evenodd" clip-rule="evenodd" d="M32.4565 12.1519C29.5423 15.0111 29.5423 19.575 32.4565 22.4893C29.2123 22.4893 25.7482 22.4893 22.394 22.4893C25.3633 19.575 25.3633 15.0661 22.394 12.1519" fill="#207692"/>
<path fill-rule="evenodd" clip-rule="evenodd" d="M27.3979 0C31.3569 0 34.4911 3.1892 34.4911 7.09323C34.4911 10.9973 31.3019 14.1865 27.3979 14.1865C23.4939 14.1865 20.3047 11.0522 20.3047 7.09323C20.3047 3.13422 23.4939 0 27.3979 0Z" fill="#207692"/>
<path fill-rule="evenodd" clip-rule="evenodd" d="M7.10543 20.29C11.0644 20.29 14.1987 23.4792 14.1987 27.3833C14.1987 31.2873 11.0095 34.5315 7.10543 34.5315C3.20141 34.5315 0.012207 31.3423 0.012207 27.3833C0.012207 23.4792 3.14642 20.29 7.10543 20.29Z" fill="#207692"/>
<path fill-rule="evenodd" clip-rule="evenodd" d="M2.10322 42.8342C4.90752 40.0299 9.36141 40.0299 12.1657 42.8342C14.915 45.5835 14.915 50.0924 12.1657 52.8967C9.36141 55.701 4.90752 55.701 2.10322 52.8967C-0.701075 50.1474 -0.701075 45.6385 2.10322 42.8342Z" fill="#207692"/>
<path d="M2.10322 42.8342C4.90752 40.0299 9.36141 40.0299 12.1657 42.8342C14.915 45.5835 14.915 50.0924 12.1657 52.8967C9.36141 55.701 4.90752 55.701 2.10322 52.8967C-0.701075 50.1474 -0.701075 45.6385 2.10322 42.8342Z" fill="#207692"/>
<mask id="mask0_147_735" style="mask-type:luminance" maskUnits="userSpaceOnUse" x="0" y="40" width="15" height="15">
<path d="M2.10322 42.8342C4.90752 40.0299 9.36141 40.0299 12.1657 42.8342C14.915 45.5835 14.915 50.0924 12.1657 52.8967C9.36141 55.701 4.90752 55.701 2.10322 52.8967C-0.701075 50.1474 -0.701075 45.6385 2.10322 42.8342Z" fill="white"/>
</mask>
<g mask="url(#mask0_147_735)">
<path d="M10.7915 53.9412C2.87348 53.0615 1.82874 44.7585 7.21739 40.7445L3.36835 36.8955L-12.3027 50.807C-12.2477 50.807 2.32361 58.7251 10.7915 53.9412Z" fill="#207692"/>
</g>
<path fill-rule="evenodd" clip-rule="evenodd" d="M7.10739 0C11.0664 0 14.2006 3.1892 14.2006 7.09323C14.2006 10.9973 11.0114 14.2414 7.10739 14.2414C3.20336 14.2414 0.0141602 11.0522 0.0141602 7.09323C0.0141602 3.13422 3.14838 0 7.10739 0Z" fill="#207692"/>
<path d="M7.10739 0C11.0664 0 14.2006 3.1892 14.2006 7.09323C14.2006 10.9973 11.0114 14.2414 7.10739 14.2414C3.20336 14.2414 0.0141602 11.0522 0.0141602 7.09323C0.0141602 3.13422 3.14838 0 7.10739 0Z" fill="#207692"/>
<mask id="mask1_147_735" style="mask-type:luminance" maskUnits="userSpaceOnUse" x="0" y="0" width="15" height="15">
<path d="M7.10739 0C11.0664 0 14.2006 3.1892 14.2006 7.09323C14.2006 10.9973 11.0114 14.2414 7.10739 14.2414C3.20336 14.2414 0.0141602 11.0522 0.0141602 7.09323C0.0141602 3.13422 3.14838 0 7.10739 0Z" fill="white"/>
</mask>
<g mask="url(#mask1_147_735)">
<path d="M5.45782 14.0216C0.509054 7.75315 5.56779 1.20978 12.2761 2.19953V-3.24411L-8.61867 -4.50879C-8.67365 -4.50879 -3.94483 11.3822 5.45782 14.0216Z" fill="#207692"/>
</g>
</svg>
